#usda 1.0
(
    defaultPrim = "Robot"
    metersPerUnit = 1
    upAxis = "Z"
)

def Xform "Robot" (
    prepend references = @scout.usd@
)
{
    over "base_link"
    {
        over "visual"
        {
            over "yellow" (
                active = false
            )
            {
            }

            def Xform "creeper_face" (
                prepend references = @components/scout_creeper_face.usda@
            )
            {
            }

            over "screen"
            {
                float3[] extent = [(-0.2265761, -0.1015, 0.36077264), (-0.1954239, 0.1015, 0.47922736)]
                int[] faceVertexCounts = [3, 3, 3, 3, 3, 3, 3, 3, 3, 3, 3, 3, 3, 3, 3, 3, 3, 3, 3, 3, 3, 3, 3, 3, 3, 3, 3, 3, 3, 3, 3, 3, 3, 3, 3, 3, 3, 3, 3, 3, 3, 3, 3, 3, 3, 3, 3, 3, 3, 3, 3, 3, 3, 3, 3, 3, 3, 3, 3, 3, 3, 3, 3, 3, 3, 3, 3, 3, 3, 3, 3, 3, 3, 3, 3, 3, 3, 3, 3, 3, 3, 3, 3, 3, 3, 3, 3, 3, 3, 3, 3, 3, 3, 3, 3, 3, 3, 3, 3, 3, 3, 3, 3, 3, 3, 3, 3, 3, 3, 3, 3, 3, 3, 3, 3, 3, 3, 3, 3, 3, 3, 3, 3, 3, 3, 3, 3, 3, 3, 3, 3, 3, 3, 3, 3, 3, 3, 3, 3, 3, 3, 3, 3, 3, 3, 3, 3, 3, 3, 3, 3, 3, 3, 3, 3, 3, 3, 3, 3, 3, 3, 3, 3, 3, 3, 3, 3, 3, 3, 3, 3, 3, 3, 3, 3, 3, 3, 3, 3, 3, 3, 3, 3, 3, 3, 3, 3, 3, 3, 3, 3, 3, 3, 3, 3, 3, 3, 3, 3, 3, 3, 3, 3, 3, 3, 3, 3, 3]
                int[] faceVertexIndices = [0, 1, 2, 3, 4, 5, 6, 7, 8, 9, 10, 11, 12, 13, 14, 15, 16, 17, 18, 19, 20, 21, 22, 23, 24, 25, 26, 27, 28, 29, 30, 31, 32, 33, 34, 35, 36, 37, 38, 39, 40, 41, 42, 43, 44, 45, 46, 47, 48, 49, 50, 51, 52, 53, 54, 55, 56, 57, 58, 59, 60, 61, 62, 63, 64, 65, 66, 67, 68, 69, 70, 71, 72, 73, 74, 75, 76, 77, 78, 79, 80, 81, 82, 83, 84, 85, 86, 87, 88, 89, 90, 91, 92, 93, 94, 95, 96, 97, 98, 99, 100, 101, 102, 103, 104, 105, 106, 107, 108, 109, 110, 111, 112, 113, 114, 115, 116, 117, 118, 119, 120, 121, 122, 123, 124, 125, 126, 127, 128, 129, 130, 131, 132, 133, 134, 135, 136, 137, 138, 139, 140, 141, 142, 143, 144, 145, 146, 147, 148, 149, 150, 151, 152, 153, 154, 155, 156, 157, 158, 159, 160, 161, 162, 163, 164, 165, 166, 167, 168, 169, 170, 171, 172, 173, 174, 175, 176, 177, 178, 179, 180, 181, 182, 183, 184, 185, 186, 187, 188, 189, 190, 191, 192, 193, 194, 195, 196, 197, 198, 199, 200, 201, 202, 203, 204, 205, 206, 207, 208, 209, 210, 211, 212, 213, 214, 215, 216, 217, 218, 219, 220, 221, 222, 223, 224, 225, 226, 227, 228, 229, 230, 231, 232, 233, 234, 235, 236, 237, 238, 239, 240, 241, 242, 243, 244, 245, 246, 247, 248, 249, 250, 251, 252, 253, 254, 255, 256, 257, 258, 259, 260, 261, 262, 263, 264, 265, 266, 267, 268, 269, 270, 271, 272, 273, 274, 275, 276, 277, 278, 279, 280, 281, 282, 283, 284, 285, 286, 287, 288, 289, 290, 291, 292, 293, 294, 295, 296, 297, 298, 299, 300, 301, 302, 303, 304, 305, 306, 307, 308, 309, 310, 311, 312, 313, 314, 315, 316, 317, 318, 319, 320, 321, 322, 323, 324, 325, 326, 327, 328, 329, 330, 331, 332, 333, 334, 335, 336, 337, 338, 339, 340, 341, 342, 343, 344, 345, 346, 347, 348, 349, 350, 351, 352, 353, 354, 355, 356, 357, 358, 359, 360, 361, 362, 363, 364, 365, 366, 367, 368, 369, 370, 371, 372, 373, 374, 375, 376, 377, 378, 379, 380, 381, 382, 383, 384, 385, 386, 387, 388, 389, 390, 391, 392, 393, 394, 395, 396, 397, 398, 399, 400, 401, 402, 403, 404, 405, 406, 407, 408, 409, 410, 411, 412, 413, 414, 415, 416, 417, 418, 419, 420, 421, 422, 423, 424, 425, 426, 427, 428, 429, 430, 431, 432, 433, 434, 435, 436, 437, 438, 439, 440, 441, 442, 443, 444, 445, 446, 447, 448, 449, 450, 451, 452, 453, 454, 455, 456, 457, 458, 459, 460, 461, 462, 463, 464, 465, 466, 467, 468, 469, 470, 471, 472, 473, 474, 475, 476, 477, 478, 479, 480, 481, 482, 483, 484, 485, 486, 487, 488, 489, 490, 491, 492, 493, 494, 495, 496, 497, 498, 499, 500, 501, 502, 503, 504, 505, 506, 507, 508, 509, 510, 511, 512, 513, 514, 515, 516, 517, 518, 519, 520, 521, 522, 523, 524, 525, 526, 527, 528, 529, 530, 531, 532, 533, 534, 535, 536, 537, 538, 539, 540, 541, 542, 543, 544, 545, 546, 547, 548, 549, 550, 551, 552, 553, 554, 555, 556, 557, 558, 559, 560, 561, 562, 563, 564, 565, 566, 567, 568, 569, 570, 571, 572, 573, 574, 575, 576, 577, 578, 579, 580, 581, 582, 583, 584, 585, 586, 587, 588, 589, 590, 591, 592, 593, 594, 595, 596, 597, 598, 599, 600, 601, 602, 603, 604, 605, 606, 607, 608, 609, 610, 611, 612, 613, 614, 615, 616, 617, 618, 619, 620, 621, 622, 623]
                normal3f[] normals = [(-0.9689124, -2.2493699e-14, -0.24740396), (-0.9689124, -2.2493699e-14, -0.24740396), (-0.9689124, -2.2493699e-14, -0.24740396), (0.9689124, 3.0402441e-15, 0.24740396), (0.9689124, 3.0402441e-15, 0.24740396), (0.9689124, 3.0402441e-15, 0.24740396), (-0.016180994, 0.99785894, 0.06336991), (-0.016180994, 0.99785894, 0.06336991), (-0.016180994, 0.99785894, 0.06336991), (-0.016180994, 0.99785894, 0.06336991), (-0.016180994, 0.99785894, 0.06336991), (-0.016180994, 0.99785894, 0.06336991), (-0.9689124, -5.7797907e-15, -0.24740396), (-0.9689124, -5.7797907e-15, -0.24740396), (-0.9689124, -5.7797907e-15, -0.24740396), (0.9689124, 5.7992513e-15, 0.24740396), (0.9689124, 5.7992513e-15, 0.24740396), (0.9689124, 5.7992513e-15, 0.24740396), (-0.048266117, 0.98078525, 0.18902543), (-0.048266117, 0.98078525, 0.18902543), (-0.048266117, 0.98078525, 0.18902543), (-0.048266117, 0.98078525, 0.18902543), (-0.048266117, 0.98078525, 0.18902543), (-0.048266117, 0.98078525, 0.18902543), (-0.9689124, 1.7337865e-14, -0.24740396), (-0.9689124, 1.7337865e-14, -0.24740396), (-0.9689124, 1.7337865e-14, -0.24740396), (0.9689124, -1.7337865e-14, 0.24740396), (0.9689124, -1.7337865e-14, 0.24740396), (0.9689124, -1.7337865e-14, 0.24740396), (-0.079525396, 0.9469301, 0.3114467), (-0.079525396, 0.9469301, 0.3114467), (-0.079525396, 0.9469301, 0.3114467), (-0.079525396, 0.9469301, 0.3114467), (-0.079525396, 0.9469301, 0.3114467), (-0.079525396, 0.9469301, 0.3114467), (-0.9689124, 1.7952336e-14, -0.24740396), (-0.9689124, 1.7952336e-14, -0.24740396), (-0.9689124, 1.7952336e-14, -0.24740396), (0.9689124, -2.767575e-16, 0.24740396), (0.9689124, -2.767575e-16, 0.24740396), (0.9689124, -2.767575e-16, 0.24740396), (-0.10942397, 0.89687276, 0.428539), (-0.10942397, 0.89687276, 0.428539), (-0.10942397, 0.89687276, 0.428539), (-0.10942397, 0.89687276, 0.428539), (-0.10942397, 0.89687276, 0.428539), (-0.10942397, 0.89687276, 0.428539), (-0.9689124, -1.9075377e-14, -0.24740396), (-0.9689124, -1.9075377e-14, -0.24740396), (-0.9689124, -1.9075377e-14, -0.24740396), (0.9689124, 1.1795403e-15, 0.24740396), (0.9689124, 1.1795403e-15, 0.24740396), (0.9689124, 1.1795403e-15, 0.24740396), (-0.13745028, 0.8314696, 0.5382989), (-0.13745028, 0.8314696, 0.5382989), (-0.13745028, 0.8314696, 0.5382989), (-0.13745028, 0.8314696, 0.5382989), (-0.13745028, 0.8314696, 0.5382989), (-0.13745028, 0.8314696, 0.5382989), (-0.9689124, 4.0439487e-15, -0.24740396), (-0.9689124, 4.0439487e-15, -0.24740396), (-0.9689124, 4.0439487e-15, -0.24740396), (0.9689124, 1.4116377e-14, 0.24740396), (0.9689124, 1.4116377e-14, 0.24740396), (0.9689124, 1.4116377e-14, 0.24740396), (-0.16312477, 0.7518398, 0.63884836), (-0.16312477, 0.7518398, 0.63884836), (-0.16312477, 0.7518398, 0.63884836), (-0.16312477, 0.7518398, 0.63884836), (-0.16312477, 0.7518398, 0.63884836), (-0.16312477, 0.7518398, 0.63884836), (-0.9689124, 7.140416e-15, -0.24740396), (-0.9689124, 7.140416e-15, -0.24740396), (-0.9689124, 7.140416e-15, -0.24740396), (0.9689124, -2.6094446e-14, 0.24740396), (0.9689124, -2.6094446e-14, 0.24740396), (0.9689124, -2.6094446e-14, 0.24740396), (-0.18600814, 0.6593458, 0.7284669), (-0.18600814, 0.6593458, 0.7284669), (-0.18600814, 0.6593458, 0.7284669), (-0.18600814, 0.6593458, 0.7284669), (-0.18600814, 0.6593458, 0.7284669), (-0.18600814, 0.6593458, 0.7284669), (-0.9689124, 1.9049868e-15, -0.24740396), (-0.9689124, 1.9049868e-15, -0.24740396), (-0.9689124, 1.9049868e-15, -0.24740396), (0.9689124, 1.8041346e-14, 0.24740396), (0.9689124, 1.8041346e-14, 0.24740396), (0.9689124, 1.8041346e-14, 0.24740396), (-0.20570888, 0.55557024, 0.8056212), (-0.20570888, 0.55557024, 0.8056212), (-0.20570888, 0.55557024, 0.8056212), (-0.20570888, 0.55557024, 0.8056212), (-0.20570888, 0.55557024, 0.8056212), (-0.20570888, 0.55557024, 0.8056212), (-0.9689124, -5.594523e-15, -0.24740396), (-0.9689124, -5.594523e-15, -0.24740396), (-0.9689124, -5.594523e-15, -0.24740396), (0.9689124, 5.5288335e-15, 0.24740396), (0.9689124, 5.5288335e-15, 0.24740396), (0.9689124, 5.5288335e-15, 0.24740396), (-0.22188987, 0.4422887, 0.86899114), (-0.22188987, 0.4422887, 0.86899114), (-0.22188987, 0.4422887, 0.86899114), (-0.22188987, 0.4422887, 0.86899114), (-0.22188987, 0.4422887, 0.86899114), (-0.22188987, 0.4422887, 0.86899114), (-0.9689124, -4.0331382e-14, -0.24740396), (-0.9689124, -4.0331382e-14, -0.24740396), (-0.9689124, -4.0331382e-14, -0.24740396), (0.9689124, -2.995787e-14, 0.24740396), (0.9689124, -2.995787e-14, 0.24740396), (0.9689124, -2.995787e-14, 0.24740396), (-0.23427427, 0.32143947, 0.9174924), (-0.23427427, 0.32143947, 0.9174924), (-0.23427427, 0.32143947, 0.9174924), (-0.23427427, 0.32143947, 0.9174924), (-0.23427427, 0.32143947, 0.9174924), (-0.23427427, 0.32143947, 0.9174924), (-0.9689124, 4.693827e-14, -0.24740396), (-0.9689124, 4.693827e-14, -0.24740396), (-0.9689124, 4.693827e-14, -0.24740396), (0.9689124, 3.2843143e-14, 0.24740396), (0.9689124, 3.2843143e-14, 0.24740396), (0.9689124, 3.2843143e-14, 0.24740396), (-0.24265017, 0.19509032, 0.95029503), (-0.24265017, 0.19509032, 0.95029503), (-0.24265017, 0.19509032, 0.95029503), (-0.24265017, 0.19509032, 0.95029503), (-0.24265017, 0.19509032, 0.95029503), (-0.24265017, 0.19509032, 0.95029503), (-0.9689124, -5.949462e-14, -0.24740396), (-0.9689124, -5.949462e-14, -0.24740396), (-0.9689124, -5.949462e-14, -0.24740396), (0.9689124, -3.4299844e-14, 0.24740396), (0.9689124, -3.4299844e-14, 0.24740396), (0.9689124, -3.4299844e-14, 0.24740396), (-0.24687424, 0.065403126, 0.9668379), (-0.24687424, 0.065403126, 0.9668379), (-0.24687424, 0.065403126, 0.9668379), (-0.24687424, 0.065403126, 0.9668379), (-0.24687424, 0.065403126, 0.9668379), (-0.24687424, 0.065403126, 0.9668379), (-0.9689124, 0, -0.24740396), (-0.9689124, 0, -0.24740396), (-0.9689124, 0, -0.24740396), (0.9689124, 0, 0.24740396), (0.9689124, 0, 0.24740396), (0.9689124, 0, 0.24740396), (-0.24740396, 0, 0.9689124), (-0.24740396, 0, 0.9689124), (-0.24740396, 0, 0.9689124), (-0.24740396, 0, 0.9689124), (-0.24740396, 0, 0.9689124), (-0.24740396, 0, 0.9689124), (-0.9689124, 5.949462e-14, -0.24740396), (-0.9689124, 5.949462e-14, -0.24740396), (-0.9689124, 5.949462e-14, -0.24740396), (0.9689124, 3.430185e-14, 0.24740396), (0.9689124, 3.430185e-14, 0.24740396), (0.9689124, 3.430185e-14, 0.24740396), (-0.24687424, -0.065403126, 0.9668379), (-0.24687424, -0.065403126, 0.9668379), (-0.24687424, -0.065403126, 0.9668379), (-0.24687424, -0.065403126, 0.9668379), (-0.24687424, -0.065403126, 0.9668379), (-0.24687424, -0.065403126, 0.9668379), (-0.9689124, -4.693145e-14, -0.24740396), (-0.9689124, -4.693145e-14, -0.24740396), (-0.9689124, -4.693145e-14, -0.24740396), (0.9689124, -3.2836323e-14, 0.24740396), (0.9689124, -3.2836323e-14, 0.24740396), (0.9689124, -3.2836323e-14, 0.24740396), (-0.24265017, -0.19509032, 0.95029503), (-0.24265017, -0.19509032, 0.95029503), (-0.24265017, -0.19509032, 0.95029503), (-0.24265017, -0.19509032, 0.95029503), (-0.24265017, -0.19509032, 0.95029503), (-0.24265017, -0.19509032, 0.95029503), (-0.9689124, 4.0331382e-14, -0.24740396), (-0.9689124, 4.0331382e-14, -0.24740396), (-0.9689124, 4.0331382e-14, -0.24740396), (0.9689124, 2.995787e-14, 0.24740396), (0.9689124, 2.995787e-14, 0.24740396), (0.9689124, 2.995787e-14, 0.24740396), (-0.23427427, -0.32143947, 0.9174924), (-0.23427427, -0.32143947, 0.9174924), (-0.23427427, -0.32143947, 0.9174924), (-0.23427427, -0.32143947, 0.9174924), (-0.23427427, -0.32143947, 0.9174924), (-0.23427427, -0.32143947, 0.9174924), (-0.9689124, 5.5835747e-15, -0.24740396), (-0.9689124, 5.5835747e-15, -0.24740396), (-0.9689124, 5.5835747e-15, -0.24740396), (0.9689124, -5.5288335e-15, 0.24740396), (0.9689124, -5.5288335e-15, 0.24740396), (0.9689124, -5.5288335e-15, 0.24740396), (-0.22188987, -0.4422887, 0.86899114), (-0.22188987, -0.4422887, 0.86899114), (-0.22188987, -0.4422887, 0.86899114), (-0.22188987, -0.4422887, 0.86899114), (-0.22188987, -0.4422887, 0.86899114), (-0.22188987, -0.4422887, 0.86899114), (-0.9689124, -1.9049868e-15, -0.24740396), (-0.9689124, -1.9049868e-15, -0.24740396), (-0.9689124, -1.9049868e-15, -0.24740396), (0.9689124, -1.8041346e-14, 0.24740396), (0.9689124, -1.8041346e-14, 0.24740396), (0.9689124, -1.8041346e-14, 0.24740396), (-0.20570888, -0.55557024, 0.8056212), (-0.20570888, -0.55557024, 0.8056212), (-0.20570888, -0.55557024, 0.8056212), (-0.20570888, -0.55557024, 0.8056212), (-0.20570888, -0.55557024, 0.8056212), (-0.20570888, -0.55557024, 0.8056212), (-0.9689124, -7.140416e-15, -0.24740396), (-0.9689124, -7.140416e-15, -0.24740396), (-0.9689124, -7.140416e-15, -0.24740396), (0.9689124, 2.608477e-14, 0.24740396), (0.9689124, 2.608477e-14, 0.24740396), (0.9689124, 2.608477e-14, 0.24740396), (-0.18600814, -0.6593458, 0.7284669), (-0.18600814, -0.6593458, 0.7284669), (-0.18600814, -0.6593458, 0.7284669), (-0.18600814, -0.6593458, 0.7284669), (-0.18600814, -0.6593458, 0.7284669), (-0.18600814, -0.6593458, 0.7284669), (-0.9689124, -4.0439487e-15, -0.24740396), (-0.9689124, -4.0439487e-15, -0.24740396), (-0.9689124, -4.0439487e-15, -0.24740396), (0.9689124, -1.4097655e-14, 0.24740396), (0.9689124, -1.4097655e-14, 0.24740396), (0.9689124, -1.4097655e-14, 0.24740396), (-0.16312477, -0.7518398, 0.63884836), (-0.16312477, -0.7518398, 0.63884836), (-0.16312477, -0.7518398, 0.63884836), (-0.16312477, -0.7518398, 0.63884836), (-0.16312477, -0.7518398, 0.63884836), (-0.16312477, -0.7518398, 0.63884836), (-0.9689124, 1.9056947e-14, -0.24740396), (-0.9689124, 1.9056947e-14, -0.24740396), (-0.9689124, 1.9056947e-14, -0.24740396), (0.9689124, -1.1979706e-15, 0.24740396), (0.9689124, -1.1979706e-15, 0.24740396), (0.9689124, -1.1979706e-15, 0.24740396), (-0.13745028, -0.8314696, 0.5382989), (-0.13745028, -0.8314696, 0.5382989), (-0.13745028, -0.8314696, 0.5382989), (-0.13745028, -0.8314696, 0.5382989), (-0.13745028, -0.8314696, 0.5382989), (-0.13745028, -0.8314696, 0.5382989), (-0.9689124, -1.7970787e-14, -0.24740396), (-0.9689124, -1.7970787e-14, -0.24740396), (-0.9689124, -1.7970787e-14, -0.24740396), (0.9689124, 2.767575e-16, 0.24740396), (0.9689124, 2.767575e-16, 0.24740396), (0.9689124, 2.767575e-16, 0.24740396), (-0.10942397, -0.89687276, 0.428539), (-0.10942397, -0.89687276, 0.428539), (-0.10942397, -0.89687276, 0.428539), (-0.10942397, -0.89687276, 0.428539), (-0.10942397, -0.89687276, 0.428539), (-0.10942397, -0.89687276, 0.428539), (-0.9689124, -1.7337865e-14, -0.24740396), (-0.9689124, -1.7337865e-14, -0.24740396), (-0.9689124, -1.7337865e-14, -0.24740396), (0.9689124, 1.7337865e-14, 0.24740396), (0.9689124, 1.7337865e-14, 0.24740396), (0.9689124, 1.7337865e-14, 0.24740396), (-0.079525396, -0.9469301, 0.3114467), (-0.079525396, -0.9469301, 0.3114467), (-0.079525396, -0.9469301, 0.3114467), (-0.079525396, -0.9469301, 0.3114467), (-0.079525396, -0.9469301, 0.3114467), (-0.079525396, -0.9469301, 0.3114467), (-0.9689124, 5.7992513e-15, -0.24740396), (-0.9689124, 5.7992513e-15, -0.24740396), (-0.9689124, 5.7992513e-15, -0.24740396), (0.9689124, -5.7797907e-15, 0.24740396), (0.9689124, -5.7797907e-15, 0.24740396), (0.9689124, -5.7797907e-15, 0.24740396), (-0.048266117, -0.98078525, 0.18902543), (-0.048266117, -0.98078525, 0.18902543), (-0.048266117, -0.98078525, 0.18902543), (-0.048266117, -0.98078525, 0.18902543), (-0.048266117, -0.98078525, 0.18902543), (-0.048266117, -0.98078525, 0.18902543), (-0.9689124, 2.2493699e-14, -0.24740396), (-0.9689124, 2.2493699e-14, -0.24740396), (-0.9689124, 2.2493699e-14, -0.24740396), (0.9689124, -3.0402441e-15, 0.24740396), (0.9689124, -3.0402441e-15, 0.24740396), (0.9689124, -3.0402441e-15, 0.24740396), (-0.016180994, -0.99785894, 0.06336991), (-0.016180994, -0.99785894, 0.06336991), (-0.016180994, -0.99785894, 0.06336991), (-0.016180994, -0.99785894, 0.06336991), (-0.016180994, -0.99785894, 0.06336991), (-0.016180994, -0.99785894, 0.06336991), (-0.9689124, 7.366755e-17, -0.24740396), (-0.9689124, 7.366755e-17, -0.24740396), (-0.9689124, 7.366755e-17, -0.24740396), (0.9689124, 7.366755e-17, 0.24740396), (0.9689124, 7.366755e-17, 0.24740396), (0.9689124, 7.366755e-17, 0.24740396), (0, -1, 0), (0, -1, 0), (0, -1, 0), (0, -1, 0), (0, -1, 0), (0, -1, 0), (-0.9689124, -3.0402441e-15, -0.24740396), (-0.9689124, -3.0402441e-15, -0.24740396), (-0.9689124, -3.0402441e-15, -0.24740396), (0.9689124, 2.2493699e-14, 0.24740396), (0.9689124, 2.2493699e-14, 0.24740396), (0.9689124, 2.2493699e-14, 0.24740396), (0.016180994, -0.99785894, -0.06336991), (0.016180994, -0.99785894, -0.06336991), (0.016180994, -0.99785894, -0.06336991), (0.016180994, -0.99785894, -0.06336991), (0.016180994, -0.99785894, -0.06336991), (0.016180994, -0.99785894, -0.06336991), (-0.9689124, -5.7797907e-15, -0.24740396), (-0.9689124, -5.7797907e-15, -0.24740396), (-0.9689124, -5.7797907e-15, -0.24740396), (0.9689124, 5.7992513e-15, 0.24740396), (0.9689124, 5.7992513e-15, 0.24740396), (0.9689124, 5.7992513e-15, 0.24740396), (0.048266117, -0.98078525, -0.18902543), (0.048266117, -0.98078525, -0.18902543), (0.048266117, -0.98078525, -0.18902543), (0.048266117, -0.98078525, -0.18902543), (0.048266117, -0.98078525, -0.18902543), (0.048266117, -0.98078525, -0.18902543), (-0.9689124, 1.7337865e-14, -0.24740396), (-0.9689124, 1.7337865e-14, -0.24740396), (-0.9689124, 1.7337865e-14, -0.24740396), (0.9689124, -1.7337865e-14, 0.24740396), (0.9689124, -1.7337865e-14, 0.24740396), (0.9689124, -1.7337865e-14, 0.24740396), (0.079525396, -0.9469301, -0.3114467), (0.079525396, -0.9469301, -0.3114467), (0.079525396, -0.9469301, -0.3114467), (0.079525396, -0.9469301, -0.3114467), (0.079525396, -0.9469301, -0.3114467), (0.079525396, -0.9469301, -0.3114467), (-0.9689124, 2.767575e-16, -0.24740396), (-0.9689124, 2.767575e-16, -0.24740396), (-0.9689124, 2.767575e-16, -0.24740396), (0.9689124, -1.7970787e-14, 0.24740396), (0.9689124, -1.7970787e-14, 0.24740396), (0.9689124, -1.7970787e-14, 0.24740396), (0.10942397, -0.89687276, -0.428539), (0.10942397, -0.89687276, -0.428539), (0.10942397, -0.89687276, -0.428539), (0.10942397, -0.89687276, -0.428539), (0.10942397, -0.89687276, -0.428539), (0.10942397, -0.89687276, -0.428539), (-0.9689124, -1.1979706e-15, -0.24740396), (-0.9689124, -1.1979706e-15, -0.24740396), (-0.9689124, -1.1979706e-15, -0.24740396), (0.9689124, 1.9056947e-14, 0.24740396), (0.9689124, 1.9056947e-14, 0.24740396), (0.9689124, 1.9056947e-14, 0.24740396), (0.13745028, -0.8314696, -0.5382989), (0.13745028, -0.8314696, -0.5382989), (0.13745028, -0.8314696, -0.5382989), (0.13745028, -0.8314696, -0.5382989), (0.13745028, -0.8314696, -0.5382989), (0.13745028, -0.8314696, -0.5382989), (-0.9689124, -1.4097655e-14, -0.24740396), (-0.9689124, -1.4097655e-14, -0.24740396), (-0.9689124, -1.4097655e-14, -0.24740396), (0.9689124, -4.0439487e-15, 0.24740396), (0.9689124, -4.0439487e-15, 0.24740396), (0.9689124, -4.0439487e-15, 0.24740396), (0.16312477, -0.7518398, -0.63884836), (0.16312477, -0.7518398, -0.63884836), (0.16312477, -0.7518398, -0.63884836), (0.16312477, -0.7518398, -0.63884836), (0.16312477, -0.7518398, -0.63884836), (0.16312477, -0.7518398, -0.63884836), (-0.9689124, 2.608477e-14, -0.24740396), (-0.9689124, 2.608477e-14, -0.24740396), (-0.9689124, 2.608477e-14, -0.24740396), (0.9689124, 2.9790433e-14, 0.24740396), (0.9689124, 2.9790433e-14, 0.24740396), (0.9689124, 2.9790433e-14, 0.24740396), (0.18600814, -0.6593458, -0.7284669), (0.18600814, -0.6593458, -0.7284669), (0.18600814, -0.6593458, -0.7284669), (0.18600814, -0.6593458, -0.7284669), (0.18600814, -0.6593458, -0.7284669), (0.18600814, -0.6593458, -0.7284669), (-0.9689124, -1.8041346e-14, -0.24740396), (-0.9689124, -1.8041346e-14, -0.24740396), (-0.9689124, -1.8041346e-14, -0.24740396), (0.9689124, -4.110493e-14, 0.24740396), (0.9689124, -4.110493e-14, 0.24740396), (0.9689124, -4.110493e-14, 0.24740396), (0.20570888, -0.55557024, -0.8056212), (0.20570888, -0.55557024, -0.8056212), (0.20570888, -0.55557024, -0.8056212), (0.20570888, -0.55557024, -0.8056212), (0.20570888, -0.55557024, -0.8056212), (0.20570888, -0.55557024, -0.8056212), (-0.9689124, -5.5288335e-15, -0.24740396), (-0.9689124, -5.5288335e-15, -0.24740396), (-0.9689124, -5.5288335e-15, -0.24740396), (0.9689124, 5.5835747e-15, 0.24740396), (0.9689124, 5.5835747e-15, 0.24740396), (0.9689124, 5.5835747e-15, 0.24740396), (0.22188987, -0.4422887, -0.86899114), (0.22188987, -0.4422887, -0.86899114), (0.22188987, -0.4422887, -0.86899114), (0.22188987, -0.4422887, -0.86899114), (0.22188987, -0.4422887, -0.86899114), (0.22188987, -0.4422887, -0.86899114), (-0.9689124, 2.995787e-14, -0.24740396), (-0.9689124, 2.995787e-14, -0.24740396), (-0.9689124, 2.995787e-14, -0.24740396), (0.9689124, 4.0331382e-14, 0.24740396), (0.9689124, 4.0331382e-14, 0.24740396), (0.9689124, 4.0331382e-14, 0.24740396), (0.23427427, -0.32143947, -0.9174924), (0.23427427, -0.32143947, -0.9174924), (0.23427427, -0.32143947, -0.9174924), (0.23427427, -0.32143947, -0.9174924), (0.23427427, -0.32143947, -0.9174924), (0.23427427, -0.32143947, -0.9174924), (-0.9689124, -3.2836323e-14, -0.24740396), (-0.9689124, -3.2836323e-14, -0.24740396), (-0.9689124, -3.2836323e-14, -0.24740396), (0.9689124, -4.693145e-14, 0.24740396), (0.9689124, -4.693145e-14, 0.24740396), (0.9689124, -4.693145e-14, 0.24740396), (0.24265017, -0.19509032, -0.95029503), (0.24265017, -0.19509032, -0.95029503), (0.24265017, -0.19509032, -0.95029503), (0.24265017, -0.19509032, -0.95029503), (0.24265017, -0.19509032, -0.95029503), (0.24265017, -0.19509032, -0.95029503), (-0.9689124, 3.430185e-14, -0.24740396), (-0.9689124, 3.430185e-14, -0.24740396), (-0.9689124, 3.430185e-14, -0.24740396), (0.9689124, 5.949462e-14, 0.24740396), (0.9689124, 5.949462e-14, 0.24740396), (0.9689124, 5.949462e-14, 0.24740396), (0.24687424, -0.065403126, -0.9668379), (0.24687424, -0.065403126, -0.9668379), (0.24687424, -0.065403126, -0.9668379), (0.24687424, -0.065403126, -0.9668379), (0.24687424, -0.065403126, -0.9668379), (0.24687424, -0.065403126, -0.9668379), (-0.9689124, 0, -0.24740396), (-0.9689124, 0, -0.24740396), (-0.9689124, 0, -0.24740396), (0.9689124, 0, 0.24740396), (0.9689124, 0, 0.24740396), (0.9689124, 0, 0.24740396), (0.24740396, 0, -0.9689124), (0.24740396, 0, -0.9689124), (0.24740396, 0, -0.9689124), (0.24740396, 0, -0.9689124), (0.24740396, 0, -0.9689124), (0.24740396, 0, -0.9689124), (-0.9689124, -3.4299844e-14, -0.24740396), (-0.9689124, -3.4299844e-14, -0.24740396), (-0.9689124, -3.4299844e-14, -0.24740396), (0.9689124, -5.949462e-14, 0.24740396), (0.9689124, -5.949462e-14, 0.24740396), (0.9689124, -5.949462e-14, 0.24740396), (0.24687424, 0.065403126, -0.9668379), (0.24687424, 0.065403126, -0.9668379), (0.24687424, 0.065403126, -0.9668379), (0.24687424, 0.065403126, -0.9668379), (0.24687424, 0.065403126, -0.9668379), (0.24687424, 0.065403126, -0.9668379), (-0.9689124, 3.2843143e-14, -0.24740396), (-0.9689124, 3.2843143e-14, -0.24740396), (-0.9689124, 3.2843143e-14, -0.24740396), (0.9689124, 4.693827e-14, 0.24740396), (0.9689124, 4.693827e-14, 0.24740396), (0.9689124, 4.693827e-14, 0.24740396), (0.24265017, 0.19509032, -0.95029503), (0.24265017, 0.19509032, -0.95029503), (0.24265017, 0.19509032, -0.95029503), (0.24265017, 0.19509032, -0.95029503), (0.24265017, 0.19509032, -0.95029503), (0.24265017, 0.19509032, -0.95029503), (-0.9689124, -2.995787e-14, -0.24740396), (-0.9689124, -2.995787e-14, -0.24740396), (-0.9689124, -2.995787e-14, -0.24740396), (0.9689124, -4.0331382e-14, 0.24740396), (0.9689124, -4.0331382e-14, 0.24740396), (0.9689124, -4.0331382e-14, 0.24740396), (0.23427427, 0.32143947, -0.9174924), (0.23427427, 0.32143947, -0.9174924), (0.23427427, 0.32143947, -0.9174924), (0.23427427, 0.32143947, -0.9174924), (0.23427427, 0.32143947, -0.9174924), (0.23427427, 0.32143947, -0.9174924), (-0.9689124, 5.5288335e-15, -0.24740396), (-0.9689124, 5.5288335e-15, -0.24740396), (-0.9689124, 5.5288335e-15, -0.24740396), (0.9689124, -5.594523e-15, 0.24740396), (0.9689124, -5.594523e-15, 0.24740396), (0.9689124, -5.594523e-15, 0.24740396), (0.22188987, 0.4422887, -0.86899114), (0.22188987, 0.4422887, -0.86899114), (0.22188987, 0.4422887, -0.86899114), (0.22188987, 0.4422887, -0.86899114), (0.22188987, 0.4422887, -0.86899114), (0.22188987, 0.4422887, -0.86899114), (-0.9689124, 1.8041346e-14, -0.24740396), (-0.9689124, 1.8041346e-14, -0.24740396), (-0.9689124, 1.8041346e-14, -0.24740396), (0.9689124, 1.9049868e-15, 0.24740396), (0.9689124, 1.9049868e-15, 0.24740396), (0.9689124, 1.9049868e-15, 0.24740396), (0.20570888, 0.55557024, -0.8056212), (0.20570888, 0.55557024, -0.8056212), (0.20570888, 0.55557024, -0.8056212), (0.20570888, 0.55557024, -0.8056212), (0.20570888, 0.55557024, -0.8056212), (0.20570888, 0.55557024, -0.8056212), (-0.9689124, -2.6094446e-14, -0.24740396), (-0.9689124, -2.6094446e-14, -0.24740396), (-0.9689124, -2.6094446e-14, -0.24740396), (0.9689124, 7.140416e-15, 0.24740396), (0.9689124, 7.140416e-15, 0.24740396), (0.9689124, 7.140416e-15, 0.24740396), (0.18600814, 0.6593458, -0.7284669), (0.18600814, 0.6593458, -0.7284669), (0.18600814, 0.6593458, -0.7284669), (0.18600814, 0.6593458, -0.7284669), (0.18600814, 0.6593458, -0.7284669), (0.18600814, 0.6593458, -0.7284669), (-0.9689124, 1.4116377e-14, -0.24740396), (-0.9689124, 1.4116377e-14, -0.24740396), (-0.9689124, 1.4116377e-14, -0.24740396), (0.9689124, 4.0439487e-15, 0.24740396), (0.9689124, 4.0439487e-15, 0.24740396), (0.9689124, 4.0439487e-15, 0.24740396), (0.16312477, 0.7518398, -0.63884836), (0.16312477, 0.7518398, -0.63884836), (0.16312477, 0.7518398, -0.63884836), (0.16312477, 0.7518398, -0.63884836), (0.16312477, 0.7518398, -0.63884836), (0.16312477, 0.7518398, -0.63884836), (-0.9689124, 1.1795403e-15, -0.24740396), (-0.9689124, 1.1795403e-15, -0.24740396), (-0.9689124, 1.1795403e-15, -0.24740396), (0.9689124, -1.9075377e-14, 0.24740396), (0.9689124, -1.9075377e-14, 0.24740396), (0.9689124, -1.9075377e-14, 0.24740396), (0.13745028, 0.8314696, -0.5382989), (0.13745028, 0.8314696, -0.5382989), (0.13745028, 0.8314696, -0.5382989), (0.13745028, 0.8314696, -0.5382989), (0.13745028, 0.8314696, -0.5382989), (0.13745028, 0.8314696, -0.5382989), (-0.9689124, -2.767575e-16, -0.24740396), (-0.9689124, -2.767575e-16, -0.24740396), (-0.9689124, -2.767575e-16, -0.24740396), (0.9689124, 1.7952336e-14, 0.24740396), (0.9689124, 1.7952336e-14, 0.24740396), (0.9689124, 1.7952336e-14, 0.24740396), (0.10942397, 0.89687276, -0.428539), (0.10942397, 0.89687276, -0.428539), (0.10942397, 0.89687276, -0.428539), (0.10942397, 0.89687276, -0.428539), (0.10942397, 0.89687276, -0.428539), (0.10942397, 0.89687276, -0.428539), (-0.9689124, -1.7337865e-14, -0.24740396), (-0.9689124, -1.7337865e-14, -0.24740396), (-0.9689124, -1.7337865e-14, -0.24740396), (0.9689124, 1.7337865e-14, 0.24740396), (0.9689124, 1.7337865e-14, 0.24740396), (0.9689124, 1.7337865e-14, 0.24740396), (0.079525396, 0.9469301, -0.3114467), (0.079525396, 0.9469301, -0.3114467), (0.079525396, 0.9469301, -0.3114467), (0.079525396, 0.9469301, -0.3114467), (0.079525396, 0.9469301, -0.3114467), (0.079525396, 0.9469301, -0.3114467), (-0.9689124, 5.7992513e-15, -0.24740396), (-0.9689124, 5.7992513e-15, -0.24740396), (-0.9689124, 5.7992513e-15, -0.24740396), (0.9689124, -5.7797907e-15, 0.24740396), (0.9689124, -5.7797907e-15, 0.24740396), (0.9689124, -5.7797907e-15, 0.24740396), (0.048266117, 0.98078525, -0.18902543), (0.048266117, 0.98078525, -0.18902543), (0.048266117, 0.98078525, -0.18902543), (0.048266117, 0.98078525, -0.18902543), (0.048266117, 0.98078525, -0.18902543), (0.048266117, 0.98078525, -0.18902543), (-0.9689124, 3.0402441e-15, -0.24740396), (-0.9689124, 3.0402441e-15, -0.24740396), (-0.9689124, 3.0402441e-15, -0.24740396), (0.9689124, -2.2493699e-14, 0.24740396), (0.9689124, -2.2493699e-14, 0.24740396), (0.9689124, -2.2493699e-14, 0.24740396), (0.016180994, 0.99785894, -0.06336991), (0.016180994, 0.99785894, -0.06336991), (0.016180994, 0.99785894, -0.06336991), (0.016180994, 0.99785894, -0.06336991), (0.016180994, 0.99785894, -0.06336991), (0.016180994, 0.99785894, -0.06336991), (-0.9689124, -5.5250662e-17, -0.24740396), (-0.9689124, -5.5250662e-17, -0.24740396), (-0.9689124, -5.5250662e-17, -0.24740396), (0.9689124, -5.5250662e-17, 0.24740396), (0.9689124, -5.5250662e-17, 0.24740396), (0.9689124, -5.5250662e-17, 0.24740396), (0, 1, 0), (0, 1, 0), (0, 1, 0), (0, 1, 0), (0, 1, 0), (0, 1, 0)]
                point3f[] points = [(-0.21148446, 0, 0.4198763), (-0.22593077, 0.10147434, 0.47645262), (-0.2258339, 0.1015, 0.4760732), (-0.21051554, 0, 0.4201237), (-0.22486497, 0.1015, 0.47632062), (-0.22496185, 0.10147434, 0.47670004), (-0.2258339, 0.1015, 0.4760732), (-0.22593077, 0.10147434, 0.47645262), (-0.22486497, 0.1015, 0.47632062), (-0.22593077, 0.10147434, 0.47645262), (-0.22496185, 0.10147434, 0.47670004), (-0.22486497, 0.1015, 0.47632062), (-0.21148446, 0, 0.4198763), (-0.22602598, 0.101397775, 0.47682554), (-0.22593077, 0.10147434, 0.47645262), (-0.21051554, 0, 0.4201237), (-0.22496185, 0.10147434, 0.47670004), (-0.22505707, 0.101397775, 0.47707295), (-0.22593077, 0.10147434, 0.47645262), (-0.22602598, 0.101397775, 0.47682554), (-0.22496185, 0.10147434, 0.47670004), (-0.22602598, 0.101397775, 0.47682554), (-0.22505707, 0.101397775, 0.47707295), (-0.22496185, 0.10147434, 0.47670004), (-0.21148446, 0, 0.4198763), (-0.22611792, 0.10127164, 0.47718558), (-0.22602598, 0.101397775, 0.47682554), (-0.21051554, 0, 0.4201237), (-0.22505707, 0.101397775, 0.47707295), (-0.225149, 0.10127164, 0.477433), (-0.22602598, 0.101397775, 0.47682554), (-0.22611792, 0.10127164, 0.47718558), (-0.22505707, 0.101397775, 0.47707295), (-0.22611792, 0.10127164, 0.47718558), (-0.225149, 0.10127164, 0.477433), (-0.22505707, 0.101397775, 0.47707295), (-0.21148446, 0, 0.4198763), (-0.22620499, 0.101098076, 0.47752658), (-0.22611792, 0.10127164, 0.47718558), (-0.21051554, 0, 0.4201237), (-0.225149, 0.10127164, 0.477433), (-0.22523607, 0.101098076, 0.477774), (-0.22611792, 0.10127164, 0.47718558), (-0.22620499, 0.101098076, 0.47752658), (-0.225149, 0.10127164, 0.477433), (-0.22620499, 0.101098076, 0.47752658), (-0.22523607, 0.101098076, 0.477774), (-0.225149, 0.10127164, 0.477433), (-0.21148446, 0, 0.4198763), (-0.22628571, 0.10088006, 0.47784272), (-0.22620499, 0.101098076, 0.47752658), (-0.21051554, 0, 0.4201237), (-0.22523607, 0.101098076, 0.477774), (-0.22531681, 0.10088006, 0.47809014), (-0.22620499, 0.101098076, 0.47752658), (-0.22628571, 0.10088006, 0.47784272), (-0.22523607, 0.101098076, 0.477774), (-0.22628571, 0.10088006, 0.47784272), (-0.22531681, 0.10088006, 0.47809014), (-0.22523607, 0.101098076, 0.477774), (-0.21148446, 0, 0.4198763), (-0.22635871, 0.10062132, 0.47812858), (-0.22628571, 0.10088006, 0.47784272), (-0.21051554, 0, 0.4201237), (-0.22531681, 0.10088006, 0.47809014), (-0.2253898, 0.10062132, 0.478376), (-0.22628571, 0.10088006, 0.47784272), (-0.22635871, 0.10062132, 0.47812858), (-0.22531681, 0.10088006, 0.47809014), (-0.22635871, 0.10062132, 0.47812858), (-0.2253898, 0.10062132, 0.478376), (-0.22531681, 0.10088006, 0.47809014), (-0.21148446, 0, 0.4198763), (-0.22642273, 0.100326285, 0.47837928), (-0.22635871, 0.10062132, 0.47812858), (-0.21051554, 0, 0.4201237), (-0.2253898, 0.10062132, 0.478376), (-0.22545381, 0.100326285, 0.4786267), (-0.22635871, 0.10062132, 0.47812858), (-0.22642273, 0.100326285, 0.47837928), (-0.2253898, 0.10062132, 0.478376), (-0.22642273, 0.100326285, 0.47837928), (-0.22545381, 0.100326285, 0.4786267), (-0.2253898, 0.10062132, 0.478376), (-0.21148446, 0, 0.4198763), (-0.22647665, 0.1, 0.47859052), (-0.22642273, 0.100326285, 0.47837928), (-0.21051554, 0, 0.4201237), (-0.22545381, 0.100326285, 0.4786267), (-0.22550775, 0.1, 0.47883794), (-0.22642273, 0.100326285, 0.47837928), (-0.22647665, 0.1, 0.47859052), (-0.22545381, 0.100326285, 0.4786267), (-0.22647665, 0.1, 0.47859052), (-0.22550775, 0.1, 0.47883794), (-0.22545381, 0.100326285, 0.4786267), (-0.21148446, 0, 0.4198763), (-0.2265196, 0.09964805, 0.4787587), (-0.22647665, 0.1, 0.47859052), (-0.21051554, 0, 0.4201237), (-0.22550775, 0.1, 0.47883794), (-0.22555068, 0.09964805, 0.4790061), (-0.22647665, 0.1, 0.47859052), (-0.2265196, 0.09964805, 0.4787587), (-0.22550775, 0.1, 0.47883794), (-0.2265196, 0.09964805, 0.4787587), (-0.22555068, 0.09964805, 0.4790061), (-0.22550775, 0.1, 0.47883794), (-0.21148446, 0, 0.4198763), (-0.2265508, 0.09927646, 0.4788809), (-0.2265196, 0.09964805, 0.4787587), (-0.21051554, 0, 0.4201237), (-0.22555068, 0.09964805, 0.4790061), (-0.2255819, 0.09927646, 0.4791283), (-0.2265196, 0.09964805, 0.4787587), (-0.2265508, 0.09927646, 0.4788809), (-0.22555068, 0.09964805, 0.4790061), (-0.2265508, 0.09927646, 0.4788809), (-0.2255819, 0.09927646, 0.4791283), (-0.22555068, 0.09964805, 0.4790061), (-0.21148446, 0, 0.4198763), (-0.22656974, 0.09889158, 0.4789551), (-0.2265508, 0.09927646, 0.4788809), (-0.21051554, 0, 0.4201237), (-0.2255819, 0.09927646, 0.4791283), (-0.22560084, 0.09889158, 0.47920248), (-0.2265508, 0.09927646, 0.4788809), (-0.22656974, 0.09889158, 0.4789551), (-0.2255819, 0.09927646, 0.4791283), (-0.22656974, 0.09889158, 0.4789551), (-0.22560084, 0.09889158, 0.47920248), (-0.2255819, 0.09927646, 0.4791283), (-0.21148446, 0, 0.4198763), (-0.2265761, 0.0985, 0.47897995), (-0.22656974, 0.09889158, 0.4789551), (-0.21051554, 0, 0.4201237), (-0.22560084, 0.09889158, 0.47920248), (-0.22560719, 0.0985, 0.47922736), (-0.22656974, 0.09889158, 0.4789551), (-0.2265761, 0.0985, 0.47897995), (-0.22560084, 0.09889158, 0.47920248), (-0.2265761, 0.0985, 0.47897995), (-0.22560719, 0.0985, 0.47922736), (-0.22560084, 0.09889158, 0.47920248), (-0.21148446, 0, 0.4198763), (-0.2265761, -0.0985, 0.47897995), (-0.2265761, 0.0985, 0.47897995), (-0.21051554, 0, 0.4201237), (-0.22560719, 0.0985, 0.47922736), (-0.22560719, -0.0985, 0.47922736), (-0.2265761, 0.0985, 0.47897995), (-0.2265761, -0.0985, 0.47897995), (-0.22560719, 0.0985, 0.47922736), (-0.2265761, -0.0985, 0.47897995), (-0.22560719, -0.0985, 0.47922736), (-0.22560719, 0.0985, 0.47922736), (-0.21148446, 0, 0.4198763), (-0.22656974, -0.09889158, 0.4789551), (-0.2265761, -0.0985, 0.47897995), (-0.21051554, 0, 0.4201237), (-0.22560719, -0.0985, 0.47922736), (-0.22560084, -0.09889158, 0.47920248), (-0.2265761, -0.0985, 0.47897995), (-0.22656974, -0.09889158, 0.4789551), (-0.22560719, -0.0985, 0.47922736), (-0.22656974, -0.09889158, 0.4789551), (-0.22560084, -0.09889158, 0.47920248), (-0.22560719, -0.0985, 0.47922736), (-0.21148446, 0, 0.4198763), (-0.2265508, -0.09927646, 0.4788809), (-0.22656974, -0.09889158, 0.4789551), (-0.21051554, 0, 0.4201237), (-0.22560084, -0.09889158, 0.47920248), (-0.2255819, -0.09927646, 0.4791283), (-0.22656974, -0.09889158, 0.4789551), (-0.2265508, -0.09927646, 0.4788809), (-0.22560084, -0.09889158, 0.47920248), (-0.2265508, -0.09927646, 0.4788809), (-0.2255819, -0.09927646, 0.4791283), (-0.22560084, -0.09889158, 0.47920248), (-0.21148446, 0, 0.4198763), (-0.2265196, -0.09964805, 0.4787587), (-0.2265508, -0.09927646, 0.4788809), (-0.21051554, 0, 0.4201237), (-0.2255819, -0.09927646, 0.4791283), (-0.22555068, -0.09964805, 0.4790061), (-0.2265508, -0.09927646, 0.4788809), (-0.2265196, -0.09964805, 0.4787587), (-0.2255819, -0.09927646, 0.4791283), (-0.2265196, -0.09964805, 0.4787587), (-0.22555068, -0.09964805, 0.4790061), (-0.2255819, -0.09927646, 0.4791283), (-0.21148446, 0, 0.4198763), (-0.22647665, -0.1, 0.47859052), (-0.2265196, -0.09964805, 0.4787587), (-0.21051554, 0, 0.4201237), (-0.22555068, -0.09964805, 0.4790061), (-0.22550775, -0.1, 0.47883794), (-0.2265196, -0.09964805, 0.4787587), (-0.22647665, -0.1, 0.47859052), (-0.22555068, -0.09964805, 0.4790061), (-0.22647665, -0.1, 0.47859052), (-0.22550775, -0.1, 0.47883794), (-0.22555068, -0.09964805, 0.4790061), (-0.21148446, 0, 0.4198763), (-0.22642273, -0.100326285, 0.47837928), (-0.22647665, -0.1, 0.47859052), (-0.21051554, 0, 0.4201237), (-0.22550775, -0.1, 0.47883794), (-0.22545381, -0.100326285, 0.4786267), (-0.22647665, -0.1, 0.47859052), (-0.22642273, -0.100326285, 0.47837928), (-0.22550775, -0.1, 0.47883794), (-0.22642273, -0.100326285, 0.47837928), (-0.22545381, -0.100326285, 0.4786267), (-0.22550775, -0.1, 0.47883794), (-0.21148446, 0, 0.4198763), (-0.22635871, -0.10062132, 0.47812858), (-0.22642273, -0.100326285, 0.47837928), (-0.21051554, 0, 0.4201237), (-0.22545381, -0.100326285, 0.4786267), (-0.2253898, -0.10062132, 0.478376), (-0.22642273, -0.100326285, 0.47837928), (-0.22635871, -0.10062132, 0.47812858), (-0.22545381, -0.100326285, 0.4786267), (-0.22635871, -0.10062132, 0.47812858), (-0.2253898, -0.10062132, 0.478376), (-0.22545381, -0.100326285, 0.4786267), (-0.21148446, 0, 0.4198763), (-0.22628571, -0.10088006, 0.47784272), (-0.22635871, -0.10062132, 0.47812858), (-0.21051554, 0, 0.4201237), (-0.2253898, -0.10062132, 0.478376), (-0.22531681, -0.10088006, 0.47809014), (-0.22635871, -0.10062132, 0.47812858), (-0.22628571, -0.10088006, 0.47784272), (-0.2253898, -0.10062132, 0.478376), (-0.22628571, -0.10088006, 0.47784272), (-0.22531681, -0.10088006, 0.47809014), (-0.2253898, -0.10062132, 0.478376), (-0.21148446, 0, 0.4198763), (-0.22620499, -0.101098076, 0.47752658), (-0.22628571, -0.10088006, 0.47784272), (-0.21051554, 0, 0.4201237), (-0.22531681, -0.10088006, 0.47809014), (-0.22523607, -0.101098076, 0.477774), (-0.22628571, -0.10088006, 0.47784272), (-0.22620499, -0.101098076, 0.47752658), (-0.22531681, -0.10088006, 0.47809014), (-0.22620499, -0.101098076, 0.47752658), (-0.22523607, -0.101098076, 0.477774), (-0.22531681, -0.10088006, 0.47809014), (-0.21148446, 0, 0.4198763), (-0.22611792, -0.10127164, 0.47718558), (-0.22620499, -0.101098076, 0.47752658), (-0.21051554, 0, 0.4201237), (-0.22523607, -0.101098076, 0.477774), (-0.225149, -0.10127164, 0.477433), (-0.22620499, -0.101098076, 0.47752658), (-0.22611792, -0.10127164, 0.47718558), (-0.22523607, -0.101098076, 0.477774), (-0.22611792, -0.10127164, 0.47718558), (-0.225149, -0.10127164, 0.477433), (-0.22523607, -0.101098076, 0.477774), (-0.21148446, 0, 0.4198763), (-0.22602598, -0.101397775, 0.47682554), (-0.22611792, -0.10127164, 0.47718558), (-0.21051554, 0, 0.4201237), (-0.225149, -0.10127164, 0.477433), (-0.22505707, -0.101397775, 0.47707295), (-0.22611792, -0.10127164, 0.47718558), (-0.22602598, -0.101397775, 0.47682554), (-0.225149, -0.10127164, 0.477433), (-0.22602598, -0.101397775, 0.47682554), (-0.22505707, -0.101397775, 0.47707295), (-0.225149, -0.10127164, 0.477433), (-0.21148446, 0, 0.4198763), (-0.22593077, -0.10147434, 0.47645262), (-0.22602598, -0.101397775, 0.47682554), (-0.21051554, 0, 0.4201237), (-0.22505707, -0.101397775, 0.47707295), (-0.22496185, -0.10147434, 0.47670004), (-0.22602598, -0.101397775, 0.47682554), (-0.22593077, -0.10147434, 0.47645262), (-0.22505707, -0.101397775, 0.47707295), (-0.22593077, -0.10147434, 0.47645262), (-0.22496185, -0.10147434, 0.47670004), (-0.22505707, -0.101397775, 0.47707295), (-0.21148446, 0, 0.4198763), (-0.2258339, -0.1015, 0.4760732), (-0.22593077, -0.10147434, 0.47645262), (-0.21051554, 0, 0.4201237), (-0.22496185, -0.10147434, 0.47670004), (-0.22486497, -0.1015, 0.47632062), (-0.22593077, -0.10147434, 0.47645262), (-0.2258339, -0.1015, 0.4760732), (-0.22496185, -0.10147434, 0.47670004), (-0.2258339, -0.1015, 0.4760732), (-0.22486497, -0.1015, 0.47632062), (-0.22496185, -0.10147434, 0.47670004), (-0.21148446, 0, 0.4198763), (-0.19713503, -0.1015, 0.36367938), (-0.2258339, -0.1015, 0.4760732), (-0.21051554, 0, 0.4201237), (-0.22486497, -0.1015, 0.47632062), (-0.19616611, -0.1015, 0.36392677), (-0.2258339, -0.1015, 0.4760732), (-0.19713503, -0.1015, 0.36367938), (-0.22486497, -0.1015, 0.47632062), (-0.19713503, -0.1015, 0.36367938), (-0.19616611, -0.1015, 0.36392677), (-0.22486497, -0.1015, 0.47632062), (-0.21148446, 0, 0.4198763), (-0.19703814, -0.10147434, 0.36329997), (-0.19713503, -0.1015, 0.36367938), (-0.21051554, 0, 0.4201237), (-0.19616611, -0.1015, 0.36392677), (-0.19606924, -0.10147434, 0.36354738), (-0.19713503, -0.1015, 0.36367938), (-0.19703814, -0.10147434, 0.36329997), (-0.19616611, -0.1015, 0.36392677), (-0.19703814, -0.10147434, 0.36329997), (-0.19606924, -0.10147434, 0.36354738), (-0.19616611, -0.1015, 0.36392677), (-0.21148446, 0, 0.4198763), (-0.19694293, -0.101397775, 0.36292705), (-0.19703814, -0.10147434, 0.36329997), (-0.21051554, 0, 0.4201237), (-0.19606924, -0.10147434, 0.36354738), (-0.19597402, -0.101397775, 0.36317447), (-0.19703814, -0.10147434, 0.36329997), (-0.19694293, -0.101397775, 0.36292705), (-0.19606924, -0.10147434, 0.36354738), (-0.19694293, -0.101397775, 0.36292705), (-0.19597402, -0.101397775, 0.36317447), (-0.19606924, -0.10147434, 0.36354738), (-0.21148446, 0, 0.4198763), (-0.196851, -0.10127164, 0.362567), (-0.19694293, -0.101397775, 0.36292705), (-0.21051554, 0, 0.4201237), (-0.19597402, -0.101397775, 0.36317447), (-0.19588208, -0.10127164, 0.36281443), (-0.19694293, -0.101397775, 0.36292705), (-0.196851, -0.10127164, 0.362567), (-0.19597402, -0.101397775, 0.36317447), (-0.196851, -0.10127164, 0.362567), (-0.19588208, -0.10127164, 0.36281443), (-0.19597402, -0.101397775, 0.36317447), (-0.21148446, 0, 0.4198763), (-0.19676392, -0.101098076, 0.362226), (-0.196851, -0.10127164, 0.362567), (-0.21051554, 0, 0.4201237), (-0.19588208, -0.10127164, 0.36281443), (-0.19579501, -0.101098076, 0.3624734), (-0.196851, -0.10127164, 0.362567), (-0.19676392, -0.101098076, 0.362226), (-0.19588208, -0.10127164, 0.36281443), (-0.19676392, -0.101098076, 0.362226), (-0.19579501, -0.101098076, 0.3624734), (-0.19588208, -0.10127164, 0.36281443), (-0.21148446, 0, 0.4198763), (-0.1966832, -0.10088006, 0.36190987), (-0.19676392, -0.101098076, 0.362226), (-0.21051554, 0, 0.4201237), (-0.19579501, -0.101098076, 0.3624734), (-0.19571428, -0.10088006, 0.3621573), (-0.19676392, -0.101098076, 0.362226), (-0.1966832, -0.10088006, 0.36190987), (-0.19579501, -0.101098076, 0.3624734), (-0.1966832, -0.10088006, 0.36190987), (-0.19571428, -0.10088006, 0.3621573), (-0.19579501, -0.101098076, 0.3624734), (-0.21148446, 0, 0.4198763), (-0.1966102, -0.10062132, 0.361624), (-0.1966832, -0.10088006, 0.36190987), (-0.21051554, 0, 0.4201237), (-0.19571428, -0.10088006, 0.3621573), (-0.1956413, -0.10062132, 0.36187142), (-0.1966832, -0.10088006, 0.36190987), (-0.1966102, -0.10062132, 0.361624), (-0.19571428, -0.10088006, 0.3621573), (-0.1966102, -0.10062132, 0.361624), (-0.1956413, -0.10062132, 0.36187142), (-0.19571428, -0.10088006, 0.3621573), (-0.21148446, 0, 0.4198763), (-0.1965462, -0.100326285, 0.3613733), (-0.1966102, -0.10062132, 0.361624), (-0.21051554, 0, 0.4201237), (-0.1956413, -0.10062132, 0.36187142), (-0.19557728, -0.100326285, 0.36162072), (-0.1966102, -0.10062132, 0.361624), (-0.1965462, -0.100326285, 0.3613733), (-0.1956413, -0.10062132, 0.36187142), (-0.1965462, -0.100326285, 0.3613733), (-0.19557728, -0.100326285, 0.36162072), (-0.1956413, -0.10062132, 0.36187142), (-0.21148446, 0, 0.4198763), (-0.19649225, -0.1, 0.36116207), (-0.1965462, -0.100326285, 0.3613733), (-0.21051554, 0, 0.4201237), (-0.19557728, -0.100326285, 0.36162072), (-0.19552334, -0.1, 0.3614095), (-0.1965462, -0.100326285, 0.3613733), (-0.19649225, -0.1, 0.36116207), (-0.19557728, -0.100326285, 0.36162072), (-0.19649225, -0.1, 0.36116207), (-0.19552334, -0.1, 0.3614095), (-0.19557728, -0.100326285, 0.36162072), (-0.21148446, 0, 0.4198763), (-0.19644931, -0.09964805, 0.3609939), (-0.19649225, -0.1, 0.36116207), (-0.21051554, 0, 0.4201237), (-0.19552334, -0.1, 0.3614095), (-0.1954804, -0.09964805, 0.3612413), (-0.19649225, -0.1, 0.36116207), (-0.19644931, -0.09964805, 0.3609939), (-0.19552334, -0.1, 0.3614095), (-0.19644931, -0.09964805, 0.3609939), (-0.1954804, -0.09964805, 0.3612413), (-0.19552334, -0.1, 0.3614095), (-0.21148446, 0, 0.4198763), (-0.1964181, -0.09927646, 0.36087167), (-0.19644931, -0.09964805, 0.3609939), (-0.21051554, 0, 0.4201237), (-0.1954804, -0.09964805, 0.3612413), (-0.19544919, -0.09927646, 0.3611191), (-0.19644931, -0.09964805, 0.3609939), (-0.1964181, -0.09927646, 0.36087167), (-0.1954804, -0.09964805, 0.3612413), (-0.1964181, -0.09927646, 0.36087167), (-0.19544919, -0.09927646, 0.3611191), (-0.1954804, -0.09964805, 0.3612413), (-0.21148446, 0, 0.4198763), (-0.19639917, -0.09889158, 0.3607975), (-0.1964181, -0.09927646, 0.36087167), (-0.21051554, 0, 0.4201237), (-0.19544919, -0.09927646, 0.3611191), (-0.19543025, -0.09889158, 0.3610449), (-0.1964181, -0.09927646, 0.36087167), (-0.19639917, -0.09889158, 0.3607975), (-0.19544919, -0.09927646, 0.3611191), (-0.19639917, -0.09889158, 0.3607975), (-0.19543025, -0.09889158, 0.3610449), (-0.19544919, -0.09927646, 0.3611191), (-0.21148446, 0, 0.4198763), (-0.19639282, -0.0985, 0.36077264), (-0.19639917, -0.09889158, 0.3607975), (-0.21051554, 0, 0.4201237), (-0.19543025, -0.09889158, 0.3610449), (-0.1954239, -0.0985, 0.36102006), (-0.19639917, -0.09889158, 0.3607975), (-0.19639282, -0.0985, 0.36077264), (-0.19543025, -0.09889158, 0.3610449), (-0.19639282, -0.0985, 0.36077264), (-0.1954239, -0.0985, 0.36102006), (-0.19543025, -0.09889158, 0.3610449), (-0.21148446, 0, 0.4198763), (-0.19639282, 0.0985, 0.36077264), (-0.19639282, -0.0985, 0.36077264), (-0.21051554, 0, 0.4201237), (-0.1954239, -0.0985, 0.36102006), (-0.1954239, 0.0985, 0.36102006), (-0.19639282, -0.0985, 0.36077264), (-0.19639282, 0.0985, 0.36077264), (-0.1954239, -0.0985, 0.36102006), (-0.19639282, 0.0985, 0.36077264), (-0.1954239, 0.0985, 0.36102006), (-0.1954239, -0.0985, 0.36102006), (-0.21148446, 0, 0.4198763), (-0.19639917, 0.09889158, 0.3607975), (-0.19639282, 0.0985, 0.36077264), (-0.21051554, 0, 0.4201237), (-0.1954239, 0.0985, 0.36102006), (-0.19543025, 0.09889158, 0.3610449), (-0.19639282, 0.0985, 0.36077264), (-0.19639917, 0.09889158, 0.3607975), (-0.1954239, 0.0985, 0.36102006), (-0.19639917, 0.09889158, 0.3607975), (-0.19543025, 0.09889158, 0.3610449), (-0.1954239, 0.0985, 0.36102006), (-0.21148446, 0, 0.4198763), (-0.1964181, 0.09927646, 0.36087167), (-0.19639917, 0.09889158, 0.3607975), (-0.21051554, 0, 0.4201237), (-0.19543025, 0.09889158, 0.3610449), (-0.19544919, 0.09927646, 0.3611191), (-0.19639917, 0.09889158, 0.3607975), (-0.1964181, 0.09927646, 0.36087167), (-0.19543025, 0.09889158, 0.3610449), (-0.1964181, 0.09927646, 0.36087167), (-0.19544919, 0.09927646, 0.3611191), (-0.19543025, 0.09889158, 0.3610449), (-0.21148446, 0, 0.4198763), (-0.19644931, 0.09964805, 0.3609939), (-0.1964181, 0.09927646, 0.36087167), (-0.21051554, 0, 0.4201237), (-0.19544919, 0.09927646, 0.3611191), (-0.1954804, 0.09964805, 0.3612413), (-0.1964181, 0.09927646, 0.36087167), (-0.19644931, 0.09964805, 0.3609939), (-0.19544919, 0.09927646, 0.3611191), (-0.19644931, 0.09964805, 0.3609939), (-0.1954804, 0.09964805, 0.3612413), (-0.19544919, 0.09927646, 0.3611191), (-0.21148446, 0, 0.4198763), (-0.19649225, 0.1, 0.36116207), (-0.19644931, 0.09964805, 0.3609939), (-0.21051554, 0, 0.4201237), (-0.1954804, 0.09964805, 0.3612413), (-0.19552334, 0.1, 0.3614095), (-0.19644931, 0.09964805, 0.3609939), (-0.19649225, 0.1, 0.36116207), (-0.1954804, 0.09964805, 0.3612413), (-0.19649225, 0.1, 0.36116207), (-0.19552334, 0.1, 0.3614095), (-0.1954804, 0.09964805, 0.3612413), (-0.21148446, 0, 0.4198763), (-0.1965462, 0.100326285, 0.3613733), (-0.19649225, 0.1, 0.36116207), (-0.21051554, 0, 0.4201237), (-0.19552334, 0.1, 0.3614095), (-0.19557728, 0.100326285, 0.36162072), (-0.19649225, 0.1, 0.36116207), (-0.1965462, 0.100326285, 0.3613733), (-0.19552334, 0.1, 0.3614095), (-0.1965462, 0.100326285, 0.3613733), (-0.19557728, 0.100326285, 0.36162072), (-0.19552334, 0.1, 0.3614095), (-0.21148446, 0, 0.4198763), (-0.1966102, 0.10062132, 0.361624), (-0.1965462, 0.100326285, 0.3613733), (-0.21051554, 0, 0.4201237), (-0.19557728, 0.100326285, 0.36162072), (-0.1956413, 0.10062132, 0.36187142), (-0.1965462, 0.100326285, 0.3613733), (-0.1966102, 0.10062132, 0.361624), (-0.19557728, 0.100326285, 0.36162072), (-0.1966102, 0.10062132, 0.361624), (-0.1956413, 0.10062132, 0.36187142), (-0.19557728, 0.100326285, 0.36162072), (-0.21148446, 0, 0.4198763), (-0.1966832, 0.10088006, 0.36190987), (-0.1966102, 0.10062132, 0.361624), (-0.21051554, 0, 0.4201237), (-0.1956413, 0.10062132, 0.36187142), (-0.19571428, 0.10088006, 0.3621573), (-0.1966102, 0.10062132, 0.361624), (-0.1966832, 0.10088006, 0.36190987), (-0.1956413, 0.10062132, 0.36187142), (-0.1966832, 0.10088006, 0.36190987), (-0.19571428, 0.10088006, 0.3621573), (-0.1956413, 0.10062132, 0.36187142), (-0.21148446, 0, 0.4198763), (-0.19676392, 0.101098076, 0.362226), (-0.1966832, 0.10088006, 0.36190987), (-0.21051554, 0, 0.4201237), (-0.19571428, 0.10088006, 0.3621573), (-0.19579501, 0.101098076, 0.3624734), (-0.1966832, 0.10088006, 0.36190987), (-0.19676392, 0.101098076, 0.362226), (-0.19571428, 0.10088006, 0.3621573), (-0.19676392, 0.101098076, 0.362226), (-0.19579501, 0.101098076, 0.3624734), (-0.19571428, 0.10088006, 0.3621573), (-0.21148446, 0, 0.4198763), (-0.196851, 0.10127164, 0.362567), (-0.19676392, 0.101098076, 0.362226), (-0.21051554, 0, 0.4201237), (-0.19579501, 0.101098076, 0.3624734), (-0.19588208, 0.10127164, 0.36281443), (-0.19676392, 0.101098076, 0.362226), (-0.196851, 0.10127164, 0.362567), (-0.19579501, 0.101098076, 0.3624734), (-0.196851, 0.10127164, 0.362567), (-0.19588208, 0.10127164, 0.36281443), (-0.19579501, 0.101098076, 0.3624734), (-0.21148446, 0, 0.4198763), (-0.19694293, 0.101397775, 0.36292705), (-0.196851, 0.10127164, 0.362567), (-0.21051554, 0, 0.4201237), (-0.19588208, 0.10127164, 0.36281443), (-0.19597402, 0.101397775, 0.36317447), (-0.196851, 0.10127164, 0.362567), (-0.19694293, 0.101397775, 0.36292705), (-0.19588208, 0.10127164, 0.36281443), (-0.19694293, 0.101397775, 0.36292705), (-0.19597402, 0.101397775, 0.36317447), (-0.19588208, 0.10127164, 0.36281443), (-0.21148446, 0, 0.4198763), (-0.19703814, 0.10147434, 0.36329997), (-0.19694293, 0.101397775, 0.36292705), (-0.21051554, 0, 0.4201237), (-0.19597402, 0.101397775, 0.36317447), (-0.19606924, 0.10147434, 0.36354738), (-0.19694293, 0.101397775, 0.36292705), (-0.19703814, 0.10147434, 0.36329997), (-0.19597402, 0.101397775, 0.36317447), (-0.19703814, 0.10147434, 0.36329997), (-0.19606924, 0.10147434, 0.36354738), (-0.19597402, 0.101397775, 0.36317447), (-0.21148446, 0, 0.4198763), (-0.19713503, 0.1015, 0.36367938), (-0.19703814, 0.10147434, 0.36329997), (-0.21051554, 0, 0.4201237), (-0.19606924, 0.10147434, 0.36354738), (-0.19616611, 0.1015, 0.36392677), (-0.19703814, 0.10147434, 0.36329997), (-0.19713503, 0.1015, 0.36367938), (-0.19606924, 0.10147434, 0.36354738), (-0.19713503, 0.1015, 0.36367938), (-0.19616611, 0.1015, 0.36392677), (-0.19606924, 0.10147434, 0.36354738), (-0.21148446, 0, 0.4198763), (-0.2258339, 0.1015, 0.4760732), (-0.19713503, 0.1015, 0.36367938), (-0.21051554, 0, 0.4201237), (-0.19616611, 0.1015, 0.36392677), (-0.22486497, 0.1015, 0.47632062), (-0.19713503, 0.1015, 0.36367938), (-0.2258339, 0.1015, 0.4760732), (-0.19616611, 0.1015, 0.36392677), (-0.2258339, 0.1015, 0.4760732), (-0.22486497, 0.1015, 0.47632062), (-0.19616611, 0.1015, 0.36392677)]
            }
        }
    }
}

