mtllib Arm_mount_bolt_003.mtl
v 0.03200000151991844 -0.02800000086426735 0.550000011920929
v 0.03200000151991844 -0.02800000086426735 0.5539999604225159
v 0.03252210468053818 -0.02803422138094902 0.550000011920929
v 0.03252210468053818 -0.02803422138094902 0.5539999604225159
v 0.0330352783203125 -0.028136298060417175 0.550000011920929
v 0.0330352783203125 -0.028136298060417175 0.5539999604225159
v 0.03353073447942734 -0.028304483741521835 0.550000011920929
v 0.03353073447942734 -0.028304483741521835 0.5539999604225159
v 0.03400000184774399 -0.02853589877486229 0.550000011920929
v 0.03400000184774399 -0.02853589877486229 0.5539999604225159
v 0.03443504869937897 -0.02882658876478672 0.550000011920929
v 0.03443504869937897 -0.02882658876478672 0.5539999604225159
v 0.03482842817902565 -0.029171574860811234 0.550000011920929
v 0.03482842817902565 -0.029171574860811234 0.5539999604225159
v 0.03517341613769531 -0.029564956203103065 0.550000011920929
v 0.03517341613769531 -0.029564956203103065 0.5539999604225159
v 0.035464104264974594 -0.030000001192092896 0.550000011920929
v 0.035464104264974594 -0.030000001192092896 0.5539999604225159
v 0.03569551929831505 -0.030469268560409546 0.550000011920929
v 0.03569551929831505 -0.030469268560409546 0.5539999604225159
v 0.03586370497941971 -0.030964724719524384 0.550000011920929
v 0.03586370497941971 -0.030964724719524384 0.5539999604225159
v 0.03596578165888786 -0.031477898359298706 0.550000011920929
v 0.03596578165888786 -0.031477898359298706 0.5539999604225159
v 0.036000002175569534 -0.03200000151991844 0.550000011920929
v 0.036000002175569534 -0.03200000151991844 0.5539999604225159
v 0.03596578165888786 -0.03252210468053818 0.550000011920929
v 0.03596578165888786 -0.03252210468053818 0.5539999604225159
v 0.03586370497941971 -0.0330352783203125 0.550000011920929
v 0.03586370497941971 -0.0330352783203125 0.5539999604225159
v 0.03569551929831505 -0.03353073447942734 0.550000011920929
v 0.03569551929831505 -0.03353073447942734 0.5539999604225159
v 0.035464104264974594 -0.03400000184774399 0.550000011920929
v 0.035464104264974594 -0.03400000184774399 0.5539999604225159
v 0.03517341613769531 -0.03443504869937897 0.550000011920929
v 0.03517341613769531 -0.03443504869937897 0.5539999604225159
v 0.03482842817902565 -0.03482842817902565 0.550000011920929
v 0.03482842817902565 -0.03482842817902565 0.5539999604225159
v 0.03443504869937897 -0.03517341613769531 0.550000011920929
v 0.03443504869937897 -0.03517341613769531 0.5539999604225159
v 0.03400000184774399 -0.035464104264974594 0.550000011920929
v 0.03400000184774399 -0.035464104264974594 0.5539999604225159
v 0.03353073447942734 -0.03569551929831505 0.550000011920929
v 0.03353073447942734 -0.03569551929831505 0.5539999604225159
v 0.0330352783203125 -0.03586370497941971 0.550000011920929
v 0.0330352783203125 -0.03586370497941971 0.5539999604225159
v 0.03252210468053818 -0.03596578165888786 0.550000011920929
v 0.03252210468053818 -0.03596578165888786 0.5539999604225159
v 0.03200000151991844 -0.036000002175569534 0.550000011920929
v 0.03200000151991844 -0.036000002175569534 0.5539999604225159
v 0.031477898359298706 -0.03596578165888786 0.550000011920929
v 0.031477898359298706 -0.03596578165888786 0.5539999604225159
v 0.030964724719524384 -0.03586370497941971 0.550000011920929
v 0.030964724719524384 -0.03586370497941971 0.5539999604225159
v 0.030469268560409546 -0.03569551929831505 0.550000011920929
v 0.030469268560409546 -0.03569551929831505 0.5539999604225159
v 0.030000001192092896 -0.035464104264974594 0.550000011920929
v 0.030000001192092896 -0.035464104264974594 0.5539999604225159
v 0.029564956203103065 -0.03517341613769531 0.550000011920929
v 0.029564956203103065 -0.03517341613769531 0.5539999604225159
v 0.029171574860811234 -0.03482842817902565 0.550000011920929
v 0.029171574860811234 -0.03482842817902565 0.5539999604225159
v 0.02882658876478672 -0.03443504869937897 0.550000011920929
v 0.02882658876478672 -0.03443504869937897 0.5539999604225159
v 0.02853589877486229 -0.03400000184774399 0.550000011920929
v 0.02853589877486229 -0.03400000184774399 0.5539999604225159
v 0.028304483741521835 -0.03353073447942734 0.550000011920929
v 0.028304483741521835 -0.03353073447942734 0.5539999604225159
v 0.028136298060417175 -0.0330352783203125 0.550000011920929
v 0.028136298060417175 -0.0330352783203125 0.5539999604225159
v 0.02803422138094902 -0.03252210468053818 0.550000011920929
v 0.02803422138094902 -0.03252210468053818 0.5539999604225159
v 0.02800000086426735 -0.03200000151991844 0.550000011920929
v 0.02800000086426735 -0.03200000151991844 0.5539999604225159
v 0.02803422138094902 -0.031477898359298706 0.550000011920929
v 0.02803422138094902 -0.031477898359298706 0.5539999604225159
v 0.028136298060417175 -0.030964724719524384 0.550000011920929
v 0.028136298060417175 -0.030964724719524384 0.5539999604225159
v 0.028304483741521835 -0.030469268560409546 0.550000011920929
v 0.028304483741521835 -0.030469268560409546 0.5539999604225159
v 0.02853589877486229 -0.030000001192092896 0.550000011920929
v 0.02853589877486229 -0.030000001192092896 0.5539999604225159
v 0.02882658876478672 -0.029564956203103065 0.550000011920929
v 0.02882658876478672 -0.029564956203103065 0.5539999604225159
v 0.029171574860811234 -0.029171574860811234 0.550000011920929
v 0.029171574860811234 -0.029171574860811234 0.5539999604225159
v 0.029564956203103065 -0.02882658876478672 0.550000011920929
v 0.029564956203103065 -0.02882658876478672 0.5539999604225159
v 0.030000001192092896 -0.02853589877486229 0.550000011920929
v 0.030000001192092896 -0.02853589877486229 0.5539999604225159
v 0.030469268560409546 -0.028304483741521835 0.550000011920929
v 0.030469268560409546 -0.028304483741521835 0.5539999604225159
v 0.030964724719524384 -0.028136298060417175 0.550000011920929
v 0.030964724719524384 -0.028136298060417175 0.5539999604225159
v 0.031477898359298706 -0.02803422138094902 0.550000011920929
v 0.031477898359298706 -0.02803422138094902 0.5539999604225159
usemtl Slot_and_fastener
f 1 2 4 3
f 3 4 6 5
f 5 6 8 7
f 7 8 10 9
f 9 10 12 11
f 11 12 14 13
f 13 14 16 15
f 15 16 18 17
f 17 18 20 19
f 19 20 22 21
f 21 22 24 23
f 23 24 26 25
f 25 26 28 27
f 27 28 30 29
f 29 30 32 31
f 31 32 34 33
f 33 34 36 35
f 35 36 38 37
f 37 38 40 39
f 39 40 42 41
f 41 42 44 43
f 43 44 46 45
f 45 46 48 47
f 47 48 50 49
f 49 50 52 51
f 51 52 54 53
f 53 54 56 55
f 55 56 58 57
f 57 58 60 59
f 59 60 62 61
f 61 62 64 63
f 63 64 66 65
f 65 66 68 67
f 67 68 70 69
f 69 70 72 71
f 71 72 74 73
f 73 74 76 75
f 75 76 78 77
f 77 78 80 79
f 79 80 82 81
f 81 82 84 83
f 83 84 86 85
f 85 86 88 87
f 87 88 90 89
f 89 90 92 91
f 91 92 94 93
f 4 2 96 94 92 90 88 86 84 82 80 78 76 74 72 70 68 66 64 62 60 58 56 54 52 50 48 46 44 42 40 38 36 34 32 30 28 26 24 22 20 18 16 14 12 10 8 6
f 93 94 96 95
f 95 96 2 1
f 1 3 5 7 9 11 13 15 17 19 21 23 25 27 29 31 33 35 37 39 41 43 45 47 49 51 53 55 57 59 61 63 65 67 69 71 73 75 77 79 81 83 85 87 89 91 93 95
