mtllib Body.mtl
v 0.3400000035762787 -0.2720000147819519 -0.09799999743700027
v 0.3799999952316284 -0.23199999332427979 -0.09799999743700027
v 0.3799999952316284 0.23199999332427979 -0.09799999743700027
v 0.3400000035762787 0.2720000147819519 -0.09799999743700027
v -0.3400000035762787 0.2720000147819519 -0.09799999743700027
v -0.3799999952316284 0.23199999332427979 -0.09799999743700027
v -0.3799999952316284 -0.23199999332427979 -0.09799999743700027
v -0.3400000035762787 -0.2720000147819519 -0.09799999743700027
v 0.35199999809265137 -0.28200000524520874 -0.08500000089406967
v 0.39399999380111694 -0.23999999463558197 -0.08500000089406967
v 0.39399999380111694 0.23999999463558197 -0.08500000089406967
v 0.35199999809265137 0.28200000524520874 -0.08500000089406967
v -0.35199999809265137 0.28200000524520874 -0.08500000089406967
v -0.39399999380111694 0.23999999463558197 -0.08500000089406967
v -0.39399999380111694 -0.23999999463558197 -0.08500000089406967
v -0.35199999809265137 -0.28200000524520874 -0.08500000089406967
v 0.35199999809265137 -0.28200000524520874 0.06499999761581421
v 0.39399999380111694 -0.23999999463558197 0.06499999761581421
v 0.39399999380111694 0.23999999463558197 0.06499999761581421
v 0.35199999809265137 0.28200000524520874 0.06499999761581421
v -0.35199999809265137 0.28200000524520874 0.06499999761581421
v -0.39399999380111694 0.23999999463558197 0.06499999761581421
v -0.39399999380111694 -0.23999999463558197 0.06499999761581421
v -0.35199999809265137 -0.28200000524520874 0.06499999761581421
v 0.3474999964237213 -0.2750000059604645 0.07800000160932541
v 0.38749998807907104 -0.23499999940395355 0.07800000160932541
v 0.38749998807907104 0.23499999940395355 0.07800000160932541
v 0.3474999964237213 0.2750000059604645 0.07800000160932541
v -0.3474999964237213 0.2750000059604645 0.07800000160932541
v -0.38749998807907104 0.23499999940395355 0.07800000160932541
v -0.38749998807907104 -0.23499999940395355 0.07800000160932541
v -0.3474999964237213 -0.2750000059604645 0.07800000160932541
usemtl shell
f 8 7 6 5 4 3 2 1
f 1 2 10 9
f 2 3 11 10
f 3 4 12 11
f 4 5 13 12
f 5 6 14 13
f 6 7 15 14
f 7 8 16 15
f 8 1 9 16
f 9 10 18 17
f 10 11 19 18
f 11 12 20 19
f 12 13 21 20
f 13 14 22 21
f 14 15 23 22
f 15 16 24 23
f 16 9 17 24
f 17 18 26 25
f 18 19 27 26
f 19 20 28 27
f 20 21 29 28
f 21 22 30 29
f 22 23 31 30
f 23 24 32 31
f 24 17 25 32
f 25 26 27 28 29 30 31 32
