mtllib Chassis.mtl
v 0.35199999809265137 -0.28200000524520874 0.054999999701976776
v 0.39399999380111694 -0.23999999463558197 0.054999999701976776
v 0.39399999380111694 0.23999999463558197 0.054999999701976776
v 0.35199999809265137 0.28200000524520874 0.054999999701976776
v -0.35199999809265137 0.28200000524520874 0.054999999701976776
v -0.39399999380111694 0.23999999463558197 0.054999999701976776
v -0.39399999380111694 -0.23999999463558197 0.054999999701976776
v -0.35199999809265137 -0.28200000524520874 0.054999999701976776
v 0.35199999809265137 -0.28200000524520874 0.07000000029802322
v 0.39399999380111694 -0.23999999463558197 0.07000000029802322
v 0.39399999380111694 0.23999999463558197 0.07000000029802322
v 0.35199999809265137 0.28200000524520874 0.07000000029802322
v -0.35199999809265137 0.28200000524520874 0.07000000029802322
v -0.39399999380111694 0.23999999463558197 0.07000000029802322
v -0.39399999380111694 -0.23999999463558197 0.07000000029802322
v -0.35199999809265137 -0.28200000524520874 0.07000000029802322
usemtl shell
f 8 7 6 5 4 3 2 1
f 1 2 10 9
f 2 3 11 10
f 3 4 12 11
f 4 5 13 12
f 5 6 14 13
f 6 7 15 14
f 7 8 16 15
f 8 1 9 16
f 9 10 11 12 13 14 15 16
