mtllib Deck.mtl
v 0.3659999966621399 -0.28999999165534973 0.07900000363588333
v 0.4000000059604645 -0.25600001215934753 0.07900000363588333
v 0.4000000059604645 0.25600001215934753 0.07900000363588333
v 0.3659999966621399 0.28999999165534973 0.07900000363588333
v -0.3659999966621399 0.28999999165534973 0.07900000363588333
v -0.4000000059604645 0.25600001215934753 0.07900000363588333
v -0.4000000059604645 -0.25600001215934753 0.07900000363588333
v -0.3659999966621399 -0.28999999165534973 0.07900000363588333
v 0.3659999966621399 -0.28999999165534973 0.0949999988079071
v 0.4000000059604645 -0.25600001215934753 0.0949999988079071
v 0.4000000059604645 0.25600001215934753 0.0949999988079071
v 0.3659999966621399 0.28999999165534973 0.0949999988079071
v -0.3659999966621399 0.28999999165534973 0.0949999988079071
v -0.4000000059604645 0.25600001215934753 0.0949999988079071
v -0.4000000059604645 -0.25600001215934753 0.0949999988079071
v -0.3659999966621399 -0.28999999165534973 0.0949999988079071
usemtl black
f 8 7 6 5 4 3 2 1
f 1 2 10 9
f 2 3 11 10
f 3 4 12 11
f 4 5 13 12
f 5 6 14 13
f 6 7 15 14
f 7 8 16 15
f 8 1 9 16
f 9 10 11 12 13 14 15 16
