mtllib Gusset_bracket_001.mtl
v -0.15650001168251038 -0.1315000057220459 0.4964999854564667
v -0.15650001168251038 -0.13250000774860382 0.4975000023841858
v -0.1574999988079071 -0.1315000057220459 0.4975000023841858
v -0.15650001168251038 -0.13199934363365173 0.4966335892677307
v -0.1569993495941162 -0.1315000057220459 0.4966335892677307
v -0.15697821974754333 -0.13197821378707886 0.49676334857940674
v -0.1569993495941162 -0.13236640393733978 0.4975000023841858
v -0.15650001168251038 -0.13236640393733978 0.49700066447257996
v -0.15697821974754333 -0.13223662972450256 0.49702179431915283
v -0.15736640989780426 -0.1315000057220459 0.49700066447257996
v -0.15736640989780426 -0.13199934363365173 0.4975000023841858
v -0.15723663568496704 -0.13197821378707886 0.49702179431915283
v -0.15650001168251038 -0.13250000774860382 0.5404999852180481
v -0.15650001168251038 -0.1315000057220459 0.5414999723434448
v -0.1574999988079071 -0.1315000057220459 0.5404999852180481
v -0.15650001168251038 -0.13236640393733978 0.5409993529319763
v -0.1569993495941162 -0.13236640393733978 0.5404999852180481
v -0.15697821974754333 -0.13223662972450256 0.540978193283081
v -0.1569993495941162 -0.1315000057220459 0.5413663983345032
v -0.15650001168251038 -0.13199934363365173 0.5413663983345032
v -0.15697821974754333 -0.13197821378707886 0.5412366390228271
v -0.15736640989780426 -0.13199934363365173 0.5404999852180481
v -0.15736640989780426 -0.1315000057220459 0.5409993529319763
v -0.15723663568496704 -0.13197821378707886 0.540978193283081
v -0.15650001168251038 -0.09849999845027924 0.4964999854564667
v -0.1574999988079071 -0.09849999845027924 0.4975000023841858
v -0.15650001168251038 -0.09750000387430191 0.4975000023841858
v -0.1569993495941162 -0.09849999845027924 0.4966335892677307
v -0.15650001168251038 -0.0980006605386734 0.4966335892677307
v -0.15697821974754333 -0.09802179038524628 0.49676334857940674
v -0.15736640989780426 -0.0980006605386734 0.4975000023841858
v -0.15736640989780426 -0.09849999845027924 0.49700066447257996
v -0.15723663568496704 -0.09802179038524628 0.49702179431915283
v -0.15650001168251038 -0.09763360023498535 0.49700066447257996
v -0.1569993495941162 -0.09763360023498535 0.4975000023841858
v -0.15697821974754333 -0.09776336699724197 0.49702179431915283
v -0.15650001168251038 -0.09849999845027924 0.5414999723434448
v -0.15650001168251038 -0.09750000387430191 0.5404999852180481
v -0.1574999988079071 -0.09849999845027924 0.5404999852180481
v -0.15650001168251038 -0.0980006605386734 0.5413663983345032
v -0.1569993495941162 -0.09849999845027924 0.5413663983345032
v -0.15697821974754333 -0.09802179038524628 0.5412366390228271
v -0.1569993495941162 -0.09763360023498535 0.5404999852180481
v -0.15650001168251038 -0.09763360023498535 0.5409993529319763
v -0.15697821974754333 -0.09776336699724197 0.540978193283081
v -0.15736640989780426 -0.09849999845027924 0.5409993529319763
v -0.15736640989780426 -0.0980006605386734 0.5404999852180481
v -0.15723663568496704 -0.09802179038524628 0.540978193283081
v -0.11350000649690628 -0.1315000057220459 0.4964999854564667
v -0.11250000447034836 -0.1315000057220459 0.4975000023841858
v -0.11350000649690628 -0.13250000774860382 0.4975000023841858
v -0.11300066113471985 -0.1315000057220459 0.4966335892677307
v -0.11350000649690628 -0.13199934363365173 0.4966335892677307
v -0.11302179098129272 -0.13197821378707886 0.49676334857940674
v -0.1126336008310318 -0.13199934363365173 0.4975000023841858
v -0.1126336008310318 -0.1315000057220459 0.49700066447257996
v -0.11276337504386902 -0.13197821378707886 0.49702179431915283
v -0.11350000649690628 -0.13236640393733978 0.49700066447257996
v -0.11300066113471985 -0.13236640393733978 0.4975000023841858
v -0.11302179098129272 -0.13223662972450256 0.49702179431915283
v -0.11350000649690628 -0.1315000057220459 0.5414999723434448
v -0.11350000649690628 -0.13250000774860382 0.5404999852180481
v -0.11250000447034836 -0.1315000057220459 0.5404999852180481
v -0.11349999904632568 -0.13199934363365173 0.5413663983345032
v -0.11300066113471985 -0.1315000057220459 0.5413663983345032
v -0.11302179098129272 -0.13197821378707886 0.5412366390228271
v -0.11300066113471985 -0.13236640393733978 0.5404999852180481
v -0.11349999904632568 -0.13236640393733978 0.5409993529319763
v -0.11302179098129272 -0.13223662972450256 0.540978193283081
v -0.1126336008310318 -0.1315000057220459 0.5409993529319763
v -0.1126336008310318 -0.13199934363365173 0.5404999852180481
v -0.11276336759328842 -0.13197821378707886 0.540978193283081
v -0.11350000649690628 -0.09849999845027924 0.4964999854564667
v -0.11350000649690628 -0.09750000387430191 0.4975000023841858
v -0.11250000447034836 -0.09849999845027924 0.4975000023841858
v -0.11349999904632568 -0.0980006605386734 0.4966335892677307
v -0.11300066113471985 -0.09849999845027924 0.4966335892677307
v -0.11302179098129272 -0.09802179038524628 0.49676334857940674
v -0.11300066113471985 -0.09763360023498535 0.4975000023841858
v -0.11349999904632568 -0.09763360023498535 0.49700066447257996
v -0.11302179098129272 -0.09776336699724197 0.49702179431915283
v -0.1126336008310318 -0.09849999845027924 0.49700066447257996
v -0.1126336008310318 -0.0980006605386734 0.4975000023841858
v -0.11276336759328842 -0.09802179038524628 0.49702179431915283
v -0.11350000649690628 -0.09849999845027924 0.5414999723434448
v -0.11250000447034836 -0.09849999845027924 0.5404999852180481
v -0.11350000649690628 -0.09750000387430191 0.5404999852180481
v -0.11300066113471985 -0.09849999845027924 0.5413663983345032
v -0.11350000649690628 -0.0980006605386734 0.5413663983345032
v -0.11302179098129272 -0.09802179038524628 0.5412366390228271
v -0.1126336008310318 -0.0980006605386734 0.5404999852180481
v -0.1126336008310318 -0.09849999845027924 0.5409993529319763
v -0.11276337504386902 -0.09802179038524628 0.540978193283081
v -0.11350000649690628 -0.09763360023498535 0.5409993529319763
v -0.11300066113471985 -0.09763360023498535 0.5404999852180481
v -0.11302179098129272 -0.09776336699724197 0.540978193283081
usemtl Anodized_aluminum
f 51 62 13 2
f 75 86 63 50
f 85 37 14 61
f 3 15 39 26
f 27 38 87 74
f 1 4 6 5
f 4 8 9 6
f 2 7 9 8
f 7 11 12 9
f 3 10 12 11
f 10 5 6 12
f 6 9 12
f 13 16 18 17
f 16 20 21 18
f 14 19 21 20
f 19 23 24 21
f 15 22 24 23
f 22 17 18 24
f 18 21 24
f 25 28 30 29
f 28 32 33 30
f 26 31 33 32
f 31 35 36 33
f 27 34 36 35
f 34 29 30 36
f 30 33 36
f 37 40 42 41
f 40 44 45 42
f 38 43 45 44
f 43 47 48 45
f 39 46 48 47
f 46 41 42 48
f 42 45 48
f 49 52 54 53
f 52 56 57 54
f 50 55 57 56
f 55 59 60 57
f 51 58 60 59
f 58 53 54 60
f 54 57 60
f 61 64 66 65
f 64 68 69 66
f 62 67 69 68
f 67 71 72 69
f 63 70 72 71
f 70 65 66 72
f 66 69 72
f 73 76 78 77
f 76 80 81 78
f 74 79 81 80
f 79 83 84 81
f 75 82 84 83
f 82 77 78 84
f 78 81 84
f 85 88 90 89
f 88 92 93 90
f 86 91 93 92
f 91 95 96 93
f 87 94 96 95
f 94 89 90 96
f 90 93 96
f 25 1 5 28
f 28 5 10 32
f 32 10 3 26
f 2 13 17 7
f 7 17 22 11
f 11 22 15 3
f 14 37 41 19
f 19 41 46 23
f 23 46 39 15
f 38 27 35 43
f 43 35 31 47
f 47 31 26 39
f 73 25 29 76
f 76 29 34 80
f 80 34 27 74
f 37 85 89 40
f 40 89 94 44
f 44 94 87 38
f 86 75 83 91
f 91 83 79 95
f 95 79 74 87
f 49 73 77 52
f 52 77 82 56
f 56 82 75 50
f 85 61 65 88
f 88 65 70 92
f 92 70 63 86
f 62 51 59 67
f 67 59 55 71
f 71 55 50 63
f 1 49 53 4
f 4 53 58 8
f 8 58 51 2
f 61 14 20 64
f 64 20 16 68
f 68 16 13 62
f 25 73 49 1
