mtllib Lens_glass_001.mtl
v -0.00015999999595806003 0.013499999418854713 1.7484554385924223e-12
v -7.999999797903001e-05 0.013499999418854713 -1.7484554385924223e-12
v -0.00016000002506189048 0.013461501337587833 -0.000587367860134691
v -8.000002708286047e-05 0.013461501337587833 -0.000587367860134691
v -0.0001600000396138057 0.013346665538847446 -0.0011646857019513845
v -8.000004891073331e-05 0.013346665538847446 -0.0011646857019513845
v -0.00016000006871763617 0.013157457113265991 -0.0017220755107700825
v -8.000007073860615e-05 0.013157457113265991 -0.0017220755107700825
v -0.00016000009782146662 0.012897113338112831 -0.0022499999031424522
v -8.000009984243661e-05 0.012897113338112831 -0.0022499999031424522
v -0.00016000011237338185 0.012570089660584927 -0.002739426214247942
v -8.000011439435184e-05 0.012570089660584927 -0.002739426214247942
v -0.0001600001414772123 0.012181979604065418 -0.003181980224326253
v -8.000013622222468e-05 0.012181979604065418 -0.003181980224326253
v -0.00016000015602912754 0.011739425361156464 -0.003570089815184474
v -8.000015077413991e-05 0.011739425361156464 -0.003570089815184474
v -0.00016000017058104277 0.011249999515712261 -0.0038971141912043095
v -8.000016532605514e-05 0.011249999515712261 -0.0038971141912043095
v -0.00016000017058104277 0.010722074657678604 -0.004157457500696182
v -8.000017987797037e-05 0.010722074657678604 -0.004157457500696182
v -0.000160000185132958 0.010164685547351837 -0.0043466659262776375
v -8.000018715392798e-05 0.010164685547351837 -0.0043466659262776375
v -0.000160000185132958 0.009587367065250874 -0.0044615017250180244
v -8.00001944298856e-05 0.009587367065250874 -0.0044615017250180244
v -0.00016000019968487322 0.008999999612569809 -0.0044999998062849045
v -8.00001944298856e-05 0.008999999612569809 -0.0044999998062849045
v -0.000160000185132958 0.008412632159888744 -0.0044615017250180244
v -8.00001944298856e-05 0.008412632159888744 -0.0044615017250180244
v -0.000160000185132958 0.00783531367778778 -0.0043466659262776375
v -8.000018715392798e-05 0.00783531367778778 -0.0043466659262776375
v -0.00016000017058104277 0.0072779241017997265 -0.004157457500696182
v -8.000017987797037e-05 0.0072779241017997265 -0.004157457500696182
v -0.00016000017058104277 0.006749999709427357 -0.0038971141912043095
v -8.000016532605514e-05 0.006749999709427357 -0.0038971141912043095
v -0.00016000015602912754 0.006260573398321867 -0.003570089815184474
v -8.000015077413991e-05 0.006260573398321867 -0.003570089815184474
v -0.0001600001414772123 0.0058180196210742 -0.003181980224326253
v -8.000013622222468e-05 0.0058180196210742 -0.003181980224326253
v -0.00016000011237338185 0.005429909564554691 -0.002739426214247942
v -8.000011439435184e-05 0.005429909564554691 -0.002739426214247942
v -0.00016000009782146662 0.0051028854213654995 -0.0022499999031424522
v -8.000009984243661e-05 0.0051028854213654995 -0.0022499999031424522
v -0.00016000006871763617 0.004842542111873627 -0.0017220755107700825
v -8.000007073860615e-05 0.004842542111873627 -0.0017220755107700825
v -0.0001600000396138057 0.0046533336862921715 -0.0011646857019513845
v -8.000004891073331e-05 0.0046533336862921715 -0.0011646857019513845
v -0.00016000002506189048 0.0045384978875517845 -0.000587367860134691
v -8.000002708286047e-05 0.0045384978875517845 -0.000587367860134691
v -0.00015999999595806003 0.0044999998062849045 1.7484554385924223e-12
v -7.999999797903001e-05 0.0044999998062849045 -1.7484554385924223e-12
v -0.00015999996685422957 0.0045384978875517845 0.000587367860134691
v -7.999996887519956e-05 0.0045384978875517845 0.000587367860134691
v -0.00015999995230231434 0.0046533336862921715 0.0011646857019513845
v -7.999994704732671e-05 0.0046533336862921715 0.0011646857019513845
v -0.00015999992319848388 0.004842542111873627 0.0017220755107700825
v -7.999992521945387e-05 0.004842542111873627 0.0017220755107700825
v -0.00015999989409465343 0.0051028854213654995 0.0022499999031424522
v -7.999989611562341e-05 0.0051028854213654995 0.0022499999031424522
v -0.0001599998795427382 0.005429909564554691 0.002739426214247942
v -7.999988156370819e-05 0.005429909564554691 0.002739426214247942
v -0.00015999985043890774 0.0058180196210742 0.003181980224326253
v -7.999985973583534e-05 0.0058180196210742 0.003181980224326253
v -0.00015999983588699251 0.006260573398321867 0.003570089815184474
v -7.999984518392012e-05 0.006260573398321867 0.003570089815184474
v -0.00015999982133507729 0.006749999709427357 0.0038971141912043095
v -7.999983063200489e-05 0.006749999709427357 0.0038971141912043095
v -0.00015999982133507729 0.0072779241017997265 0.004157457500696182
v -7.999981608008966e-05 0.0072779241017997265 0.004157457500696182
v -0.00015999980678316206 0.00783531367778778 0.0043466659262776375
v -7.999980880413204e-05 0.00783531367778778 0.0043466659262776375
v -0.00015999980678316206 0.008412632159888744 0.0044615017250180244
v -7.999980152817443e-05 0.008412632159888744 0.0044615017250180244
v -0.00015999979223124683 0.008999999612569809 0.0044999998062849045
v -7.999980152817443e-05 0.008999999612569809 0.0044999998062849045
v -0.00015999980678316206 0.009587367065250874 0.0044615017250180244
v -7.999980152817443e-05 0.009587367065250874 0.0044615017250180244
v -0.00015999980678316206 0.010164685547351837 0.0043466659262776375
v -7.999980880413204e-05 0.010164685547351837 0.0043466659262776375
v -0.00015999982133507729 0.010722074657678604 0.004157457500696182
v -7.999981608008966e-05 0.010722074657678604 0.004157457500696182
v -0.00015999982133507729 0.011249999515712261 0.0038971141912043095
v -7.999983063200489e-05 0.011249999515712261 0.0038971141912043095
v -0.00015999983588699251 0.011739425361156464 0.003570089815184474
v -7.999984518392012e-05 0.011739425361156464 0.003570089815184474
v -0.00015999985043890774 0.012181979604065418 0.003181980224326253
v -7.999985973583534e-05 0.012181979604065418 0.003181980224326253
v -0.0001599998795427382 0.012570089660584927 0.002739426214247942
v -7.999988156370819e-05 0.012570089660584927 0.002739426214247942
v -0.00015999989409465343 0.012897113338112831 0.0022499999031424522
v -7.999989611562341e-05 0.012897113338112831 0.0022499999031424522
v -0.00015999992319848388 0.013157457113265991 0.0017220755107700825
v -7.999992521945387e-05 0.013157457113265991 0.0017220755107700825
v -0.00015999995230231434 0.013346665538847446 0.0011646857019513845
v -7.999994704732671e-05 0.013346665538847446 0.0011646857019513845
v -0.00015999996685422957 0.013461501337587833 0.000587367860134691
v -7.999996887519956e-05 0.013461501337587833 0.000587367860134691
usemtl Optical_coating
f 1 2 4 3
f 3 4 6 5
f 5 6 8 7
f 7 8 10 9
f 9 10 12 11
f 11 12 14 13
f 13 14 16 15
f 15 16 18 17
f 17 18 20 19
f 19 20 22 21
f 21 22 24 23
f 23 24 26 25
f 25 26 28 27
f 27 28 30 29
f 29 30 32 31
f 31 32 34 33
f 33 34 36 35
f 35 36 38 37
f 37 38 40 39
f 39 40 42 41
f 41 42 44 43
f 43 44 46 45
f 45 46 48 47
f 47 48 50 49
f 49 50 52 51
f 51 52 54 53
f 53 54 56 55
f 55 56 58 57
f 57 58 60 59
f 59 60 62 61
f 61 62 64 63
f 63 64 66 65
f 65 66 68 67
f 67 68 70 69
f 69 70 72 71
f 71 72 74 73
f 73 74 76 75
f 75 76 78 77
f 77 78 80 79
f 79 80 82 81
f 81 82 84 83
f 83 84 86 85
f 85 86 88 87
f 87 88 90 89
f 89 90 92 91
f 91 92 94 93
f 4 2 96 94 92 90 88 86 84 82 80 78 76 74 72 70 68 66 64 62 60 58 56 54 52 50 48 46 44 42 40 38 36 34 32 30 28 26 24 22 20 18 16 14 12 10 8 6
f 93 94 96 95
f 95 96 2 1
f 1 3 5 7 9 11 13 15 17 19 21 23 25 27 29 31 33 35 37 39 41 43 45 47 49 51 53 55 57 59 61 63 65 67 69 71 73 75 77 79 81 83 85 87 89 91 93 95
