mtllib Lens_barrel_001.mtl
v -0.0002799999783746898 0.015399999916553497 1.7484554385924223e-12
v -0.00019999999494757503 0.015399999916553497 -1.7484554385924223e-12
v -0.00028000003658235073 0.015345246531069279 -0.0008353676530532539
v -0.00020000003860332072 0.015345246531069279 -0.0008353676530532539
v -0.0002800000656861812 0.015181925147771835 -0.0016564418328925967
v -0.00020000006770715117 0.015181925147771835 -0.0016564418328925967
v -0.00028000009479001164 0.014912828803062439 -0.0024491739459335804
v -0.00020000009681098163 0.014912828803062439 -0.0024491739459335804
v -0.0002800001238938421 0.014542561955749989 -0.0031999999191612005
v -0.00020000014046672732 0.014542561955749989 -0.0031999999191612005
v -0.00028000015299767256 0.014077460393309593 -0.0038960729725658894
v -0.00020000016957055777 0.014077460393309593 -0.0038960729725658894
v -0.000280000182101503 0.013525482267141342 -0.0045254831202328205
v -0.00020000019867438823 0.013525482267141342 -0.0045254831202328205
v -0.00028000021120533347 0.012896072119474411 -0.0050774612464010715
v -0.00020000021322630346 0.012896072119474411 -0.0050774612464010715
v -0.00028000024030916393 0.012199999764561653 -0.00554256234318018
v -0.00020000024233013391 0.012199999764561653 -0.00554256234318018
v -0.00028000024030916393 0.011449173092842102 -0.005912828724831343
v -0.00020000025688204914 0.011449173092842102 -0.005912828724831343
v -0.0002800002694129944 0.010656441561877728 -0.006181925069540739
v -0.00020000027143396437 0.010656441561877728 -0.006181925069540739
v -0.0002800002694129944 0.00983536709100008 -0.00634524691849947
v -0.00020000027143396437 0.00983536709100008 -0.00634524691849947
v -0.0002800002694129944 0.008999999612569809 -0.006399999838322401
v -0.00020000027143396437 0.008999999612569809 -0.006399999838322401
v -0.0002800002694129944 0.008164632134139538 -0.00634524691849947
v -0.00020000027143396437 0.008164632134139538 -0.00634524691849947
v -0.0002800002694129944 0.00734355766326189 -0.006181925069540739
v -0.00020000027143396437 0.00734355766326189 -0.006181925069540739
v -0.00028000024030916393 0.0065508256666362286 -0.005912828724831343
v -0.00020000025688204914 0.0065508256666362286 -0.005912828724831343
v -0.00028000024030916393 0.005799999460577965 -0.00554256234318018
v -0.00020000024233013391 0.005799999460577965 -0.00554256234318018
v -0.00028000021120533347 0.00510392664000392 -0.0050774612464010715
v -0.00020000021322630346 0.00510392664000392 -0.0050774612464010715
v -0.000280000182101503 0.0044745164923369884 -0.0045254831202328205
v -0.00020000019867438823 0.0044745164923369884 -0.0045254831202328205
v -0.00028000015299767256 0.003922538366168737 -0.0038960729725658894
v -0.00020000016957055777 0.003922538366168737 -0.0038960729725658894
v -0.0002800001238938421 0.0034574372693896294 -0.0031999999191612005
v -0.00020000014046672732 0.0034574372693896294 -0.0031999999191612005
v -0.00028000009479001164 0.0030871708877384663 -0.0024491739459335804
v -0.00020000009681098163 0.0030871708877384663 -0.0024491739459335804
v -0.0002800000656861812 0.00281807454302907 -0.0016564418328925967
v -0.00020000006770715117 0.00281807454302907 -0.0016564418328925967
v -0.00028000003658235073 0.002654752694070339 -0.0008353676530532539
v -0.00020000003860332072 0.002654752694070339 -0.0008353676530532539
v -0.0002799999783746898 0.002599999774247408 1.7484554385924223e-12
v -0.00019999999494757503 0.002599999774247408 -1.7484554385924223e-12
v -0.00027999994927085936 0.002654752694070339 0.0008353676530532539
v -0.00019999995129182935 0.002654752694070339 0.0008353676530532539
v -0.0002799999201670289 0.00281807454302907 0.0016564418328925967
v -0.0001999999221879989 0.00281807454302907 0.0016564418328925967
v -0.00027999989106319845 0.0030871708877384663 0.0024491739459335804
v -0.00019999989308416843 0.0030871708877384663 0.0024491739459335804
v -0.000279999861959368 0.0034574372693896294 0.0031999999191612005
v -0.00019999984942842275 0.0034574372693896294 0.0031999999191612005
v -0.00027999983285553753 0.003922538366168737 0.0038960729725658894
v -0.0001999998203245923 0.003922538366168737 0.0038960729725658894
v -0.0002799998037517071 0.0044745164923369884 0.0045254831202328205
v -0.00019999979122076184 0.0044745164923369884 0.0045254831202328205
v -0.0002799997746478766 0.00510392664000392 0.0050774612464010715
v -0.0001999997766688466 0.00510392664000392 0.0050774612464010715
v -0.00027999974554404616 0.005799999460577965 0.00554256234318018
v -0.00019999974756501615 0.005799999460577965 0.00554256234318018
v -0.00027999974554404616 0.0065508256666362286 0.005912828724831343
v -0.00019999973301310092 0.0065508256666362286 0.005912828724831343
v -0.0002799997164402157 0.00734355766326189 0.006181925069540739
v -0.0001999997184611857 0.00734355766326189 0.006181925069540739
v -0.0002799997164402157 0.008164632134139538 0.00634524691849947
v -0.0001999997184611857 0.008164632134139538 0.00634524691849947
v -0.0002799997164402157 0.008999999612569809 0.006399999838322401
v -0.0001999997184611857 0.008999999612569809 0.006399999838322401
v -0.0002799997164402157 0.00983536709100008 0.00634524691849947
v -0.0001999997184611857 0.00983536709100008 0.00634524691849947
v -0.0002799997164402157 0.010656441561877728 0.006181925069540739
v -0.0001999997184611857 0.010656441561877728 0.006181925069540739
v -0.00027999974554404616 0.011449173092842102 0.005912828724831343
v -0.00019999973301310092 0.011449173092842102 0.005912828724831343
v -0.00027999974554404616 0.012199999764561653 0.00554256234318018
v -0.00019999974756501615 0.012199999764561653 0.00554256234318018
v -0.0002799997746478766 0.012896072119474411 0.0050774612464010715
v -0.0001999997766688466 0.012896072119474411 0.0050774612464010715
v -0.0002799998037517071 0.013525482267141342 0.0045254831202328205
v -0.00019999979122076184 0.013525482267141342 0.0045254831202328205
v -0.00027999983285553753 0.014077460393309593 0.0038960729725658894
v -0.0001999998203245923 0.014077460393309593 0.0038960729725658894
v -0.000279999861959368 0.014542561955749989 0.0031999999191612005
v -0.00019999984942842275 0.014542561955749989 0.0031999999191612005
v -0.00027999989106319845 0.014912828803062439 0.0024491739459335804
v -0.00019999989308416843 0.014912828803062439 0.0024491739459335804
v -0.0002799999201670289 0.015181925147771835 0.0016564418328925967
v -0.0001999999221879989 0.015181925147771835 0.0016564418328925967
v -0.00027999994927085936 0.015345246531069279 0.0008353676530532539
v -0.00019999995129182935 0.015345246531069279 0.0008353676530532539
usemtl Slot_and_fastener
f 1 2 4 3
f 3 4 6 5
f 5 6 8 7
f 7 8 10 9
f 9 10 12 11
f 11 12 14 13
f 13 14 16 15
f 15 16 18 17
f 17 18 20 19
f 19 20 22 21
f 21 22 24 23
f 23 24 26 25
f 25 26 28 27
f 27 28 30 29
f 29 30 32 31
f 31 32 34 33
f 33 34 36 35
f 35 36 38 37
f 37 38 40 39
f 39 40 42 41
f 41 42 44 43
f 43 44 46 45
f 45 46 48 47
f 47 48 50 49
f 49 50 52 51
f 51 52 54 53
f 53 54 56 55
f 55 56 58 57
f 57 58 60 59
f 59 60 62 61
f 61 62 64 63
f 63 64 66 65
f 65 66 68 67
f 67 68 70 69
f 69 70 72 71
f 71 72 74 73
f 73 74 76 75
f 75 76 78 77
f 77 78 80 79
f 79 80 82 81
f 81 82 84 83
f 83 84 86 85
f 85 86 88 87
f 87 88 90 89
f 89 90 92 91
f 91 92 94 93
f 4 2 96 94 92 90 88 86 84 82 80 78 76 74 72 70 68 66 64 62 60 58 56 54 52 50 48 46 44 42 40 38 36 34 32 30 28 26 24 22 20 18 16 14 12 10 8 6
f 93 94 96 95
f 95 96 2 1
f 1 3 5 7 9 11 13 15 17 19 21 23 25 27 29 31 33 35 37 39 41 43 45 47 49 51 53 55 57 59 61 63 65 67 69 71 73 75 77 79 81 83 85 87 89 91 93 95
