mtllib Lens_ring_001.mtl
v -0.0004000000189989805 0.01599999889731407 1.7484554385924223e-12
v -0.00031999999191612005 0.01599999889731407 -1.7484554385924223e-12
v -0.000400000048102811 0.015940114855766296 -0.0009136834414675832
v -0.00032000005012378097 0.015940114855766296 -0.0009136834414675832
v -0.00040000007720664144 0.01576147973537445 -0.0018117333529517055
v -0.0003200000792276114 0.01576147973537445 -0.0018117333529517055
v -0.00040000013541430235 0.01546715572476387 -0.0026787843089550734
v -0.00032000013743527234 0.01546715572476387 -0.0026787843089550734
v -0.0004000001645181328 0.015062177553772926 -0.0035000001080334187
v -0.0003200001665391028 0.015062177553772926 -0.0035000001080334187
v -0.00040000019362196326 0.014553472399711609 -0.004261330235749483
v -0.00032000019564293325 0.014553472399711609 -0.004261330235749483
v -0.0004000002227257937 0.013949747197329998 -0.004949747584760189
v -0.0003200002247467637 0.013949747197329998 -0.004949747584760189
v -0.0004000002518296242 0.013261329382658005 -0.005553473252803087
v -0.00032000025385059416 0.013261329382658005 -0.005553473252803087
v -0.00040000028093345463 0.01249999925494194 -0.006062177941203117
v -0.0003200002829544246 0.01249999925494194 -0.006062177941203117
v -0.00040000028093345463 0.011678784154355526 -0.006467156577855349
v -0.0003200002829544246 0.011678784154355526 -0.006467156577855349
v -0.0004000003100372851 0.010811733081936836 -0.006761481054127216
v -0.0003200003120582551 0.010811733081936836 -0.006761481054127216
v -0.0004000003100372851 0.00991368293762207 -0.006940114311873913
v -0.0003200003120582551 0.00991368293762207 -0.006940114311873913
v -0.0004000003100372851 0.008999999612569809 -0.007000000216066837
v -0.0003200003120582551 0.008999999612569809 -0.007000000216066837
v -0.0004000003100372851 0.008086316287517548 -0.006940114311873913
v -0.0003200003120582551 0.008086316287517548 -0.006940114311873913
v -0.0004000003100372851 0.007188266143202782 -0.006761481054127216
v -0.0003200003120582551 0.007188266143202782 -0.006761481054127216
v -0.00040000028093345463 0.006321215070784092 -0.006467156577855349
v -0.0003200002829544246 0.006321215070784092 -0.006467156577855349
v -0.00040000028093345463 0.00549999950453639 -0.006062177941203117
v -0.0003200002829544246 0.00549999950453639 -0.006062177941203117
v -0.0004000002518296242 0.004738669376820326 -0.005553473252803087
v -0.00032000025385059416 0.004738669376820326 -0.005553473252803087
v -0.0004000002227257937 0.00405025202780962 -0.004949747584760189
v -0.0003200002247467637 0.00405025202780962 -0.004949747584760189
v -0.00040000019362196326 0.0034465263597667217 -0.004261330235749483
v -0.00032000019564293325 0.0034465263597667217 -0.004261330235749483
v -0.0004000001645181328 0.0029378216713666916 -0.0035000001080334187
v -0.0003200001665391028 0.0029378216713666916 -0.0035000001080334187
v -0.00040000013541430235 0.0025328430347144604 -0.0026787843089550734
v -0.00032000013743527234 0.0025328430347144604 -0.0026787843089550734
v -0.00040000007720664144 0.0022385185584425926 -0.0018117333529517055
v -0.0003200000792276114 0.0022385185584425926 -0.0018117333529517055
v -0.000400000048102811 0.002059885300695896 -0.0009136834414675832
v -0.00032000005012378097 0.002059885300695896 -0.0009136834414675832
v -0.0004000000189989805 0.0019999993965029716 1.7484554385924223e-12
v -0.00031999999191612005 0.0019999993965029716 -1.7484554385924223e-12
v -0.0003999999607913196 0.002059885300695896 0.0009136834414675832
v -0.0003199999628122896 0.002059885300695896 0.0009136834414675832
v -0.00039999993168748915 0.0022385185584425926 0.0018117333529517055
v -0.00031999993370845914 0.0022385185584425926 0.0018117333529517055
v -0.00039999987347982824 0.0025328430347144604 0.0026787843089550734
v -0.0003199998755007982 0.0025328430347144604 0.0026787843089550734
v -0.0003999998443759978 0.0029378216713666916 0.0035000001080334187
v -0.00031999984639696777 0.0029378216713666916 0.0035000001080334187
v -0.0003999998152721673 0.0034465263597667217 0.004261330235749483
v -0.0003199998172931373 0.0034465263597667217 0.004261330235749483
v -0.00039999978616833687 0.00405025202780962 0.004949747584760189
v -0.00031999978818930686 0.00405025202780962 0.004949747584760189
v -0.0003999997570645064 0.004738669376820326 0.005553473252803087
v -0.0003199997590854764 0.004738669376820326 0.005553473252803087
v -0.00039999972796067595 0.00549999950453639 0.006062177941203117
v -0.00031999972998164594 0.00549999950453639 0.006062177941203117
v -0.00039999972796067595 0.006321215070784092 0.006467156577855349
v -0.00031999972998164594 0.006321215070784092 0.006467156577855349
v -0.0003999996988568455 0.007188266143202782 0.006761481054127216
v -0.0003199997008778155 0.007188266143202782 0.006761481054127216
v -0.0003999996988568455 0.008086316287517548 0.006940114311873913
v -0.0003199997008778155 0.008086316287517548 0.006940114311873913
v -0.0003999996988568455 0.008999999612569809 0.007000000216066837
v -0.0003199997008778155 0.008999999612569809 0.007000000216066837
v -0.0003999996988568455 0.00991368293762207 0.006940114311873913
v -0.0003199997008778155 0.00991368293762207 0.006940114311873913
v -0.0003999996988568455 0.010811733081936836 0.006761481054127216
v -0.0003199997008778155 0.010811733081936836 0.006761481054127216
v -0.00039999972796067595 0.011678784154355526 0.006467156577855349
v -0.00031999972998164594 0.011678784154355526 0.006467156577855349
v -0.00039999972796067595 0.01249999925494194 0.006062177941203117
v -0.00031999972998164594 0.01249999925494194 0.006062177941203117
v -0.0003999997570645064 0.013261329382658005 0.005553473252803087
v -0.0003199997590854764 0.013261329382658005 0.005553473252803087
v -0.00039999978616833687 0.013949747197329998 0.004949747584760189
v -0.00031999978818930686 0.013949747197329998 0.004949747584760189
v -0.0003999998152721673 0.014553472399711609 0.004261330235749483
v -0.0003199998172931373 0.014553472399711609 0.004261330235749483
v -0.0003999998443759978 0.015062177553772926 0.0035000001080334187
v -0.00031999984639696777 0.015062177553772926 0.0035000001080334187
v -0.00039999987347982824 0.01546715572476387 0.0026787843089550734
v -0.0003199998755007982 0.01546715572476387 0.0026787843089550734
v -0.00039999993168748915 0.01576147973537445 0.0018117333529517055
v -0.00031999993370845914 0.01576147973537445 0.0018117333529517055
v -0.0003999999607913196 0.015940114855766296 0.0009136834414675832
v -0.0003199999628122896 0.015940114855766296 0.0009136834414675832
usemtl Gemini_silver
f 1 2 4 3
f 3 4 6 5
f 5 6 8 7
f 7 8 10 9
f 9 10 12 11
f 11 12 14 13
f 13 14 16 15
f 15 16 18 17
f 17 18 20 19
f 19 20 22 21
f 21 22 24 23
f 23 24 26 25
f 25 26 28 27
f 27 28 30 29
f 29 30 32 31
f 31 32 34 33
f 33 34 36 35
f 35 36 38 37
f 37 38 40 39
f 39 40 42 41
f 41 42 44 43
f 43 44 46 45
f 45 46 48 47
f 47 48 50 49
f 49 50 52 51
f 51 52 54 53
f 53 54 56 55
f 55 56 58 57
f 57 58 60 59
f 59 60 62 61
f 61 62 64 63
f 63 64 66 65
f 65 66 68 67
f 67 68 70 69
f 69 70 72 71
f 71 72 74 73
f 73 74 76 75
f 75 76 78 77
f 77 78 80 79
f 79 80 82 81
f 81 82 84 83
f 83 84 86 85
f 85 86 88 87
f 87 88 90 89
f 89 90 92 91
f 91 92 94 93
f 4 2 96 94 92 90 88 86 84 82 80 78 76 74 72 70 68 66 64 62 60 58 56 54 52 50 48 46 44 42 40 38 36 34 32 30 28 26 24 22 20 18 16 14 12 10 8 6
f 93 94 96 95
f 95 96 2 1
f 1 3 5 7 9 11 13 15 17 19 21 23 25 27 29 31 33 35 37 39 41 43 45 47 49 51 53 55 57 59 61 63 65 67 69 71 73 75 77 79 81 83 85 87 89 91 93 95
