mtllib Lens_aperture_001.mtl
v -7.999999797903001e-05 0.01119999960064888 1.7484554385924223e-12
v 0.0 0.01119999960064888 -1.7484554385924223e-12
v -8.000001253094524e-05 0.011181178502738476 -0.0002871576289180666
v -1.2552058351045225e-11 0.011181178502738476 -0.0002871576289180666
v -8.000001980690286e-05 0.011125036515295506 -0.0005694018909707665
v -2.4889347527423666e-11 0.011125036515295506 -0.0005694018909707665
v -8.000003435881808e-05 0.011032534763216972 -0.0008419036166742444
v -3.680077423351413e-11 0.011032534763216972 -0.0008419036166742444
v -8.000004891073331e-05 0.010905255563557148 -0.0010999999940395355
v -4.8082527542847586e-11 0.010905255563557148 -0.0010999999940395355
v -8.000005618669093e-05 0.010745377279818058 -0.0013392751570791006
v -5.854157436591123e-11 0.010745377279818058 -0.0013392751570791006
v -8.000006346264854e-05 0.010555634275078773 -0.0015556348953396082
v -6.79989606289233e-11 0.010555634275078773 -0.0015556348953396082
v -8.000007073860615e-05 0.010339275002479553 -0.0017453773180022836
v -7.629286785659772e-11 0.010339275002479553 -0.0017453773180022836
v -8.000007801456377e-05 0.010099999606609344 -0.0019052558345720172
v -8.328137485191789e-11 0.010099999606609344 -0.0019052558345720172
v -8.000008529052138e-05 0.009841903112828732 -0.0020325349178165197
v -8.884492447291947e-11 0.009841903112828732 -0.0020325349178165197
v -8.0000092566479e-05 0.009569401852786541 -0.002125036669895053
v -9.288830121745306e-11 0.009569401852786541 -0.002125036669895053
v -8.0000092566479e-05 0.009287157095968723 -0.002181178657338023
v -9.534234512997841e-11 0.009287157095968723 -0.002181178657338023
v -8.0000092566479e-05 0.008999999612569809 -0.002199999988079071
v -9.616505508569517e-11 0.008999999612569809 -0.002199999988079071
v -8.0000092566479e-05 0.008712842129170895 -0.002181178657338023
v -9.534234512997841e-11 0.008712842129170895 -0.002181178657338023
v -8.0000092566479e-05 0.008430597372353077 -0.002125036669895053
v -9.288830121745306e-11 0.008430597372353077 -0.002125036669895053
v -8.000008529052138e-05 0.008158096112310886 -0.0020325349178165197
v -8.884492447291947e-11 0.008158096112310886 -0.0020325349178165197
v -8.000007801456377e-05 0.007899999618530273 -0.0019052558345720172
v -8.328137485191789e-11 0.007899999618530273 -0.0019052558345720172
v -8.000007073860615e-05 0.007660724222660065 -0.0017453773180022836
v -7.629286785659772e-11 0.007660724222660065 -0.0017453773180022836
v -8.000006346264854e-05 0.007444364950060844 -0.0015556348953396082
v -6.79989606289233e-11 0.007444364950060844 -0.0015556348953396082
v -8.000005618669093e-05 0.007254622410982847 -0.0013392751570791006
v -5.854157436591123e-11 0.007254622410982847 -0.0013392751570791006
v -8.000004891073331e-05 0.00709474366158247 -0.0010999999940395355
v -4.8082527542847586e-11 0.00709474366158247 -0.0010999999940395355
v -8.000003435881808e-05 0.006967464461922646 -0.0008419036166742444
v -3.680077423351413e-11 0.006967464461922646 -0.0008419036166742444
v -8.000001980690286e-05 0.006874962709844112 -0.0005694018909707665
v -2.4889347527423666e-11 0.006874962709844112 -0.0005694018909707665
v -8.000001253094524e-05 0.006818820722401142 -0.0002871576289180666
v -1.2552058351045225e-11 0.006818820722401142 -0.0002871576289180666
v -7.999999797903001e-05 0.006799999624490738 1.7484554385924223e-12
v 0.0 0.006799999624490738 -1.7484554385924223e-12
v -7.999998342711478e-05 0.006818820722401142 0.0002871576289180666
v 1.2552058351045225e-11 0.006818820722401142 0.0002871576289180666
v -7.999997615115717e-05 0.006874962709844112 0.0005694018909707665
v 2.4889347527423666e-11 0.006874962709844112 0.0005694018909707665
v -7.999996159924194e-05 0.006967464461922646 0.0008419036166742444
v 3.680077423351413e-11 0.006967464461922646 0.0008419036166742444
v -7.999994704732671e-05 0.00709474366158247 0.0010999999940395355
v 4.8082527542847586e-11 0.00709474366158247 0.0010999999940395355
v -7.99999397713691e-05 0.007254622410982847 0.0013392751570791006
v 5.854157436591123e-11 0.007254622410982847 0.0013392751570791006
v -7.999993249541149e-05 0.007444364950060844 0.0015556348953396082
v 6.79989606289233e-11 0.007444364950060844 0.0015556348953396082
v -7.999992521945387e-05 0.007660724222660065 0.0017453773180022836
v 7.629286785659772e-11 0.007660724222660065 0.0017453773180022836
v -7.999991794349626e-05 0.007899999618530273 0.0019052558345720172
v 8.328137485191789e-11 0.007899999618530273 0.0019052558345720172
v -7.999991066753864e-05 0.008158096112310886 0.0020325349178165197
v 8.884492447291947e-11 0.008158096112310886 0.0020325349178165197
v -7.999990339158103e-05 0.008430597372353077 0.002125036669895053
v 9.288830121745306e-11 0.008430597372353077 0.002125036669895053
v -7.999990339158103e-05 0.008712842129170895 0.002181178657338023
v 9.534234512997841e-11 0.008712842129170895 0.002181178657338023
v -7.999990339158103e-05 0.008999999612569809 0.002199999988079071
v 9.616505508569517e-11 0.008999999612569809 0.002199999988079071
v -7.999990339158103e-05 0.009287157095968723 0.002181178657338023
v 9.534234512997841e-11 0.009287157095968723 0.002181178657338023
v -7.999990339158103e-05 0.009569401852786541 0.002125036669895053
v 9.288830121745306e-11 0.009569401852786541 0.002125036669895053
v -7.999991066753864e-05 0.009841903112828732 0.0020325349178165197
v 8.884492447291947e-11 0.009841903112828732 0.0020325349178165197
v -7.999991794349626e-05 0.010099999606609344 0.0019052558345720172
v 8.328137485191789e-11 0.010099999606609344 0.0019052558345720172
v -7.999992521945387e-05 0.010339275002479553 0.0017453773180022836
v 7.629286785659772e-11 0.010339275002479553 0.0017453773180022836
v -7.999993249541149e-05 0.010555634275078773 0.0015556348953396082
v 6.79989606289233e-11 0.010555634275078773 0.0015556348953396082
v -7.99999397713691e-05 0.010745377279818058 0.0013392751570791006
v 5.854157436591123e-11 0.010745377279818058 0.0013392751570791006
v -7.999994704732671e-05 0.010905255563557148 0.0010999999940395355
v 4.8082527542847586e-11 0.010905255563557148 0.0010999999940395355
v -7.999996159924194e-05 0.011032534763216972 0.0008419036166742444
v 3.680077423351413e-11 0.011032534763216972 0.0008419036166742444
v -7.999997615115717e-05 0.011125036515295506 0.0005694018909707665
v 2.4889347527423666e-11 0.011125036515295506 0.0005694018909707665
v -7.999998342711478e-05 0.011181178502738476 0.0002871576289180666
v 1.2552058351045225e-11 0.011181178502738476 0.0002871576289180666
usemtl Gemini_black_glass
f 1 2 4 3
f 3 4 6 5
f 5 6 8 7
f 7 8 10 9
f 9 10 12 11
f 11 12 14 13
f 13 14 16 15
f 15 16 18 17
f 17 18 20 19
f 19 20 22 21
f 21 22 24 23
f 23 24 26 25
f 25 26 28 27
f 27 28 30 29
f 29 30 32 31
f 31 32 34 33
f 33 34 36 35
f 35 36 38 37
f 37 38 40 39
f 39 40 42 41
f 41 42 44 43
f 43 44 46 45
f 45 46 48 47
f 47 48 50 49
f 49 50 52 51
f 51 52 54 53
f 53 54 56 55
f 55 56 58 57
f 57 58 60 59
f 59 60 62 61
f 61 62 64 63
f 63 64 66 65
f 65 66 68 67
f 67 68 70 69
f 69 70 72 71
f 71 72 74 73
f 73 74 76 75
f 75 76 78 77
f 77 78 80 79
f 79 80 82 81
f 81 82 84 83
f 83 84 86 85
f 85 86 88 87
f 87 88 90 89
f 89 90 92 91
f 91 92 94 93
f 4 2 96 94 92 90 88 86 84 82 80 78 76 74 72 70 68 66 64 62 60 58 56 54 52 50 48 46 44 42 40 38 36 34 32 30 28 26 24 22 20 18 16 14 12 10 8 6
f 93 94 96 95
f 95 96 2 1
f 1 3 5 7 9 11 13 15 17 19 21 23 25 27 29 31 33 35 37 39 41 43 45 47 49 51 53 55 57 59 61 63 65 67 69 71 73 75 77 79 81 83 85 87 89 91 93 95
