mtllib Socket_bolt_007.mtl
v 0.13500000536441803 0.11950000375509262 0.5394999980926514
v 0.13500000536441803 0.11950000375509262 0.5425000190734863
v 0.13558737933635712 0.11946150660514832 0.5394999980926514
v 0.13558737933635712 0.11946150660514832 0.5425000190734863
v 0.13616469502449036 0.11934667080640793 0.5394999980926514
v 0.13616469502449036 0.11934667080640793 0.5425000190734863
v 0.13672208786010742 0.11915746331214905 0.5394999980926514
v 0.13672208786010742 0.11915746331214905 0.5425000190734863
v 0.13725000619888306 0.11889711767435074 0.5394999980926514
v 0.13725000619888306 0.11889711767435074 0.5425000190734863
v 0.13773943483829498 0.11857008934020996 0.5394999980926514
v 0.13773943483829498 0.11857008934020996 0.5425000190734863
v 0.13818198442459106 0.1181819811463356 0.5394999980926514
v 0.13818198442459106 0.1181819811463356 0.5425000190734863
v 0.13857010006904602 0.11773943156003952 0.5394999980926514
v 0.13857010006904602 0.11773943156003952 0.5425000190734863
v 0.1388971209526062 0.1172500029206276 0.5394999980926514
v 0.1388971209526062 0.1172500029206276 0.5425000190734863
v 0.1391574591398239 0.11672207713127136 0.5394999980926514
v 0.1391574591398239 0.11672207713127136 0.5425000190734863
v 0.1393466740846634 0.1161646842956543 0.5394999980926514
v 0.1393466740846634 0.1161646842956543 0.5425000190734863
v 0.13946150243282318 0.11558736860752106 0.5394999980926514
v 0.13946150243282318 0.11558736860752106 0.5425000190734863
v 0.13950000703334808 0.11500000208616257 0.5394999980926514
v 0.13950000703334808 0.11500000208616257 0.5425000190734863
v 0.13946150243282318 0.11441263556480408 0.5394999980926514
v 0.13946150243282318 0.11441263556480408 0.5425000190734863
v 0.1393466740846634 0.11383531987667084 0.5394999980926514
v 0.1393466740846634 0.11383531987667084 0.5425000190734863
v 0.1391574591398239 0.11327792704105377 0.5394999980926514
v 0.1391574591398239 0.11327792704105377 0.5425000190734863
v 0.1388971209526062 0.11275000125169754 0.5394999980926514
v 0.1388971209526062 0.11275000125169754 0.5425000190734863
v 0.13857010006904602 0.11226057261228561 0.5394999980926514
v 0.13857010006904602 0.11226057261228561 0.5425000190734863
v 0.13818198442459106 0.11181802302598953 0.5394999980926514
v 0.13818198442459106 0.11181802302598953 0.5425000190734863
v 0.13773943483829498 0.11142991483211517 0.5394999980926514
v 0.13773943483829498 0.11142991483211517 0.5425000190734863
v 0.13725000619888306 0.1111028864979744 0.5394999980926514
v 0.13725000619888306 0.1111028864979744 0.5425000190734863
v 0.13672208786010742 0.11084254086017609 0.5394999980926514
v 0.13672208786010742 0.11084254086017609 0.5425000190734863
v 0.13616469502449036 0.1106533333659172 0.5394999980926514
v 0.13616469502449036 0.1106533333659172 0.5425000190734863
v 0.13558737933635712 0.11053849756717682 0.5394999980926514
v 0.13558737933635712 0.11053849756717682 0.5425000190734863
v 0.13500000536441803 0.11050000041723251 0.5394999980926514
v 0.13500000536441803 0.11050000041723251 0.5425000190734863
v 0.13441263139247894 0.11053849756717682 0.5394999980926514
v 0.13441263139247894 0.11053849756717682 0.5425000190734863
v 0.1338353157043457 0.1106533333659172 0.5394999980926514
v 0.1338353157043457 0.1106533333659172 0.5425000190734863
v 0.13327792286872864 0.11084254086017609 0.5394999980926514
v 0.13327792286872864 0.11084254086017609 0.5425000190734863
v 0.132750004529953 0.1111028864979744 0.5394999980926514
v 0.132750004529953 0.1111028864979744 0.5425000190734863
v 0.13226057589054108 0.11142991483211517 0.5394999980926514
v 0.13226057589054108 0.11142991483211517 0.5425000190734863
v 0.131818026304245 0.11181802302598953 0.5394999980926514
v 0.131818026304245 0.11181802302598953 0.5425000190734863
v 0.13142991065979004 0.11226057261228561 0.5394999980926514
v 0.13142991065979004 0.11226057261228561 0.5425000190734863
v 0.13110288977622986 0.11275000125169754 0.5394999980926514
v 0.13110288977622986 0.11275000125169754 0.5425000190734863
v 0.13084255158901215 0.11327792704105377 0.5394999980926514
v 0.13084255158901215 0.11327792704105377 0.5425000190734863
v 0.13065333664417267 0.11383531987667084 0.5394999980926514
v 0.13065333664417267 0.11383531987667084 0.5425000190734863
v 0.13053850829601288 0.11441263556480408 0.5394999980926514
v 0.13053850829601288 0.11441263556480408 0.5425000190734863
v 0.13050000369548798 0.11500000208616257 0.5394999980926514
v 0.13050000369548798 0.11500000208616257 0.5425000190734863
v 0.13053850829601288 0.11558736860752106 0.5394999980926514
v 0.13053850829601288 0.11558736860752106 0.5425000190734863
v 0.13065333664417267 0.1161646842956543 0.5394999980926514
v 0.13065333664417267 0.1161646842956543 0.5425000190734863
v 0.13084255158901215 0.11672207713127136 0.5394999980926514
v 0.13084255158901215 0.11672207713127136 0.5425000190734863
v 0.13110288977622986 0.1172500029206276 0.5394999980926514
v 0.13110288977622986 0.1172500029206276 0.5425000190734863
v 0.13142991065979004 0.11773943156003952 0.5394999980926514
v 0.13142991065979004 0.11773943156003952 0.5425000190734863
v 0.131818026304245 0.1181819811463356 0.5394999980926514
v 0.131818026304245 0.1181819811463356 0.5425000190734863
v 0.13226057589054108 0.11857008934020996 0.5394999980926514
v 0.13226057589054108 0.11857008934020996 0.5425000190734863
v 0.132750004529953 0.11889711767435074 0.5394999980926514
v 0.132750004529953 0.11889711767435074 0.5425000190734863
v 0.13327792286872864 0.11915746331214905 0.5394999980926514
v 0.13327792286872864 0.11915746331214905 0.5425000190734863
v 0.1338353157043457 0.11934667080640793 0.5394999980926514
v 0.1338353157043457 0.11934667080640793 0.5425000190734863
v 0.13441263139247894 0.11946150660514832 0.5394999980926514
v 0.13441263139247894 0.11946150660514832 0.5425000190734863
usemtl Slot_and_fastener
f 1 2 4 3
f 3 4 6 5
f 5 6 8 7
f 7 8 10 9
f 9 10 12 11
f 11 12 14 13
f 13 14 16 15
f 15 16 18 17
f 17 18 20 19
f 19 20 22 21
f 21 22 24 23
f 23 24 26 25
f 25 26 28 27
f 27 28 30 29
f 29 30 32 31
f 31 32 34 33
f 33 34 36 35
f 35 36 38 37
f 37 38 40 39
f 39 40 42 41
f 41 42 44 43
f 43 44 46 45
f 45 46 48 47
f 47 48 50 49
f 49 50 52 51
f 51 52 54 53
f 53 54 56 55
f 55 56 58 57
f 57 58 60 59
f 59 60 62 61
f 61 62 64 63
f 63 64 66 65
f 65 66 68 67
f 67 68 70 69
f 69 70 72 71
f 71 72 74 73
f 73 74 76 75
f 75 76 78 77
f 77 78 80 79
f 79 80 82 81
f 81 82 84 83
f 83 84 86 85
f 85 86 88 87
f 87 88 90 89
f 89 90 92 91
f 91 92 94 93
f 4 2 96 94 92 90 88 86 84 82 80 78 76 74 72 70 68 66 64 62 60 58 56 54 52 50 48 46 44 42 40 38 36 34 32 30 28 26 24 22 20 18 16 14 12 10 8 6
f 93 94 96 95
f 95 96 2 1
f 1 3 5 7 9 11 13 15 17 19 21 23 25 27 29 31 33 35 37 39 41 43 45 47 49 51 53 55 57 59 61 63 65 67 69 71 73 75 77 79 81 83 85 87 89 91 93 95
