mtllib T_slot_009.mtl
v 0.11980000138282776 -0.1177000030875206 0.02000001072883606
v 0.11980000138282776 -0.11800000071525574 0.0203000009059906
v 0.11950000375509262 -0.1177000030875206 0.0203000009059906
v 0.11980000138282776 -0.11784980446100235 0.02004009485244751
v 0.11965020000934601 -0.1177000030875206 0.02004009485244751
v 0.11965654045343399 -0.11784346401691437 0.02007901668548584
v 0.11965020000934601 -0.11795992404222488 0.0203000009059906
v 0.11980000138282776 -0.11795992404222488 0.020150214433670044
v 0.11965654045343399 -0.11792099475860596 0.020156532526016235
v 0.11954008042812347 -0.1177000030875206 0.020150214433670044
v 0.11954008042812347 -0.11784980446100235 0.0203000009059906
v 0.1195790097117424 -0.11784346401691437 0.020156532526016235
v 0.11980000138282776 -0.11800000071525574 0.5297000408172607
v 0.11980000138282776 -0.1177000030875206 0.5299999713897705
v 0.11950000375509262 -0.1177000030875206 0.5297000408172607
v 0.11980000138282776 -0.11795992404222488 0.5298497676849365
v 0.11965020000934601 -0.11795992404222488 0.5297000408172607
v 0.11965654045343399 -0.11792099475860596 0.5298434495925903
v 0.11965020000934601 -0.1177000030875206 0.5299599170684814
v 0.11980000138282776 -0.11784980446100235 0.5299599170684814
v 0.11965654045343399 -0.11784346401691437 0.5299209952354431
v 0.11954008042812347 -0.11784980446100235 0.5297000408172607
v 0.11954008042812347 -0.1177000030875206 0.5298497676849365
v 0.1195790097117424 -0.11784346401691437 0.5298434495925903
v 0.11980000138282776 -0.11230000108480453 0.02000001072883606
v 0.11950000375509262 -0.11230000108480453 0.0203000009059906
v 0.11980000138282776 -0.1120000034570694 0.0203000009059906
v 0.11965020000934601 -0.11230000108480453 0.02004009485244751
v 0.11980000138282776 -0.11215019971132278 0.02004009485244751
v 0.11965654045343399 -0.11215654015541077 0.02007901668548584
v 0.11954008042812347 -0.11215019971132278 0.0203000009059906
v 0.11954008042812347 -0.11230000108480453 0.020150214433670044
v 0.1195790097117424 -0.11215654015541077 0.020156532526016235
v 0.11980000138282776 -0.11204008013010025 0.020150214433670044
v 0.11965020000934601 -0.11204008013010025 0.0203000009059906
v 0.11965654045343399 -0.11207900941371918 0.020156532526016235
v 0.11980000138282776 -0.11230000108480453 0.5299999713897705
v 0.11980000138282776 -0.1120000034570694 0.5297000408172607
v 0.11950000375509262 -0.11230000108480453 0.5297000408172607
v 0.11980000138282776 -0.11215019971132278 0.5299599170684814
v 0.11965020000934601 -0.11230000108480453 0.5299599170684814
v 0.11965654045343399 -0.11215654015541077 0.5299209952354431
v 0.11965020000934601 -0.11204008013010025 0.5297000408172607
v 0.11980000138282776 -0.11204008013010025 0.5298497676849365
v 0.11965654045343399 -0.11207900941371918 0.5298434495925903
v 0.11954008042812347 -0.11230000108480453 0.5298497676849365
v 0.11954008042812347 -0.11215019971132278 0.5297000408172607
v 0.1195790097117424 -0.11215654015541077 0.5298434495925903
v 0.12000000476837158 -0.1177000030875206 0.02000001072883606
v 0.12030000239610672 -0.1177000030875206 0.0203000009059906
v 0.12000000476837158 -0.11800000071525574 0.0203000009059906
v 0.12014980614185333 -0.1177000030875206 0.02004009485244751
v 0.12000000476837158 -0.11784980446100235 0.02004009485244751
v 0.12014346569776535 -0.11784346401691437 0.02007901668548584
v 0.12025992572307587 -0.11784980446100235 0.0203000009059906
v 0.12025992572307587 -0.1177000030875206 0.020150214433670044
v 0.12022099643945694 -0.11784346401691437 0.020156532526016235
v 0.12000000476837158 -0.11795992404222488 0.020150214433670044
v 0.12014980614185333 -0.11795992404222488 0.0203000009059906
v 0.12014346569776535 -0.11792099475860596 0.020156532526016235
v 0.12000000476837158 -0.1177000030875206 0.5299999713897705
v 0.12000000476837158 -0.11800000071525574 0.5297000408172607
v 0.12030000239610672 -0.1177000030875206 0.5297000408172607
v 0.12000000476837158 -0.11784980446100235 0.5299599170684814
v 0.12014980614185333 -0.1177000030875206 0.5299599170684814
v 0.12014346569776535 -0.11784346401691437 0.5299209952354431
v 0.12014980614185333 -0.11795992404222488 0.5297000408172607
v 0.12000000476837158 -0.11795992404222488 0.5298497676849365
v 0.12014346569776535 -0.11792099475860596 0.5298434495925903
v 0.12025992572307587 -0.1177000030875206 0.5298497676849365
v 0.12025992572307587 -0.11784980446100235 0.5297000408172607
v 0.12022099643945694 -0.11784346401691437 0.5298434495925903
v 0.12000000476837158 -0.11230000108480453 0.02000001072883606
v 0.12000000476837158 -0.1120000034570694 0.0203000009059906
v 0.12030000239610672 -0.11230000108480453 0.0203000009059906
v 0.12000000476837158 -0.11215019971132278 0.02004009485244751
v 0.12014980614185333 -0.11230000108480453 0.02004009485244751
v 0.12014346569776535 -0.11215654015541077 0.02007901668548584
v 0.12014980614185333 -0.11204008013010025 0.0203000009059906
v 0.12000000476837158 -0.11204008013010025 0.020150214433670044
v 0.12014346569776535 -0.11207900941371918 0.020156532526016235
v 0.12025992572307587 -0.11230000108480453 0.020150214433670044
v 0.12025992572307587 -0.11215019971132278 0.0203000009059906
v 0.12022099643945694 -0.11215654015541077 0.020156532526016235
v 0.12000000476837158 -0.11230000108480453 0.5299999713897705
v 0.12030000239610672 -0.11230000108480453 0.5297000408172607
v 0.12000000476837158 -0.1120000034570694 0.5297000408172607
v 0.12014980614185333 -0.11230000108480453 0.5299599170684814
v 0.12000000476837158 -0.11215019971132278 0.5299599170684814
v 0.12014346569776535 -0.11215654015541077 0.5299209952354431
v 0.12025992572307587 -0.11215019971132278 0.5297000408172607
v 0.12025992572307587 -0.11230000108480453 0.5298497676849365
v 0.12022099643945694 -0.11215654015541077 0.5298434495925903
v 0.12000000476837158 -0.11204008013010025 0.5298497676849365
v 0.12014980614185333 -0.11204008013010025 0.5297000408172607
v 0.12014346569776535 -0.11207900941371918 0.5298434495925903
usemtl Slot_and_fastener
f 51 62 13 2
f 75 86 63 50
f 85 37 14 61
f 3 15 39 26
f 27 38 87 74
f 1 4 6 5
f 4 8 9 6
f 2 7 9 8
f 7 11 12 9
f 3 10 12 11
f 10 5 6 12
f 6 9 12
f 13 16 18 17
f 16 20 21 18
f 14 19 21 20
f 19 23 24 21
f 15 22 24 23
f 22 17 18 24
f 18 21 24
f 25 28 30 29
f 28 32 33 30
f 26 31 33 32
f 31 35 36 33
f 27 34 36 35
f 34 29 30 36
f 30 33 36
f 37 40 42 41
f 40 44 45 42
f 38 43 45 44
f 43 47 48 45
f 39 46 48 47
f 46 41 42 48
f 42 45 48
f 49 52 54 53
f 52 56 57 54
f 50 55 57 56
f 55 59 60 57
f 51 58 60 59
f 58 53 54 60
f 54 57 60
f 61 64 66 65
f 64 68 69 66
f 62 67 69 68
f 67 71 72 69
f 63 70 72 71
f 70 65 66 72
f 66 69 72
f 73 76 78 77
f 76 80 81 78
f 74 79 81 80
f 79 83 84 81
f 75 82 84 83
f 82 77 78 84
f 78 81 84
f 85 88 90 89
f 88 92 93 90
f 86 91 93 92
f 91 95 96 93
f 87 94 96 95
f 94 89 90 96
f 90 93 96
f 25 1 5 28
f 28 5 10 32
f 32 10 3 26
f 2 13 17 7
f 7 17 22 11
f 11 22 15 3
f 14 37 41 19
f 19 41 46 23
f 23 46 39 15
f 38 27 35 43
f 43 35 31 47
f 47 31 26 39
f 73 25 29 76
f 76 29 34 80
f 80 34 27 74
f 37 85 89 40
f 40 89 94 44
f 44 94 87 38
f 86 75 83 91
f 91 83 79 95
f 95 79 74 87
f 49 73 77 52
f 52 77 82 56
f 56 82 75 50
f 85 61 65 88
f 88 65 70 92
f 92 70 63 86
f 62 51 59 67
f 67 59 55 71
f 71 55 50 63
f 1 49 53 4
f 4 53 58 8
f 8 58 51 2
f 61 14 20 64
f 64 20 16 68
f 68 16 13 62
f 25 73 49 1
