mtllib TopDeck.mtl
v 0.36500000953674316 -0.2879999876022339 0.07900000363588333
v 0.39800000190734863 -0.2549999952316284 0.07900000363588333
v 0.39800000190734863 0.2549999952316284 0.07900000363588333
v 0.36500000953674316 0.2879999876022339 0.07900000363588333
v -0.36500000953674316 0.2879999876022339 0.07900000363588333
v -0.39800000190734863 0.2549999952316284 0.07900000363588333
v -0.39800000190734863 -0.2549999952316284 0.07900000363588333
v -0.36500000953674316 -0.2879999876022339 0.07900000363588333
v 0.3659999966621399 -0.28999999165534973 0.08299999684095383
v 0.4000000059604645 -0.25600001215934753 0.08299999684095383
v 0.4000000059604645 0.25600001215934753 0.08299999684095383
v 0.3659999966621399 0.28999999165534973 0.08299999684095383
v -0.3659999966621399 0.28999999165534973 0.08299999684095383
v -0.4000000059604645 0.25600001215934753 0.08299999684095383
v -0.4000000059604645 -0.25600001215934753 0.08299999684095383
v -0.3659999966621399 -0.28999999165534973 0.08299999684095383
v 0.3659999966621399 -0.28999999165534973 0.09099999815225601
v 0.4000000059604645 -0.25600001215934753 0.09099999815225601
v 0.4000000059604645 0.25600001215934753 0.09099999815225601
v 0.3659999966621399 0.28999999165534973 0.09099999815225601
v -0.3659999966621399 0.28999999165534973 0.09099999815225601
v -0.4000000059604645 0.25600001215934753 0.09099999815225601
v -0.4000000059604645 -0.25600001215934753 0.09099999815225601
v -0.3659999966621399 -0.28999999165534973 0.09099999815225601
v 0.3659999966621399 -0.28600001335144043 0.09470000118017197
v 0.3959999978542328 -0.25600001215934753 0.09470000118017197
v 0.3959999978542328 0.25600001215934753 0.09470000118017197
v 0.3659999966621399 0.28600001335144043 0.09470000118017197
v -0.3659999966621399 0.28600001335144043 0.09470000118017197
v -0.3959999978542328 0.25600001215934753 0.09470000118017197
v -0.3959999978542328 -0.25600001215934753 0.09470000118017197
v -0.3659999966621399 -0.28600001335144043 0.09470000118017197
usemtl black
f 8 7 6 5 4 3 2 1
f 1 2 10 9
f 2 3 11 10
f 3 4 12 11
f 4 5 13 12
f 5 6 14 13
f 6 7 15 14
f 7 8 16 15
f 8 1 9 16
f 9 10 18 17
f 10 11 19 18
f 11 12 20 19
f 12 13 21 20
f 13 14 22 21
f 14 15 23 22
f 15 16 24 23
f 16 9 17 24
f 17 18 26 25
f 18 19 27 26
f 19 20 28 27
f 20 21 29 28
f 21 22 30 29
f 22 23 31 30
f 23 24 32 31
f 24 17 25 32
f 25 26 27 28 29 30 31 32
