mtllib USB_screw.mtl
v -0.010999999940395355 -0.020800000056624413 -0.01080000028014183
v -0.010999999940395355 -0.020999999716877937 -0.01080000028014183
v -0.010843368247151375 -0.020800000056624413 -0.010810266248881817
v -0.010843368247151375 -0.020999999716877937 -0.010810266248881817
v -0.010689416900277138 -0.020800000056624413 -0.010840889066457748
v -0.010689416900277138 -0.020999999716877937 -0.010840889066457748
v -0.010540779680013657 -0.020800000056624413 -0.010891344398260117
v -0.010540779680013657 -0.020999999716877937 -0.010891344398260117
v -0.010400000028312206 -0.020800000056624413 -0.010960769839584827
v -0.010400000028312206 -0.020999999716877937 -0.010960769839584827
v -0.010269486345350742 -0.020800000056624413 -0.011047976091504097
v -0.010269486345350742 -0.020999999716877937 -0.011047976091504097
v -0.010151471942663193 -0.020800000056624413 -0.011151472106575966
v -0.010151471942663193 -0.020999999716877937 -0.011151472106575966
v -0.010047975927591324 -0.020800000056624413 -0.011269486509263515
v -0.010047975927591324 -0.020999999716877937 -0.011269486509263515
v -0.009960769675672054 -0.020800000056624413 -0.01140000019222498
v -0.009960769675672054 -0.020999999716877937 -0.01140000019222498
v -0.009891344234347343 -0.020800000056624413 -0.01154077984392643
v -0.009891344234347343 -0.020999999716877937 -0.01154077984392643
v -0.009840888902544975 -0.020800000056624413 -0.011689417064189911
v -0.009840888902544975 -0.020999999716877937 -0.011689417064189911
v -0.009810266084969044 -0.020800000056624413 -0.011843368411064148
v -0.009810266084969044 -0.020999999716877937 -0.011843368411064148
v -0.009800000116229057 -0.020800000056624413 -0.012000000104308128
v -0.009800000116229057 -0.020999999716877937 -0.012000000104308128
v -0.009810266084969044 -0.020800000056624413 -0.012156631797552109
v -0.009810266084969044 -0.020999999716877937 -0.012156631797552109
v -0.009840888902544975 -0.020800000056624413 -0.012310583144426346
v -0.009840888902544975 -0.020999999716877937 -0.012310583144426346
v -0.009891344234347343 -0.020800000056624413 -0.012459220364689827
v -0.009891344234347343 -0.020999999716877937 -0.012459220364689827
v -0.009960769675672054 -0.020800000056624413 -0.012600000016391277
v -0.009960769675672054 -0.020999999716877937 -0.012600000016391277
v -0.010047975927591324 -0.020800000056624413 -0.012730513699352741
v -0.010047975927591324 -0.020999999716877937 -0.012730513699352741
v -0.010151471942663193 -0.020800000056624413 -0.01284852810204029
v -0.010151471942663193 -0.020999999716877937 -0.01284852810204029
v -0.010269486345350742 -0.020800000056624413 -0.01295202411711216
v -0.010269486345350742 -0.020999999716877937 -0.01295202411711216
v -0.010400000028312206 -0.020800000056624413 -0.01303923036903143
v -0.010400000028312206 -0.020999999716877937 -0.01303923036903143
v -0.010540779680013657 -0.020800000056624413 -0.01310865581035614
v -0.010540779680013657 -0.020999999716877937 -0.01310865581035614
v -0.010689416900277138 -0.020800000056624413 -0.013159111142158508
v -0.010689416900277138 -0.020999999716877937 -0.013159111142158508
v -0.010843368247151375 -0.020800000056624413 -0.01318973395973444
v -0.010843368247151375 -0.020999999716877937 -0.01318973395973444
v -0.010999999940395355 -0.020800000056624413 -0.013199999928474426
v -0.010999999940395355 -0.020999999716877937 -0.013199999928474426
v -0.011156631633639336 -0.020800000056624413 -0.01318973395973444
v -0.011156631633639336 -0.020999999716877937 -0.01318973395973444
v -0.011310582980513573 -0.020800000056624413 -0.013159111142158508
v -0.011310582980513573 -0.020999999716877937 -0.013159111142158508
v -0.011459220200777054 -0.020800000056624413 -0.01310865581035614
v -0.011459220200777054 -0.020999999716877937 -0.01310865581035614
v -0.011599999852478504 -0.020800000056624413 -0.01303923036903143
v -0.011599999852478504 -0.020999999716877937 -0.01303923036903143
v -0.011730513535439968 -0.020800000056624413 -0.01295202411711216
v -0.011730513535439968 -0.020999999716877937 -0.01295202411711216
v -0.011848527938127518 -0.020800000056624413 -0.01284852810204029
v -0.011848527938127518 -0.020999999716877937 -0.01284852810204029
v -0.011952023953199387 -0.020800000056624413 -0.012730513699352741
v -0.011952023953199387 -0.020999999716877937 -0.012730513699352741
v -0.012039230205118656 -0.020800000056624413 -0.012600000016391277
v -0.012039230205118656 -0.020999999716877937 -0.012600000016391277
v -0.012108655646443367 -0.020800000056624413 -0.012459220364689827
v -0.012108655646443367 -0.020999999716877937 -0.012459220364689827
v -0.012159110978245735 -0.020800000056624413 -0.012310583144426346
v -0.012159110978245735 -0.020999999716877937 -0.012310583144426346
v -0.012189733795821667 -0.020800000056624413 -0.012156631797552109
v -0.012189733795821667 -0.020999999716877937 -0.012156631797552109
v -0.012199999764561653 -0.020800000056624413 -0.012000000104308128
v -0.012199999764561653 -0.020999999716877937 -0.012000000104308128
v -0.012189733795821667 -0.020800000056624413 -0.011843368411064148
v -0.012189733795821667 -0.020999999716877937 -0.011843368411064148
v -0.012159110978245735 -0.020800000056624413 -0.011689417064189911
v -0.012159110978245735 -0.020999999716877937 -0.011689417064189911
v -0.012108655646443367 -0.020800000056624413 -0.01154077984392643
v -0.012108655646443367 -0.020999999716877937 -0.01154077984392643
v -0.012039230205118656 -0.020800000056624413 -0.01140000019222498
v -0.012039230205118656 -0.020999999716877937 -0.01140000019222498
v -0.011952023953199387 -0.020800000056624413 -0.011269486509263515
v -0.011952023953199387 -0.020999999716877937 -0.011269486509263515
v -0.011848527938127518 -0.020800000056624413 -0.011151472106575966
v -0.011848527938127518 -0.020999999716877937 -0.011151472106575966
v -0.011730513535439968 -0.020800000056624413 -0.011047976091504097
v -0.011730513535439968 -0.020999999716877937 -0.011047976091504097
v -0.011599999852478504 -0.020800000056624413 -0.010960769839584827
v -0.011599999852478504 -0.020999999716877937 -0.010960769839584827
v -0.011459220200777054 -0.020800000056624413 -0.010891344398260117
v -0.011459220200777054 -0.020999999716877937 -0.010891344398260117
v -0.011310582980513573 -0.020800000056624413 -0.010840889066457748
v -0.011310582980513573 -0.020999999716877937 -0.010840889066457748
v -0.011156631633639336 -0.020800000056624413 -0.010810266248881817
v -0.011156631633639336 -0.020999999716877937 -0.010810266248881817
usemtl Slot_and_fastener
f 1 2 4 3
f 3 4 6 5
f 5 6 8 7
f 7 8 10 9
f 9 10 12 11
f 11 12 14 13
f 13 14 16 15
f 15 16 18 17
f 17 18 20 19
f 19 20 22 21
f 21 22 24 23
f 23 24 26 25
f 25 26 28 27
f 27 28 30 29
f 29 30 32 31
f 31 32 34 33
f 33 34 36 35
f 35 36 38 37
f 37 38 40 39
f 39 40 42 41
f 41 42 44 43
f 43 44 46 45
f 45 46 48 47
f 47 48 50 49
f 49 50 52 51
f 51 52 54 53
f 53 54 56 55
f 55 56 58 57
f 57 58 60 59
f 59 60 62 61
f 61 62 64 63
f 63 64 66 65
f 65 66 68 67
f 67 68 70 69
f 69 70 72 71
f 71 72 74 73
f 73 74 76 75
f 75 76 78 77
f 77 78 80 79
f 79 80 82 81
f 81 82 84 83
f 83 84 86 85
f 85 86 88 87
f 87 88 90 89
f 89 90 92 91
f 91 92 94 93
f 4 2 96 94 92 90 88 86 84 82 80 78 76 74 72 70 68 66 64 62 60 58 56 54 52 50 48 46 44 42 40 38 36 34 32 30 28 26 24 22 20 18 16 14 12 10 8 6
f 93 94 96 95
f 95 96 2 1
f 1 3 5 7 9 11 13 15 17 19 21 23 25 27 29 31 33 35 37 39 41 43 45 47 49 51 53 55 57 59 61 63 65 67 69 71 73 75 77 79 81 83 85 87 89 91 93 95
