mtllib WaistShadow.mtl
v 0.3465000092983246 -0.27799999713897705 0.06599999964237213
v 0.3894999921321869 -0.23499999940395355 0.06599999964237213
v 0.3894999921321869 0.23499999940395355 0.06599999964237213
v 0.3465000092983246 0.27799999713897705 0.06599999964237213
v -0.3465000092983246 0.27799999713897705 0.06599999964237213
v -0.3894999921321869 0.23499999940395355 0.06599999964237213
v -0.3894999921321869 -0.23499999940395355 0.06599999964237213
v -0.3465000092983246 -0.27799999713897705 0.06599999964237213
v 0.3465000092983246 -0.27799999713897705 0.08399999886751175
v 0.3894999921321869 -0.23499999940395355 0.08399999886751175
v 0.3894999921321869 0.23499999940395355 0.08399999886751175
v 0.3465000092983246 0.27799999713897705 0.08399999886751175
v -0.3465000092983246 0.27799999713897705 0.08399999886751175
v -0.3894999921321869 0.23499999940395355 0.08399999886751175
v -0.3894999921321869 -0.23499999940395355 0.08399999886751175
v -0.3465000092983246 -0.27799999713897705 0.08399999886751175
usemtl black
f 8 7 6 5 4 3 2 1
f 1 2 10 9
f 2 3 11 10
f 3 4 12 11
f 4 5 13 12
f 5 6 14 13
f 6 7 15 14
f 7 8 16 15
f 8 1 9 16
f 9 10 11 12 13 14 15 16
