mtllib robot.mtl
usemtl red
# https://github.com/mikedh/trimesh
v -0.29200000 0.00000000 0.10650000
v -0.29031596 0.00000000 0.10662061
v -0.28971442 0.00000000 0.10696791
v -0.28926795 0.00000000 0.10750000
v -0.28903038 0.00000000 0.10815270
v -0.28903038 0.00000000 0.11184730
v -0.28926795 0.00000000 0.11250000
v -0.28971442 0.00000000 0.11303209
v -0.29031596 0.00000000 0.11337939
v -0.29100000 0.00000000 0.11350000
v -0.29032438 0.12860701 0.10662061
v -0.28973025 0.12870111 0.10696791
v -0.28928927 0.12877095 0.10750000
v -0.28905463 0.12880812 0.10815270
v -0.28905463 0.12880812 0.11184730
v -0.28928927 0.12877095 0.11250000
v -0.28973025 0.12870111 0.11303209
v -0.29032438 0.12860701 0.11337939
v -0.29034944 0.12871138 0.10662061
v -0.28977735 0.12889726 0.10696791
v -0.28935272 0.12903523 0.10750000
v -0.28912678 0.12910864 0.10815270
v -0.28912678 0.12910864 0.11184730
v -0.28935272 0.12903523 0.11250000
v -0.28977735 0.12889726 0.11303209
v -0.29034944 0.12871138 0.11337939
v -0.29039052 0.12881055 0.10662061
v -0.28985454 0.12908364 0.10696791
v -0.28945673 0.12928633 0.10750000
v -0.28924506 0.12939419 0.10815270
v -0.28924506 0.12939419 0.11184730
v -0.28945673 0.12928633 0.11250000
v -0.28985454 0.12908364 0.11303209
v -0.29039052 0.12881055 0.11337939
v -0.29044660 0.12890207 0.10662061
v -0.28995995 0.12925564 0.10696791
v -0.28959874 0.12951807 0.10750000
v -0.28940655 0.12965771 0.10815270
v -0.28940655 0.12965771 0.11184730
v -0.28959874 0.12951807 0.11250000
v -0.28995995 0.12925564 0.11303209
v -0.29044660 0.12890207 0.11337939
v -0.29051631 0.12898369 0.10662061
v -0.29009096 0.12940904 0.10696791
v -0.28977526 0.12972474 0.10750000
v -0.28960727 0.12989273 0.10815270
v -0.28960727 0.12989273 0.11184730
v -0.28977526 0.12972474 0.11250000
v -0.29009096 0.12940904 0.11303209
v -0.29051631 0.12898369 0.11337939
v -0.29059793 0.12905340 0.10662061
v -0.29024436 0.12954005 0.10696791
v -0.28998193 0.12990126 0.10750000
v -0.28984229 0.13009345 0.10815270
v -0.28984229 0.13009345 0.11184730
v -0.28998193 0.12990126 0.11250000
v -0.29024436 0.12954005 0.11303209
v -0.29059793 0.12905340 0.11337939
v -0.29068945 0.12910948 0.10662061
v -0.29041636 0.12964546 0.10696791
v -0.29021367 0.13004327 0.10750000
v -0.29010581 0.13025494 0.10815270
v -0.29010581 0.13025494 0.11184730
v -0.29021367 0.13004327 0.11250000
v -0.29041636 0.12964546 0.11303209
v -0.29068945 0.12910948 0.11337939
v -0.29078862 0.12915056 0.10662061
v -0.29060274 0.12972265 0.10696791
v -0.29046477 0.13014728 0.10750000
v -0.29039136 0.13037322 0.10815270
v -0.29039136 0.13037322 0.11184730
v -0.29046477 0.13014728 0.11250000
v -0.29060274 0.12972265 0.11303209
v -0.29078862 0.12915056 0.11337939
v -0.29089299 0.12917562 0.10662061
v -0.29079889 0.12976975 0.10696791
v -0.29072905 0.13021073 0.10750000
v -0.29069188 0.13044537 0.10815270
v -0.29069188 0.13044537 0.11184730
v -0.29072905 0.13021073 0.11250000
v -0.29079889 0.12976975 0.11303209
v -0.29089299 0.12917562 0.11337939
v -0.29100000 0.12918404 0.10662061
v -0.29100000 0.12978558 0.10696791
v -0.29100000 0.13023205 0.10750000
v -0.29100000 0.13046962 0.10815270
v -0.29100000 0.13046962 0.11184730
v -0.29100000 0.13023205 0.11250000
v -0.29100000 0.12978558 0.11303209
v -0.29100000 0.12918404 0.11337939
v -0.29310701 0.12917562 0.10662061
v -0.29320111 0.12976975 0.10696791
v -0.29327095 0.13021073 0.10750000
v -0.29330812 0.13044537 0.10815270
v -0.29330812 0.13044537 0.11184730
v -0.29327095 0.13021073 0.11250000
v -0.29320111 0.12976975 0.11303209
v -0.29310701 0.12917562 0.11337939
v -0.29321138 0.12915056 0.10662061
v -0.29339726 0.12972265 0.10696791
v -0.29353523 0.13014728 0.10750000
v -0.29360864 0.13037322 0.10815270
v -0.29360864 0.13037322 0.11184730
v -0.29353523 0.13014728 0.11250000
v -0.29339726 0.12972265 0.11303209
v -0.29321138 0.12915056 0.11337939
v -0.29331055 0.12910948 0.10662061
v -0.29358364 0.12964546 0.10696791
v -0.29378633 0.13004327 0.10750000
v -0.29389419 0.13025494 0.10815270
v -0.29389419 0.13025494 0.11184730
v -0.29378633 0.13004327 0.11250000
v -0.29358364 0.12964546 0.11303209
v -0.29331055 0.12910948 0.11337939
v -0.29340207 0.12905340 0.10662061
v -0.29375564 0.12954005 0.10696791
v -0.29401807 0.12990126 0.10750000
v -0.29415771 0.13009345 0.10815270
v -0.29415771 0.13009345 0.11184730
v -0.29401807 0.12990126 0.11250000
v -0.29375564 0.12954005 0.11303209
v -0.29340207 0.12905340 0.11337939
v -0.29348369 0.12898369 0.10662061
v -0.29390904 0.12940904 0.10696791
v -0.29422474 0.12972474 0.10750000
v -0.29439273 0.12989273 0.10815270
v -0.29439273 0.12989273 0.11184730
v -0.29422474 0.12972474 0.11250000
v -0.29390904 0.12940904 0.11303209
v -0.29348369 0.12898369 0.11337939
v -0.29355340 0.12890207 0.10662061
v -0.29404005 0.12925564 0.10696791
v -0.29440126 0.12951807 0.10750000
v -0.29459345 0.12965771 0.10815270
v -0.29459345 0.12965771 0.11184730
v -0.29440126 0.12951807 0.11250000
v -0.29404005 0.12925564 0.11303209
v -0.29355340 0.12890207 0.11337939
v -0.29360948 0.12881055 0.10662061
v -0.29414546 0.12908364 0.10696791
v -0.29454327 0.12928633 0.10750000
v -0.29475494 0.12939419 0.10815270
v -0.29475494 0.12939419 0.11184730
v -0.29454327 0.12928633 0.11250000
v -0.29414546 0.12908364 0.11303209
v -0.29360948 0.12881055 0.11337939
v -0.29365056 0.12871138 0.10662061
v -0.29422265 0.12889726 0.10696791
v -0.29464728 0.12903523 0.10750000
v -0.29487322 0.12910864 0.10815270
v -0.29487322 0.12910864 0.11184730
v -0.29464728 0.12903523 0.11250000
v -0.29422265 0.12889726 0.11303209
v -0.29365056 0.12871138 0.11337939
v -0.29367562 0.12860701 0.10662061
v -0.29426975 0.12870111 0.10696791
v -0.29471073 0.12877095 0.10750000
v -0.29494537 0.12880812 0.10815270
v -0.29494537 0.12880812 0.11184730
v -0.29471073 0.12877095 0.11250000
v -0.29426975 0.12870111 0.11303209
v -0.29367562 0.12860701 0.11337939
v -0.29368404 0.12850000 0.10662061
v -0.29428558 0.12850000 0.10696791
v -0.29473205 0.12850000 0.10750000
v -0.29496962 0.12850000 0.10815270
v -0.29496962 0.12850000 0.11184730
v -0.29473205 0.12850000 0.11250000
v -0.29428558 0.12850000 0.11303209
v -0.29368404 0.12850000 0.11337939
v -0.29367562 -0.12860701 0.10662061
v -0.29426975 -0.12870111 0.10696791
v -0.29471073 -0.12877095 0.10750000
v -0.29494537 -0.12880812 0.10815270
v -0.29494537 -0.12880812 0.11184730
v -0.29471073 -0.12877095 0.11250000
v -0.29426975 -0.12870111 0.11303209
v -0.29367562 -0.12860701 0.11337939
v -0.29365056 -0.12871138 0.10662061
v -0.29422265 -0.12889726 0.10696791
v -0.29464728 -0.12903523 0.10750000
v -0.29487322 -0.12910864 0.10815270
v -0.29487322 -0.12910864 0.11184730
v -0.29464728 -0.12903523 0.11250000
v -0.29422265 -0.12889726 0.11303209
v -0.29365056 -0.12871138 0.11337939
v -0.29360948 -0.12881055 0.10662061
v -0.29414546 -0.12908364 0.10696791
v -0.29454327 -0.12928633 0.10750000
v -0.29475494 -0.12939419 0.10815270
v -0.29475494 -0.12939419 0.11184730
v -0.29454327 -0.12928633 0.11250000
v -0.29414546 -0.12908364 0.11303209
v -0.29360948 -0.12881055 0.11337939
v -0.29355340 -0.12890207 0.10662061
v -0.29404005 -0.12925564 0.10696791
v -0.29440126 -0.12951807 0.10750000
v -0.29459345 -0.12965771 0.10815270
v -0.29459345 -0.12965771 0.11184730
v -0.29440126 -0.12951807 0.11250000
v -0.29404005 -0.12925564 0.11303209
v -0.29355340 -0.12890207 0.11337939
v -0.29348369 -0.12898369 0.10662061
v -0.29390904 -0.12940904 0.10696791
v -0.29422474 -0.12972474 0.10750000
v -0.29439273 -0.12989273 0.10815270
v -0.29439273 -0.12989273 0.11184730
v -0.29422474 -0.12972474 0.11250000
v -0.29390904 -0.12940904 0.11303209
v -0.29348369 -0.12898369 0.11337939
v -0.29340207 -0.12905340 0.10662061
v -0.29375564 -0.12954005 0.10696791
v -0.29401807 -0.12990126 0.10750000
v -0.29415771 -0.13009345 0.10815270
v -0.29415771 -0.13009345 0.11184730
v -0.29401807 -0.12990126 0.11250000
v -0.29375564 -0.12954005 0.11303209
v -0.29340207 -0.12905340 0.11337939
v -0.29331055 -0.12910948 0.10662061
v -0.29358364 -0.12964546 0.10696791
v -0.29378633 -0.13004327 0.10750000
v -0.29389419 -0.13025494 0.10815270
v -0.29389419 -0.13025494 0.11184730
v -0.29378633 -0.13004327 0.11250000
v -0.29358364 -0.12964546 0.11303209
v -0.29331055 -0.12910948 0.11337939
v -0.29321138 -0.12915056 0.10662061
v -0.29339726 -0.12972265 0.10696791
v -0.29353523 -0.13014728 0.10750000
v -0.29360864 -0.13037322 0.10815270
v -0.29360864 -0.13037322 0.11184730
v -0.29353523 -0.13014728 0.11250000
v -0.29339726 -0.12972265 0.11303209
v -0.29321138 -0.12915056 0.11337939
v -0.29310701 -0.12917562 0.10662061
v -0.29320111 -0.12976975 0.10696791
v -0.29327095 -0.13021073 0.10750000
v -0.29330812 -0.13044537 0.10815270
v -0.29330812 -0.13044537 0.11184730
v -0.29327095 -0.13021073 0.11250000
v -0.29320111 -0.12976975 0.11303209
v -0.29310701 -0.12917562 0.11337939
v -0.29300000 -0.12918404 0.10662061
v -0.29300000 -0.12978558 0.10696791
v -0.29300000 -0.13023205 0.10750000
v -0.29300000 -0.13046962 0.10815270
v -0.29300000 -0.13046962 0.11184730
v -0.29300000 -0.13023205 0.11250000
v -0.29300000 -0.12978558 0.11303209
v -0.29300000 -0.12918404 0.11337939
v -0.29089299 -0.12917562 0.10662061
v -0.29079889 -0.12976975 0.10696791
v -0.29072905 -0.13021073 0.10750000
v -0.29069188 -0.13044537 0.10815270
v -0.29069188 -0.13044537 0.11184730
v -0.29072905 -0.13021073 0.11250000
v -0.29079889 -0.12976975 0.11303209
v -0.29089299 -0.12917562 0.11337939
v -0.29078862 -0.12915056 0.10662061
v -0.29060274 -0.12972265 0.10696791
v -0.29046477 -0.13014728 0.10750000
v -0.29039136 -0.13037322 0.10815270
v -0.29039136 -0.13037322 0.11184730
v -0.29046477 -0.13014728 0.11250000
v -0.29060274 -0.12972265 0.11303209
v -0.29078862 -0.12915056 0.11337939
v -0.29068945 -0.12910948 0.10662061
v -0.29041636 -0.12964546 0.10696791
v -0.29021367 -0.13004327 0.10750000
v -0.29010581 -0.13025494 0.10815270
v -0.29010581 -0.13025494 0.11184730
v -0.29021367 -0.13004327 0.11250000
v -0.29041636 -0.12964546 0.11303209
v -0.29068945 -0.12910948 0.11337939
v -0.29059793 -0.12905340 0.10662061
v -0.29024436 -0.12954005 0.10696791
v -0.28998193 -0.12990126 0.10750000
v -0.28984229 -0.13009345 0.10815270
v -0.28984229 -0.13009345 0.11184730
v -0.28998193 -0.12990126 0.11250000
v -0.29024436 -0.12954005 0.11303209
v -0.29059793 -0.12905340 0.11337939
v -0.29051631 -0.12898369 0.10662061
v -0.29009096 -0.12940904 0.10696791
v -0.28977526 -0.12972474 0.10750000
v -0.28960727 -0.12989273 0.10815270
v -0.28960727 -0.12989273 0.11184730
v -0.28977526 -0.12972474 0.11250000
v -0.29009096 -0.12940904 0.11303209
v -0.29051631 -0.12898369 0.11337939
v -0.29044660 -0.12890207 0.10662061
v -0.28995995 -0.12925564 0.10696791
v -0.28959874 -0.12951807 0.10750000
v -0.28940655 -0.12965771 0.10815270
v -0.28940655 -0.12965771 0.11184730
v -0.28959874 -0.12951807 0.11250000
v -0.28995995 -0.12925564 0.11303209
v -0.29044660 -0.12890207 0.11337939
v -0.29039052 -0.12881055 0.10662061
v -0.28985454 -0.12908364 0.10696791
v -0.28945673 -0.12928633 0.10750000
v -0.28924506 -0.12939419 0.10815270
v -0.28924506 -0.12939419 0.11184730
v -0.28945673 -0.12928633 0.11250000
v -0.28985454 -0.12908364 0.11303209
v -0.29039052 -0.12881055 0.11337939
v -0.29034944 -0.12871138 0.10662061
v -0.28977735 -0.12889726 0.10696791
v -0.28935272 -0.12903523 0.10750000
v -0.28912678 -0.12910864 0.10815270
v -0.28912678 -0.12910864 0.11184730
v -0.28935272 -0.12903523 0.11250000
v -0.28977735 -0.12889726 0.11303209
v -0.29034944 -0.12871138 0.11337939
v -0.29032438 -0.12860701 0.10662061
v -0.28973025 -0.12870111 0.10696791
v -0.28928927 -0.12877095 0.10750000
v -0.28905463 -0.12880812 0.10815270
v -0.28905463 -0.12880812 0.11184730
v -0.28928927 -0.12877095 0.11250000
v -0.28973025 -0.12870111 0.11303209
v -0.29032438 -0.12860701 0.11337939
v 0.29200000 0.00000000 0.10650000
v 0.29368404 0.00000000 0.10662061
v 0.29428558 0.00000000 0.10696791
v 0.29473205 0.00000000 0.10750000
v 0.29496962 0.00000000 0.10815270
v 0.29496962 0.00000000 0.11184730
v 0.29473205 0.00000000 0.11250000
v 0.29428558 0.00000000 0.11303209
v 0.29368404 0.00000000 0.11337939
v 0.29300000 0.00000000 0.11350000
v 0.29367562 0.12860701 0.10662061
v 0.29426975 0.12870111 0.10696791
v 0.29471073 0.12877095 0.10750000
v 0.29494537 0.12880812 0.10815270
v 0.29494537 0.12880812 0.11184730
v 0.29471073 0.12877095 0.11250000
v 0.29426975 0.12870111 0.11303209
v 0.29367562 0.12860701 0.11337939
v 0.29365056 0.12871138 0.10662061
v 0.29422265 0.12889726 0.10696791
v 0.29464728 0.12903523 0.10750000
v 0.29487322 0.12910864 0.10815270
v 0.29487322 0.12910864 0.11184730
v 0.29464728 0.12903523 0.11250000
v 0.29422265 0.12889726 0.11303209
v 0.29365056 0.12871138 0.11337939
v 0.29360948 0.12881055 0.10662061
v 0.29414546 0.12908364 0.10696791
v 0.29454327 0.12928633 0.10750000
v 0.29475494 0.12939419 0.10815270
v 0.29475494 0.12939419 0.11184730
v 0.29454327 0.12928633 0.11250000
v 0.29414546 0.12908364 0.11303209
v 0.29360948 0.12881055 0.11337939
v 0.29355340 0.12890207 0.10662061
v 0.29404005 0.12925564 0.10696791
v 0.29440126 0.12951807 0.10750000
v 0.29459345 0.12965771 0.10815270
v 0.29459345 0.12965771 0.11184730
v 0.29440126 0.12951807 0.11250000
v 0.29404005 0.12925564 0.11303209
v 0.29355340 0.12890207 0.11337939
v 0.29348369 0.12898369 0.10662061
v 0.29390904 0.12940904 0.10696791
v 0.29422474 0.12972474 0.10750000
v 0.29439273 0.12989273 0.10815270
v 0.29439273 0.12989273 0.11184730
v 0.29422474 0.12972474 0.11250000
v 0.29390904 0.12940904 0.11303209
v 0.29348369 0.12898369 0.11337939
v 0.29340207 0.12905340 0.10662061
v 0.29375564 0.12954005 0.10696791
v 0.29401807 0.12990126 0.10750000
v 0.29415771 0.13009345 0.10815270
v 0.29415771 0.13009345 0.11184730
v 0.29401807 0.12990126 0.11250000
v 0.29375564 0.12954005 0.11303209
v 0.29340207 0.12905340 0.11337939
v 0.29331055 0.12910948 0.10662061
v 0.29358364 0.12964546 0.10696791
v 0.29378633 0.13004327 0.10750000
v 0.29389419 0.13025494 0.10815270
v 0.29389419 0.13025494 0.11184730
v 0.29378633 0.13004327 0.11250000
v 0.29358364 0.12964546 0.11303209
v 0.29331055 0.12910948 0.11337939
v 0.29321138 0.12915056 0.10662061
v 0.29339726 0.12972265 0.10696791
v 0.29353523 0.13014728 0.10750000
v 0.29360864 0.13037322 0.10815270
v 0.29360864 0.13037322 0.11184730
v 0.29353523 0.13014728 0.11250000
v 0.29339726 0.12972265 0.11303209
v 0.29321138 0.12915056 0.11337939
v 0.29310701 0.12917562 0.10662061
v 0.29320111 0.12976975 0.10696791
v 0.29327095 0.13021073 0.10750000
v 0.29330812 0.13044537 0.10815270
v 0.29330812 0.13044537 0.11184730
v 0.29327095 0.13021073 0.11250000
v 0.29320111 0.12976975 0.11303209
v 0.29310701 0.12917562 0.11337939
v 0.29300000 0.12918404 0.10662061
v 0.29300000 0.12978558 0.10696791
v 0.29300000 0.13023205 0.10750000
v 0.29300000 0.13046962 0.10815270
v 0.29300000 0.13046962 0.11184730
v 0.29300000 0.13023205 0.11250000
v 0.29300000 0.12978558 0.11303209
v 0.29300000 0.12918404 0.11337939
v 0.29089299 0.12917562 0.10662061
v 0.29079889 0.12976975 0.10696791
v 0.29072905 0.13021073 0.10750000
v 0.29069188 0.13044537 0.10815270
v 0.29069188 0.13044537 0.11184730
v 0.29072905 0.13021073 0.11250000
v 0.29079889 0.12976975 0.11303209
v 0.29089299 0.12917562 0.11337939
v 0.29078862 0.12915056 0.10662061
v 0.29060274 0.12972265 0.10696791
v 0.29046477 0.13014728 0.10750000
v 0.29039136 0.13037322 0.10815270
v 0.29039136 0.13037322 0.11184730
v 0.29046477 0.13014728 0.11250000
v 0.29060274 0.12972265 0.11303209
v 0.29078862 0.12915056 0.11337939
v 0.29068945 0.12910948 0.10662061
v 0.29041636 0.12964546 0.10696791
v 0.29021367 0.13004327 0.10750000
v 0.29010581 0.13025494 0.10815270
v 0.29010581 0.13025494 0.11184730
v 0.29021367 0.13004327 0.11250000
v 0.29041636 0.12964546 0.11303209
v 0.29068945 0.12910948 0.11337939
v 0.29059793 0.12905340 0.10662061
v 0.29024436 0.12954005 0.10696791
v 0.28998193 0.12990126 0.10750000
v 0.28984229 0.13009345 0.10815270
v 0.28984229 0.13009345 0.11184730
v 0.28998193 0.12990126 0.11250000
v 0.29024436 0.12954005 0.11303209
v 0.29059793 0.12905340 0.11337939
v 0.29051631 0.12898369 0.10662061
v 0.29009096 0.12940904 0.10696791
v 0.28977526 0.12972474 0.10750000
v 0.28960727 0.12989273 0.10815270
v 0.28960727 0.12989273 0.11184730
v 0.28977526 0.12972474 0.11250000
v 0.29009096 0.12940904 0.11303209
v 0.29051631 0.12898369 0.11337939
v 0.29044660 0.12890207 0.10662061
v 0.28995995 0.12925564 0.10696791
v 0.28959874 0.12951807 0.10750000
v 0.28940655 0.12965771 0.10815270
v 0.28940655 0.12965771 0.11184730
v 0.28959874 0.12951807 0.11250000
v 0.28995995 0.12925564 0.11303209
v 0.29044660 0.12890207 0.11337939
v 0.29039052 0.12881055 0.10662061
v 0.28985454 0.12908364 0.10696791
v 0.28945673 0.12928633 0.10750000
v 0.28924506 0.12939419 0.10815270
v 0.28924506 0.12939419 0.11184730
v 0.28945673 0.12928633 0.11250000
v 0.28985454 0.12908364 0.11303209
v 0.29039052 0.12881055 0.11337939
v 0.29034944 0.12871138 0.10662061
v 0.28977735 0.12889726 0.10696791
v 0.28935272 0.12903523 0.10750000
v 0.28912678 0.12910864 0.10815270
v 0.28912678 0.12910864 0.11184730
v 0.28935272 0.12903523 0.11250000
v 0.28977735 0.12889726 0.11303209
v 0.29034944 0.12871138 0.11337939
v 0.29032438 0.12860701 0.10662061
v 0.28973025 0.12870111 0.10696791
v 0.28928927 0.12877095 0.10750000
v 0.28905463 0.12880812 0.10815270
v 0.28905463 0.12880812 0.11184730
v 0.28928927 0.12877095 0.11250000
v 0.28973025 0.12870111 0.11303209
v 0.29032438 0.12860701 0.11337939
v 0.29031596 0.12850000 0.10662061
v 0.28971442 0.12850000 0.10696791
v 0.28926795 0.12850000 0.10750000
v 0.28903038 0.12850000 0.10815270
v 0.28903038 0.12850000 0.11184730
v 0.28926795 0.12850000 0.11250000
v 0.28971442 0.12850000 0.11303209
v 0.29031596 0.12850000 0.11337939
v 0.29032438 -0.12860701 0.10662061
v 0.28973025 -0.12870111 0.10696791
v 0.28928927 -0.12877095 0.10750000
v 0.28905463 -0.12880812 0.10815270
v 0.28905463 -0.12880812 0.11184730
v 0.28928927 -0.12877095 0.11250000
v 0.28973025 -0.12870111 0.11303209
v 0.29032438 -0.12860701 0.11337939
v 0.29034944 -0.12871138 0.10662061
v 0.28977735 -0.12889726 0.10696791
v 0.28935272 -0.12903523 0.10750000
v 0.28912678 -0.12910864 0.10815270
v 0.28912678 -0.12910864 0.11184730
v 0.28935272 -0.12903523 0.11250000
v 0.28977735 -0.12889726 0.11303209
v 0.29034944 -0.12871138 0.11337939
v 0.29039052 -0.12881055 0.10662061
v 0.28985454 -0.12908364 0.10696791
v 0.28945673 -0.12928633 0.10750000
v 0.28924506 -0.12939419 0.10815270
v 0.28924506 -0.12939419 0.11184730
v 0.28945673 -0.12928633 0.11250000
v 0.28985454 -0.12908364 0.11303209
v 0.29039052 -0.12881055 0.11337939
v 0.29044660 -0.12890207 0.10662061
v 0.28995995 -0.12925564 0.10696791
v 0.28959874 -0.12951807 0.10750000
v 0.28940655 -0.12965771 0.10815270
v 0.28940655 -0.12965771 0.11184730
v 0.28959874 -0.12951807 0.11250000
v 0.28995995 -0.12925564 0.11303209
v 0.29044660 -0.12890207 0.11337939
v 0.29051631 -0.12898369 0.10662061
v 0.29009096 -0.12940904 0.10696791
v 0.28977526 -0.12972474 0.10750000
v 0.28960727 -0.12989273 0.10815270
v 0.28960727 -0.12989273 0.11184730
v 0.28977526 -0.12972474 0.11250000
v 0.29009096 -0.12940904 0.11303209
v 0.29051631 -0.12898369 0.11337939
v 0.29059793 -0.12905340 0.10662061
v 0.29024436 -0.12954005 0.10696791
v 0.28998193 -0.12990126 0.10750000
v 0.28984229 -0.13009345 0.10815270
v 0.28984229 -0.13009345 0.11184730
v 0.28998193 -0.12990126 0.11250000
v 0.29024436 -0.12954005 0.11303209
v 0.29059793 -0.12905340 0.11337939
v 0.29068945 -0.12910948 0.10662061
v 0.29041636 -0.12964546 0.10696791
v 0.29021367 -0.13004327 0.10750000
v 0.29010581 -0.13025494 0.10815270
v 0.29010581 -0.13025494 0.11184730
v 0.29021367 -0.13004327 0.11250000
v 0.29041636 -0.12964546 0.11303209
v 0.29068945 -0.12910948 0.11337939
v 0.29078862 -0.12915056 0.10662061
v 0.29060274 -0.12972265 0.10696791
v 0.29046477 -0.13014728 0.10750000
v 0.29039136 -0.13037322 0.10815270
v 0.29039136 -0.13037322 0.11184730
v 0.29046477 -0.13014728 0.11250000
v 0.29060274 -0.12972265 0.11303209
v 0.29078862 -0.12915056 0.11337939
v 0.29089299 -0.12917562 0.10662061
v 0.29079889 -0.12976975 0.10696791
v 0.29072905 -0.13021073 0.10750000
v 0.29069188 -0.13044537 0.10815270
v 0.29069188 -0.13044537 0.11184730
v 0.29072905 -0.13021073 0.11250000
v 0.29079889 -0.12976975 0.11303209
v 0.29089299 -0.12917562 0.11337939
v 0.29100000 -0.12918404 0.10662061
v 0.29100000 -0.12978558 0.10696791
v 0.29100000 -0.13023205 0.10750000
v 0.29100000 -0.13046962 0.10815270
v 0.29100000 -0.13046962 0.11184730
v 0.29100000 -0.13023205 0.11250000
v 0.29100000 -0.12978558 0.11303209
v 0.29100000 -0.12918404 0.11337939
v 0.29310701 -0.12917562 0.10662061
v 0.29320111 -0.12976975 0.10696791
v 0.29327095 -0.13021073 0.10750000
v 0.29330812 -0.13044537 0.10815270
v 0.29330812 -0.13044537 0.11184730
v 0.29327095 -0.13021073 0.11250000
v 0.29320111 -0.12976975 0.11303209
v 0.29310701 -0.12917562 0.11337939
v 0.29321138 -0.12915056 0.10662061
v 0.29339726 -0.12972265 0.10696791
v 0.29353523 -0.13014728 0.10750000
v 0.29360864 -0.13037322 0.10815270
v 0.29360864 -0.13037322 0.11184730
v 0.29353523 -0.13014728 0.11250000
v 0.29339726 -0.12972265 0.11303209
v 0.29321138 -0.12915056 0.11337939
v 0.29331055 -0.12910948 0.10662061
v 0.29358364 -0.12964546 0.10696791
v 0.29378633 -0.13004327 0.10750000
v 0.29389419 -0.13025494 0.10815270
v 0.29389419 -0.13025494 0.11184730
v 0.29378633 -0.13004327 0.11250000
v 0.29358364 -0.12964546 0.11303209
v 0.29331055 -0.12910948 0.11337939
v 0.29340207 -0.12905340 0.10662061
v 0.29375564 -0.12954005 0.10696791
v 0.29401807 -0.12990126 0.10750000
v 0.29415771 -0.13009345 0.10815270
v 0.29415771 -0.13009345 0.11184730
v 0.29401807 -0.12990126 0.11250000
v 0.29375564 -0.12954005 0.11303209
v 0.29340207 -0.12905340 0.11337939
v 0.29348369 -0.12898369 0.10662061
v 0.29390904 -0.12940904 0.10696791
v 0.29422474 -0.12972474 0.10750000
v 0.29439273 -0.12989273 0.10815270
v 0.29439273 -0.12989273 0.11184730
v 0.29422474 -0.12972474 0.11250000
v 0.29390904 -0.12940904 0.11303209
v 0.29348369 -0.12898369 0.11337939
v 0.29355340 -0.12890207 0.10662061
v 0.29404005 -0.12925564 0.10696791
v 0.29440126 -0.12951807 0.10750000
v 0.29459345 -0.12965771 0.10815270
v 0.29459345 -0.12965771 0.11184730
v 0.29440126 -0.12951807 0.11250000
v 0.29404005 -0.12925564 0.11303209
v 0.29355340 -0.12890207 0.11337939
v 0.29360948 -0.12881055 0.10662061
v 0.29414546 -0.12908364 0.10696791
v 0.29454327 -0.12928633 0.10750000
v 0.29475494 -0.12939419 0.10815270
v 0.29475494 -0.12939419 0.11184730
v 0.29454327 -0.12928633 0.11250000
v 0.29414546 -0.12908364 0.11303209
v 0.29360948 -0.12881055 0.11337939
v 0.29365056 -0.12871138 0.10662061
v 0.29422265 -0.12889726 0.10696791
v 0.29464728 -0.12903523 0.10750000
v 0.29487322 -0.12910864 0.10815270
v 0.29487322 -0.12910864 0.11184730
v 0.29464728 -0.12903523 0.11250000
v 0.29422265 -0.12889726 0.11303209
v 0.29365056 -0.12871138 0.11337939
v 0.29367562 -0.12860701 0.10662061
v 0.29426975 -0.12870111 0.10696791
v 0.29471073 -0.12877095 0.10750000
v 0.29494537 -0.12880812 0.10815270
v 0.29494537 -0.12880812 0.11184730
v 0.29471073 -0.12877095 0.11250000
v 0.29426975 -0.12870111 0.11303209
v 0.29367562 -0.12860701 0.11337939
vn -0.00008778 -0.00000116 -1.00000000
vn 0.29319115 -0.00000735 -0.95605384
vn 0.64280307 -0.00001553 -0.76603147
vn 0.86603427 -0.00001365 -0.49998464
vn 0.98480897 -0.00000539 -0.17364128
vn 0.98480897 0.00000539 0.17364128
vn 0.86603427 0.00001365 0.49998464
vn 0.64280307 0.00001553 0.76603147
vn 0.34203083 0.00000727 0.93968873
vn 0.06473575 -0.00000072 0.99790244
vn 0.27688063 0.03220352 -0.96036454
vn 0.64607820 0.07623943 -0.75945408
vn 0.86329590 0.10240212 -0.49420036
vn 0.97831572 0.11634270 -0.17135557
vn 0.97831577 0.11633753 0.17135880
vn 0.86329670 0.10238884 0.49420171
vn 0.64608082 0.07622394 0.75945342
vn 0.27694267 0.03220954 0.96034645
vn 0.25861640 0.08410528 -0.96231173
vn 0.61611813 0.20018892 -0.76178924
vn 0.82567177 0.26827702 -0.49627973
vn 0.93685246 0.30440182 -0.17218304
vn 0.93685246 0.30440182 0.17218304
vn 0.82567177 0.26827702 0.49627973
vn 0.61611813 0.20018892 0.76178924
vn 0.25863599 0.08411355 0.96230574
vn 0.24202135 0.12336798 -0.96239597
vn 0.57721625 0.29410637 -0.76178924
vn 0.77353861 0.39413761 -0.49627973
vn 0.87769932 0.44721014 -0.17218304
vn 0.87769932 0.44721014 0.17218304
vn 0.77353861 0.39413761 0.49627973
vn 0.57721625 0.29410637 0.76178924
vn 0.24203043 0.12337365 0.96239296
vn 0.21961969 0.15960242 -0.96244182
vn 0.52410139 0.38078195 -0.76178924
vn 0.70235836 0.51029322 -0.49627973
vn 0.79693430 0.57900666 -0.17218304
vn 0.79693430 0.57900666 0.17218304
vn 0.70235836 0.51029322 0.49627973
vn 0.52410139 0.38078195 0.76178924
vn 0.21962441 0.15960654 0.96244006
vn 0.19188502 0.19191693 -0.96246975
vn 0.45808141 0.45808141 -0.76178924
vn 0.61388371 0.61388371 -0.49627973
vn 0.69654612 0.69654612 -0.17218304
vn 0.69654612 0.69654612 0.17218304
vn 0.61388371 0.61388371 0.49627973
vn 0.45808141 0.45808141 0.76178924
vn 0.19188754 0.19191999 0.96246864
vn 0.15946800 0.21951606 -0.96248775
vn 0.38078195 0.52410139 -0.76178924
vn 0.51029322 0.70235836 -0.49627973
vn 0.57900666 0.79693430 -0.17218304
vn 0.57900666 0.79693430 0.17218304
vn 0.51029322 0.70235836 0.49627973
vn 0.38078195 0.52410139 0.76178924
vn 0.15946928 0.21951831 0.96248702
vn 0.12315036 0.24172032 -0.96249949
vn 0.29410637 0.57721625 -0.76178924
vn 0.39413761 0.77353861 -0.49627973
vn 0.44721014 0.87769932 -0.17218304
vn 0.44721014 0.87769932 0.17218304
vn 0.39413761 0.77353861 0.49627973
vn 0.29410637 0.57721625 0.76178924
vn 0.12315093 0.24172192 0.96249902
vn 0.08381659 0.25798305 -0.96250690
vn 0.20018892 0.61611813 -0.76178924
vn 0.26827702 0.82567177 -0.49627973
vn 0.30440182 0.93685246 -0.17218304
vn 0.30440182 0.93685246 0.17218304
vn 0.26827702 0.82567177 0.49627973
vn 0.20018892 0.61611813 0.76178924
vn 0.08381673 0.25798408 0.96250661
vn 0.04242854 0.26790385 -0.96251096
vn 0.10134215 0.63984914 -0.76178924
vn 0.13581056 0.85747415 -0.49627973
vn 0.15409811 0.97293719 -0.17218304
vn 0.15409811 0.97293719 0.17218304
vn 0.13581056 0.85747415 0.49627973
vn 0.10134215 0.63984914 0.76178924
vn 0.04242845 0.26790435 0.96251082
vn 0.01013415 0.26554159 -0.96404614
vn 0.02340583 0.64554565 -0.76336294
vn 0.03025411 0.86695343 -0.49747004
vn 0.03355988 0.98442669 -0.17256251
vn 0.03334511 0.98440573 0.17272366
vn 0.02969478 0.86691955 0.49756278
vn 0.02273558 0.64556758 0.76336465
vn 0.00979890 0.26578095 0.96398364
vn -0.03275463 0.27483616 -0.96093300
vn -0.07888660 0.64528462 -0.75985832
vn -0.10656182 0.86255651 -0.49461182
vn -0.12130967 0.97769105 -0.17147648
vn -0.12110293 0.97768964 0.17163058
vn -0.10601859 0.86258400 0.49468061
vn -0.07822253 0.64540162 0.75982760
vn -0.03238927 0.27513701 0.96085928
vn -0.08381659 0.25798305 -0.96250690
vn -0.20018892 0.61611813 -0.76178924
vn -0.26827702 0.82567177 -0.49627973
vn -0.30440182 0.93685246 -0.17218304
vn -0.30440182 0.93685246 0.17218304
vn -0.26827702 0.82567177 0.49627973
vn -0.20018892 0.61611813 0.76178924
vn -0.08381646 0.25798203 0.96250718
vn -0.12315036 0.24172032 -0.96249949
vn -0.29410637 0.57721625 -0.76178924
vn -0.39413761 0.77353861 -0.49627973
vn -0.44721014 0.87769932 -0.17218304
vn -0.44721014 0.87769932 0.17218304
vn -0.39413761 0.77353861 0.49627973
vn -0.29410637 0.57721625 0.76178924
vn -0.12314981 0.24171873 0.96249996
vn -0.15946800 0.21951606 -0.96248775
vn -0.38078195 0.52410139 -0.76178924
vn -0.51029322 0.70235836 -0.49627973
vn -0.57900666 0.79693430 -0.17218304
vn -0.57900666 0.79693430 0.17218304
vn -0.51029322 0.70235836 0.49627973
vn -0.38078195 0.52410139 0.76178924
vn -0.15946672 0.21951382 0.96248847
vn -0.19188502 0.19191693 -0.96246975
vn -0.45808141 0.45808141 -0.76178924
vn -0.61388371 0.61388371 -0.49627973
vn -0.69654612 0.69654612 -0.17218304
vn -0.69654612 0.69654612 0.17218304
vn -0.61388371 0.61388371 0.49627973
vn -0.45808141 0.45808141 0.76178924
vn -0.19188254 0.19191391 0.96247085
vn -0.21961969 0.15960242 -0.96244182
vn -0.52410139 0.38078195 -0.76178924
vn -0.70235836 0.51029322 -0.49627973
vn -0.79693430 0.57900666 -0.17218304
vn -0.79693430 0.57900666 0.17218304
vn -0.70235836 0.51029322 0.49627973
vn -0.52410139 0.38078195 0.76178924
vn -0.21961506 0.15959836 0.96244355
vn -0.24202135 0.12336798 -0.96239597
vn -0.57721625 0.29410637 -0.76178924
vn -0.77353861 0.39413761 -0.49627973
vn -0.87769932 0.44721014 -0.17218304
vn -0.87769932 0.44721014 0.17218304
vn -0.77353861 0.39413761 0.49627973
vn -0.57721625 0.29410637 0.76178924
vn -0.24201249 0.12336245 0.96239891
vn -0.25861640 0.08410528 -0.96231173
vn -0.61611813 0.20018892 -0.76178924
vn -0.82567177 0.26827702 -0.49627973
vn -0.93685246 0.30440182 -0.17218304
vn -0.93685246 0.30440182 0.17218304
vn -0.82567177 0.26827702 0.49627973
vn -0.61611813 0.20018892 0.76178924
vn -0.25859752 0.08409731 0.96231750
vn -0.26926157 0.04277926 -0.96211649
vn -0.63984914 0.10134215 -0.76178924
vn -0.85747415 0.13581056 -0.49627973
vn -0.97293719 0.15409811 -0.17218304
vn -0.97293719 0.15409811 0.17218304
vn -0.85747415 0.13581056 0.49627973
vn -0.63984914 0.10134215 0.76178924
vn -0.26920842 0.04276615 0.96213195
vn -0.26972247 0.01102207 -0.96287502
vn -0.64509699 0.02538043 -0.76367906
vn -0.86659357 0.03394396 -0.49785881
vn -0.98420732 0.03846826 -0.17278929
vn -0.98420713 0.03846556 0.17279099
vn -0.86659332 0.03393711 0.49785971
vn -0.64509736 0.02537264 0.76367901
vn -0.26934007 0.01098698 0.96298246
vn -0.27688660 -0.03219483 -0.96036311
vn -0.64608548 -0.07621514 -0.75945033
vn -0.86330268 -0.10236399 -0.49419642
vn -0.97832130 -0.11629745 -0.17135445
vn -0.97832132 -0.11629485 0.17135607
vn -0.86330308 -0.10235732 0.49419710
vn -0.64608679 -0.07620737 0.75945000
vn -0.27683631 -0.03217746 0.96037819
vn -0.25861640 -0.08410528 -0.96231173
vn -0.61611813 -0.20018892 -0.76178924
vn -0.82567177 -0.26827702 -0.49627973
vn -0.93685246 -0.30440182 -0.17218304
vn -0.93685246 -0.30440182 0.17218304
vn -0.82567177 -0.26827702 0.49627973
vn -0.61611813 -0.20018892 0.76178924
vn -0.25859752 -0.08409731 0.96231750
vn -0.24202135 -0.12336798 -0.96239597
vn -0.57721625 -0.29410637 -0.76178924
vn -0.77353861 -0.39413761 -0.49627973
vn -0.87769932 -0.44721014 -0.17218304
vn -0.87769932 -0.44721014 0.17218304
vn -0.77353861 -0.39413761 0.49627973
vn -0.57721625 -0.29410637 0.76178924
vn -0.24201249 -0.12336245 0.96239891
vn -0.21961969 -0.15960242 -0.96244182
vn -0.52410139 -0.38078195 -0.76178924
vn -0.70235836 -0.51029322 -0.49627973
vn -0.79693430 -0.57900666 -0.17218304
vn -0.79693430 -0.57900666 0.17218304
vn -0.70235836 -0.51029322 0.49627973
vn -0.52410139 -0.38078195 0.76178924
vn -0.21961506 -0.15959836 0.96244355
vn -0.19188502 -0.19191693 -0.96246975
vn -0.45808141 -0.45808141 -0.76178924
vn -0.61388371 -0.61388371 -0.49627973
vn -0.69654612 -0.69654612 -0.17218304
vn -0.69654612 -0.69654612 0.17218304
vn -0.61388371 -0.61388371 0.49627973
vn -0.45808141 -0.45808141 0.76178924
vn -0.19188254 -0.19191391 0.96247085
vn -0.15946800 -0.21951606 -0.96248775
vn -0.38078195 -0.52410139 -0.76178924
vn -0.51029322 -0.70235836 -0.49627973
vn -0.57900666 -0.79693430 -0.17218304
vn -0.57900666 -0.79693430 0.17218304
vn -0.51029322 -0.70235836 0.49627973
vn -0.38078195 -0.52410139 0.76178924
vn -0.15946672 -0.21951382 0.96248847
vn -0.12315036 -0.24172032 -0.96249949
vn -0.29410637 -0.57721625 -0.76178924
vn -0.39413761 -0.77353861 -0.49627973
vn -0.44721014 -0.87769932 -0.17218304
vn -0.44721014 -0.87769932 0.17218304
vn -0.39413761 -0.77353861 0.49627973
vn -0.29410637 -0.57721625 0.76178924
vn -0.12314981 -0.24171873 0.96249996
vn -0.08381659 -0.25798305 -0.96250690
vn -0.20018892 -0.61611813 -0.76178924
vn -0.26827702 -0.82567177 -0.49627973
vn -0.30440182 -0.93685246 -0.17218304
vn -0.30440182 -0.93685246 0.17218304
vn -0.26827702 -0.82567177 0.49627973
vn -0.20018892 -0.61611813 0.76178924
vn -0.08381646 -0.25798203 0.96250718
vn -0.04242854 -0.26790385 -0.96251096
vn -0.10134215 -0.63984914 -0.76178924
vn -0.13581056 -0.85747415 -0.49627973
vn -0.15409811 -0.97293719 -0.17218304
vn -0.15409811 -0.97293719 0.17218304
vn -0.13581056 -0.85747415 0.49627973
vn -0.10134215 -0.63984914 0.76178924
vn -0.04242864 -0.26790335 0.96251109
vn -0.01013415 -0.26554159 -0.96404614
vn -0.02340583 -0.64554565 -0.76336294
vn -0.03025411 -0.86695343 -0.49747004
vn -0.03355988 -0.98442669 -0.17256251
vn -0.03334511 -0.98440573 0.17272366
vn -0.02969478 -0.86691955 0.49756278
vn -0.02273558 -0.64556758 0.76336465
vn -0.00979907 -0.26578070 0.96398371
vn 0.03275463 -0.27483616 -0.96093300
vn 0.07888660 -0.64528462 -0.75985832
vn 0.10656182 -0.86255651 -0.49461182
vn 0.12130967 -0.97769105 -0.17147648
vn 0.12110293 -0.97768964 0.17163058
vn 0.10601859 -0.86258400 0.49468061
vn 0.07822253 -0.64540162 0.75982760
vn 0.03238888 -0.27513774 0.96085909
vn 0.08381659 -0.25798305 -0.96250690
vn 0.20018892 -0.61611813 -0.76178924
vn 0.26827702 -0.82567177 -0.49627973
vn 0.30440182 -0.93685246 -0.17218304
vn 0.30440182 -0.93685246 0.17218304
vn 0.26827702 -0.82567177 0.49627973
vn 0.20018892 -0.61611813 0.76178924
vn 0.08381673 -0.25798408 0.96250661
vn 0.12315036 -0.24172032 -0.96249949
vn 0.29410637 -0.57721625 -0.76178924
vn 0.39413761 -0.77353861 -0.49627973
vn 0.44721014 -0.87769932 -0.17218304
vn 0.44721014 -0.87769932 0.17218304
vn 0.39413761 -0.77353861 0.49627973
vn 0.29410637 -0.57721625 0.76178924
vn 0.12315093 -0.24172192 0.96249902
vn 0.15946800 -0.21951606 -0.96248775
vn 0.38078195 -0.52410139 -0.76178924
vn 0.51029322 -0.70235836 -0.49627973
vn 0.57900666 -0.79693430 -0.17218304
vn 0.57900666 -0.79693430 0.17218304
vn 0.51029322 -0.70235836 0.49627973
vn 0.38078195 -0.52410139 0.76178924
vn 0.15946928 -0.21951831 0.96248702
vn 0.19188502 -0.19191693 -0.96246975
vn 0.45808141 -0.45808141 -0.76178924
vn 0.61388371 -0.61388371 -0.49627973
vn 0.69654612 -0.69654612 -0.17218304
vn 0.69654612 -0.69654612 0.17218304
vn 0.61388371 -0.61388371 0.49627973
vn 0.45808141 -0.45808141 0.76178924
vn 0.19188754 -0.19191999 0.96246864
vn 0.21961969 -0.15960242 -0.96244182
vn 0.52410139 -0.38078195 -0.76178924
vn 0.70235836 -0.51029322 -0.49627973
vn 0.79693430 -0.57900666 -0.17218304
vn 0.79693430 -0.57900666 0.17218304
vn 0.70235836 -0.51029322 0.49627973
vn 0.52410139 -0.38078195 0.76178924
vn 0.21962441 -0.15960654 0.96244006
vn 0.24202135 -0.12336798 -0.96239597
vn 0.57721625 -0.29410637 -0.76178924
vn 0.77353861 -0.39413761 -0.49627973
vn 0.87769932 -0.44721014 -0.17218304
vn 0.87769932 -0.44721014 0.17218304
vn 0.77353861 -0.39413761 0.49627973
vn 0.57721625 -0.29410637 0.76178924
vn 0.24203043 -0.12337365 0.96239296
vn 0.25861640 -0.08410528 -0.96231173
vn 0.61611813 -0.20018892 -0.76178924
vn 0.82567177 -0.26827702 -0.49627973
vn 0.93685246 -0.30440182 -0.17218304
vn 0.93685246 -0.30440182 0.17218304
vn 0.82567177 -0.26827702 0.49627973
vn 0.61611813 -0.20018892 0.76178924
vn 0.25863599 -0.08411355 0.96230574
vn 0.27688622 -0.03219540 -0.96036320
vn 0.64608082 -0.07622394 -0.75945342
vn 0.86329670 -0.10238884 -0.49420171
vn 0.97831577 -0.11633753 -0.17135880
vn 0.97831572 -0.11634270 0.17135557
vn 0.86329590 -0.10240212 0.49420036
vn 0.64607820 -0.07623943 0.75945408
vn 0.27693707 -0.03221766 0.96034779
vn -0.00008778 -0.00000116 -1.00000000
vn 0.29319115 -0.00000735 -0.95605384
vn 0.64280307 -0.00001553 -0.76603147
vn 0.86603427 -0.00001365 -0.49998464
vn 0.98480897 -0.00000539 -0.17364128
vn 0.98480897 0.00000539 0.17364128
vn 0.86603427 0.00001365 0.49998464
vn 0.64280307 0.00001553 0.76603147
vn 0.34203083 0.00000727 0.93968873
vn 0.06473575 -0.00000072 0.99790244
vn 0.27688063 0.03220352 -0.96036454
vn 0.64607820 0.07623943 -0.75945408
vn 0.86329590 0.10240212 -0.49420036
vn 0.97831572 0.11634270 -0.17135557
vn 0.97831577 0.11633753 0.17135880
vn 0.86329670 0.10238884 0.49420171
vn 0.64608082 0.07622394 0.75945342
vn 0.27694267 0.03220954 0.96034645
vn 0.25861640 0.08410528 -0.96231173
vn 0.61611813 0.20018892 -0.76178924
vn 0.82567177 0.26827702 -0.49627973
vn 0.93685246 0.30440182 -0.17218304
vn 0.93685246 0.30440182 0.17218304
vn 0.82567177 0.26827702 0.49627973
vn 0.61611813 0.20018892 0.76178924
vn 0.25863599 0.08411355 0.96230574
vn 0.24202135 0.12336798 -0.96239597
vn 0.57721625 0.29410637 -0.76178924
vn 0.77353861 0.39413761 -0.49627973
vn 0.87769932 0.44721014 -0.17218304
vn 0.87769932 0.44721014 0.17218304
vn 0.77353861 0.39413761 0.49627973
vn 0.57721625 0.29410637 0.76178924
vn 0.24203043 0.12337365 0.96239296
vn 0.21961969 0.15960242 -0.96244182
vn 0.52410139 0.38078195 -0.76178924
vn 0.70235836 0.51029322 -0.49627973
vn 0.79693430 0.57900666 -0.17218304
vn 0.79693430 0.57900666 0.17218304
vn 0.70235836 0.51029322 0.49627973
vn 0.52410139 0.38078195 0.76178924
vn 0.21962441 0.15960654 0.96244006
vn 0.19188502 0.19191693 -0.96246975
vn 0.45808141 0.45808141 -0.76178924
vn 0.61388371 0.61388371 -0.49627973
vn 0.69654612 0.69654612 -0.17218304
vn 0.69654612 0.69654612 0.17218304
vn 0.61388371 0.61388371 0.49627973
vn 0.45808141 0.45808141 0.76178924
vn 0.19188754 0.19191999 0.96246864
vn 0.15946800 0.21951606 -0.96248775
vn 0.38078195 0.52410139 -0.76178924
vn 0.51029322 0.70235836 -0.49627973
vn 0.57900666 0.79693430 -0.17218304
vn 0.57900666 0.79693430 0.17218304
vn 0.51029322 0.70235836 0.49627973
vn 0.38078195 0.52410139 0.76178924
vn 0.15946928 0.21951831 0.96248702
vn 0.12315036 0.24172032 -0.96249949
vn 0.29410637 0.57721625 -0.76178924
vn 0.39413761 0.77353861 -0.49627973
vn 0.44721014 0.87769932 -0.17218304
vn 0.44721014 0.87769932 0.17218304
vn 0.39413761 0.77353861 0.49627973
vn 0.29410637 0.57721625 0.76178924
vn 0.12315093 0.24172192 0.96249902
vn 0.08381659 0.25798305 -0.96250690
vn 0.20018892 0.61611813 -0.76178924
vn 0.26827702 0.82567177 -0.49627973
vn 0.30440182 0.93685246 -0.17218304
vn 0.30440182 0.93685246 0.17218304
vn 0.26827702 0.82567177 0.49627973
vn 0.20018892 0.61611813 0.76178924
vn 0.08381673 0.25798408 0.96250661
vn 0.04242854 0.26790385 -0.96251096
vn 0.10134215 0.63984914 -0.76178924
vn 0.13581056 0.85747415 -0.49627973
vn 0.15409811 0.97293719 -0.17218304
vn 0.15409811 0.97293719 0.17218304
vn 0.13581056 0.85747415 0.49627973
vn 0.10134215 0.63984914 0.76178924
vn 0.04242845 0.26790435 0.96251082
vn 0.01013415 0.26554159 -0.96404614
vn 0.02340583 0.64554565 -0.76336294
vn 0.03025411 0.86695343 -0.49747004
vn 0.03355988 0.98442669 -0.17256251
vn 0.03334511 0.98440573 0.17272366
vn 0.02969478 0.86691955 0.49756278
vn 0.02273558 0.64556758 0.76336465
vn 0.00979890 0.26578095 0.96398364
vn -0.03275463 0.27483616 -0.96093300
vn -0.07888660 0.64528462 -0.75985832
vn -0.10656182 0.86255651 -0.49461182
vn -0.12130967 0.97769105 -0.17147648
vn -0.12110293 0.97768964 0.17163058
vn -0.10601859 0.86258400 0.49468061
vn -0.07822253 0.64540162 0.75982760
vn -0.03238927 0.27513701 0.96085928
vn -0.08381659 0.25798305 -0.96250690
vn -0.20018892 0.61611813 -0.76178924
vn -0.26827702 0.82567177 -0.49627973
vn -0.30440182 0.93685246 -0.17218304
vn -0.30440182 0.93685246 0.17218304
vn -0.26827702 0.82567177 0.49627973
vn -0.20018892 0.61611813 0.76178924
vn -0.08381646 0.25798203 0.96250718
vn -0.12315036 0.24172032 -0.96249949
vn -0.29410637 0.57721625 -0.76178924
vn -0.39413761 0.77353861 -0.49627973
vn -0.44721014 0.87769932 -0.17218304
vn -0.44721014 0.87769932 0.17218304
vn -0.39413761 0.77353861 0.49627973
vn -0.29410637 0.57721625 0.76178924
vn -0.12314981 0.24171873 0.96249996
vn -0.15946800 0.21951606 -0.96248775
vn -0.38078195 0.52410139 -0.76178924
vn -0.51029322 0.70235836 -0.49627973
vn -0.57900666 0.79693430 -0.17218304
vn -0.57900666 0.79693430 0.17218304
vn -0.51029322 0.70235836 0.49627973
vn -0.38078195 0.52410139 0.76178924
vn -0.15946672 0.21951382 0.96248847
vn -0.19188502 0.19191693 -0.96246975
vn -0.45808141 0.45808141 -0.76178924
vn -0.61388371 0.61388371 -0.49627973
vn -0.69654612 0.69654612 -0.17218304
vn -0.69654612 0.69654612 0.17218304
vn -0.61388371 0.61388371 0.49627973
vn -0.45808141 0.45808141 0.76178924
vn -0.19188254 0.19191391 0.96247085
vn -0.21961969 0.15960242 -0.96244182
vn -0.52410139 0.38078195 -0.76178924
vn -0.70235836 0.51029322 -0.49627973
vn -0.79693430 0.57900666 -0.17218304
vn -0.79693430 0.57900666 0.17218304
vn -0.70235836 0.51029322 0.49627973
vn -0.52410139 0.38078195 0.76178924
vn -0.21961506 0.15959836 0.96244355
vn -0.24202135 0.12336798 -0.96239597
vn -0.57721625 0.29410637 -0.76178924
vn -0.77353861 0.39413761 -0.49627973
vn -0.87769932 0.44721014 -0.17218304
vn -0.87769932 0.44721014 0.17218304
vn -0.77353861 0.39413761 0.49627973
vn -0.57721625 0.29410637 0.76178924
vn -0.24201249 0.12336245 0.96239891
vn -0.25861640 0.08410528 -0.96231173
vn -0.61611813 0.20018892 -0.76178924
vn -0.82567177 0.26827702 -0.49627973
vn -0.93685246 0.30440182 -0.17218304
vn -0.93685246 0.30440182 0.17218304
vn -0.82567177 0.26827702 0.49627973
vn -0.61611813 0.20018892 0.76178924
vn -0.25859752 0.08409731 0.96231750
vn -0.26926157 0.04277926 -0.96211649
vn -0.63984914 0.10134215 -0.76178924
vn -0.85747415 0.13581056 -0.49627973
vn -0.97293719 0.15409811 -0.17218304
vn -0.97293719 0.15409811 0.17218304
vn -0.85747415 0.13581056 0.49627973
vn -0.63984914 0.10134215 0.76178924
vn -0.26920842 0.04276615 0.96213195
vn -0.26972247 0.01102207 -0.96287502
vn -0.64509699 0.02538043 -0.76367906
vn -0.86659357 0.03394396 -0.49785881
vn -0.98420732 0.03846826 -0.17278929
vn -0.98420713 0.03846556 0.17279099
vn -0.86659332 0.03393711 0.49785971
vn -0.64509736 0.02537264 0.76367901
vn -0.26934007 0.01098698 0.96298246
vn -0.27688660 -0.03219483 -0.96036311
vn -0.64608548 -0.07621514 -0.75945033
vn -0.86330268 -0.10236399 -0.49419642
vn -0.97832130 -0.11629745 -0.17135445
vn -0.97832132 -0.11629485 0.17135607
vn -0.86330308 -0.10235732 0.49419710
vn -0.64608679 -0.07620737 0.75945000
vn -0.27683631 -0.03217746 0.96037819
vn -0.25861640 -0.08410528 -0.96231173
vn -0.61611813 -0.20018892 -0.76178924
vn -0.82567177 -0.26827702 -0.49627973
vn -0.93685246 -0.30440182 -0.17218304
vn -0.93685246 -0.30440182 0.17218304
vn -0.82567177 -0.26827702 0.49627973
vn -0.61611813 -0.20018892 0.76178924
vn -0.25859752 -0.08409731 0.96231750
vn -0.24202135 -0.12336798 -0.96239597
vn -0.57721625 -0.29410637 -0.76178924
vn -0.77353861 -0.39413761 -0.49627973
vn -0.87769932 -0.44721014 -0.17218304
vn -0.87769932 -0.44721014 0.17218304
vn -0.77353861 -0.39413761 0.49627973
vn -0.57721625 -0.29410637 0.76178924
vn -0.24201249 -0.12336245 0.96239891
vn -0.21961969 -0.15960242 -0.96244182
vn -0.52410139 -0.38078195 -0.76178924
vn -0.70235836 -0.51029322 -0.49627973
vn -0.79693430 -0.57900666 -0.17218304
vn -0.79693430 -0.57900666 0.17218304
vn -0.70235836 -0.51029322 0.49627973
vn -0.52410139 -0.38078195 0.76178924
vn -0.21961506 -0.15959836 0.96244355
vn -0.19188502 -0.19191693 -0.96246975
vn -0.45808141 -0.45808141 -0.76178924
vn -0.61388371 -0.61388371 -0.49627973
vn -0.69654612 -0.69654612 -0.17218304
vn -0.69654612 -0.69654612 0.17218304
vn -0.61388371 -0.61388371 0.49627973
vn -0.45808141 -0.45808141 0.76178924
vn -0.19188254 -0.19191391 0.96247085
vn -0.15946800 -0.21951606 -0.96248775
vn -0.38078195 -0.52410139 -0.76178924
vn -0.51029322 -0.70235836 -0.49627973
vn -0.57900666 -0.79693430 -0.17218304
vn -0.57900666 -0.79693430 0.17218304
vn -0.51029322 -0.70235836 0.49627973
vn -0.38078195 -0.52410139 0.76178924
vn -0.15946672 -0.21951382 0.96248847
vn -0.12315036 -0.24172032 -0.96249949
vn -0.29410637 -0.57721625 -0.76178924
vn -0.39413761 -0.77353861 -0.49627973
vn -0.44721014 -0.87769932 -0.17218304
vn -0.44721014 -0.87769932 0.17218304
vn -0.39413761 -0.77353861 0.49627973
vn -0.29410637 -0.57721625 0.76178924
vn -0.12314981 -0.24171873 0.96249996
vn -0.08381659 -0.25798305 -0.96250690
vn -0.20018892 -0.61611813 -0.76178924
vn -0.26827702 -0.82567177 -0.49627973
vn -0.30440182 -0.93685246 -0.17218304
vn -0.30440182 -0.93685246 0.17218304
vn -0.26827702 -0.82567177 0.49627973
vn -0.20018892 -0.61611813 0.76178924
vn -0.08381646 -0.25798203 0.96250718
vn -0.04242854 -0.26790385 -0.96251096
vn -0.10134215 -0.63984914 -0.76178924
vn -0.13581056 -0.85747415 -0.49627973
vn -0.15409811 -0.97293719 -0.17218304
vn -0.15409811 -0.97293719 0.17218304
vn -0.13581056 -0.85747415 0.49627973
vn -0.10134215 -0.63984914 0.76178924
vn -0.04242864 -0.26790335 0.96251109
vn -0.01013415 -0.26554159 -0.96404614
vn -0.02340583 -0.64554565 -0.76336294
vn -0.03025411 -0.86695343 -0.49747004
vn -0.03355988 -0.98442669 -0.17256251
vn -0.03334511 -0.98440573 0.17272366
vn -0.02969478 -0.86691955 0.49756278
vn -0.02273558 -0.64556758 0.76336465
vn -0.00979907 -0.26578070 0.96398371
vn 0.03275463 -0.27483616 -0.96093300
vn 0.07888660 -0.64528462 -0.75985832
vn 0.10656182 -0.86255651 -0.49461182
vn 0.12130967 -0.97769105 -0.17147648
vn 0.12110293 -0.97768964 0.17163058
vn 0.10601859 -0.86258400 0.49468061
vn 0.07822253 -0.64540162 0.75982760
vn 0.03238888 -0.27513774 0.96085909
vn 0.08381659 -0.25798305 -0.96250690
vn 0.20018892 -0.61611813 -0.76178924
vn 0.26827702 -0.82567177 -0.49627973
vn 0.30440182 -0.93685246 -0.17218304
vn 0.30440182 -0.93685246 0.17218304
vn 0.26827702 -0.82567177 0.49627973
vn 0.20018892 -0.61611813 0.76178924
vn 0.08381673 -0.25798408 0.96250661
vn 0.12315036 -0.24172032 -0.96249949
vn 0.29410637 -0.57721625 -0.76178924
vn 0.39413761 -0.77353861 -0.49627973
vn 0.44721014 -0.87769932 -0.17218304
vn 0.44721014 -0.87769932 0.17218304
vn 0.39413761 -0.77353861 0.49627973
vn 0.29410637 -0.57721625 0.76178924
vn 0.12315093 -0.24172192 0.96249902
vn 0.15946800 -0.21951606 -0.96248775
vn 0.38078195 -0.52410139 -0.76178924
vn 0.51029322 -0.70235836 -0.49627973
vn 0.57900666 -0.79693430 -0.17218304
vn 0.57900666 -0.79693430 0.17218304
vn 0.51029322 -0.70235836 0.49627973
vn 0.38078195 -0.52410139 0.76178924
vn 0.15946928 -0.21951831 0.96248702
vn 0.19188502 -0.19191693 -0.96246975
vn 0.45808141 -0.45808141 -0.76178924
vn 0.61388371 -0.61388371 -0.49627973
vn 0.69654612 -0.69654612 -0.17218304
vn 0.69654612 -0.69654612 0.17218304
vn 0.61388371 -0.61388371 0.49627973
vn 0.45808141 -0.45808141 0.76178924
vn 0.19188754 -0.19191999 0.96246864
vn 0.21961969 -0.15960242 -0.96244182
vn 0.52410139 -0.38078195 -0.76178924
vn 0.70235836 -0.51029322 -0.49627973
vn 0.79693430 -0.57900666 -0.17218304
vn 0.79693430 -0.57900666 0.17218304
vn 0.70235836 -0.51029322 0.49627973
vn 0.52410139 -0.38078195 0.76178924
vn 0.21962441 -0.15960654 0.96244006
vn 0.24202135 -0.12336798 -0.96239597
vn 0.57721625 -0.29410637 -0.76178924
vn 0.77353861 -0.39413761 -0.49627973
vn 0.87769932 -0.44721014 -0.17218304
vn 0.87769932 -0.44721014 0.17218304
vn 0.77353861 -0.39413761 0.49627973
vn 0.57721625 -0.29410637 0.76178924
vn 0.24203043 -0.12337365 0.96239296
vn 0.25861640 -0.08410528 -0.96231173
vn 0.61611813 -0.20018892 -0.76178924
vn 0.82567177 -0.26827702 -0.49627973
vn 0.93685246 -0.30440182 -0.17218304
vn 0.93685246 -0.30440182 0.17218304
vn 0.82567177 -0.26827702 0.49627973
vn 0.61611813 -0.20018892 0.76178924
vn 0.25863599 -0.08411355 0.96230574
vn 0.27688622 -0.03219540 -0.96036320
vn 0.64608082 -0.07622394 -0.75945342
vn 0.86329670 -0.10238884 -0.49420171
vn 0.97831577 -0.11633753 -0.17135880
vn 0.97831572 -0.11634270 0.17135557
vn 0.86329590 -0.10240212 0.49420036
vn 0.64607820 -0.07623943 0.75945408
vn 0.27693707 -0.03221766 0.96034779
f 2//2 1//1 11//11
f 2//2 11//11 3//3
f 3//3 11//11 12//12
f 3//3 12//12 4//4
f 4//4 12//12 13//13
f 4//4 13//13 5//5
f 5//5 13//13 14//14
f 5//5 14//14 6//6
f 6//6 14//14 15//15
f 6//6 15//15 7//7
f 7//7 15//15 16//16
f 7//7 16//16 8//8
f 8//8 16//16 17//17
f 8//8 17//17 9//9
f 9//9 17//17 18//18
f 9//9 18//18 10//10
f 11//11 1//1 19//19
f 11//11 19//19 12//12
f 12//12 19//19 20//20
f 12//12 20//20 13//13
f 13//13 20//20 21//21
f 13//13 21//21 14//14
f 14//14 21//21 22//22
f 14//14 22//22 15//15
f 15//15 22//22 23//23
f 15//15 23//23 16//16
f 16//16 23//23 24//24
f 16//16 24//24 17//17
f 17//17 24//24 25//25
f 17//17 25//25 18//18
f 18//18 25//25 26//26
f 18//18 26//26 10//10
f 19//19 1//1 27//27
f 19//19 27//27 20//20
f 20//20 27//27 28//28
f 20//20 28//28 21//21
f 21//21 28//28 29//29
f 21//21 29//29 22//22
f 22//22 29//29 30//30
f 22//22 30//30 23//23
f 23//23 30//30 31//31
f 23//23 31//31 24//24
f 24//24 31//31 32//32
f 24//24 32//32 25//25
f 25//25 32//32 33//33
f 25//25 33//33 26//26
f 26//26 33//33 34//34
f 26//26 34//34 10//10
f 27//27 1//1 35//35
f 27//27 35//35 28//28
f 28//28 35//35 36//36
f 28//28 36//36 29//29
f 29//29 36//36 37//37
f 29//29 37//37 30//30
f 30//30 37//37 38//38
f 30//30 38//38 31//31
f 31//31 38//38 39//39
f 31//31 39//39 32//32
f 32//32 39//39 40//40
f 32//32 40//40 33//33
f 33//33 40//40 41//41
f 33//33 41//41 34//34
f 34//34 41//41 42//42
f 34//34 42//42 10//10
f 35//35 1//1 43//43
f 35//35 43//43 36//36
f 36//36 43//43 44//44
f 36//36 44//44 37//37
f 37//37 44//44 45//45
f 37//37 45//45 38//38
f 38//38 45//45 46//46
f 38//38 46//46 39//39
f 39//39 46//46 47//47
f 39//39 47//47 40//40
f 40//40 47//47 48//48
f 40//40 48//48 41//41
f 41//41 48//48 49//49
f 41//41 49//49 42//42
f 42//42 49//49 50//50
f 42//42 50//50 10//10
f 43//43 1//1 51//51
f 43//43 51//51 44//44
f 44//44 51//51 52//52
f 44//44 52//52 45//45
f 45//45 52//52 53//53
f 45//45 53//53 46//46
f 46//46 53//53 54//54
f 46//46 54//54 47//47
f 47//47 54//54 55//55
f 47//47 55//55 48//48
f 48//48 55//55 56//56
f 48//48 56//56 49//49
f 49//49 56//56 57//57
f 49//49 57//57 50//50
f 50//50 57//57 58//58
f 50//50 58//58 10//10
f 51//51 1//1 59//59
f 51//51 59//59 52//52
f 52//52 59//59 60//60
f 52//52 60//60 53//53
f 53//53 60//60 61//61
f 53//53 61//61 54//54
f 54//54 61//61 62//62
f 54//54 62//62 55//55
f 55//55 62//62 63//63
f 55//55 63//63 56//56
f 56//56 63//63 64//64
f 56//56 64//64 57//57
f 57//57 64//64 65//65
f 57//57 65//65 58//58
f 58//58 65//65 66//66
f 58//58 66//66 10//10
f 59//59 1//1 67//67
f 59//59 67//67 60//60
f 60//60 67//67 68//68
f 60//60 68//68 61//61
f 61//61 68//68 69//69
f 61//61 69//69 62//62
f 62//62 69//69 70//70
f 62//62 70//70 63//63
f 63//63 70//70 71//71
f 63//63 71//71 64//64
f 64//64 71//71 72//72
f 64//64 72//72 65//65
f 65//65 72//72 73//73
f 65//65 73//73 66//66
f 66//66 73//73 74//74
f 66//66 74//74 10//10
f 67//67 1//1 75//75
f 67//67 75//75 68//68
f 68//68 75//75 76//76
f 68//68 76//76 69//69
f 69//69 76//76 77//77
f 69//69 77//77 70//70
f 70//70 77//77 78//78
f 70//70 78//78 71//71
f 71//71 78//78 79//79
f 71//71 79//79 72//72
f 72//72 79//79 80//80
f 72//72 80//80 73//73
f 73//73 80//80 81//81
f 73//73 81//81 74//74
f 74//74 81//81 82//82
f 74//74 82//82 10//10
f 75//75 1//1 83//83
f 75//75 83//83 76//76
f 76//76 83//83 84//84
f 76//76 84//84 77//77
f 77//77 84//84 85//85
f 77//77 85//85 78//78
f 78//78 85//85 86//86
f 78//78 86//86 79//79
f 79//79 86//86 87//87
f 79//79 87//87 80//80
f 80//80 87//87 88//88
f 80//80 88//88 81//81
f 81//81 88//88 89//89
f 81//81 89//89 82//82
f 82//82 89//89 90//90
f 82//82 90//90 10//10
f 83//83 1//1 91//91
f 83//83 91//91 84//84
f 84//84 91//91 92//92
f 84//84 92//92 85//85
f 85//85 92//92 93//93
f 85//85 93//93 86//86
f 86//86 93//93 94//94
f 86//86 94//94 87//87
f 87//87 94//94 95//95
f 87//87 95//95 88//88
f 88//88 95//95 96//96
f 88//88 96//96 89//89
f 89//89 96//96 97//97
f 89//89 97//97 90//90
f 90//90 97//97 98//98
f 90//90 98//98 10//10
f 91//91 1//1 99//99
f 91//91 99//99 92//92
f 92//92 99//99 100//100
f 92//92 100//100 93//93
f 93//93 100//100 101//101
f 93//93 101//101 94//94
f 94//94 101//101 102//102
f 94//94 102//102 95//95
f 95//95 102//102 103//103
f 95//95 103//103 96//96
f 96//96 103//103 104//104
f 96//96 104//104 97//97
f 97//97 104//104 105//105
f 97//97 105//105 98//98
f 98//98 105//105 106//106
f 98//98 106//106 10//10
f 99//99 1//1 107//107
f 99//99 107//107 100//100
f 100//100 107//107 108//108
f 100//100 108//108 101//101
f 101//101 108//108 109//109
f 101//101 109//109 102//102
f 102//102 109//109 110//110
f 102//102 110//110 103//103
f 103//103 110//110 111//111
f 103//103 111//111 104//104
f 104//104 111//111 112//112
f 104//104 112//112 105//105
f 105//105 112//112 113//113
f 105//105 113//113 106//106
f 106//106 113//113 114//114
f 106//106 114//114 10//10
f 107//107 1//1 115//115
f 107//107 115//115 108//108
f 108//108 115//115 116//116
f 108//108 116//116 109//109
f 109//109 116//116 117//117
f 109//109 117//117 110//110
f 110//110 117//117 118//118
f 110//110 118//118 111//111
f 111//111 118//118 119//119
f 111//111 119//119 112//112
f 112//112 119//119 120//120
f 112//112 120//120 113//113
f 113//113 120//120 121//121
f 113//113 121//121 114//114
f 114//114 121//121 122//122
f 114//114 122//122 10//10
f 115//115 1//1 123//123
f 115//115 123//123 116//116
f 116//116 123//123 124//124
f 116//116 124//124 117//117
f 117//117 124//124 125//125
f 117//117 125//125 118//118
f 118//118 125//125 126//126
f 118//118 126//126 119//119
f 119//119 126//126 127//127
f 119//119 127//127 120//120
f 120//120 127//127 128//128
f 120//120 128//128 121//121
f 121//121 128//128 129//129
f 121//121 129//129 122//122
f 122//122 129//129 130//130
f 122//122 130//130 10//10
f 123//123 1//1 131//131
f 123//123 131//131 124//124
f 124//124 131//131 132//132
f 124//124 132//132 125//125
f 125//125 132//132 133//133
f 125//125 133//133 126//126
f 126//126 133//133 134//134
f 126//126 134//134 127//127
f 127//127 134//134 135//135
f 127//127 135//135 128//128
f 128//128 135//135 136//136
f 128//128 136//136 129//129
f 129//129 136//136 137//137
f 129//129 137//137 130//130
f 130//130 137//137 138//138
f 130//130 138//138 10//10
f 131//131 1//1 139//139
f 131//131 139//139 132//132
f 132//132 139//139 140//140
f 132//132 140//140 133//133
f 133//133 140//140 141//141
f 133//133 141//141 134//134
f 134//134 141//141 142//142
f 134//134 142//142 135//135
f 135//135 142//142 143//143
f 135//135 143//143 136//136
f 136//136 143//143 144//144
f 136//136 144//144 137//137
f 137//137 144//144 145//145
f 137//137 145//145 138//138
f 138//138 145//145 146//146
f 138//138 146//146 10//10
f 139//139 1//1 147//147
f 139//139 147//147 140//140
f 140//140 147//147 148//148
f 140//140 148//148 141//141
f 141//141 148//148 149//149
f 141//141 149//149 142//142
f 142//142 149//149 150//150
f 142//142 150//150 143//143
f 143//143 150//150 151//151
f 143//143 151//151 144//144
f 144//144 151//151 152//152
f 144//144 152//152 145//145
f 145//145 152//152 153//153
f 145//145 153//153 146//146
f 146//146 153//153 154//154
f 146//146 154//154 10//10
f 147//147 1//1 155//155
f 147//147 155//155 148//148
f 148//148 155//155 156//156
f 148//148 156//156 149//149
f 149//149 156//156 157//157
f 149//149 157//157 150//150
f 150//150 157//157 158//158
f 150//150 158//158 151//151
f 151//151 158//158 159//159
f 151//151 159//159 152//152
f 152//152 159//159 160//160
f 152//152 160//160 153//153
f 153//153 160//160 161//161
f 153//153 161//161 154//154
f 154//154 161//161 162//162
f 154//154 162//162 10//10
f 155//155 1//1 163//163
f 155//155 163//163 156//156
f 156//156 163//163 164//164
f 156//156 164//164 157//157
f 157//157 164//164 165//165
f 157//157 165//165 158//158
f 158//158 165//165 166//166
f 158//158 166//166 159//159
f 159//159 166//166 167//167
f 159//159 167//167 160//160
f 160//160 167//167 168//168
f 160//160 168//168 161//161
f 161//161 168//168 169//169
f 161//161 169//169 162//162
f 162//162 169//169 170//170
f 162//162 170//170 10//10
f 163//163 1//1 171//171
f 163//163 171//171 164//164
f 164//164 171//171 172//172
f 164//164 172//172 165//165
f 165//165 172//172 173//173
f 165//165 173//173 166//166
f 166//166 173//173 174//174
f 166//166 174//174 167//167
f 167//167 174//174 175//175
f 167//167 175//175 168//168
f 168//168 175//175 176//176
f 168//168 176//176 169//169
f 169//169 176//176 177//177
f 169//169 177//177 170//170
f 170//170 177//177 178//178
f 170//170 178//178 10//10
f 171//171 1//1 179//179
f 171//171 179//179 172//172
f 172//172 179//179 180//180
f 172//172 180//180 173//173
f 173//173 180//180 181//181
f 173//173 181//181 174//174
f 174//174 181//181 182//182
f 174//174 182//182 175//175
f 175//175 182//182 183//183
f 175//175 183//183 176//176
f 176//176 183//183 184//184
f 176//176 184//184 177//177
f 177//177 184//184 185//185
f 177//177 185//185 178//178
f 178//178 185//185 186//186
f 178//178 186//186 10//10
f 179//179 1//1 187//187
f 179//179 187//187 180//180
f 180//180 187//187 188//188
f 180//180 188//188 181//181
f 181//181 188//188 189//189
f 181//181 189//189 182//182
f 182//182 189//189 190//190
f 182//182 190//190 183//183
f 183//183 190//190 191//191
f 183//183 191//191 184//184
f 184//184 191//191 192//192
f 184//184 192//192 185//185
f 185//185 192//192 193//193
f 185//185 193//193 186//186
f 186//186 193//193 194//194
f 186//186 194//194 10//10
f 187//187 1//1 195//195
f 187//187 195//195 188//188
f 188//188 195//195 196//196
f 188//188 196//196 189//189
f 189//189 196//196 197//197
f 189//189 197//197 190//190
f 190//190 197//197 198//198
f 190//190 198//198 191//191
f 191//191 198//198 199//199
f 191//191 199//199 192//192
f 192//192 199//199 200//200
f 192//192 200//200 193//193
f 193//193 200//200 201//201
f 193//193 201//201 194//194
f 194//194 201//201 202//202
f 194//194 202//202 10//10
f 195//195 1//1 203//203
f 195//195 203//203 196//196
f 196//196 203//203 204//204
f 196//196 204//204 197//197
f 197//197 204//204 205//205
f 197//197 205//205 198//198
f 198//198 205//205 206//206
f 198//198 206//206 199//199
f 199//199 206//206 207//207
f 199//199 207//207 200//200
f 200//200 207//207 208//208
f 200//200 208//208 201//201
f 201//201 208//208 209//209
f 201//201 209//209 202//202
f 202//202 209//209 210//210
f 202//202 210//210 10//10
f 203//203 1//1 211//211
f 203//203 211//211 204//204
f 204//204 211//211 212//212
f 204//204 212//212 205//205
f 205//205 212//212 213//213
f 205//205 213//213 206//206
f 206//206 213//213 214//214
f 206//206 214//214 207//207
f 207//207 214//214 215//215
f 207//207 215//215 208//208
f 208//208 215//215 216//216
f 208//208 216//216 209//209
f 209//209 216//216 217//217
f 209//209 217//217 210//210
f 210//210 217//217 218//218
f 210//210 218//218 10//10
f 211//211 1//1 219//219
f 211//211 219//219 212//212
f 212//212 219//219 220//220
f 212//212 220//220 213//213
f 213//213 220//220 221//221
f 213//213 221//221 214//214
f 214//214 221//221 222//222
f 214//214 222//222 215//215
f 215//215 222//222 223//223
f 215//215 223//223 216//216
f 216//216 223//223 224//224
f 216//216 224//224 217//217
f 217//217 224//224 225//225
f 217//217 225//225 218//218
f 218//218 225//225 226//226
f 218//218 226//226 10//10
f 219//219 1//1 227//227
f 219//219 227//227 220//220
f 220//220 227//227 228//228
f 220//220 228//228 221//221
f 221//221 228//228 229//229
f 221//221 229//229 222//222
f 222//222 229//229 230//230
f 222//222 230//230 223//223
f 223//223 230//230 231//231
f 223//223 231//231 224//224
f 224//224 231//231 232//232
f 224//224 232//232 225//225
f 225//225 232//232 233//233
f 225//225 233//233 226//226
f 226//226 233//233 234//234
f 226//226 234//234 10//10
f 227//227 1//1 235//235
f 227//227 235//235 228//228
f 228//228 235//235 236//236
f 228//228 236//236 229//229
f 229//229 236//236 237//237
f 229//229 237//237 230//230
f 230//230 237//237 238//238
f 230//230 238//238 231//231
f 231//231 238//238 239//239
f 231//231 239//239 232//232
f 232//232 239//239 240//240
f 232//232 240//240 233//233
f 233//233 240//240 241//241
f 233//233 241//241 234//234
f 234//234 241//241 242//242
f 234//234 242//242 10//10
f 235//235 1//1 243//243
f 235//235 243//243 236//236
f 236//236 243//243 244//244
f 236//236 244//244 237//237
f 237//237 244//244 245//245
f 237//237 245//245 238//238
f 238//238 245//245 246//246
f 238//238 246//246 239//239
f 239//239 246//246 247//247
f 239//239 247//247 240//240
f 240//240 247//247 248//248
f 240//240 248//248 241//241
f 241//241 248//248 249//249
f 241//241 249//249 242//242
f 242//242 249//249 250//250
f 242//242 250//250 10//10
f 243//243 1//1 251//251
f 243//243 251//251 244//244
f 244//244 251//251 252//252
f 244//244 252//252 245//245
f 245//245 252//252 253//253
f 245//245 253//253 246//246
f 246//246 253//253 254//254
f 246//246 254//254 247//247
f 247//247 254//254 255//255
f 247//247 255//255 248//248
f 248//248 255//255 256//256
f 248//248 256//256 249//249
f 249//249 256//256 257//257
f 249//249 257//257 250//250
f 250//250 257//257 258//258
f 250//250 258//258 10//10
f 251//251 1//1 259//259
f 251//251 259//259 252//252
f 252//252 259//259 260//260
f 252//252 260//260 253//253
f 253//253 260//260 261//261
f 253//253 261//261 254//254
f 254//254 261//261 262//262
f 254//254 262//262 255//255
f 255//255 262//262 263//263
f 255//255 263//263 256//256
f 256//256 263//263 264//264
f 256//256 264//264 257//257
f 257//257 264//264 265//265
f 257//257 265//265 258//258
f 258//258 265//265 266//266
f 258//258 266//266 10//10
f 259//259 1//1 267//267
f 259//259 267//267 260//260
f 260//260 267//267 268//268
f 260//260 268//268 261//261
f 261//261 268//268 269//269
f 261//261 269//269 262//262
f 262//262 269//269 270//270
f 262//262 270//270 263//263
f 263//263 270//270 271//271
f 263//263 271//271 264//264
f 264//264 271//271 272//272
f 264//264 272//272 265//265
f 265//265 272//272 273//273
f 265//265 273//273 266//266
f 266//266 273//273 274//274
f 266//266 274//274 10//10
f 267//267 1//1 275//275
f 267//267 275//275 268//268
f 268//268 275//275 276//276
f 268//268 276//276 269//269
f 269//269 276//276 277//277
f 269//269 277//277 270//270
f 270//270 277//277 278//278
f 270//270 278//278 271//271
f 271//271 278//278 279//279
f 271//271 279//279 272//272
f 272//272 279//279 280//280
f 272//272 280//280 273//273
f 273//273 280//280 281//281
f 273//273 281//281 274//274
f 274//274 281//281 282//282
f 274//274 282//282 10//10
f 275//275 1//1 283//283
f 275//275 283//283 276//276
f 276//276 283//283 284//284
f 276//276 284//284 277//277
f 277//277 284//284 285//285
f 277//277 285//285 278//278
f 278//278 285//285 286//286
f 278//278 286//286 279//279
f 279//279 286//286 287//287
f 279//279 287//287 280//280
f 280//280 287//287 288//288
f 280//280 288//288 281//281
f 281//281 288//288 289//289
f 281//281 289//289 282//282
f 282//282 289//289 290//290
f 282//282 290//290 10//10
f 283//283 1//1 291//291
f 283//283 291//291 284//284
f 284//284 291//291 292//292
f 284//284 292//292 285//285
f 285//285 292//292 293//293
f 285//285 293//293 286//286
f 286//286 293//293 294//294
f 286//286 294//294 287//287
f 287//287 294//294 295//295
f 287//287 295//295 288//288
f 288//288 295//295 296//296
f 288//288 296//296 289//289
f 289//289 296//296 297//297
f 289//289 297//297 290//290
f 290//290 297//297 298//298
f 290//290 298//298 10//10
f 291//291 1//1 299//299
f 291//291 299//299 292//292
f 292//292 299//299 300//300
f 292//292 300//300 293//293
f 293//293 300//300 301//301
f 293//293 301//301 294//294
f 294//294 301//301 302//302
f 294//294 302//302 295//295
f 295//295 302//302 303//303
f 295//295 303//303 296//296
f 296//296 303//303 304//304
f 296//296 304//304 297//297
f 297//297 304//304 305//305
f 297//297 305//305 298//298
f 298//298 305//305 306//306
f 298//298 306//306 10//10
f 299//299 1//1 307//307
f 299//299 307//307 300//300
f 300//300 307//307 308//308
f 300//300 308//308 301//301
f 301//301 308//308 309//309
f 301//301 309//309 302//302
f 302//302 309//309 310//310
f 302//302 310//310 303//303
f 303//303 310//310 311//311
f 303//303 311//311 304//304
f 304//304 311//311 312//312
f 304//304 312//312 305//305
f 305//305 312//312 313//313
f 305//305 313//313 306//306
f 306//306 313//313 314//314
f 306//306 314//314 10//10
f 307//307 1//1 315//315
f 307//307 315//315 308//308
f 308//308 315//315 316//316
f 308//308 316//316 309//309
f 309//309 316//316 317//317
f 309//309 317//317 310//310
f 310//310 317//317 318//318
f 310//310 318//318 311//311
f 311//311 318//318 319//319
f 311//311 319//319 312//312
f 312//312 319//319 320//320
f 312//312 320//320 313//313
f 313//313 320//320 321//321
f 313//313 321//321 314//314
f 314//314 321//321 322//322
f 314//314 322//322 10//10
f 315//315 1//1 2//2
f 315//315 2//2 316//316
f 316//316 2//2 3//3
f 316//316 3//3 317//317
f 317//317 3//3 4//4
f 317//317 4//4 318//318
f 318//318 4//4 5//5
f 318//318 5//5 319//319
f 319//319 5//5 6//6
f 319//319 6//6 320//320
f 320//320 6//6 7//7
f 320//320 7//7 321//321
f 321//321 7//7 8//8
f 321//321 8//8 322//322
f 322//322 8//8 9//9
f 322//322 9//9 10//10
f 324//324 323//323 333//333
f 324//324 333//333 325//325
f 325//325 333//333 334//334
f 325//325 334//334 326//326
f 326//326 334//334 335//335
f 326//326 335//335 327//327
f 327//327 335//335 336//336
f 327//327 336//336 328//328
f 328//328 336//336 337//337
f 328//328 337//337 329//329
f 329//329 337//337 338//338
f 329//329 338//338 330//330
f 330//330 338//338 339//339
f 330//330 339//339 331//331
f 331//331 339//339 340//340
f 331//331 340//340 332//332
f 333//333 323//323 341//341
f 333//333 341//341 334//334
f 334//334 341//341 342//342
f 334//334 342//342 335//335
f 335//335 342//342 343//343
f 335//335 343//343 336//336
f 336//336 343//343 344//344
f 336//336 344//344 337//337
f 337//337 344//344 345//345
f 337//337 345//345 338//338
f 338//338 345//345 346//346
f 338//338 346//346 339//339
f 339//339 346//346 347//347
f 339//339 347//347 340//340
f 340//340 347//347 348//348
f 340//340 348//348 332//332
f 341//341 323//323 349//349
f 341//341 349//349 342//342
f 342//342 349//349 350//350
f 342//342 350//350 343//343
f 343//343 350//350 351//351
f 343//343 351//351 344//344
f 344//344 351//351 352//352
f 344//344 352//352 345//345
f 345//345 352//352 353//353
f 345//345 353//353 346//346
f 346//346 353//353 354//354
f 346//346 354//354 347//347
f 347//347 354//354 355//355
f 347//347 355//355 348//348
f 348//348 355//355 356//356
f 348//348 356//356 332//332
f 349//349 323//323 357//357
f 349//349 357//357 350//350
f 350//350 357//357 358//358
f 350//350 358//358 351//351
f 351//351 358//358 359//359
f 351//351 359//359 352//352
f 352//352 359//359 360//360
f 352//352 360//360 353//353
f 353//353 360//360 361//361
f 353//353 361//361 354//354
f 354//354 361//361 362//362
f 354//354 362//362 355//355
f 355//355 362//362 363//363
f 355//355 363//363 356//356
f 356//356 363//363 364//364
f 356//356 364//364 332//332
f 357//357 323//323 365//365
f 357//357 365//365 358//358
f 358//358 365//365 366//366
f 358//358 366//366 359//359
f 359//359 366//366 367//367
f 359//359 367//367 360//360
f 360//360 367//367 368//368
f 360//360 368//368 361//361
f 361//361 368//368 369//369
f 361//361 369//369 362//362
f 362//362 369//369 370//370
f 362//362 370//370 363//363
f 363//363 370//370 371//371
f 363//363 371//371 364//364
f 364//364 371//371 372//372
f 364//364 372//372 332//332
f 365//365 323//323 373//373
f 365//365 373//373 366//366
f 366//366 373//373 374//374
f 366//366 374//374 367//367
f 367//367 374//374 375//375
f 367//367 375//375 368//368
f 368//368 375//375 376//376
f 368//368 376//376 369//369
f 369//369 376//376 377//377
f 369//369 377//377 370//370
f 370//370 377//377 378//378
f 370//370 378//378 371//371
f 371//371 378//378 379//379
f 371//371 379//379 372//372
f 372//372 379//379 380//380
f 372//372 380//380 332//332
f 373//373 323//323 381//381
f 373//373 381//381 374//374
f 374//374 381//381 382//382
f 374//374 382//382 375//375
f 375//375 382//382 383//383
f 375//375 383//383 376//376
f 376//376 383//383 384//384
f 376//376 384//384 377//377
f 377//377 384//384 385//385
f 377//377 385//385 378//378
f 378//378 385//385 386//386
f 378//378 386//386 379//379
f 379//379 386//386 387//387
f 379//379 387//387 380//380
f 380//380 387//387 388//388
f 380//380 388//388 332//332
f 381//381 323//323 389//389
f 381//381 389//389 382//382
f 382//382 389//389 390//390
f 382//382 390//390 383//383
f 383//383 390//390 391//391
f 383//383 391//391 384//384
f 384//384 391//391 392//392
f 384//384 392//392 385//385
f 385//385 392//392 393//393
f 385//385 393//393 386//386
f 386//386 393//393 394//394
f 386//386 394//394 387//387
f 387//387 394//394 395//395
f 387//387 395//395 388//388
f 388//388 395//395 396//396
f 388//388 396//396 332//332
f 389//389 323//323 397//397
f 389//389 397//397 390//390
f 390//390 397//397 398//398
f 390//390 398//398 391//391
f 391//391 398//398 399//399
f 391//391 399//399 392//392
f 392//392 399//399 400//400
f 392//392 400//400 393//393
f 393//393 400//400 401//401
f 393//393 401//401 394//394
f 394//394 401//401 402//402
f 394//394 402//402 395//395
f 395//395 402//402 403//403
f 395//395 403//403 396//396
f 396//396 403//403 404//404
f 396//396 404//404 332//332
f 397//397 323//323 405//405
f 397//397 405//405 398//398
f 398//398 405//405 406//406
f 398//398 406//406 399//399
f 399//399 406//406 407//407
f 399//399 407//407 400//400
f 400//400 407//407 408//408
f 400//400 408//408 401//401
f 401//401 408//408 409//409
f 401//401 409//409 402//402
f 402//402 409//409 410//410
f 402//402 410//410 403//403
f 403//403 410//410 411//411
f 403//403 411//411 404//404
f 404//404 411//411 412//412
f 404//404 412//412 332//332
f 405//405 323//323 413//413
f 405//405 413//413 406//406
f 406//406 413//413 414//414
f 406//406 414//414 407//407
f 407//407 414//414 415//415
f 407//407 415//415 408//408
f 408//408 415//415 416//416
f 408//408 416//416 409//409
f 409//409 416//416 417//417
f 409//409 417//417 410//410
f 410//410 417//417 418//418
f 410//410 418//418 411//411
f 411//411 418//418 419//419
f 411//411 419//419 412//412
f 412//412 419//419 420//420
f 412//412 420//420 332//332
f 413//413 323//323 421//421
f 413//413 421//421 414//414
f 414//414 421//421 422//422
f 414//414 422//422 415//415
f 415//415 422//422 423//423
f 415//415 423//423 416//416
f 416//416 423//423 424//424
f 416//416 424//424 417//417
f 417//417 424//424 425//425
f 417//417 425//425 418//418
f 418//418 425//425 426//426
f 418//418 426//426 419//419
f 419//419 426//426 427//427
f 419//419 427//427 420//420
f 420//420 427//427 428//428
f 420//420 428//428 332//332
f 421//421 323//323 429//429
f 421//421 429//429 422//422
f 422//422 429//429 430//430
f 422//422 430//430 423//423
f 423//423 430//430 431//431
f 423//423 431//431 424//424
f 424//424 431//431 432//432
f 424//424 432//432 425//425
f 425//425 432//432 433//433
f 425//425 433//433 426//426
f 426//426 433//433 434//434
f 426//426 434//434 427//427
f 427//427 434//434 435//435
f 427//427 435//435 428//428
f 428//428 435//435 436//436
f 428//428 436//436 332//332
f 429//429 323//323 437//437
f 429//429 437//437 430//430
f 430//430 437//437 438//438
f 430//430 438//438 431//431
f 431//431 438//438 439//439
f 431//431 439//439 432//432
f 432//432 439//439 440//440
f 432//432 440//440 433//433
f 433//433 440//440 441//441
f 433//433 441//441 434//434
f 434//434 441//441 442//442
f 434//434 442//442 435//435
f 435//435 442//442 443//443
f 435//435 443//443 436//436
f 436//436 443//443 444//444
f 436//436 444//444 332//332
f 437//437 323//323 445//445
f 437//437 445//445 438//438
f 438//438 445//445 446//446
f 438//438 446//446 439//439
f 439//439 446//446 447//447
f 439//439 447//447 440//440
f 440//440 447//447 448//448
f 440//440 448//448 441//441
f 441//441 448//448 449//449
f 441//441 449//449 442//442
f 442//442 449//449 450//450
f 442//442 450//450 443//443
f 443//443 450//450 451//451
f 443//443 451//451 444//444
f 444//444 451//451 452//452
f 444//444 452//452 332//332
f 445//445 323//323 453//453
f 445//445 453//453 446//446
f 446//446 453//453 454//454
f 446//446 454//454 447//447
f 447//447 454//454 455//455
f 447//447 455//455 448//448
f 448//448 455//455 456//456
f 448//448 456//456 449//449
f 449//449 456//456 457//457
f 449//449 457//457 450//450
f 450//450 457//457 458//458
f 450//450 458//458 451//451
f 451//451 458//458 459//459
f 451//451 459//459 452//452
f 452//452 459//459 460//460
f 452//452 460//460 332//332
f 453//453 323//323 461//461
f 453//453 461//461 454//454
f 454//454 461//461 462//462
f 454//454 462//462 455//455
f 455//455 462//462 463//463
f 455//455 463//463 456//456
f 456//456 463//463 464//464
f 456//456 464//464 457//457
f 457//457 464//464 465//465
f 457//457 465//465 458//458
f 458//458 465//465 466//466
f 458//458 466//466 459//459
f 459//459 466//466 467//467
f 459//459 467//467 460//460
f 460//460 467//467 468//468
f 460//460 468//468 332//332
f 461//461 323//323 469//469
f 461//461 469//469 462//462
f 462//462 469//469 470//470
f 462//462 470//470 463//463
f 463//463 470//470 471//471
f 463//463 471//471 464//464
f 464//464 471//471 472//472
f 464//464 472//472 465//465
f 465//465 472//472 473//473
f 465//465 473//473 466//466
f 466//466 473//473 474//474
f 466//466 474//474 467//467
f 467//467 474//474 475//475
f 467//467 475//475 468//468
f 468//468 475//475 476//476
f 468//468 476//476 332//332
f 469//469 323//323 477//477
f 469//469 477//477 470//470
f 470//470 477//477 478//478
f 470//470 478//478 471//471
f 471//471 478//478 479//479
f 471//471 479//479 472//472
f 472//472 479//479 480//480
f 472//472 480//480 473//473
f 473//473 480//480 481//481
f 473//473 481//481 474//474
f 474//474 481//481 482//482
f 474//474 482//482 475//475
f 475//475 482//482 483//483
f 475//475 483//483 476//476
f 476//476 483//483 484//484
f 476//476 484//484 332//332
f 477//477 323//323 485//485
f 477//477 485//485 478//478
f 478//478 485//485 486//486
f 478//478 486//486 479//479
f 479//479 486//486 487//487
f 479//479 487//487 480//480
f 480//480 487//487 488//488
f 480//480 488//488 481//481
f 481//481 488//488 489//489
f 481//481 489//489 482//482
f 482//482 489//489 490//490
f 482//482 490//490 483//483
f 483//483 490//490 491//491
f 483//483 491//491 484//484
f 484//484 491//491 492//492
f 484//484 492//492 332//332
f 485//485 323//323 493//493
f 485//485 493//493 486//486
f 486//486 493//493 494//494
f 486//486 494//494 487//487
f 487//487 494//494 495//495
f 487//487 495//495 488//488
f 488//488 495//495 496//496
f 488//488 496//496 489//489
f 489//489 496//496 497//497
f 489//489 497//497 490//490
f 490//490 497//497 498//498
f 490//490 498//498 491//491
f 491//491 498//498 499//499
f 491//491 499//499 492//492
f 492//492 499//499 500//500
f 492//492 500//500 332//332
f 493//493 323//323 501//501
f 493//493 501//501 494//494
f 494//494 501//501 502//502
f 494//494 502//502 495//495
f 495//495 502//502 503//503
f 495//495 503//503 496//496
f 496//496 503//503 504//504
f 496//496 504//504 497//497
f 497//497 504//504 505//505
f 497//497 505//505 498//498
f 498//498 505//505 506//506
f 498//498 506//506 499//499
f 499//499 506//506 507//507
f 499//499 507//507 500//500
f 500//500 507//507 508//508
f 500//500 508//508 332//332
f 501//501 323//323 509//509
f 501//501 509//509 502//502
f 502//502 509//509 510//510
f 502//502 510//510 503//503
f 503//503 510//510 511//511
f 503//503 511//511 504//504
f 504//504 511//511 512//512
f 504//504 512//512 505//505
f 505//505 512//512 513//513
f 505//505 513//513 506//506
f 506//506 513//513 514//514
f 506//506 514//514 507//507
f 507//507 514//514 515//515
f 507//507 515//515 508//508
f 508//508 515//515 516//516
f 508//508 516//516 332//332
f 509//509 323//323 517//517
f 509//509 517//517 510//510
f 510//510 517//517 518//518
f 510//510 518//518 511//511
f 511//511 518//518 519//519
f 511//511 519//519 512//512
f 512//512 519//519 520//520
f 512//512 520//520 513//513
f 513//513 520//520 521//521
f 513//513 521//521 514//514
f 514//514 521//521 522//522
f 514//514 522//522 515//515
f 515//515 522//522 523//523
f 515//515 523//523 516//516
f 516//516 523//523 524//524
f 516//516 524//524 332//332
f 517//517 323//323 525//525
f 517//517 525//525 518//518
f 518//518 525//525 526//526
f 518//518 526//526 519//519
f 519//519 526//526 527//527
f 519//519 527//527 520//520
f 520//520 527//527 528//528
f 520//520 528//528 521//521
f 521//521 528//528 529//529
f 521//521 529//529 522//522
f 522//522 529//529 530//530
f 522//522 530//530 523//523
f 523//523 530//530 531//531
f 523//523 531//531 524//524
f 524//524 531//531 532//532
f 524//524 532//532 332//332
f 525//525 323//323 533//533
f 525//525 533//533 526//526
f 526//526 533//533 534//534
f 526//526 534//534 527//527
f 527//527 534//534 535//535
f 527//527 535//535 528//528
f 528//528 535//535 536//536
f 528//528 536//536 529//529
f 529//529 536//536 537//537
f 529//529 537//537 530//530
f 530//530 537//537 538//538
f 530//530 538//538 531//531
f 531//531 538//538 539//539
f 531//531 539//539 532//532
f 532//532 539//539 540//540
f 532//532 540//540 332//332
f 533//533 323//323 541//541
f 533//533 541//541 534//534
f 534//534 541//541 542//542
f 534//534 542//542 535//535
f 535//535 542//542 543//543
f 535//535 543//543 536//536
f 536//536 543//543 544//544
f 536//536 544//544 537//537
f 537//537 544//544 545//545
f 537//537 545//545 538//538
f 538//538 545//545 546//546
f 538//538 546//546 539//539
f 539//539 546//546 547//547
f 539//539 547//547 540//540
f 540//540 547//547 548//548
f 540//540 548//548 332//332
f 541//541 323//323 549//549
f 541//541 549//549 542//542
f 542//542 549//549 550//550
f 542//542 550//550 543//543
f 543//543 550//550 551//551
f 543//543 551//551 544//544
f 544//544 551//551 552//552
f 544//544 552//552 545//545
f 545//545 552//552 553//553
f 545//545 553//553 546//546
f 546//546 553//553 554//554
f 546//546 554//554 547//547
f 547//547 554//554 555//555
f 547//547 555//555 548//548
f 548//548 555//555 556//556
f 548//548 556//556 332//332
f 549//549 323//323 557//557
f 549//549 557//557 550//550
f 550//550 557//557 558//558
f 550//550 558//558 551//551
f 551//551 558//558 559//559
f 551//551 559//559 552//552
f 552//552 559//559 560//560
f 552//552 560//560 553//553
f 553//553 560//560 561//561
f 553//553 561//561 554//554
f 554//554 561//561 562//562
f 554//554 562//562 555//555
f 555//555 562//562 563//563
f 555//555 563//563 556//556
f 556//556 563//563 564//564
f 556//556 564//564 332//332
f 557//557 323//323 565//565
f 557//557 565//565 558//558
f 558//558 565//565 566//566
f 558//558 566//566 559//559
f 559//559 566//566 567//567
f 559//559 567//567 560//560
f 560//560 567//567 568//568
f 560//560 568//568 561//561
f 561//561 568//568 569//569
f 561//561 569//569 562//562
f 562//562 569//569 570//570
f 562//562 570//570 563//563
f 563//563 570//570 571//571
f 563//563 571//571 564//564
f 564//564 571//571 572//572
f 564//564 572//572 332//332
f 565//565 323//323 573//573
f 565//565 573//573 566//566
f 566//566 573//573 574//574
f 566//566 574//574 567//567
f 567//567 574//574 575//575
f 567//567 575//575 568//568
f 568//568 575//575 576//576
f 568//568 576//576 569//569
f 569//569 576//576 577//577
f 569//569 577//577 570//570
f 570//570 577//577 578//578
f 570//570 578//578 571//571
f 571//571 578//578 579//579
f 571//571 579//579 572//572
f 572//572 579//579 580//580
f 572//572 580//580 332//332
f 573//573 323//323 581//581
f 573//573 581//581 574//574
f 574//574 581//581 582//582
f 574//574 582//582 575//575
f 575//575 582//582 583//583
f 575//575 583//583 576//576
f 576//576 583//583 584//584
f 576//576 584//584 577//577
f 577//577 584//584 585//585
f 577//577 585//585 578//578
f 578//578 585//585 586//586
f 578//578 586//586 579//579
f 579//579 586//586 587//587
f 579//579 587//587 580//580
f 580//580 587//587 588//588
f 580//580 588//588 332//332
f 581//581 323//323 589//589
f 581//581 589//589 582//582
f 582//582 589//589 590//590
f 582//582 590//590 583//583
f 583//583 590//590 591//591
f 583//583 591//591 584//584
f 584//584 591//591 592//592
f 584//584 592//592 585//585
f 585//585 592//592 593//593
f 585//585 593//593 586//586
f 586//586 593//593 594//594
f 586//586 594//594 587//587
f 587//587 594//594 595//595
f 587//587 595//595 588//588
f 588//588 595//595 596//596
f 588//588 596//596 332//332
f 589//589 323//323 597//597
f 589//589 597//597 590//590
f 590//590 597//597 598//598
f 590//590 598//598 591//591
f 591//591 598//598 599//599
f 591//591 599//599 592//592
f 592//592 599//599 600//600
f 592//592 600//600 593//593
f 593//593 600//600 601//601
f 593//593 601//601 594//594
f 594//594 601//601 602//602
f 594//594 602//602 595//595
f 595//595 602//602 603//603
f 595//595 603//603 596//596
f 596//596 603//603 604//604
f 596//596 604//604 332//332
f 597//597 323//323 605//605
f 597//597 605//605 598//598
f 598//598 605//605 606//606
f 598//598 606//606 599//599
f 599//599 606//606 607//607
f 599//599 607//607 600//600
f 600//600 607//607 608//608
f 600//600 608//608 601//601
f 601//601 608//608 609//609
f 601//601 609//609 602//602
f 602//602 609//609 610//610
f 602//602 610//610 603//603
f 603//603 610//610 611//611
f 603//603 611//611 604//604
f 604//604 611//611 612//612
f 604//604 612//612 332//332
f 605//605 323//323 613//613
f 605//605 613//613 606//606
f 606//606 613//613 614//614
f 606//606 614//614 607//607
f 607//607 614//614 615//615
f 607//607 615//615 608//608
f 608//608 615//615 616//616
f 608//608 616//616 609//609
f 609//609 616//616 617//617
f 609//609 617//617 610//610
f 610//610 617//617 618//618
f 610//610 618//618 611//611
f 611//611 618//618 619//619
f 611//611 619//619 612//612
f 612//612 619//619 620//620
f 612//612 620//620 332//332
f 613//613 323//323 621//621
f 613//613 621//621 614//614
f 614//614 621//621 622//622
f 614//614 622//622 615//615
f 615//615 622//622 623//623
f 615//615 623//623 616//616
f 616//616 623//623 624//624
f 616//616 624//624 617//617
f 617//617 624//624 625//625
f 617//617 625//625 618//618
f 618//618 625//625 626//626
f 618//618 626//626 619//619
f 619//619 626//626 627//627
f 619//619 627//627 620//620
f 620//620 627//627 628//628
f 620//620 628//628 332//332
f 621//621 323//323 629//629
f 621//621 629//629 622//622
f 622//622 629//629 630//630
f 622//622 630//630 623//623
f 623//623 630//630 631//631
f 623//623 631//631 624//624
f 624//624 631//631 632//632
f 624//624 632//632 625//625
f 625//625 632//632 633//633
f 625//625 633//633 626//626
f 626//626 633//633 634//634
f 626//626 634//634 627//627
f 627//627 634//634 635//635
f 627//627 635//635 628//628
f 628//628 635//635 636//636
f 628//628 636//636 332//332
f 629//629 323//323 637//637
f 629//629 637//637 630//630
f 630//630 637//637 638//638
f 630//630 638//638 631//631
f 631//631 638//638 639//639
f 631//631 639//639 632//632
f 632//632 639//639 640//640
f 632//632 640//640 633//633
f 633//633 640//640 641//641
f 633//633 641//641 634//634
f 634//634 641//641 642//642
f 634//634 642//642 635//635
f 635//635 642//642 643//643
f 635//635 643//643 636//636
f 636//636 643//643 644//644
f 636//636 644//644 332//332
f 637//637 323//323 324//324
f 637//637 324//324 638//638
f 638//638 324//324 325//325
f 638//638 325//325 639//639
f 639//639 325//325 326//326
f 639//639 326//326 640//640
f 640//640 326//326 327//327
f 640//640 327//327 641//641
f 641//641 327//327 328//328
f 641//641 328//328 642//642
f 642//642 328//328 329//329
f 642//642 329//329 643//643
f 643//643 329//329 330//330
f 643//643 330//330 644//644
f 644//644 330//330 331//331
f 644//644 331//331 332//332

