mtllib robot.mtl
usemtl pcb
# https://github.com/mikedh/trimesh
v -0.02500000 0.00000000 1.05150000
v 0.01018404 0.00000000 1.05162061
v 0.01078558 0.00000000 1.05196791
v 0.01123205 0.00000000 1.05250000
v 0.01146962 0.00000000 1.05315270
v 0.01146962 0.00000000 1.06684730
v 0.01123205 0.00000000 1.06750000
v 0.01078558 0.00000000 1.06803209
v 0.01018404 0.00000000 1.06837939
v 0.00950000 0.00000000 1.06850000
v 0.01017562 0.04160701 1.05162061
v 0.01076975 0.04170111 1.05196791
v 0.01121073 0.04177095 1.05250000
v 0.01144537 0.04180812 1.05315270
v 0.01144537 0.04180812 1.06684730
v 0.01121073 0.04177095 1.06750000
v 0.01076975 0.04170111 1.06803209
v 0.01017562 0.04160701 1.06837939
v 0.01015056 0.04171138 1.05162061
v 0.01072265 0.04189726 1.05196791
v 0.01114728 0.04203523 1.05250000
v 0.01137322 0.04210864 1.05315270
v 0.01137322 0.04210864 1.06684730
v 0.01114728 0.04203523 1.06750000
v 0.01072265 0.04189726 1.06803209
v 0.01015056 0.04171138 1.06837939
v 0.01010948 0.04181055 1.05162061
v 0.01064546 0.04208364 1.05196791
v 0.01104327 0.04228633 1.05250000
v 0.01125494 0.04239419 1.05315270
v 0.01125494 0.04239419 1.06684730
v 0.01104327 0.04228633 1.06750000
v 0.01064546 0.04208364 1.06803209
v 0.01010948 0.04181055 1.06837939
v 0.01005340 0.04190207 1.05162061
v 0.01054005 0.04225564 1.05196791
v 0.01090126 0.04251807 1.05250000
v 0.01109345 0.04265771 1.05315270
v 0.01109345 0.04265771 1.06684730
v 0.01090126 0.04251807 1.06750000
v 0.01054005 0.04225564 1.06803209
v 0.01005340 0.04190207 1.06837939
v 0.00998369 0.04198369 1.05162061
v 0.01040904 0.04240904 1.05196791
v 0.01072474 0.04272474 1.05250000
v 0.01089273 0.04289273 1.05315270
v 0.01089273 0.04289273 1.06684730
v 0.01072474 0.04272474 1.06750000
v 0.01040904 0.04240904 1.06803209
v 0.00998369 0.04198369 1.06837939
v 0.00990207 0.04205340 1.05162061
v 0.01025564 0.04254005 1.05196791
v 0.01051807 0.04290126 1.05250000
v 0.01065771 0.04309345 1.05315270
v 0.01065771 0.04309345 1.06684730
v 0.01051807 0.04290126 1.06750000
v 0.01025564 0.04254005 1.06803209
v 0.00990207 0.04205340 1.06837939
v 0.00981055 0.04210948 1.05162061
v 0.01008364 0.04264546 1.05196791
v 0.01028633 0.04304327 1.05250000
v 0.01039419 0.04325494 1.05315270
v 0.01039419 0.04325494 1.06684730
v 0.01028633 0.04304327 1.06750000
v 0.01008364 0.04264546 1.06803209
v 0.00981055 0.04210948 1.06837939
v 0.00971138 0.04215056 1.05162061
v 0.00989726 0.04272265 1.05196791
v 0.01003523 0.04314728 1.05250000
v 0.01010864 0.04337322 1.05315270
v 0.01010864 0.04337322 1.06684730
v 0.01003523 0.04314728 1.06750000
v 0.00989726 0.04272265 1.06803209
v 0.00971138 0.04215056 1.06837939
v 0.00960701 0.04217562 1.05162061
v 0.00970111 0.04276975 1.05196791
v 0.00977095 0.04321073 1.05250000
v 0.00980812 0.04344537 1.05315270
v 0.00980812 0.04344537 1.06684730
v 0.00977095 0.04321073 1.06750000
v 0.00970111 0.04276975 1.06803209
v 0.00960701 0.04217562 1.06837939
v 0.00950000 0.04218404 1.05162061
v 0.00950000 0.04278558 1.05196791
v 0.00950000 0.04323205 1.05250000
v 0.00950000 0.04346962 1.05315270
v 0.00950000 0.04346962 1.06684730
v 0.00950000 0.04323205 1.06750000
v 0.00950000 0.04278558 1.06803209
v 0.00950000 0.04218404 1.06837939
v -0.05960701 0.04217562 1.05162061
v -0.05970111 0.04276975 1.05196791
v -0.05977095 0.04321073 1.05250000
v -0.05980812 0.04344537 1.05315270
v -0.05980812 0.04344537 1.06684730
v -0.05977095 0.04321073 1.06750000
v -0.05970111 0.04276975 1.06803209
v -0.05960701 0.04217562 1.06837939
v -0.05971138 0.04215056 1.05162061
v -0.05989726 0.04272265 1.05196791
v -0.06003523 0.04314728 1.05250000
v -0.06010864 0.04337322 1.05315270
v -0.06010864 0.04337322 1.06684730
v -0.06003523 0.04314728 1.06750000
v -0.05989726 0.04272265 1.06803209
v -0.05971138 0.04215056 1.06837939
v -0.05981055 0.04210948 1.05162061
v -0.06008364 0.04264546 1.05196791
v -0.06028633 0.04304327 1.05250000
v -0.06039419 0.04325494 1.05315270
v -0.06039419 0.04325494 1.06684730
v -0.06028633 0.04304327 1.06750000
v -0.06008364 0.04264546 1.06803209
v -0.05981055 0.04210948 1.06837939
v -0.05990207 0.04205340 1.05162061
v -0.06025564 0.04254005 1.05196791
v -0.06051807 0.04290126 1.05250000
v -0.06065771 0.04309345 1.05315270
v -0.06065771 0.04309345 1.06684730
v -0.06051807 0.04290126 1.06750000
v -0.06025564 0.04254005 1.06803209
v -0.05990207 0.04205340 1.06837939
v -0.05998369 0.04198369 1.05162061
v -0.06040904 0.04240904 1.05196791
v -0.06072474 0.04272474 1.05250000
v -0.06089273 0.04289273 1.05315270
v -0.06089273 0.04289273 1.06684730
v -0.06072474 0.04272474 1.06750000
v -0.06040904 0.04240904 1.06803209
v -0.05998369 0.04198369 1.06837939
v -0.06005340 0.04190207 1.05162061
v -0.06054005 0.04225564 1.05196791
v -0.06090126 0.04251807 1.05250000
v -0.06109345 0.04265771 1.05315270
v -0.06109345 0.04265771 1.06684730
v -0.06090126 0.04251807 1.06750000
v -0.06054005 0.04225564 1.06803209
v -0.06005340 0.04190207 1.06837939
v -0.06010948 0.04181055 1.05162061
v -0.06064546 0.04208364 1.05196791
v -0.06104327 0.04228633 1.05250000
v -0.06125494 0.04239419 1.05315270
v -0.06125494 0.04239419 1.06684730
v -0.06104327 0.04228633 1.06750000
v -0.06064546 0.04208364 1.06803209
v -0.06010948 0.04181055 1.06837939
v -0.06015056 0.04171138 1.05162061
v -0.06072265 0.04189726 1.05196791
v -0.06114728 0.04203523 1.05250000
v -0.06137322 0.04210864 1.05315270
v -0.06137322 0.04210864 1.06684730
v -0.06114728 0.04203523 1.06750000
v -0.06072265 0.04189726 1.06803209
v -0.06015056 0.04171138 1.06837939
v -0.06017562 0.04160701 1.05162061
v -0.06076975 0.04170111 1.05196791
v -0.06121073 0.04177095 1.05250000
v -0.06144537 0.04180812 1.05315270
v -0.06144537 0.04180812 1.06684730
v -0.06121073 0.04177095 1.06750000
v -0.06076975 0.04170111 1.06803209
v -0.06017562 0.04160701 1.06837939
v -0.06018404 0.04150000 1.05162061
v -0.06078558 0.04150000 1.05196791
v -0.06123205 0.04150000 1.05250000
v -0.06146962 0.04150000 1.05315270
v -0.06146962 0.04150000 1.06684730
v -0.06123205 0.04150000 1.06750000
v -0.06078558 0.04150000 1.06803209
v -0.06018404 0.04150000 1.06837939
v -0.06017562 -0.04160701 1.05162061
v -0.06076975 -0.04170111 1.05196791
v -0.06121073 -0.04177095 1.05250000
v -0.06144537 -0.04180812 1.05315270
v -0.06144537 -0.04180812 1.06684730
v -0.06121073 -0.04177095 1.06750000
v -0.06076975 -0.04170111 1.06803209
v -0.06017562 -0.04160701 1.06837939
v -0.06015056 -0.04171138 1.05162061
v -0.06072265 -0.04189726 1.05196791
v -0.06114728 -0.04203523 1.05250000
v -0.06137322 -0.04210864 1.05315270
v -0.06137322 -0.04210864 1.06684730
v -0.06114728 -0.04203523 1.06750000
v -0.06072265 -0.04189726 1.06803209
v -0.06015056 -0.04171138 1.06837939
v -0.06010948 -0.04181055 1.05162061
v -0.06064546 -0.04208364 1.05196791
v -0.06104327 -0.04228633 1.05250000
v -0.06125494 -0.04239419 1.05315270
v -0.06125494 -0.04239419 1.06684730
v -0.06104327 -0.04228633 1.06750000
v -0.06064546 -0.04208364 1.06803209
v -0.06010948 -0.04181055 1.06837939
v -0.06005340 -0.04190207 1.05162061
v -0.06054005 -0.04225564 1.05196791
v -0.06090126 -0.04251807 1.05250000
v -0.06109345 -0.04265771 1.05315270
v -0.06109345 -0.04265771 1.06684730
v -0.06090126 -0.04251807 1.06750000
v -0.06054005 -0.04225564 1.06803209
v -0.06005340 -0.04190207 1.06837939
v -0.05998369 -0.04198369 1.05162061
v -0.06040904 -0.04240904 1.05196791
v -0.06072474 -0.04272474 1.05250000
v -0.06089273 -0.04289273 1.05315270
v -0.06089273 -0.04289273 1.06684730
v -0.06072474 -0.04272474 1.06750000
v -0.06040904 -0.04240904 1.06803209
v -0.05998369 -0.04198369 1.06837939
v -0.05990207 -0.04205340 1.05162061
v -0.06025564 -0.04254005 1.05196791
v -0.06051807 -0.04290126 1.05250000
v -0.06065771 -0.04309345 1.05315270
v -0.06065771 -0.04309345 1.06684730
v -0.06051807 -0.04290126 1.06750000
v -0.06025564 -0.04254005 1.06803209
v -0.05990207 -0.04205340 1.06837939
v -0.05981055 -0.04210948 1.05162061
v -0.06008364 -0.04264546 1.05196791
v -0.06028633 -0.04304327 1.05250000
v -0.06039419 -0.04325494 1.05315270
v -0.06039419 -0.04325494 1.06684730
v -0.06028633 -0.04304327 1.06750000
v -0.06008364 -0.04264546 1.06803209
v -0.05981055 -0.04210948 1.06837939
v -0.05971138 -0.04215056 1.05162061
v -0.05989726 -0.04272265 1.05196791
v -0.06003523 -0.04314728 1.05250000
v -0.06010864 -0.04337322 1.05315270
v -0.06010864 -0.04337322 1.06684730
v -0.06003523 -0.04314728 1.06750000
v -0.05989726 -0.04272265 1.06803209
v -0.05971138 -0.04215056 1.06837939
v -0.05960701 -0.04217562 1.05162061
v -0.05970111 -0.04276975 1.05196791
v -0.05977095 -0.04321073 1.05250000
v -0.05980812 -0.04344537 1.05315270
v -0.05980812 -0.04344537 1.06684730
v -0.05977095 -0.04321073 1.06750000
v -0.05970111 -0.04276975 1.06803209
v -0.05960701 -0.04217562 1.06837939
v -0.05950000 -0.04218404 1.05162061
v -0.05950000 -0.04278558 1.05196791
v -0.05950000 -0.04323205 1.05250000
v -0.05950000 -0.04346962 1.05315270
v -0.05950000 -0.04346962 1.06684730
v -0.05950000 -0.04323205 1.06750000
v -0.05950000 -0.04278558 1.06803209
v -0.05950000 -0.04218404 1.06837939
v 0.00960701 -0.04217562 1.05162061
v 0.00970111 -0.04276975 1.05196791
v 0.00977095 -0.04321073 1.05250000
v 0.00980812 -0.04344537 1.05315270
v 0.00980812 -0.04344537 1.06684730
v 0.00977095 -0.04321073 1.06750000
v 0.00970111 -0.04276975 1.06803209
v 0.00960701 -0.04217562 1.06837939
v 0.00971138 -0.04215056 1.05162061
v 0.00989726 -0.04272265 1.05196791
v 0.01003523 -0.04314728 1.05250000
v 0.01010864 -0.04337322 1.05315270
v 0.01010864 -0.04337322 1.06684730
v 0.01003523 -0.04314728 1.06750000
v 0.00989726 -0.04272265 1.06803209
v 0.00971138 -0.04215056 1.06837939
v 0.00981055 -0.04210948 1.05162061
v 0.01008364 -0.04264546 1.05196791
v 0.01028633 -0.04304327 1.05250000
v 0.01039419 -0.04325494 1.05315270
v 0.01039419 -0.04325494 1.06684730
v 0.01028633 -0.04304327 1.06750000
v 0.01008364 -0.04264546 1.06803209
v 0.00981055 -0.04210948 1.06837939
v 0.00990207 -0.04205340 1.05162061
v 0.01025564 -0.04254005 1.05196791
v 0.01051807 -0.04290126 1.05250000
v 0.01065771 -0.04309345 1.05315270
v 0.01065771 -0.04309345 1.06684730
v 0.01051807 -0.04290126 1.06750000
v 0.01025564 -0.04254005 1.06803209
v 0.00990207 -0.04205340 1.06837939
v 0.00998369 -0.04198369 1.05162061
v 0.01040904 -0.04240904 1.05196791
v 0.01072474 -0.04272474 1.05250000
v 0.01089273 -0.04289273 1.05315270
v 0.01089273 -0.04289273 1.06684730
v 0.01072474 -0.04272474 1.06750000
v 0.01040904 -0.04240904 1.06803209
v 0.00998369 -0.04198369 1.06837939
v 0.01005340 -0.04190207 1.05162061
v 0.01054005 -0.04225564 1.05196791
v 0.01090126 -0.04251807 1.05250000
v 0.01109345 -0.04265771 1.05315270
v 0.01109345 -0.04265771 1.06684730
v 0.01090126 -0.04251807 1.06750000
v 0.01054005 -0.04225564 1.06803209
v 0.01005340 -0.04190207 1.06837939
v 0.01010948 -0.04181055 1.05162061
v 0.01064546 -0.04208364 1.05196791
v 0.01104327 -0.04228633 1.05250000
v 0.01125494 -0.04239419 1.05315270
v 0.01125494 -0.04239419 1.06684730
v 0.01104327 -0.04228633 1.06750000
v 0.01064546 -0.04208364 1.06803209
v 0.01010948 -0.04181055 1.06837939
v 0.01015056 -0.04171138 1.05162061
v 0.01072265 -0.04189726 1.05196791
v 0.01114728 -0.04203523 1.05250000
v 0.01137322 -0.04210864 1.05315270
v 0.01137322 -0.04210864 1.06684730
v 0.01114728 -0.04203523 1.06750000
v 0.01072265 -0.04189726 1.06803209
v 0.01015056 -0.04171138 1.06837939
v 0.01017562 -0.04160701 1.05162061
v 0.01076975 -0.04170111 1.05196791
v 0.01121073 -0.04177095 1.05250000
v 0.01144537 -0.04180812 1.05315270
v 0.01144537 -0.04180812 1.06684730
v 0.01121073 -0.04177095 1.06750000
v 0.01076975 -0.04170111 1.06803209
v 0.01017562 -0.04160701 1.06837939
vn -0.00000005 -0.00000004 -1.00000000
vn 0.26051880 -0.00002268 -0.96546877
vn 0.64283526 -0.00004745 -0.76600446
vn 0.86605269 -0.00004160 -0.49995274
vn 0.98481149 -0.00001640 -0.17362698
vn 0.98481149 0.00001640 0.17362698
vn 0.86605269 0.00004160 0.49995274
vn 0.64283526 0.00004745 0.76600446
vn 0.34205315 0.00002225 0.93968061
vn 0.08596144 -0.00000006 0.99629846
vn 0.27634219 0.03205260 -0.96052466
vn 0.64604788 0.07634061 -0.75946972
vn 0.86326767 0.10256096 -0.49421674
vn 0.97829246 0.11653127 -0.17136022
vn 0.97829260 0.11651551 0.17137015
vn 0.86327010 0.10252049 0.49422089
vn 0.64605587 0.07629330 0.75946767
vn 0.28052613 0.03305179 0.95927716
vn 0.25866137 0.08407869 -0.96230196
vn 0.61611813 0.20018892 -0.76178924
vn 0.82567177 0.26827702 -0.49627973
vn 0.93685246 0.30440182 -0.17218304
vn 0.93685246 0.30440182 0.17218304
vn 0.82567177 0.26827702 0.49627973
vn 0.61611813 0.20018892 0.76178924
vn 0.26080385 0.08497175 0.96164502
vn 0.24225487 0.12345967 -0.96232546
vn 0.57721625 0.29410637 -0.76178924
vn 0.77353861 0.39413761 -0.49627973
vn 0.87769932 0.44721014 -0.17218304
vn 0.87769932 0.44721014 0.17218304
vn 0.77353861 0.39413761 0.49627973
vn 0.57721625 0.29410637 0.76178924
vn 0.24352524 0.12424139 0.96190412
vn 0.21992327 0.15979946 -0.96233980
vn 0.52410139 0.38078195 -0.76178924
vn 0.70235836 0.51029322 -0.49627973
vn 0.79693430 0.57900666 -0.17218304
vn 0.79693430 0.57900666 0.17218304
vn 0.70235836 0.51029322 0.49627973
vn 0.52410139 0.38078195 0.76178924
vn 0.22071476 0.16047941 0.96204540
vn 0.19220573 0.19221226 -0.96234682
vn 0.45808141 0.45808141 -0.76178924
vn 0.61388371 0.61388371 -0.49627973
vn 0.69654612 0.69654612 -0.17218304
vn 0.69654612 0.69654612 0.17218304
vn 0.61388371 0.61388371 0.49627973
vn 0.45808141 0.45808141 0.76178924
vn 0.19269794 0.19279593 0.96213161
vn 0.15977600 0.21990723 -0.96234736
vn 0.38078195 0.52410139 -0.76178924
vn 0.51029322 0.70235836 -0.49627973
vn 0.57900666 0.79693430 -0.17218304
vn 0.57900666 0.79693430 0.17218304
vn 0.51029322 0.70235836 0.49627973
vn 0.38078195 0.52410139 0.76178924
vn 0.16006642 0.22039619 0.96218723
vn 0.12342452 0.24220918 -0.96234147
vn 0.29410637 0.57721625 -0.76178924
vn 0.39413761 0.77353861 -0.49627973
vn 0.44721014 0.87769932 -0.17218304
vn 0.44721014 0.87769932 0.17218304
vn 0.39413761 0.77353861 0.49627973
vn 0.29410637 0.57721625 0.76178924
vn 0.12357346 0.24260105 0.96222364
vn 0.08403781 0.25857604 -0.96232847
vn 0.20018892 0.61611813 -0.76178924
vn 0.26827702 0.82567177 -0.49627973
vn 0.30440182 0.93685246 -0.17218304
vn 0.30440182 0.93685246 0.17218304
vn 0.26827702 0.82567177 0.49627973
vn 0.20018892 0.61611813 0.76178924
vn 0.08408767 0.25886399 0.96224669
vn 0.04257538 0.26861335 -0.96230671
vn 0.10134215 0.63984914 -0.76178924
vn 0.13581056 0.85747415 -0.49627973
vn 0.15409811 0.97293719 -0.17218304
vn 0.15409811 0.97293719 0.17218304
vn 0.13581056 0.85747415 0.49627973
vn 0.10134215 0.63984914 0.76178924
vn 0.04256092 0.26878470 0.96225950
vn 0.01069288 0.26608980 -0.96388894
vn 0.02533654 0.64510790 -0.76367130
vn 0.03385774 0.86660275 -0.49784870
vn 0.03834974 0.98421303 -0.17278310
vn 0.03833978 0.98421232 0.17278939
vn 0.03383250 0.86660181 0.49785205
vn 0.02530778 0.64510926 0.76367111
vn 0.01065837 0.26615586 0.96387108
vn -0.03199080 0.27621418 -0.96056354
vn -0.07628118 0.64606569 -0.75946053
vn -0.10246766 0.86328425 -0.49420712
vn -0.11642049 0.97830613 -0.17135749
vn -0.11641092 0.97830622 0.17136349
vn -0.10244309 0.86328573 0.49420963
vn -0.07625250 0.64607053 0.75945930
vn -0.03197743 0.27607877 0.96060291
vn -0.08403781 0.25857604 -0.96232847
vn -0.20018892 0.61611813 -0.76178924
vn -0.26827702 0.82567177 -0.49627973
vn -0.30440182 0.93685246 -0.17218304
vn -0.30440182 0.93685246 0.17218304
vn -0.26827702 0.82567177 0.49627973
vn -0.20018892 0.61611813 0.76178924
vn -0.08398463 0.25837707 0.96238655
vn -0.12342452 0.24220918 -0.96234147
vn -0.29410637 0.57721625 -0.76178924
vn -0.39413761 0.77353861 -0.49627973
vn -0.44721014 0.87769932 -0.17218304
vn -0.44721014 0.87769932 0.17218304
vn -0.39413761 0.77353861 0.49627973
vn -0.29410637 0.57721625 0.76178924
vn -0.12332268 0.24198606 0.96241065
vn -0.15977600 0.21990723 -0.96234736
vn -0.38078195 0.52410139 -0.76178924
vn -0.51029322 0.70235836 -0.49627973
vn -0.57900666 0.79693430 -0.17218304
vn -0.57900666 0.79693430 0.17218304
vn -0.51029322 0.70235836 0.49627973
vn -0.38078195 0.52410139 0.76178924
vn -0.15962084 0.21967435 0.96242629
vn -0.19220573 0.19221226 -0.96234682
vn -0.45808141 0.45808141 -0.76178924
vn -0.61388371 0.61388371 -0.49627973
vn -0.69654612 0.69654612 -0.17218304
vn -0.69654612 0.69654612 0.17218304
vn -0.61388371 0.61388371 0.49627973
vn -0.45808141 0.45808141 0.76178924
vn -0.19199211 0.19198012 0.96243580
vn -0.21992327 0.15979946 -0.96233980
vn -0.52410139 0.38078195 -0.76178924
vn -0.70235836 0.51029322 -0.49627973
vn -0.79693430 0.57900666 -0.17218304
vn -0.79693430 0.57900666 0.17218304
vn -0.70235836 0.51029322 0.49627973
vn -0.52410139 0.38078195 0.76178924
vn -0.21964425 0.15957724 0.96244039
vn -0.24225487 0.12345967 -0.96232546
vn -0.57721625 0.29410637 -0.76178924
vn -0.77353861 0.39413761 -0.49627973
vn -0.87769932 0.44721014 -0.17218304
vn -0.87769932 0.44721014 0.17218304
vn -0.77353861 0.39413761 0.49627973
vn -0.57721625 0.29410637 0.76178924
vn -0.24190031 0.12325704 0.96244062
vn -0.25866137 0.08407869 -0.96230196
vn -0.61611813 0.20018892 -0.76178924
vn -0.82567177 0.26827702 -0.49627973
vn -0.93685246 0.30440182 -0.17218304
vn -0.93685246 0.30440182 0.17218304
vn -0.82567177 0.26827702 0.49627973
vn -0.61611813 0.20018892 0.76178924
vn -0.25821595 0.08390773 0.96243650
vn -0.26875377 0.04261367 -0.96226581
vn -0.63984914 0.10134215 -0.76178924
vn -0.85747415 0.13581056 -0.49627973
vn -0.97293719 0.15409811 -0.17218304
vn -0.97293719 0.15409811 0.17218304
vn -0.85747415 0.13581056 0.49627973
vn -0.63984914 0.10134215 0.76178924
vn -0.26819330 0.04249176 0.96242756
vn -0.26630784 0.01071503 -0.96382847
vn -0.64510539 0.02534665 -0.76367309
vn -0.86660064 0.03387759 -0.49785102
vn -0.98421172 0.03837701 -0.17278452
vn -0.98421113 0.03836871 0.17278976
vn -0.86659986 0.03385656 0.49785381
vn -0.64510652 0.02532270 0.76367293
vn -0.26559848 0.01065322 0.96402487
vn -0.27636060 -0.03202592 -0.96052025
vn -0.64607024 -0.07626600 -0.75945819
vn -0.86328849 -0.10244382 -0.49420466
vn -0.97830962 -0.11639219 -0.17135679
vn -0.97830969 -0.11638421 0.17136179
vn -0.86328972 -0.10242335 0.49420675
vn -0.64607428 -0.07624210 0.75945716
vn -0.27580840 -0.03189750 0.96068323
vn -0.25866137 -0.08407869 -0.96230196
vn -0.61611813 -0.20018892 -0.76178924
vn -0.82567177 -0.26827702 -0.49627973
vn -0.93685246 -0.30440182 -0.17218304
vn -0.93685246 -0.30440182 0.17218304
vn -0.82567177 -0.26827702 0.49627973
vn -0.61611813 -0.20018892 0.76178924
vn -0.25821595 -0.08390773 0.96243650
vn -0.24225487 -0.12345967 -0.96232546
vn -0.57721625 -0.29410637 -0.76178924
vn -0.77353861 -0.39413761 -0.49627973
vn -0.87769932 -0.44721014 -0.17218304
vn -0.87769932 -0.44721014 0.17218304
vn -0.77353861 -0.39413761 0.49627973
vn -0.57721625 -0.29410637 0.76178924
vn -0.24190031 -0.12325704 0.96244062
vn -0.21992327 -0.15979946 -0.96233980
vn -0.52410139 -0.38078195 -0.76178924
vn -0.70235836 -0.51029322 -0.49627973
vn -0.79693430 -0.57900666 -0.17218304
vn -0.79693430 -0.57900666 0.17218304
vn -0.70235836 -0.51029322 0.49627973
vn -0.52410139 -0.38078195 0.76178924
vn -0.21964425 -0.15957724 0.96244039
vn -0.19220573 -0.19221226 -0.96234682
vn -0.45808141 -0.45808141 -0.76178924
vn -0.61388371 -0.61388371 -0.49627973
vn -0.69654612 -0.69654612 -0.17218304
vn -0.69654612 -0.69654612 0.17218304
vn -0.61388371 -0.61388371 0.49627973
vn -0.45808141 -0.45808141 0.76178924
vn -0.19199211 -0.19198012 0.96243580
vn -0.15977600 -0.21990723 -0.96234736
vn -0.38078195 -0.52410139 -0.76178924
vn -0.51029322 -0.70235836 -0.49627973
vn -0.57900666 -0.79693430 -0.17218304
vn -0.57900666 -0.79693430 0.17218304
vn -0.51029322 -0.70235836 0.49627973
vn -0.38078195 -0.52410139 0.76178924
vn -0.15962084 -0.21967435 0.96242629
vn -0.12342452 -0.24220918 -0.96234147
vn -0.29410637 -0.57721625 -0.76178924
vn -0.39413761 -0.77353861 -0.49627973
vn -0.44721014 -0.87769932 -0.17218304
vn -0.44721014 -0.87769932 0.17218304
vn -0.39413761 -0.77353861 0.49627973
vn -0.29410637 -0.57721625 0.76178924
vn -0.12332268 -0.24198606 0.96241065
vn -0.08403781 -0.25857604 -0.96232847
vn -0.20018892 -0.61611813 -0.76178924
vn -0.26827702 -0.82567177 -0.49627973
vn -0.30440182 -0.93685246 -0.17218304
vn -0.30440182 -0.93685246 0.17218304
vn -0.26827702 -0.82567177 0.49627973
vn -0.20018892 -0.61611813 0.76178924
vn -0.08398463 -0.25837707 0.96238655
vn -0.04257538 -0.26861335 -0.96230671
vn -0.10134215 -0.63984914 -0.76178924
vn -0.13581056 -0.85747415 -0.49627973
vn -0.15409811 -0.97293719 -0.17218304
vn -0.15409811 -0.97293719 0.17218304
vn -0.13581056 -0.85747415 0.49627973
vn -0.10134215 -0.63984914 0.76178924
vn -0.04256460 -0.26846157 0.96234954
vn -0.01069288 -0.26608980 -0.96388894
vn -0.02533654 -0.64510790 -0.76367130
vn -0.03385774 -0.86660275 -0.49784870
vn -0.03834974 -0.98421303 -0.17278310
vn -0.03833978 -0.98421232 0.17278939
vn -0.03383250 -0.86660181 0.49785205
vn -0.02530778 -0.64510926 0.76367111
vn -0.01068610 -0.26603002 0.96390551
vn 0.03199080 -0.27621418 -0.96056354
vn 0.07628118 -0.64606569 -0.75946053
vn 0.10246766 -0.86328425 -0.49420712
vn 0.11642049 -0.97830613 -0.17135749
vn 0.11641092 -0.97830622 0.17136349
vn 0.10244309 -0.86328573 0.49420963
vn 0.07625250 -0.64607053 0.75945930
vn 0.03193434 -0.27637037 0.96052049
vn 0.08403781 -0.25857604 -0.96232847
vn 0.20018892 -0.61611813 -0.76178924
vn 0.26827702 -0.82567177 -0.49627973
vn 0.30440182 -0.93685246 -0.17218304
vn 0.30440182 -0.93685246 0.17218304
vn 0.26827702 -0.82567177 0.49627973
vn 0.20018892 -0.61611813 0.76178924
vn 0.08408767 -0.25886399 0.96224669
vn 0.12342452 -0.24220918 -0.96234147
vn 0.29410637 -0.57721625 -0.76178924
vn 0.39413761 -0.77353861 -0.49627973
vn 0.44721014 -0.87769932 -0.17218304
vn 0.44721014 -0.87769932 0.17218304
vn 0.39413761 -0.77353861 0.49627973
vn 0.29410637 -0.57721625 0.76178924
vn 0.12357346 -0.24260105 0.96222364
vn 0.15977600 -0.21990723 -0.96234736
vn 0.38078195 -0.52410139 -0.76178924
vn 0.51029322 -0.70235836 -0.49627973
vn 0.57900666 -0.79693430 -0.17218304
vn 0.57900666 -0.79693430 0.17218304
vn 0.51029322 -0.70235836 0.49627973
vn 0.38078195 -0.52410139 0.76178924
vn 0.16006642 -0.22039619 0.96218723
vn 0.19220573 -0.19221226 -0.96234682
vn 0.45808141 -0.45808141 -0.76178924
vn 0.61388371 -0.61388371 -0.49627973
vn 0.69654612 -0.69654612 -0.17218304
vn 0.69654612 -0.69654612 0.17218304
vn 0.61388371 -0.61388371 0.49627973
vn 0.45808141 -0.45808141 0.76178924
vn 0.19269794 -0.19279593 0.96213161
vn 0.21992327 -0.15979946 -0.96233980
vn 0.52410139 -0.38078195 -0.76178924
vn 0.70235836 -0.51029322 -0.49627973
vn 0.79693430 -0.57900666 -0.17218304
vn 0.79693430 -0.57900666 0.17218304
vn 0.70235836 -0.51029322 0.49627973
vn 0.52410139 -0.38078195 0.76178924
vn 0.22071476 -0.16047941 0.96204540
vn 0.24225487 -0.12345967 -0.96232546
vn 0.57721625 -0.29410637 -0.76178924
vn 0.77353861 -0.39413761 -0.49627973
vn 0.87769932 -0.44721014 -0.17218304
vn 0.87769932 -0.44721014 0.17218304
vn 0.77353861 -0.39413761 0.49627973
vn 0.57721625 -0.29410637 0.76178924
vn 0.24352524 -0.12424139 0.96190412
vn 0.25866137 -0.08407869 -0.96230196
vn 0.61611813 -0.20018892 -0.76178924
vn 0.82567177 -0.26827702 -0.49627973
vn 0.93685246 -0.30440182 -0.17218304
vn 0.93685246 -0.30440182 0.17218304
vn 0.82567177 -0.26827702 0.49627973
vn 0.61611813 -0.20018892 0.76178924
vn 0.26080385 -0.08497175 0.96164502
vn 0.27635942 -0.03202774 -0.96052053
vn 0.64605587 -0.07629330 -0.75946767
vn 0.86327010 -0.10252049 -0.49422089
vn 0.97829260 -0.11651551 -0.17137015
vn 0.97829246 -0.11653127 0.17136022
vn 0.86326767 -0.10256096 0.49421674
vn 0.64604788 -0.07634061 0.75946972
vn 0.28050891 -0.03307661 0.95928134
f 2//2 1//1 11//11
f 2//2 11//11 3//3
f 3//3 11//11 12//12
f 3//3 12//12 4//4
f 4//4 12//12 13//13
f 4//4 13//13 5//5
f 5//5 13//13 14//14
f 5//5 14//14 6//6
f 6//6 14//14 15//15
f 6//6 15//15 7//7
f 7//7 15//15 16//16
f 7//7 16//16 8//8
f 8//8 16//16 17//17
f 8//8 17//17 9//9
f 9//9 17//17 18//18
f 9//9 18//18 10//10
f 11//11 1//1 19//19
f 11//11 19//19 12//12
f 12//12 19//19 20//20
f 12//12 20//20 13//13
f 13//13 20//20 21//21
f 13//13 21//21 14//14
f 14//14 21//21 22//22
f 14//14 22//22 15//15
f 15//15 22//22 23//23
f 15//15 23//23 16//16
f 16//16 23//23 24//24
f 16//16 24//24 17//17
f 17//17 24//24 25//25
f 17//17 25//25 18//18
f 18//18 25//25 26//26
f 18//18 26//26 10//10
f 19//19 1//1 27//27
f 19//19 27//27 20//20
f 20//20 27//27 28//28
f 20//20 28//28 21//21
f 21//21 28//28 29//29
f 21//21 29//29 22//22
f 22//22 29//29 30//30
f 22//22 30//30 23//23
f 23//23 30//30 31//31
f 23//23 31//31 24//24
f 24//24 31//31 32//32
f 24//24 32//32 25//25
f 25//25 32//32 33//33
f 25//25 33//33 26//26
f 26//26 33//33 34//34
f 26//26 34//34 10//10
f 27//27 1//1 35//35
f 27//27 35//35 28//28
f 28//28 35//35 36//36
f 28//28 36//36 29//29
f 29//29 36//36 37//37
f 29//29 37//37 30//30
f 30//30 37//37 38//38
f 30//30 38//38 31//31
f 31//31 38//38 39//39
f 31//31 39//39 32//32
f 32//32 39//39 40//40
f 32//32 40//40 33//33
f 33//33 40//40 41//41
f 33//33 41//41 34//34
f 34//34 41//41 42//42
f 34//34 42//42 10//10
f 35//35 1//1 43//43
f 35//35 43//43 36//36
f 36//36 43//43 44//44
f 36//36 44//44 37//37
f 37//37 44//44 45//45
f 37//37 45//45 38//38
f 38//38 45//45 46//46
f 38//38 46//46 39//39
f 39//39 46//46 47//47
f 39//39 47//47 40//40
f 40//40 47//47 48//48
f 40//40 48//48 41//41
f 41//41 48//48 49//49
f 41//41 49//49 42//42
f 42//42 49//49 50//50
f 42//42 50//50 10//10
f 43//43 1//1 51//51
f 43//43 51//51 44//44
f 44//44 51//51 52//52
f 44//44 52//52 45//45
f 45//45 52//52 53//53
f 45//45 53//53 46//46
f 46//46 53//53 54//54
f 46//46 54//54 47//47
f 47//47 54//54 55//55
f 47//47 55//55 48//48
f 48//48 55//55 56//56
f 48//48 56//56 49//49
f 49//49 56//56 57//57
f 49//49 57//57 50//50
f 50//50 57//57 58//58
f 50//50 58//58 10//10
f 51//51 1//1 59//59
f 51//51 59//59 52//52
f 52//52 59//59 60//60
f 52//52 60//60 53//53
f 53//53 60//60 61//61
f 53//53 61//61 54//54
f 54//54 61//61 62//62
f 54//54 62//62 55//55
f 55//55 62//62 63//63
f 55//55 63//63 56//56
f 56//56 63//63 64//64
f 56//56 64//64 57//57
f 57//57 64//64 65//65
f 57//57 65//65 58//58
f 58//58 65//65 66//66
f 58//58 66//66 10//10
f 59//59 1//1 67//67
f 59//59 67//67 60//60
f 60//60 67//67 68//68
f 60//60 68//68 61//61
f 61//61 68//68 69//69
f 61//61 69//69 62//62
f 62//62 69//69 70//70
f 62//62 70//70 63//63
f 63//63 70//70 71//71
f 63//63 71//71 64//64
f 64//64 71//71 72//72
f 64//64 72//72 65//65
f 65//65 72//72 73//73
f 65//65 73//73 66//66
f 66//66 73//73 74//74
f 66//66 74//74 10//10
f 67//67 1//1 75//75
f 67//67 75//75 68//68
f 68//68 75//75 76//76
f 68//68 76//76 69//69
f 69//69 76//76 77//77
f 69//69 77//77 70//70
f 70//70 77//77 78//78
f 70//70 78//78 71//71
f 71//71 78//78 79//79
f 71//71 79//79 72//72
f 72//72 79//79 80//80
f 72//72 80//80 73//73
f 73//73 80//80 81//81
f 73//73 81//81 74//74
f 74//74 81//81 82//82
f 74//74 82//82 10//10
f 75//75 1//1 83//83
f 75//75 83//83 76//76
f 76//76 83//83 84//84
f 76//76 84//84 77//77
f 77//77 84//84 85//85
f 77//77 85//85 78//78
f 78//78 85//85 86//86
f 78//78 86//86 79//79
f 79//79 86//86 87//87
f 79//79 87//87 80//80
f 80//80 87//87 88//88
f 80//80 88//88 81//81
f 81//81 88//88 89//89
f 81//81 89//89 82//82
f 82//82 89//89 90//90
f 82//82 90//90 10//10
f 83//83 1//1 91//91
f 83//83 91//91 84//84
f 84//84 91//91 92//92
f 84//84 92//92 85//85
f 85//85 92//92 93//93
f 85//85 93//93 86//86
f 86//86 93//93 94//94
f 86//86 94//94 87//87
f 87//87 94//94 95//95
f 87//87 95//95 88//88
f 88//88 95//95 96//96
f 88//88 96//96 89//89
f 89//89 96//96 97//97
f 89//89 97//97 90//90
f 90//90 97//97 98//98
f 90//90 98//98 10//10
f 91//91 1//1 99//99
f 91//91 99//99 92//92
f 92//92 99//99 100//100
f 92//92 100//100 93//93
f 93//93 100//100 101//101
f 93//93 101//101 94//94
f 94//94 101//101 102//102
f 94//94 102//102 95//95
f 95//95 102//102 103//103
f 95//95 103//103 96//96
f 96//96 103//103 104//104
f 96//96 104//104 97//97
f 97//97 104//104 105//105
f 97//97 105//105 98//98
f 98//98 105//105 106//106
f 98//98 106//106 10//10
f 99//99 1//1 107//107
f 99//99 107//107 100//100
f 100//100 107//107 108//108
f 100//100 108//108 101//101
f 101//101 108//108 109//109
f 101//101 109//109 102//102
f 102//102 109//109 110//110
f 102//102 110//110 103//103
f 103//103 110//110 111//111
f 103//103 111//111 104//104
f 104//104 111//111 112//112
f 104//104 112//112 105//105
f 105//105 112//112 113//113
f 105//105 113//113 106//106
f 106//106 113//113 114//114
f 106//106 114//114 10//10
f 107//107 1//1 115//115
f 107//107 115//115 108//108
f 108//108 115//115 116//116
f 108//108 116//116 109//109
f 109//109 116//116 117//117
f 109//109 117//117 110//110
f 110//110 117//117 118//118
f 110//110 118//118 111//111
f 111//111 118//118 119//119
f 111//111 119//119 112//112
f 112//112 119//119 120//120
f 112//112 120//120 113//113
f 113//113 120//120 121//121
f 113//113 121//121 114//114
f 114//114 121//121 122//122
f 114//114 122//122 10//10
f 115//115 1//1 123//123
f 115//115 123//123 116//116
f 116//116 123//123 124//124
f 116//116 124//124 117//117
f 117//117 124//124 125//125
f 117//117 125//125 118//118
f 118//118 125//125 126//126
f 118//118 126//126 119//119
f 119//119 126//126 127//127
f 119//119 127//127 120//120
f 120//120 127//127 128//128
f 120//120 128//128 121//121
f 121//121 128//128 129//129
f 121//121 129//129 122//122
f 122//122 129//129 130//130
f 122//122 130//130 10//10
f 123//123 1//1 131//131
f 123//123 131//131 124//124
f 124//124 131//131 132//132
f 124//124 132//132 125//125
f 125//125 132//132 133//133
f 125//125 133//133 126//126
f 126//126 133//133 134//134
f 126//126 134//134 127//127
f 127//127 134//134 135//135
f 127//127 135//135 128//128
f 128//128 135//135 136//136
f 128//128 136//136 129//129
f 129//129 136//136 137//137
f 129//129 137//137 130//130
f 130//130 137//137 138//138
f 130//130 138//138 10//10
f 131//131 1//1 139//139
f 131//131 139//139 132//132
f 132//132 139//139 140//140
f 132//132 140//140 133//133
f 133//133 140//140 141//141
f 133//133 141//141 134//134
f 134//134 141//141 142//142
f 134//134 142//142 135//135
f 135//135 142//142 143//143
f 135//135 143//143 136//136
f 136//136 143//143 144//144
f 136//136 144//144 137//137
f 137//137 144//144 145//145
f 137//137 145//145 138//138
f 138//138 145//145 146//146
f 138//138 146//146 10//10
f 139//139 1//1 147//147
f 139//139 147//147 140//140
f 140//140 147//147 148//148
f 140//140 148//148 141//141
f 141//141 148//148 149//149
f 141//141 149//149 142//142
f 142//142 149//149 150//150
f 142//142 150//150 143//143
f 143//143 150//150 151//151
f 143//143 151//151 144//144
f 144//144 151//151 152//152
f 144//144 152//152 145//145
f 145//145 152//152 153//153
f 145//145 153//153 146//146
f 146//146 153//153 154//154
f 146//146 154//154 10//10
f 147//147 1//1 155//155
f 147//147 155//155 148//148
f 148//148 155//155 156//156
f 148//148 156//156 149//149
f 149//149 156//156 157//157
f 149//149 157//157 150//150
f 150//150 157//157 158//158
f 150//150 158//158 151//151
f 151//151 158//158 159//159
f 151//151 159//159 152//152
f 152//152 159//159 160//160
f 152//152 160//160 153//153
f 153//153 160//160 161//161
f 153//153 161//161 154//154
f 154//154 161//161 162//162
f 154//154 162//162 10//10
f 155//155 1//1 163//163
f 155//155 163//163 156//156
f 156//156 163//163 164//164
f 156//156 164//164 157//157
f 157//157 164//164 165//165
f 157//157 165//165 158//158
f 158//158 165//165 166//166
f 158//158 166//166 159//159
f 159//159 166//166 167//167
f 159//159 167//167 160//160
f 160//160 167//167 168//168
f 160//160 168//168 161//161
f 161//161 168//168 169//169
f 161//161 169//169 162//162
f 162//162 169//169 170//170
f 162//162 170//170 10//10
f 163//163 1//1 171//171
f 163//163 171//171 164//164
f 164//164 171//171 172//172
f 164//164 172//172 165//165
f 165//165 172//172 173//173
f 165//165 173//173 166//166
f 166//166 173//173 174//174
f 166//166 174//174 167//167
f 167//167 174//174 175//175
f 167//167 175//175 168//168
f 168//168 175//175 176//176
f 168//168 176//176 169//169
f 169//169 176//176 177//177
f 169//169 177//177 170//170
f 170//170 177//177 178//178
f 170//170 178//178 10//10
f 171//171 1//1 179//179
f 171//171 179//179 172//172
f 172//172 179//179 180//180
f 172//172 180//180 173//173
f 173//173 180//180 181//181
f 173//173 181//181 174//174
f 174//174 181//181 182//182
f 174//174 182//182 175//175
f 175//175 182//182 183//183
f 175//175 183//183 176//176
f 176//176 183//183 184//184
f 176//176 184//184 177//177
f 177//177 184//184 185//185
f 177//177 185//185 178//178
f 178//178 185//185 186//186
f 178//178 186//186 10//10
f 179//179 1//1 187//187
f 179//179 187//187 180//180
f 180//180 187//187 188//188
f 180//180 188//188 181//181
f 181//181 188//188 189//189
f 181//181 189//189 182//182
f 182//182 189//189 190//190
f 182//182 190//190 183//183
f 183//183 190//190 191//191
f 183//183 191//191 184//184
f 184//184 191//191 192//192
f 184//184 192//192 185//185
f 185//185 192//192 193//193
f 185//185 193//193 186//186
f 186//186 193//193 194//194
f 186//186 194//194 10//10
f 187//187 1//1 195//195
f 187//187 195//195 188//188
f 188//188 195//195 196//196
f 188//188 196//196 189//189
f 189//189 196//196 197//197
f 189//189 197//197 190//190
f 190//190 197//197 198//198
f 190//190 198//198 191//191
f 191//191 198//198 199//199
f 191//191 199//199 192//192
f 192//192 199//199 200//200
f 192//192 200//200 193//193
f 193//193 200//200 201//201
f 193//193 201//201 194//194
f 194//194 201//201 202//202
f 194//194 202//202 10//10
f 195//195 1//1 203//203
f 195//195 203//203 196//196
f 196//196 203//203 204//204
f 196//196 204//204 197//197
f 197//197 204//204 205//205
f 197//197 205//205 198//198
f 198//198 205//205 206//206
f 198//198 206//206 199//199
f 199//199 206//206 207//207
f 199//199 207//207 200//200
f 200//200 207//207 208//208
f 200//200 208//208 201//201
f 201//201 208//208 209//209
f 201//201 209//209 202//202
f 202//202 209//209 210//210
f 202//202 210//210 10//10
f 203//203 1//1 211//211
f 203//203 211//211 204//204
f 204//204 211//211 212//212
f 204//204 212//212 205//205
f 205//205 212//212 213//213
f 205//205 213//213 206//206
f 206//206 213//213 214//214
f 206//206 214//214 207//207
f 207//207 214//214 215//215
f 207//207 215//215 208//208
f 208//208 215//215 216//216
f 208//208 216//216 209//209
f 209//209 216//216 217//217
f 209//209 217//217 210//210
f 210//210 217//217 218//218
f 210//210 218//218 10//10
f 211//211 1//1 219//219
f 211//211 219//219 212//212
f 212//212 219//219 220//220
f 212//212 220//220 213//213
f 213//213 220//220 221//221
f 213//213 221//221 214//214
f 214//214 221//221 222//222
f 214//214 222//222 215//215
f 215//215 222//222 223//223
f 215//215 223//223 216//216
f 216//216 223//223 224//224
f 216//216 224//224 217//217
f 217//217 224//224 225//225
f 217//217 225//225 218//218
f 218//218 225//225 226//226
f 218//218 226//226 10//10
f 219//219 1//1 227//227
f 219//219 227//227 220//220
f 220//220 227//227 228//228
f 220//220 228//228 221//221
f 221//221 228//228 229//229
f 221//221 229//229 222//222
f 222//222 229//229 230//230
f 222//222 230//230 223//223
f 223//223 230//230 231//231
f 223//223 231//231 224//224
f 224//224 231//231 232//232
f 224//224 232//232 225//225
f 225//225 232//232 233//233
f 225//225 233//233 226//226
f 226//226 233//233 234//234
f 226//226 234//234 10//10
f 227//227 1//1 235//235
f 227//227 235//235 228//228
f 228//228 235//235 236//236
f 228//228 236//236 229//229
f 229//229 236//236 237//237
f 229//229 237//237 230//230
f 230//230 237//237 238//238
f 230//230 238//238 231//231
f 231//231 238//238 239//239
f 231//231 239//239 232//232
f 232//232 239//239 240//240
f 232//232 240//240 233//233
f 233//233 240//240 241//241
f 233//233 241//241 234//234
f 234//234 241//241 242//242
f 234//234 242//242 10//10
f 235//235 1//1 243//243
f 235//235 243//243 236//236
f 236//236 243//243 244//244
f 236//236 244//244 237//237
f 237//237 244//244 245//245
f 237//237 245//245 238//238
f 238//238 245//245 246//246
f 238//238 246//246 239//239
f 239//239 246//246 247//247
f 239//239 247//247 240//240
f 240//240 247//247 248//248
f 240//240 248//248 241//241
f 241//241 248//248 249//249
f 241//241 249//249 242//242
f 242//242 249//249 250//250
f 242//242 250//250 10//10
f 243//243 1//1 251//251
f 243//243 251//251 244//244
f 244//244 251//251 252//252
f 244//244 252//252 245//245
f 245//245 252//252 253//253
f 245//245 253//253 246//246
f 246//246 253//253 254//254
f 246//246 254//254 247//247
f 247//247 254//254 255//255
f 247//247 255//255 248//248
f 248//248 255//255 256//256
f 248//248 256//256 249//249
f 249//249 256//256 257//257
f 249//249 257//257 250//250
f 250//250 257//257 258//258
f 250//250 258//258 10//10
f 251//251 1//1 259//259
f 251//251 259//259 252//252
f 252//252 259//259 260//260
f 252//252 260//260 253//253
f 253//253 260//260 261//261
f 253//253 261//261 254//254
f 254//254 261//261 262//262
f 254//254 262//262 255//255
f 255//255 262//262 263//263
f 255//255 263//263 256//256
f 256//256 263//263 264//264
f 256//256 264//264 257//257
f 257//257 264//264 265//265
f 257//257 265//265 258//258
f 258//258 265//265 266//266
f 258//258 266//266 10//10
f 259//259 1//1 267//267
f 259//259 267//267 260//260
f 260//260 267//267 268//268
f 260//260 268//268 261//261
f 261//261 268//268 269//269
f 261//261 269//269 262//262
f 262//262 269//269 270//270
f 262//262 270//270 263//263
f 263//263 270//270 271//271
f 263//263 271//271 264//264
f 264//264 271//271 272//272
f 264//264 272//272 265//265
f 265//265 272//272 273//273
f 265//265 273//273 266//266
f 266//266 273//273 274//274
f 266//266 274//274 10//10
f 267//267 1//1 275//275
f 267//267 275//275 268//268
f 268//268 275//275 276//276
f 268//268 276//276 269//269
f 269//269 276//276 277//277
f 269//269 277//277 270//270
f 270//270 277//277 278//278
f 270//270 278//278 271//271
f 271//271 278//278 279//279
f 271//271 279//279 272//272
f 272//272 279//279 280//280
f 272//272 280//280 273//273
f 273//273 280//280 281//281
f 273//273 281//281 274//274
f 274//274 281//281 282//282
f 274//274 282//282 10//10
f 275//275 1//1 283//283
f 275//275 283//283 276//276
f 276//276 283//283 284//284
f 276//276 284//284 277//277
f 277//277 284//284 285//285
f 277//277 285//285 278//278
f 278//278 285//285 286//286
f 278//278 286//286 279//279
f 279//279 286//286 287//287
f 279//279 287//287 280//280
f 280//280 287//287 288//288
f 280//280 288//288 281//281
f 281//281 288//288 289//289
f 281//281 289//289 282//282
f 282//282 289//289 290//290
f 282//282 290//290 10//10
f 283//283 1//1 291//291
f 283//283 291//291 284//284
f 284//284 291//291 292//292
f 284//284 292//292 285//285
f 285//285 292//292 293//293
f 285//285 293//293 286//286
f 286//286 293//293 294//294
f 286//286 294//294 287//287
f 287//287 294//294 295//295
f 287//287 295//295 288//288
f 288//288 295//295 296//296
f 288//288 296//296 289//289
f 289//289 296//296 297//297
f 289//289 297//297 290//290
f 290//290 297//297 298//298
f 290//290 298//298 10//10
f 291//291 1//1 299//299
f 291//291 299//299 292//292
f 292//292 299//299 300//300
f 292//292 300//300 293//293
f 293//293 300//300 301//301
f 293//293 301//301 294//294
f 294//294 301//301 302//302
f 294//294 302//302 295//295
f 295//295 302//302 303//303
f 295//295 303//303 296//296
f 296//296 303//303 304//304
f 296//296 304//304 297//297
f 297//297 304//304 305//305
f 297//297 305//305 298//298
f 298//298 305//305 306//306
f 298//298 306//306 10//10
f 299//299 1//1 307//307
f 299//299 307//307 300//300
f 300//300 307//307 308//308
f 300//300 308//308 301//301
f 301//301 308//308 309//309
f 301//301 309//309 302//302
f 302//302 309//309 310//310
f 302//302 310//310 303//303
f 303//303 310//310 311//311
f 303//303 311//311 304//304
f 304//304 311//311 312//312
f 304//304 312//312 305//305
f 305//305 312//312 313//313
f 305//305 313//313 306//306
f 306//306 313//313 314//314
f 306//306 314//314 10//10
f 307//307 1//1 315//315
f 307//307 315//315 308//308
f 308//308 315//315 316//316
f 308//308 316//316 309//309
f 309//309 316//316 317//317
f 309//309 317//317 310//310
f 310//310 317//317 318//318
f 310//310 318//318 311//311
f 311//311 318//318 319//319
f 311//311 319//319 312//312
f 312//312 319//319 320//320
f 312//312 320//320 313//313
f 313//313 320//320 321//321
f 313//313 321//321 314//314
f 314//314 321//321 322//322
f 314//314 322//322 10//10
f 315//315 1//1 2//2
f 315//315 2//2 316//316
f 316//316 2//2 3//3
f 316//316 3//3 317//317
f 317//317 3//3 4//4
f 317//317 4//4 318//318
f 318//318 4//4 5//5
f 318//318 5//5 319//319
f 319//319 5//5 6//6
f 319//319 6//6 320//320
f 320//320 6//6 7//7
f 320//320 7//7 321//321
f 321//321 7//7 8//8
f 321//321 8//8 322//322
f 322//322 8//8 9//9
f 322//322 9//9 10//10

