mtllib robot.mtl
usemtl red
# https://github.com/mikedh/trimesh
v 0.00000000 -0.03800000 -0.00000000
v 0.04700000 -0.03800000 -0.00000000
v 0.04700000 -0.04200000 0.00000000
v 0.00000000 -0.04200000 0.00000000
v 0.04677368 -0.03800000 0.00460681
v 0.04677368 -0.04200000 0.00460681
v 0.04609691 -0.03800000 0.00916925
v 0.04609691 -0.04200000 0.00916925
v 0.04497620 -0.03800000 0.01364338
v 0.04497620 -0.04200000 0.01364338
v 0.04342234 -0.03800000 0.01798612
v 0.04342234 -0.04200000 0.01798612
v 0.04145030 -0.03800000 0.02215565
v 0.04145030 -0.04200000 0.02215565
v 0.03907907 -0.03800000 0.02611180
v 0.03907907 -0.04200000 0.02611180
v 0.03633149 -0.03800000 0.02981648
v 0.03633149 -0.04200000 0.02981648
v 0.03323402 -0.03800000 0.03323402
v 0.03323402 -0.04200000 0.03323402
v 0.02981648 -0.03800000 0.03633149
v 0.02981648 -0.04200000 0.03633149
v 0.02611180 -0.03800000 0.03907907
v 0.02611180 -0.04200000 0.03907907
v 0.02215565 -0.03800000 0.04145030
v 0.02215565 -0.04200000 0.04145030
v 0.01798612 -0.03800000 0.04342234
v 0.01798612 -0.04200000 0.04342234
v 0.01364338 -0.03800000 0.04497620
v 0.01364338 -0.04200000 0.04497620
v 0.00916925 -0.03800000 0.04609691
v 0.00916925 -0.04200000 0.04609691
v 0.00460681 -0.03800000 0.04677368
v 0.00460681 -0.04200000 0.04677368
v 0.00000000 -0.03800000 0.04700000
v 0.00000000 -0.04200000 0.04700000
v -0.00460681 -0.03800000 0.04677368
v -0.00460681 -0.04200000 0.04677368
v -0.00916925 -0.03800000 0.04609691
v -0.00916925 -0.04200000 0.04609691
v -0.01364338 -0.03800000 0.04497620
v -0.01364338 -0.04200000 0.04497620
v -0.01798612 -0.03800000 0.04342234
v -0.01798612 -0.04200000 0.04342234
v -0.02215565 -0.03800000 0.04145030
v -0.02215565 -0.04200000 0.04145030
v -0.02611180 -0.03800000 0.03907907
v -0.02611180 -0.04200000 0.03907907
v -0.02981648 -0.03800000 0.03633149
v -0.02981648 -0.04200000 0.03633149
v -0.03323402 -0.03800000 0.03323402
v -0.03323402 -0.04200000 0.03323402
v -0.03633149 -0.03800000 0.02981648
v -0.03633149 -0.04200000 0.02981648
v -0.03907907 -0.03800000 0.02611180
v -0.03907907 -0.04200000 0.02611180
v -0.04145030 -0.03800000 0.02215565
v -0.04145030 -0.04200000 0.02215565
v -0.04342234 -0.03800000 0.01798612
v -0.04342234 -0.04200000 0.01798612
v -0.04497620 -0.03800000 0.01364338
v -0.04497620 -0.04200000 0.01364338
v -0.04609691 -0.03800000 0.00916925
v -0.04609691 -0.04200000 0.00916925
v -0.04677368 -0.03800000 0.00460681
v -0.04677368 -0.04200000 0.00460681
v -0.04700000 -0.03800000 0.00000000
v -0.04700000 -0.04200000 0.00000000
v -0.04677368 -0.03800000 -0.00460681
v -0.04677368 -0.04200000 -0.00460681
v -0.04609691 -0.03800000 -0.00916925
v -0.04609691 -0.04200000 -0.00916925
v -0.04497620 -0.03800000 -0.01364338
v -0.04497620 -0.04200000 -0.01364338
v -0.04342234 -0.03800000 -0.01798612
v -0.04342234 -0.04200000 -0.01798612
v -0.04145030 -0.03800000 -0.02215565
v -0.04145030 -0.04200000 -0.02215565
v -0.03907907 -0.03800000 -0.02611180
v -0.03907907 -0.04200000 -0.02611180
v -0.03633149 -0.03800000 -0.02981648
v -0.03633149 -0.04200000 -0.02981648
v -0.03323402 -0.03800000 -0.03323402
v -0.03323402 -0.04200000 -0.03323402
v -0.02981648 -0.03800000 -0.03633149
v -0.02981648 -0.04200000 -0.03633149
v -0.02611180 -0.03800000 -0.03907907
v -0.02611180 -0.04200000 -0.03907907
v -0.02215565 -0.03800000 -0.04145030
v -0.02215565 -0.04200000 -0.04145030
v -0.01798612 -0.03800000 -0.04342234
v -0.01798612 -0.04200000 -0.04342234
v -0.01364338 -0.03800000 -0.04497620
v -0.01364338 -0.04200000 -0.04497620
v -0.00916925 -0.03800000 -0.04609691
v -0.00916925 -0.04200000 -0.04609691
v -0.00460681 -0.03800000 -0.04677368
v -0.00460681 -0.04200000 -0.04677368
v -0.00000000 -0.03800000 -0.04700000
v -0.00000000 -0.04200000 -0.04700000
v 0.00460681 -0.03800000 -0.04677368
v 0.00460681 -0.04200000 -0.04677368
v 0.00916925 -0.03800000 -0.04609691
v 0.00916925 -0.04200000 -0.04609691
v 0.01364338 -0.03800000 -0.04497620
v 0.01364338 -0.04200000 -0.04497620
v 0.01798612 -0.03800000 -0.04342234
v 0.01798612 -0.04200000 -0.04342234
v 0.02215565 -0.03800000 -0.04145030
v 0.02215565 -0.04200000 -0.04145030
v 0.02611180 -0.03800000 -0.03907907
v 0.02611180 -0.04200000 -0.03907907
v 0.02981648 -0.03800000 -0.03633149
v 0.02981648 -0.04200000 -0.03633149
v 0.03323402 -0.03800000 -0.03323402
v 0.03323402 -0.04200000 -0.03323402
v 0.03633149 -0.03800000 -0.02981648
v 0.03633149 -0.04200000 -0.02981648
v 0.03907907 -0.03800000 -0.02611180
v 0.03907907 -0.04200000 -0.02611180
v 0.04145030 -0.03800000 -0.02215565
v 0.04145030 -0.04200000 -0.02215565
v 0.04342234 -0.03800000 -0.01798612
v 0.04342234 -0.04200000 -0.01798612
v 0.04497620 -0.03800000 -0.01364338
v 0.04497620 -0.04200000 -0.01364338
v 0.04609691 -0.03800000 -0.00916925
v 0.04609691 -0.04200000 -0.00916925
v 0.04677368 -0.03800000 -0.00460681
v 0.04677368 -0.04200000 -0.00460681
v 0.00000000 0.04200000 -0.00000000
v 0.04700000 0.04200000 -0.00000000
v 0.04700000 0.03800000 0.00000000
v 0.00000000 0.03800000 0.00000000
v 0.04677368 0.04200000 0.00460681
v 0.04677368 0.03800000 0.00460681
v 0.04609691 0.04200000 0.00916925
v 0.04609691 0.03800000 0.00916925
v 0.04497620 0.04200000 0.01364338
v 0.04497620 0.03800000 0.01364338
v 0.04342234 0.04200000 0.01798612
v 0.04342234 0.03800000 0.01798612
v 0.04145030 0.04200000 0.02215565
v 0.04145030 0.03800000 0.02215565
v 0.03907907 0.04200000 0.02611180
v 0.03907907 0.03800000 0.02611180
v 0.03633149 0.04200000 0.02981648
v 0.03633149 0.03800000 0.02981648
v 0.03323402 0.04200000 0.03323402
v 0.03323402 0.03800000 0.03323402
v 0.02981648 0.04200000 0.03633149
v 0.02981648 0.03800000 0.03633149
v 0.02611180 0.04200000 0.03907907
v 0.02611180 0.03800000 0.03907907
v 0.02215565 0.04200000 0.04145030
v 0.02215565 0.03800000 0.04145030
v 0.01798612 0.04200000 0.04342234
v 0.01798612 0.03800000 0.04342234
v 0.01364338 0.04200000 0.04497620
v 0.01364338 0.03800000 0.04497620
v 0.00916925 0.04200000 0.04609691
v 0.00916925 0.03800000 0.04609691
v 0.00460681 0.04200000 0.04677368
v 0.00460681 0.03800000 0.04677368
v 0.00000000 0.04200000 0.04700000
v 0.00000000 0.03800000 0.04700000
v -0.00460681 0.04200000 0.04677368
v -0.00460681 0.03800000 0.04677368
v -0.00916925 0.04200000 0.04609691
v -0.00916925 0.03800000 0.04609691
v -0.01364338 0.04200000 0.04497620
v -0.01364338 0.03800000 0.04497620
v -0.01798612 0.04200000 0.04342234
v -0.01798612 0.03800000 0.04342234
v -0.02215565 0.04200000 0.04145030
v -0.02215565 0.03800000 0.04145030
v -0.02611180 0.04200000 0.03907907
v -0.02611180 0.03800000 0.03907907
v -0.02981648 0.04200000 0.03633149
v -0.02981648 0.03800000 0.03633149
v -0.03323402 0.04200000 0.03323402
v -0.03323402 0.03800000 0.03323402
v -0.03633149 0.04200000 0.02981648
v -0.03633149 0.03800000 0.02981648
v -0.03907907 0.04200000 0.02611180
v -0.03907907 0.03800000 0.02611180
v -0.04145030 0.04200000 0.02215565
v -0.04145030 0.03800000 0.02215565
v -0.04342234 0.04200000 0.01798612
v -0.04342234 0.03800000 0.01798612
v -0.04497620 0.04200000 0.01364338
v -0.04497620 0.03800000 0.01364338
v -0.04609691 0.04200000 0.00916925
v -0.04609691 0.03800000 0.00916925
v -0.04677368 0.04200000 0.00460681
v -0.04677368 0.03800000 0.00460681
v -0.04700000 0.04200000 0.00000000
v -0.04700000 0.03800000 0.00000000
v -0.04677368 0.04200000 -0.00460681
v -0.04677368 0.03800000 -0.00460681
v -0.04609691 0.04200000 -0.00916925
v -0.04609691 0.03800000 -0.00916925
v -0.04497620 0.04200000 -0.01364338
v -0.04497620 0.03800000 -0.01364338
v -0.04342234 0.04200000 -0.01798612
v -0.04342234 0.03800000 -0.01798612
v -0.04145030 0.04200000 -0.02215565
v -0.04145030 0.03800000 -0.02215565
v -0.03907907 0.04200000 -0.02611180
v -0.03907907 0.03800000 -0.02611180
v -0.03633149 0.04200000 -0.02981648
v -0.03633149 0.03800000 -0.02981648
v -0.03323402 0.04200000 -0.03323402
v -0.03323402 0.03800000 -0.03323402
v -0.02981648 0.04200000 -0.03633149
v -0.02981648 0.03800000 -0.03633149
v -0.02611180 0.04200000 -0.03907907
v -0.02611180 0.03800000 -0.03907907
v -0.02215565 0.04200000 -0.04145030
v -0.02215565 0.03800000 -0.04145030
v -0.01798612 0.04200000 -0.04342234
v -0.01798612 0.03800000 -0.04342234
v -0.01364338 0.04200000 -0.04497620
v -0.01364338 0.03800000 -0.04497620
v -0.00916925 0.04200000 -0.04609691
v -0.00916925 0.03800000 -0.04609691
v -0.00460681 0.04200000 -0.04677368
v -0.00460681 0.03800000 -0.04677368
v -0.00000000 0.04200000 -0.04700000
v -0.00000000 0.03800000 -0.04700000
v 0.00460681 0.04200000 -0.04677368
v 0.00460681 0.03800000 -0.04677368
v 0.00916925 0.04200000 -0.04609691
v 0.00916925 0.03800000 -0.04609691
v 0.01364338 0.04200000 -0.04497620
v 0.01364338 0.03800000 -0.04497620
v 0.01798612 0.04200000 -0.04342234
v 0.01798612 0.03800000 -0.04342234
v 0.02215565 0.04200000 -0.04145030
v 0.02215565 0.03800000 -0.04145030
v 0.02611180 0.04200000 -0.03907907
v 0.02611180 0.03800000 -0.03907907
v 0.02981648 0.04200000 -0.03633149
v 0.02981648 0.03800000 -0.03633149
v 0.03323402 0.04200000 -0.03323402
v 0.03323402 0.03800000 -0.03323402
v 0.03633149 0.04200000 -0.02981648
v 0.03633149 0.03800000 -0.02981648
v 0.03907907 0.04200000 -0.02611180
v 0.03907907 0.03800000 -0.02611180
v 0.04145030 0.04200000 -0.02215565
v 0.04145030 0.03800000 -0.02215565
v 0.04342234 0.04200000 -0.01798612
v 0.04342234 0.03800000 -0.01798612
v 0.04497620 0.04200000 -0.01364338
v 0.04497620 0.03800000 -0.01364338
v 0.04609691 0.04200000 -0.00916925
v 0.04609691 0.03800000 -0.00916925
v 0.04677368 0.04200000 -0.00460681
v 0.04677368 0.03800000 -0.00460681
vn -0.00000000 1.00000000 -0.00000000
vn 0.71782099 0.69622772 -0.00000000
vn 0.71782099 -0.69622772 -0.00000000
vn 0.00000000 -1.00000000 0.00000000
vn 0.71436448 0.69622772 0.07035876
vn 0.71436448 -0.69622772 0.07035876
vn 0.70402826 0.69622772 0.14003993
vn 0.70402826 -0.69622772 0.14003993
vn 0.68691185 0.69622772 0.20837243
vn 0.68691185 -0.69622772 0.20837243
vn 0.66318012 0.69622772 0.27469820
vn 0.66318012 -0.69622772 0.27469820
vn 0.63306159 0.69622772 0.33837847
vn 0.63306159 -0.69622772 0.33837847
vn 0.59684634 0.69622772 0.39879997
vn 0.59684634 -0.69622772 0.39879997
vn 0.55488313 0.69622772 0.45538081
vn 0.55488313 -0.69622772 0.45538081
vn 0.50757609 0.69622772 0.50757609
vn 0.50757609 -0.69622772 0.50757609
vn 0.45538081 0.69622772 0.55488313
vn 0.45538081 -0.69622772 0.55488313
vn 0.39879997 0.69622772 0.59684634
vn 0.39879997 -0.69622772 0.59684634
vn 0.33837847 0.69622772 0.63306159
vn 0.33837847 -0.69622772 0.63306159
vn 0.27469820 0.69622772 0.66318012
vn 0.27469820 -0.69622772 0.66318012
vn 0.20837243 0.69622772 0.68691185
vn 0.20837243 -0.69622772 0.68691185
vn 0.14003993 0.69622772 0.70402826
vn 0.14003993 -0.69622772 0.70402826
vn 0.07035876 0.69622772 0.71436448
vn 0.07035876 -0.69622772 0.71436448
vn -0.00000000 0.69622772 0.71782099
vn -0.00000000 -0.69622772 0.71782099
vn -0.07035876 0.69622772 0.71436448
vn -0.07035876 -0.69622772 0.71436448
vn -0.14003993 0.69622772 0.70402826
vn -0.14003993 -0.69622772 0.70402826
vn -0.20837243 0.69622772 0.68691185
vn -0.20837243 -0.69622772 0.68691185
vn -0.27469820 0.69622772 0.66318012
vn -0.27469820 -0.69622772 0.66318012
vn -0.33837847 0.69622772 0.63306159
vn -0.33837847 -0.69622772 0.63306159
vn -0.39879997 0.69622772 0.59684634
vn -0.39879997 -0.69622772 0.59684634
vn -0.45538081 0.69622772 0.55488313
vn -0.45538081 -0.69622772 0.55488313
vn -0.50757609 0.69622772 0.50757609
vn -0.50757609 -0.69622772 0.50757609
vn -0.55488313 0.69622772 0.45538081
vn -0.55488313 -0.69622772 0.45538081
vn -0.59684634 0.69622772 0.39879997
vn -0.59684634 -0.69622772 0.39879997
vn -0.63306159 0.69622772 0.33837847
vn -0.63306159 -0.69622772 0.33837847
vn -0.66318012 0.69622772 0.27469820
vn -0.66318012 -0.69622772 0.27469820
vn -0.68691185 0.69622772 0.20837243
vn -0.68691185 -0.69622772 0.20837243
vn -0.70402826 0.69622772 0.14003993
vn -0.70402826 -0.69622772 0.14003993
vn -0.71436448 0.69622772 0.07035876
vn -0.71436448 -0.69622772 0.07035876
vn -0.71782099 0.69622772 -0.00000000
vn -0.71782099 -0.69622772 0.00000000
vn -0.71436448 0.69622772 -0.07035876
vn -0.71436448 -0.69622772 -0.07035876
vn -0.70402826 0.69622772 -0.14003993
vn -0.70402826 -0.69622772 -0.14003993
vn -0.68691185 0.69622772 -0.20837243
vn -0.68691185 -0.69622772 -0.20837243
vn -0.66318012 0.69622772 -0.27469820
vn -0.66318012 -0.69622772 -0.27469820
vn -0.63306159 0.69622772 -0.33837847
vn -0.63306159 -0.69622772 -0.33837847
vn -0.59684634 0.69622772 -0.39879997
vn -0.59684634 -0.69622772 -0.39879997
vn -0.55488313 0.69622772 -0.45538081
vn -0.55488313 -0.69622772 -0.45538081
vn -0.50757609 0.69622772 -0.50757609
vn -0.50757609 -0.69622772 -0.50757609
vn -0.45538081 0.69622772 -0.55488313
vn -0.45538081 -0.69622772 -0.55488313
vn -0.39879997 0.69622772 -0.59684634
vn -0.39879997 -0.69622772 -0.59684634
vn -0.33837847 0.69622772 -0.63306159
vn -0.33837847 -0.69622772 -0.63306159
vn -0.27469820 0.69622772 -0.66318012
vn -0.27469820 -0.69622772 -0.66318012
vn -0.20837243 0.69622772 -0.68691185
vn -0.20837243 -0.69622772 -0.68691185
vn -0.14003993 0.69622772 -0.70402826
vn -0.14003993 -0.69622772 -0.70402826
vn -0.07035876 0.69622772 -0.71436448
vn -0.07035876 -0.69622772 -0.71436448
vn -0.00000000 0.69622772 -0.71782099
vn 0.00000000 -0.69622772 -0.71782099
vn 0.07035876 0.69622772 -0.71436448
vn 0.07035876 -0.69622772 -0.71436448
vn 0.14003993 0.69622772 -0.70402826
vn 0.14003993 -0.69622772 -0.70402826
vn 0.20837243 0.69622772 -0.68691185
vn 0.20837243 -0.69622772 -0.68691185
vn 0.27469820 0.69622772 -0.66318012
vn 0.27469820 -0.69622772 -0.66318012
vn 0.33837847 0.69622772 -0.63306159
vn 0.33837847 -0.69622772 -0.63306159
vn 0.39879997 0.69622772 -0.59684634
vn 0.39879997 -0.69622772 -0.59684634
vn 0.45538081 0.69622772 -0.55488313
vn 0.45538081 -0.69622772 -0.55488313
vn 0.50757609 0.69622772 -0.50757609
vn 0.50757609 -0.69622772 -0.50757609
vn 0.55488313 0.69622772 -0.45538081
vn 0.55488313 -0.69622772 -0.45538081
vn 0.59684634 0.69622772 -0.39879997
vn 0.59684634 -0.69622772 -0.39879997
vn 0.63306159 0.69622772 -0.33837847
vn 0.63306159 -0.69622772 -0.33837847
vn 0.66318012 0.69622772 -0.27469820
vn 0.66318012 -0.69622772 -0.27469820
vn 0.68691185 0.69622772 -0.20837243
vn 0.68691185 -0.69622772 -0.20837243
vn 0.70402826 0.69622772 -0.14003993
vn 0.70402826 -0.69622772 -0.14003993
vn 0.71436448 0.69622772 -0.07035876
vn 0.71436448 -0.69622772 -0.07035876
vn -0.00000000 1.00000000 -0.00000000
vn 0.71782099 0.69622772 -0.00000000
vn 0.71782099 -0.69622772 -0.00000000
vn 0.00000000 -1.00000000 0.00000000
vn 0.71436448 0.69622772 0.07035876
vn 0.71436448 -0.69622772 0.07035876
vn 0.70402826 0.69622772 0.14003993
vn 0.70402826 -0.69622772 0.14003993
vn 0.68691185 0.69622772 0.20837243
vn 0.68691185 -0.69622772 0.20837243
vn 0.66318012 0.69622772 0.27469820
vn 0.66318012 -0.69622772 0.27469820
vn 0.63306159 0.69622772 0.33837847
vn 0.63306159 -0.69622772 0.33837847
vn 0.59684634 0.69622772 0.39879997
vn 0.59684634 -0.69622772 0.39879997
vn 0.55488313 0.69622772 0.45538081
vn 0.55488313 -0.69622772 0.45538081
vn 0.50757609 0.69622772 0.50757609
vn 0.50757609 -0.69622772 0.50757609
vn 0.45538081 0.69622772 0.55488313
vn 0.45538081 -0.69622772 0.55488313
vn 0.39879997 0.69622772 0.59684634
vn 0.39879997 -0.69622772 0.59684634
vn 0.33837847 0.69622772 0.63306159
vn 0.33837847 -0.69622772 0.63306159
vn 0.27469820 0.69622772 0.66318012
vn 0.27469820 -0.69622772 0.66318012
vn 0.20837243 0.69622772 0.68691185
vn 0.20837243 -0.69622772 0.68691185
vn 0.14003993 0.69622772 0.70402826
vn 0.14003993 -0.69622772 0.70402826
vn 0.07035876 0.69622772 0.71436448
vn 0.07035876 -0.69622772 0.71436448
vn -0.00000000 0.69622772 0.71782099
vn -0.00000000 -0.69622772 0.71782099
vn -0.07035876 0.69622772 0.71436448
vn -0.07035876 -0.69622772 0.71436448
vn -0.14003993 0.69622772 0.70402826
vn -0.14003993 -0.69622772 0.70402826
vn -0.20837243 0.69622772 0.68691185
vn -0.20837243 -0.69622772 0.68691185
vn -0.27469820 0.69622772 0.66318012
vn -0.27469820 -0.69622772 0.66318012
vn -0.33837847 0.69622772 0.63306159
vn -0.33837847 -0.69622772 0.63306159
vn -0.39879997 0.69622772 0.59684634
vn -0.39879997 -0.69622772 0.59684634
vn -0.45538081 0.69622772 0.55488313
vn -0.45538081 -0.69622772 0.55488313
vn -0.50757609 0.69622772 0.50757609
vn -0.50757609 -0.69622772 0.50757609
vn -0.55488313 0.69622772 0.45538081
vn -0.55488313 -0.69622772 0.45538081
vn -0.59684634 0.69622772 0.39879997
vn -0.59684634 -0.69622772 0.39879997
vn -0.63306159 0.69622772 0.33837847
vn -0.63306159 -0.69622772 0.33837847
vn -0.66318012 0.69622772 0.27469820
vn -0.66318012 -0.69622772 0.27469820
vn -0.68691185 0.69622772 0.20837243
vn -0.68691185 -0.69622772 0.20837243
vn -0.70402826 0.69622772 0.14003993
vn -0.70402826 -0.69622772 0.14003993
vn -0.71436448 0.69622772 0.07035876
vn -0.71436448 -0.69622772 0.07035876
vn -0.71782099 0.69622772 -0.00000000
vn -0.71782099 -0.69622772 0.00000000
vn -0.71436448 0.69622772 -0.07035876
vn -0.71436448 -0.69622772 -0.07035876
vn -0.70402826 0.69622772 -0.14003993
vn -0.70402826 -0.69622772 -0.14003993
vn -0.68691185 0.69622772 -0.20837243
vn -0.68691185 -0.69622772 -0.20837243
vn -0.66318012 0.69622772 -0.27469820
vn -0.66318012 -0.69622772 -0.27469820
vn -0.63306159 0.69622772 -0.33837847
vn -0.63306159 -0.69622772 -0.33837847
vn -0.59684634 0.69622772 -0.39879997
vn -0.59684634 -0.69622772 -0.39879997
vn -0.55488313 0.69622772 -0.45538081
vn -0.55488313 -0.69622772 -0.45538081
vn -0.50757609 0.69622772 -0.50757609
vn -0.50757609 -0.69622772 -0.50757609
vn -0.45538081 0.69622772 -0.55488313
vn -0.45538081 -0.69622772 -0.55488313
vn -0.39879997 0.69622772 -0.59684634
vn -0.39879997 -0.69622772 -0.59684634
vn -0.33837847 0.69622772 -0.63306159
vn -0.33837847 -0.69622772 -0.63306159
vn -0.27469820 0.69622772 -0.66318012
vn -0.27469820 -0.69622772 -0.66318012
vn -0.20837243 0.69622772 -0.68691185
vn -0.20837243 -0.69622772 -0.68691185
vn -0.14003993 0.69622772 -0.70402826
vn -0.14003993 -0.69622772 -0.70402826
vn -0.07035876 0.69622772 -0.71436448
vn -0.07035876 -0.69622772 -0.71436448
vn -0.00000000 0.69622772 -0.71782099
vn 0.00000000 -0.69622772 -0.71782099
vn 0.07035876 0.69622772 -0.71436448
vn 0.07035876 -0.69622772 -0.71436448
vn 0.14003993 0.69622772 -0.70402826
vn 0.14003993 -0.69622772 -0.70402826
vn 0.20837243 0.69622772 -0.68691185
vn 0.20837243 -0.69622772 -0.68691185
vn 0.27469820 0.69622772 -0.66318012
vn 0.27469820 -0.69622772 -0.66318012
vn 0.33837847 0.69622772 -0.63306159
vn 0.33837847 -0.69622772 -0.63306159
vn 0.39879997 0.69622772 -0.59684634
vn 0.39879997 -0.69622772 -0.59684634
vn 0.45538081 0.69622772 -0.55488313
vn 0.45538081 -0.69622772 -0.55488313
vn 0.50757609 0.69622772 -0.50757609
vn 0.50757609 -0.69622772 -0.50757609
vn 0.55488313 0.69622772 -0.45538081
vn 0.55488313 -0.69622772 -0.45538081
vn 0.59684634 0.69622772 -0.39879997
vn 0.59684634 -0.69622772 -0.39879997
vn 0.63306159 0.69622772 -0.33837847
vn 0.63306159 -0.69622772 -0.33837847
vn 0.66318012 0.69622772 -0.27469820
vn 0.66318012 -0.69622772 -0.27469820
vn 0.68691185 0.69622772 -0.20837243
vn 0.68691185 -0.69622772 -0.20837243
vn 0.70402826 0.69622772 -0.14003993
vn 0.70402826 -0.69622772 -0.14003993
vn 0.71436448 0.69622772 -0.07035876
vn 0.71436448 -0.69622772 -0.07035876
f 2//2 1//1 5//5
f 2//2 5//5 3//3
f 3//3 5//5 6//6
f 3//3 6//6 4//4
f 5//5 1//1 7//7
f 5//5 7//7 6//6
f 6//6 7//7 8//8
f 6//6 8//8 4//4
f 7//7 1//1 9//9
f 7//7 9//9 8//8
f 8//8 9//9 10//10
f 8//8 10//10 4//4
f 9//9 1//1 11//11
f 9//9 11//11 10//10
f 10//10 11//11 12//12
f 10//10 12//12 4//4
f 11//11 1//1 13//13
f 11//11 13//13 12//12
f 12//12 13//13 14//14
f 12//12 14//14 4//4
f 13//13 1//1 15//15
f 13//13 15//15 14//14
f 14//14 15//15 16//16
f 14//14 16//16 4//4
f 15//15 1//1 17//17
f 15//15 17//17 16//16
f 16//16 17//17 18//18
f 16//16 18//18 4//4
f 17//17 1//1 19//19
f 17//17 19//19 18//18
f 18//18 19//19 20//20
f 18//18 20//20 4//4
f 19//19 1//1 21//21
f 19//19 21//21 20//20
f 20//20 21//21 22//22
f 20//20 22//22 4//4
f 21//21 1//1 23//23
f 21//21 23//23 22//22
f 22//22 23//23 24//24
f 22//22 24//24 4//4
f 23//23 1//1 25//25
f 23//23 25//25 24//24
f 24//24 25//25 26//26
f 24//24 26//26 4//4
f 25//25 1//1 27//27
f 25//25 27//27 26//26
f 26//26 27//27 28//28
f 26//26 28//28 4//4
f 27//27 1//1 29//29
f 27//27 29//29 28//28
f 28//28 29//29 30//30
f 28//28 30//30 4//4
f 29//29 1//1 31//31
f 29//29 31//31 30//30
f 30//30 31//31 32//32
f 30//30 32//32 4//4
f 31//31 1//1 33//33
f 31//31 33//33 32//32
f 32//32 33//33 34//34
f 32//32 34//34 4//4
f 33//33 1//1 35//35
f 33//33 35//35 34//34
f 34//34 35//35 36//36
f 34//34 36//36 4//4
f 35//35 1//1 37//37
f 35//35 37//37 36//36
f 36//36 37//37 38//38
f 36//36 38//38 4//4
f 37//37 1//1 39//39
f 37//37 39//39 38//38
f 38//38 39//39 40//40
f 38//38 40//40 4//4
f 39//39 1//1 41//41
f 39//39 41//41 40//40
f 40//40 41//41 42//42
f 40//40 42//42 4//4
f 41//41 1//1 43//43
f 41//41 43//43 42//42
f 42//42 43//43 44//44
f 42//42 44//44 4//4
f 43//43 1//1 45//45
f 43//43 45//45 44//44
f 44//44 45//45 46//46
f 44//44 46//46 4//4
f 45//45 1//1 47//47
f 45//45 47//47 46//46
f 46//46 47//47 48//48
f 46//46 48//48 4//4
f 47//47 1//1 49//49
f 47//47 49//49 48//48
f 48//48 49//49 50//50
f 48//48 50//50 4//4
f 49//49 1//1 51//51
f 49//49 51//51 50//50
f 50//50 51//51 52//52
f 50//50 52//52 4//4
f 51//51 1//1 53//53
f 51//51 53//53 52//52
f 52//52 53//53 54//54
f 52//52 54//54 4//4
f 53//53 1//1 55//55
f 53//53 55//55 54//54
f 54//54 55//55 56//56
f 54//54 56//56 4//4
f 55//55 1//1 57//57
f 55//55 57//57 56//56
f 56//56 57//57 58//58
f 56//56 58//58 4//4
f 57//57 1//1 59//59
f 57//57 59//59 58//58
f 58//58 59//59 60//60
f 58//58 60//60 4//4
f 59//59 1//1 61//61
f 59//59 61//61 60//60
f 60//60 61//61 62//62
f 60//60 62//62 4//4
f 61//61 1//1 63//63
f 61//61 63//63 62//62
f 62//62 63//63 64//64
f 62//62 64//64 4//4
f 63//63 1//1 65//65
f 63//63 65//65 64//64
f 64//64 65//65 66//66
f 64//64 66//66 4//4
f 65//65 1//1 67//67
f 65//65 67//67 66//66
f 66//66 67//67 68//68
f 66//66 68//68 4//4
f 67//67 1//1 69//69
f 67//67 69//69 68//68
f 68//68 69//69 70//70
f 68//68 70//70 4//4
f 69//69 1//1 71//71
f 69//69 71//71 70//70
f 70//70 71//71 72//72
f 70//70 72//72 4//4
f 71//71 1//1 73//73
f 71//71 73//73 72//72
f 72//72 73//73 74//74
f 72//72 74//74 4//4
f 73//73 1//1 75//75
f 73//73 75//75 74//74
f 74//74 75//75 76//76
f 74//74 76//76 4//4
f 75//75 1//1 77//77
f 75//75 77//77 76//76
f 76//76 77//77 78//78
f 76//76 78//78 4//4
f 77//77 1//1 79//79
f 77//77 79//79 78//78
f 78//78 79//79 80//80
f 78//78 80//80 4//4
f 79//79 1//1 81//81
f 79//79 81//81 80//80
f 80//80 81//81 82//82
f 80//80 82//82 4//4
f 81//81 1//1 83//83
f 81//81 83//83 82//82
f 82//82 83//83 84//84
f 82//82 84//84 4//4
f 83//83 1//1 85//85
f 83//83 85//85 84//84
f 84//84 85//85 86//86
f 84//84 86//86 4//4
f 85//85 1//1 87//87
f 85//85 87//87 86//86
f 86//86 87//87 88//88
f 86//86 88//88 4//4
f 87//87 1//1 89//89
f 87//87 89//89 88//88
f 88//88 89//89 90//90
f 88//88 90//90 4//4
f 89//89 1//1 91//91
f 89//89 91//91 90//90
f 90//90 91//91 92//92
f 90//90 92//92 4//4
f 91//91 1//1 93//93
f 91//91 93//93 92//92
f 92//92 93//93 94//94
f 92//92 94//94 4//4
f 93//93 1//1 95//95
f 93//93 95//95 94//94
f 94//94 95//95 96//96
f 94//94 96//96 4//4
f 95//95 1//1 97//97
f 95//95 97//97 96//96
f 96//96 97//97 98//98
f 96//96 98//98 4//4
f 97//97 1//1 99//99
f 97//97 99//99 98//98
f 98//98 99//99 100//100
f 98//98 100//100 4//4
f 99//99 1//1 101//101
f 99//99 101//101 100//100
f 100//100 101//101 102//102
f 100//100 102//102 4//4
f 101//101 1//1 103//103
f 101//101 103//103 102//102
f 102//102 103//103 104//104
f 102//102 104//104 4//4
f 103//103 1//1 105//105
f 103//103 105//105 104//104
f 104//104 105//105 106//106
f 104//104 106//106 4//4
f 105//105 1//1 107//107
f 105//105 107//107 106//106
f 106//106 107//107 108//108
f 106//106 108//108 4//4
f 107//107 1//1 109//109
f 107//107 109//109 108//108
f 108//108 109//109 110//110
f 108//108 110//110 4//4
f 109//109 1//1 111//111
f 109//109 111//111 110//110
f 110//110 111//111 112//112
f 110//110 112//112 4//4
f 111//111 1//1 113//113
f 111//111 113//113 112//112
f 112//112 113//113 114//114
f 112//112 114//114 4//4
f 113//113 1//1 115//115
f 113//113 115//115 114//114
f 114//114 115//115 116//116
f 114//114 116//116 4//4
f 115//115 1//1 117//117
f 115//115 117//117 116//116
f 116//116 117//117 118//118
f 116//116 118//118 4//4
f 117//117 1//1 119//119
f 117//117 119//119 118//118
f 118//118 119//119 120//120
f 118//118 120//120 4//4
f 119//119 1//1 121//121
f 119//119 121//121 120//120
f 120//120 121//121 122//122
f 120//120 122//122 4//4
f 121//121 1//1 123//123
f 121//121 123//123 122//122
f 122//122 123//123 124//124
f 122//122 124//124 4//4
f 123//123 1//1 125//125
f 123//123 125//125 124//124
f 124//124 125//125 126//126
f 124//124 126//126 4//4
f 125//125 1//1 127//127
f 125//125 127//127 126//126
f 126//126 127//127 128//128
f 126//126 128//128 4//4
f 127//127 1//1 129//129
f 127//127 129//129 128//128
f 128//128 129//129 130//130
f 128//128 130//130 4//4
f 129//129 1//1 2//2
f 129//129 2//2 130//130
f 130//130 2//2 3//3
f 130//130 3//3 4//4
f 132//132 131//131 135//135
f 132//132 135//135 133//133
f 133//133 135//135 136//136
f 133//133 136//136 134//134
f 135//135 131//131 137//137
f 135//135 137//137 136//136
f 136//136 137//137 138//138
f 136//136 138//138 134//134
f 137//137 131//131 139//139
f 137//137 139//139 138//138
f 138//138 139//139 140//140
f 138//138 140//140 134//134
f 139//139 131//131 141//141
f 139//139 141//141 140//140
f 140//140 141//141 142//142
f 140//140 142//142 134//134
f 141//141 131//131 143//143
f 141//141 143//143 142//142
f 142//142 143//143 144//144
f 142//142 144//144 134//134
f 143//143 131//131 145//145
f 143//143 145//145 144//144
f 144//144 145//145 146//146
f 144//144 146//146 134//134
f 145//145 131//131 147//147
f 145//145 147//147 146//146
f 146//146 147//147 148//148
f 146//146 148//148 134//134
f 147//147 131//131 149//149
f 147//147 149//149 148//148
f 148//148 149//149 150//150
f 148//148 150//150 134//134
f 149//149 131//131 151//151
f 149//149 151//151 150//150
f 150//150 151//151 152//152
f 150//150 152//152 134//134
f 151//151 131//131 153//153
f 151//151 153//153 152//152
f 152//152 153//153 154//154
f 152//152 154//154 134//134
f 153//153 131//131 155//155
f 153//153 155//155 154//154
f 154//154 155//155 156//156
f 154//154 156//156 134//134
f 155//155 131//131 157//157
f 155//155 157//157 156//156
f 156//156 157//157 158//158
f 156//156 158//158 134//134
f 157//157 131//131 159//159
f 157//157 159//159 158//158
f 158//158 159//159 160//160
f 158//158 160//160 134//134
f 159//159 131//131 161//161
f 159//159 161//161 160//160
f 160//160 161//161 162//162
f 160//160 162//162 134//134
f 161//161 131//131 163//163
f 161//161 163//163 162//162
f 162//162 163//163 164//164
f 162//162 164//164 134//134
f 163//163 131//131 165//165
f 163//163 165//165 164//164
f 164//164 165//165 166//166
f 164//164 166//166 134//134
f 165//165 131//131 167//167
f 165//165 167//167 166//166
f 166//166 167//167 168//168
f 166//166 168//168 134//134
f 167//167 131//131 169//169
f 167//167 169//169 168//168
f 168//168 169//169 170//170
f 168//168 170//170 134//134
f 169//169 131//131 171//171
f 169//169 171//171 170//170
f 170//170 171//171 172//172
f 170//170 172//172 134//134
f 171//171 131//131 173//173
f 171//171 173//173 172//172
f 172//172 173//173 174//174
f 172//172 174//174 134//134
f 173//173 131//131 175//175
f 173//173 175//175 174//174
f 174//174 175//175 176//176
f 174//174 176//176 134//134
f 175//175 131//131 177//177
f 175//175 177//177 176//176
f 176//176 177//177 178//178
f 176//176 178//178 134//134
f 177//177 131//131 179//179
f 177//177 179//179 178//178
f 178//178 179//179 180//180
f 178//178 180//180 134//134
f 179//179 131//131 181//181
f 179//179 181//181 180//180
f 180//180 181//181 182//182
f 180//180 182//182 134//134
f 181//181 131//131 183//183
f 181//181 183//183 182//182
f 182//182 183//183 184//184
f 182//182 184//184 134//134
f 183//183 131//131 185//185
f 183//183 185//185 184//184
f 184//184 185//185 186//186
f 184//184 186//186 134//134
f 185//185 131//131 187//187
f 185//185 187//187 186//186
f 186//186 187//187 188//188
f 186//186 188//188 134//134
f 187//187 131//131 189//189
f 187//187 189//189 188//188
f 188//188 189//189 190//190
f 188//188 190//190 134//134
f 189//189 131//131 191//191
f 189//189 191//191 190//190
f 190//190 191//191 192//192
f 190//190 192//192 134//134
f 191//191 131//131 193//193
f 191//191 193//193 192//192
f 192//192 193//193 194//194
f 192//192 194//194 134//134
f 193//193 131//131 195//195
f 193//193 195//195 194//194
f 194//194 195//195 196//196
f 194//194 196//196 134//134
f 195//195 131//131 197//197
f 195//195 197//197 196//196
f 196//196 197//197 198//198
f 196//196 198//198 134//134
f 197//197 131//131 199//199
f 197//197 199//199 198//198
f 198//198 199//199 200//200
f 198//198 200//200 134//134
f 199//199 131//131 201//201
f 199//199 201//201 200//200
f 200//200 201//201 202//202
f 200//200 202//202 134//134
f 201//201 131//131 203//203
f 201//201 203//203 202//202
f 202//202 203//203 204//204
f 202//202 204//204 134//134
f 203//203 131//131 205//205
f 203//203 205//205 204//204
f 204//204 205//205 206//206
f 204//204 206//206 134//134
f 205//205 131//131 207//207
f 205//205 207//207 206//206
f 206//206 207//207 208//208
f 206//206 208//208 134//134
f 207//207 131//131 209//209
f 207//207 209//209 208//208
f 208//208 209//209 210//210
f 208//208 210//210 134//134
f 209//209 131//131 211//211
f 209//209 211//211 210//210
f 210//210 211//211 212//212
f 210//210 212//212 134//134
f 211//211 131//131 213//213
f 211//211 213//213 212//212
f 212//212 213//213 214//214
f 212//212 214//214 134//134
f 213//213 131//131 215//215
f 213//213 215//215 214//214
f 214//214 215//215 216//216
f 214//214 216//216 134//134
f 215//215 131//131 217//217
f 215//215 217//217 216//216
f 216//216 217//217 218//218
f 216//216 218//218 134//134
f 217//217 131//131 219//219
f 217//217 219//219 218//218
f 218//218 219//219 220//220
f 218//218 220//220 134//134
f 219//219 131//131 221//221
f 219//219 221//221 220//220
f 220//220 221//221 222//222
f 220//220 222//222 134//134
f 221//221 131//131 223//223
f 221//221 223//223 222//222
f 222//222 223//223 224//224
f 222//222 224//224 134//134
f 223//223 131//131 225//225
f 223//223 225//225 224//224
f 224//224 225//225 226//226
f 224//224 226//226 134//134
f 225//225 131//131 227//227
f 225//225 227//227 226//226
f 226//226 227//227 228//228
f 226//226 228//228 134//134
f 227//227 131//131 229//229
f 227//227 229//229 228//228
f 228//228 229//229 230//230
f 228//228 230//230 134//134
f 229//229 131//131 231//231
f 229//229 231//231 230//230
f 230//230 231//231 232//232
f 230//230 232//232 134//134
f 231//231 131//131 233//233
f 231//231 233//233 232//232
f 232//232 233//233 234//234
f 232//232 234//234 134//134
f 233//233 131//131 235//235
f 233//233 235//235 234//234
f 234//234 235//235 236//236
f 234//234 236//236 134//134
f 235//235 131//131 237//237
f 235//235 237//237 236//236
f 236//236 237//237 238//238
f 236//236 238//238 134//134
f 237//237 131//131 239//239
f 237//237 239//239 238//238
f 238//238 239//239 240//240
f 238//238 240//240 134//134
f 239//239 131//131 241//241
f 239//239 241//241 240//240
f 240//240 241//241 242//242
f 240//240 242//242 134//134
f 241//241 131//131 243//243
f 241//241 243//243 242//242
f 242//242 243//243 244//244
f 242//242 244//244 134//134
f 243//243 131//131 245//245
f 243//243 245//245 244//244
f 244//244 245//245 246//246
f 244//244 246//246 134//134
f 245//245 131//131 247//247
f 245//245 247//247 246//246
f 246//246 247//247 248//248
f 246//246 248//248 134//134
f 247//247 131//131 249//249
f 247//247 249//249 248//248
f 248//248 249//249 250//250
f 248//248 250//250 134//134
f 249//249 131//131 251//251
f 249//249 251//251 250//250
f 250//250 251//251 252//252
f 250//250 252//252 134//134
f 251//251 131//131 253//253
f 251//251 253//253 252//252
f 252//252 253//253 254//254
f 252//252 254//254 134//134
f 253//253 131//131 255//255
f 253//253 255//255 254//254
f 254//254 255//255 256//256
f 254//254 256//256 134//134
f 255//255 131//131 257//257
f 255//255 257//257 256//256
f 256//256 257//257 258//258
f 256//256 258//258 134//134
f 257//257 131//131 259//259
f 257//257 259//259 258//258
f 258//258 259//259 260//260
f 258//258 260//260 134//134
f 259//259 131//131 132//132
f 259//259 132//132 260//260
f 260//260 132//132 133//133
f 260//260 133//133 134//134

