mtllib robot.mtl
usemtl bright_metal
# https://github.com/mikedh/trimesh
v 0.00000000 -0.03850000 -0.00000000
v 0.01400000 -0.03850000 -0.00000000
v 0.01400000 -0.04450000 0.00000000
v 0.00000000 -0.04450000 0.00000000
v 0.01393259 -0.03850000 0.00137224
v 0.01393259 -0.04450000 0.00137224
v 0.01373099 -0.03850000 0.00273126
v 0.01373099 -0.04450000 0.00273126
v 0.01339716 -0.03850000 0.00406399
v 0.01339716 -0.04450000 0.00406399
v 0.01293431 -0.03850000 0.00535757
v 0.01293431 -0.04450000 0.00535757
v 0.01234690 -0.03850000 0.00659955
v 0.01234690 -0.04450000 0.00659955
v 0.01164057 -0.03850000 0.00777798
v 0.01164057 -0.04450000 0.00777798
v 0.01082215 -0.03850000 0.00888151
v 0.01082215 -0.04450000 0.00888151
v 0.00989949 -0.03850000 0.00989949
v 0.00989949 -0.04450000 0.00989949
v 0.00888151 -0.03850000 0.01082215
v 0.00888151 -0.04450000 0.01082215
v 0.00777798 -0.03850000 0.01164057
v 0.00777798 -0.04450000 0.01164057
v 0.00659955 -0.03850000 0.01234690
v 0.00659955 -0.04450000 0.01234690
v 0.00535757 -0.03850000 0.01293431
v 0.00535757 -0.04450000 0.01293431
v 0.00406399 -0.03850000 0.01339716
v 0.00406399 -0.04450000 0.01339716
v 0.00273126 -0.03850000 0.01373099
v 0.00273126 -0.04450000 0.01373099
v 0.00137224 -0.03850000 0.01393259
v 0.00137224 -0.04450000 0.01393259
v 0.00000000 -0.03850000 0.01400000
v 0.00000000 -0.04450000 0.01400000
v -0.00137224 -0.03850000 0.01393259
v -0.00137224 -0.04450000 0.01393259
v -0.00273126 -0.03850000 0.01373099
v -0.00273126 -0.04450000 0.01373099
v -0.00406399 -0.03850000 0.01339716
v -0.00406399 -0.04450000 0.01339716
v -0.00535757 -0.03850000 0.01293431
v -0.00535757 -0.04450000 0.01293431
v -0.00659955 -0.03850000 0.01234690
v -0.00659955 -0.04450000 0.01234690
v -0.00777798 -0.03850000 0.01164057
v -0.00777798 -0.04450000 0.01164057
v -0.00888151 -0.03850000 0.01082215
v -0.00888151 -0.04450000 0.01082215
v -0.00989949 -0.03850000 0.00989949
v -0.00989949 -0.04450000 0.00989949
v -0.01082215 -0.03850000 0.00888151
v -0.01082215 -0.04450000 0.00888151
v -0.01164057 -0.03850000 0.00777798
v -0.01164057 -0.04450000 0.00777798
v -0.01234690 -0.03850000 0.00659955
v -0.01234690 -0.04450000 0.00659955
v -0.01293431 -0.03850000 0.00535757
v -0.01293431 -0.04450000 0.00535757
v -0.01339716 -0.03850000 0.00406399
v -0.01339716 -0.04450000 0.00406399
v -0.01373099 -0.03850000 0.00273126
v -0.01373099 -0.04450000 0.00273126
v -0.01393259 -0.03850000 0.00137224
v -0.01393259 -0.04450000 0.00137224
v -0.01400000 -0.03850000 0.00000000
v -0.01400000 -0.04450000 0.00000000
v -0.01393259 -0.03850000 -0.00137224
v -0.01393259 -0.04450000 -0.00137224
v -0.01373099 -0.03850000 -0.00273126
v -0.01373099 -0.04450000 -0.00273126
v -0.01339716 -0.03850000 -0.00406399
v -0.01339716 -0.04450000 -0.00406399
v -0.01293431 -0.03850000 -0.00535757
v -0.01293431 -0.04450000 -0.00535757
v -0.01234690 -0.03850000 -0.00659955
v -0.01234690 -0.04450000 -0.00659955
v -0.01164057 -0.03850000 -0.00777798
v -0.01164057 -0.04450000 -0.00777798
v -0.01082215 -0.03850000 -0.00888151
v -0.01082215 -0.04450000 -0.00888151
v -0.00989949 -0.03850000 -0.00989949
v -0.00989949 -0.04450000 -0.00989949
v -0.00888151 -0.03850000 -0.01082215
v -0.00888151 -0.04450000 -0.01082215
v -0.00777798 -0.03850000 -0.01164057
v -0.00777798 -0.04450000 -0.01164057
v -0.00659955 -0.03850000 -0.01234690
v -0.00659955 -0.04450000 -0.01234690
v -0.00535757 -0.03850000 -0.01293431
v -0.00535757 -0.04450000 -0.01293431
v -0.00406399 -0.03850000 -0.01339716
v -0.00406399 -0.04450000 -0.01339716
v -0.00273126 -0.03850000 -0.01373099
v -0.00273126 -0.04450000 -0.01373099
v -0.00137224 -0.03850000 -0.01393259
v -0.00137224 -0.04450000 -0.01393259
v -0.00000000 -0.03850000 -0.01400000
v -0.00000000 -0.04450000 -0.01400000
v 0.00137224 -0.03850000 -0.01393259
v 0.00137224 -0.04450000 -0.01393259
v 0.00273126 -0.03850000 -0.01373099
v 0.00273126 -0.04450000 -0.01373099
v 0.00406399 -0.03850000 -0.01339716
v 0.00406399 -0.04450000 -0.01339716
v 0.00535757 -0.03850000 -0.01293431
v 0.00535757 -0.04450000 -0.01293431
v 0.00659955 -0.03850000 -0.01234690
v 0.00659955 -0.04450000 -0.01234690
v 0.00777798 -0.03850000 -0.01164057
v 0.00777798 -0.04450000 -0.01164057
v 0.00888151 -0.03850000 -0.01082215
v 0.00888151 -0.04450000 -0.01082215
v 0.00989949 -0.03850000 -0.00989949
v 0.00989949 -0.04450000 -0.00989949
v 0.01082215 -0.03850000 -0.00888151
v 0.01082215 -0.04450000 -0.00888151
v 0.01164057 -0.03850000 -0.00777798
v 0.01164057 -0.04450000 -0.00777798
v 0.01234690 -0.03850000 -0.00659955
v 0.01234690 -0.04450000 -0.00659955
v 0.01293431 -0.03850000 -0.00535757
v 0.01293431 -0.04450000 -0.00535757
v 0.01339716 -0.03850000 -0.00406399
v 0.01339716 -0.04450000 -0.00406399
v 0.01373099 -0.03850000 -0.00273126
v 0.01373099 -0.04450000 -0.00273126
v 0.01393259 -0.03850000 -0.00137224
v 0.01393259 -0.04450000 -0.00137224
v 0.02300000 -0.04300000 -0.00000000
v 0.02580000 -0.04300000 -0.00000000
v 0.02580000 -0.04500000 0.00000000
v 0.02300000 -0.04500000 0.00000000
v 0.02566296 -0.04300000 0.00086525
v 0.02566296 -0.04500000 0.00086525
v 0.02526525 -0.04300000 0.00164580
v 0.02526525 -0.04500000 0.00164580
v 0.02464580 -0.04300000 0.00226525
v 0.02464580 -0.04500000 0.00226525
v 0.02386525 -0.04300000 0.00266296
v 0.02386525 -0.04500000 0.00266296
v 0.02300000 -0.04300000 0.00280000
v 0.02300000 -0.04500000 0.00280000
v 0.02213475 -0.04300000 0.00266296
v 0.02213475 -0.04500000 0.00266296
v 0.02135420 -0.04300000 0.00226525
v 0.02135420 -0.04500000 0.00226525
v 0.02073475 -0.04300000 0.00164580
v 0.02073475 -0.04500000 0.00164580
v 0.02033704 -0.04300000 0.00086525
v 0.02033704 -0.04500000 0.00086525
v 0.02020000 -0.04300000 0.00000000
v 0.02020000 -0.04500000 0.00000000
v 0.02033704 -0.04300000 -0.00086525
v 0.02033704 -0.04500000 -0.00086525
v 0.02073475 -0.04300000 -0.00164580
v 0.02073475 -0.04500000 -0.00164580
v 0.02135420 -0.04300000 -0.00226525
v 0.02135420 -0.04500000 -0.00226525
v 0.02213475 -0.04300000 -0.00266296
v 0.02213475 -0.04500000 -0.00266296
v 0.02300000 -0.04300000 -0.00280000
v 0.02300000 -0.04500000 -0.00280000
v 0.02386525 -0.04300000 -0.00266296
v 0.02386525 -0.04500000 -0.00266296
v 0.02464580 -0.04300000 -0.00226525
v 0.02464580 -0.04500000 -0.00226525
v 0.02526525 -0.04300000 -0.00164580
v 0.02526525 -0.04500000 -0.00164580
v 0.02566296 -0.04300000 -0.00086525
v 0.02566296 -0.04500000 -0.00086525
v 0.01150000 -0.04300000 0.01991858
v 0.01430000 -0.04300000 0.01991858
v 0.01430000 -0.04500000 0.01991858
v 0.01150000 -0.04500000 0.01991858
v 0.01416296 -0.04300000 0.02078383
v 0.01416296 -0.04500000 0.02078383
v 0.01376525 -0.04300000 0.02156438
v 0.01376525 -0.04500000 0.02156438
v 0.01314580 -0.04300000 0.02218383
v 0.01314580 -0.04500000 0.02218383
v 0.01236525 -0.04300000 0.02258154
v 0.01236525 -0.04500000 0.02258154
v 0.01150000 -0.04300000 0.02271858
v 0.01150000 -0.04500000 0.02271858
v 0.01063475 -0.04300000 0.02258154
v 0.01063475 -0.04500000 0.02258154
v 0.00985420 -0.04300000 0.02218383
v 0.00985420 -0.04500000 0.02218383
v 0.00923475 -0.04300000 0.02156438
v 0.00923475 -0.04500000 0.02156438
v 0.00883704 -0.04300000 0.02078383
v 0.00883704 -0.04500000 0.02078383
v 0.00870000 -0.04300000 0.01991858
v 0.00870000 -0.04500000 0.01991858
v 0.00883704 -0.04300000 0.01905334
v 0.00883704 -0.04500000 0.01905334
v 0.00923475 -0.04300000 0.01827279
v 0.00923475 -0.04500000 0.01827279
v 0.00985420 -0.04300000 0.01765334
v 0.00985420 -0.04500000 0.01765334
v 0.01063475 -0.04300000 0.01725563
v 0.01063475 -0.04500000 0.01725563
v 0.01150000 -0.04300000 0.01711858
v 0.01150000 -0.04500000 0.01711858
v 0.01236525 -0.04300000 0.01725563
v 0.01236525 -0.04500000 0.01725563
v 0.01314580 -0.04300000 0.01765334
v 0.01314580 -0.04500000 0.01765334
v 0.01376525 -0.04300000 0.01827279
v 0.01376525 -0.04500000 0.01827279
v 0.01416296 -0.04300000 0.01905334
v 0.01416296 -0.04500000 0.01905334
v -0.01150000 -0.04300000 0.01991858
v -0.00870000 -0.04300000 0.01991858
v -0.00870000 -0.04500000 0.01991858
v -0.01150000 -0.04500000 0.01991858
v -0.00883704 -0.04300000 0.02078383
v -0.00883704 -0.04500000 0.02078383
v -0.00923475 -0.04300000 0.02156438
v -0.00923475 -0.04500000 0.02156438
v -0.00985420 -0.04300000 0.02218383
v -0.00985420 -0.04500000 0.02218383
v -0.01063475 -0.04300000 0.02258154
v -0.01063475 -0.04500000 0.02258154
v -0.01150000 -0.04300000 0.02271858
v -0.01150000 -0.04500000 0.02271858
v -0.01236525 -0.04300000 0.02258154
v -0.01236525 -0.04500000 0.02258154
v -0.01314580 -0.04300000 0.02218383
v -0.01314580 -0.04500000 0.02218383
v -0.01376525 -0.04300000 0.02156438
v -0.01376525 -0.04500000 0.02156438
v -0.01416296 -0.04300000 0.02078383
v -0.01416296 -0.04500000 0.02078383
v -0.01430000 -0.04300000 0.01991858
v -0.01430000 -0.04500000 0.01991858
v -0.01416296 -0.04300000 0.01905334
v -0.01416296 -0.04500000 0.01905334
v -0.01376525 -0.04300000 0.01827279
v -0.01376525 -0.04500000 0.01827279
v -0.01314580 -0.04300000 0.01765334
v -0.01314580 -0.04500000 0.01765334
v -0.01236525 -0.04300000 0.01725563
v -0.01236525 -0.04500000 0.01725563
v -0.01150000 -0.04300000 0.01711858
v -0.01150000 -0.04500000 0.01711858
v -0.01063475 -0.04300000 0.01725563
v -0.01063475 -0.04500000 0.01725563
v -0.00985420 -0.04300000 0.01765334
v -0.00985420 -0.04500000 0.01765334
v -0.00923475 -0.04300000 0.01827279
v -0.00923475 -0.04500000 0.01827279
v -0.00883704 -0.04300000 0.01905334
v -0.00883704 -0.04500000 0.01905334
v -0.02300000 -0.04300000 0.00000000
v -0.02020000 -0.04300000 0.00000000
v -0.02020000 -0.04500000 0.00000000
v -0.02300000 -0.04500000 0.00000000
v -0.02033704 -0.04300000 0.00086525
v -0.02033704 -0.04500000 0.00086525
v -0.02073475 -0.04300000 0.00164580
v -0.02073475 -0.04500000 0.00164580
v -0.02135420 -0.04300000 0.00226525
v -0.02135420 -0.04500000 0.00226525
v -0.02213475 -0.04300000 0.00266296
v -0.02213475 -0.04500000 0.00266296
v -0.02300000 -0.04300000 0.00280000
v -0.02300000 -0.04500000 0.00280000
v -0.02386525 -0.04300000 0.00266296
v -0.02386525 -0.04500000 0.00266296
v -0.02464580 -0.04300000 0.00226525
v -0.02464580 -0.04500000 0.00226525
v -0.02526525 -0.04300000 0.00164580
v -0.02526525 -0.04500000 0.00164580
v -0.02566296 -0.04300000 0.00086525
v -0.02566296 -0.04500000 0.00086525
v -0.02580000 -0.04300000 0.00000000
v -0.02580000 -0.04500000 0.00000000
v -0.02566296 -0.04300000 -0.00086525
v -0.02566296 -0.04500000 -0.00086525
v -0.02526525 -0.04300000 -0.00164580
v -0.02526525 -0.04500000 -0.00164580
v -0.02464580 -0.04300000 -0.00226525
v -0.02464580 -0.04500000 -0.00226525
v -0.02386525 -0.04300000 -0.00266296
v -0.02386525 -0.04500000 -0.00266296
v -0.02300000 -0.04300000 -0.00280000
v -0.02300000 -0.04500000 -0.00280000
v -0.02213475 -0.04300000 -0.00266296
v -0.02213475 -0.04500000 -0.00266296
v -0.02135420 -0.04300000 -0.00226525
v -0.02135420 -0.04500000 -0.00226525
v -0.02073475 -0.04300000 -0.00164580
v -0.02073475 -0.04500000 -0.00164580
v -0.02033704 -0.04300000 -0.00086525
v -0.02033704 -0.04500000 -0.00086525
v -0.01150000 -0.04300000 -0.01991858
v -0.00870000 -0.04300000 -0.01991858
v -0.00870000 -0.04500000 -0.01991858
v -0.01150000 -0.04500000 -0.01991858
v -0.00883704 -0.04300000 -0.01905334
v -0.00883704 -0.04500000 -0.01905334
v -0.00923475 -0.04300000 -0.01827279
v -0.00923475 -0.04500000 -0.01827279
v -0.00985420 -0.04300000 -0.01765334
v -0.00985420 -0.04500000 -0.01765334
v -0.01063475 -0.04300000 -0.01725563
v -0.01063475 -0.04500000 -0.01725563
v -0.01150000 -0.04300000 -0.01711858
v -0.01150000 -0.04500000 -0.01711858
v -0.01236525 -0.04300000 -0.01725563
v -0.01236525 -0.04500000 -0.01725563
v -0.01314580 -0.04300000 -0.01765334
v -0.01314580 -0.04500000 -0.01765334
v -0.01376525 -0.04300000 -0.01827279
v -0.01376525 -0.04500000 -0.01827279
v -0.01416296 -0.04300000 -0.01905334
v -0.01416296 -0.04500000 -0.01905334
v -0.01430000 -0.04300000 -0.01991858
v -0.01430000 -0.04500000 -0.01991858
v -0.01416296 -0.04300000 -0.02078383
v -0.01416296 -0.04500000 -0.02078383
v -0.01376525 -0.04300000 -0.02156438
v -0.01376525 -0.04500000 -0.02156438
v -0.01314580 -0.04300000 -0.02218383
v -0.01314580 -0.04500000 -0.02218383
v -0.01236525 -0.04300000 -0.02258154
v -0.01236525 -0.04500000 -0.02258154
v -0.01150000 -0.04300000 -0.02271858
v -0.01150000 -0.04500000 -0.02271858
v -0.01063475 -0.04300000 -0.02258154
v -0.01063475 -0.04500000 -0.02258154
v -0.00985420 -0.04300000 -0.02218383
v -0.00985420 -0.04500000 -0.02218383
v -0.00923475 -0.04300000 -0.02156438
v -0.00923475 -0.04500000 -0.02156438
v -0.00883704 -0.04300000 -0.02078383
v -0.00883704 -0.04500000 -0.02078383
v 0.01150000 -0.04300000 -0.01991858
v 0.01430000 -0.04300000 -0.01991858
v 0.01430000 -0.04500000 -0.01991858
v 0.01150000 -0.04500000 -0.01991858
v 0.01416296 -0.04300000 -0.01905334
v 0.01416296 -0.04500000 -0.01905334
v 0.01376525 -0.04300000 -0.01827279
v 0.01376525 -0.04500000 -0.01827279
v 0.01314580 -0.04300000 -0.01765334
v 0.01314580 -0.04500000 -0.01765334
v 0.01236525 -0.04300000 -0.01725563
v 0.01236525 -0.04500000 -0.01725563
v 0.01150000 -0.04300000 -0.01711858
v 0.01150000 -0.04500000 -0.01711858
v 0.01063475 -0.04300000 -0.01725563
v 0.01063475 -0.04500000 -0.01725563
v 0.00985420 -0.04300000 -0.01765334
v 0.00985420 -0.04500000 -0.01765334
v 0.00923475 -0.04300000 -0.01827279
v 0.00923475 -0.04500000 -0.01827279
v 0.00883704 -0.04300000 -0.01905334
v 0.00883704 -0.04500000 -0.01905334
v 0.00870000 -0.04300000 -0.01991858
v 0.00870000 -0.04500000 -0.01991858
v 0.00883704 -0.04300000 -0.02078383
v 0.00883704 -0.04500000 -0.02078383
v 0.00923475 -0.04300000 -0.02156438
v 0.00923475 -0.04500000 -0.02156438
v 0.00985420 -0.04300000 -0.02218383
v 0.00985420 -0.04500000 -0.02218383
v 0.01063475 -0.04300000 -0.02258154
v 0.01063475 -0.04500000 -0.02258154
v 0.01150000 -0.04300000 -0.02271858
v 0.01150000 -0.04500000 -0.02271858
v 0.01236525 -0.04300000 -0.02258154
v 0.01236525 -0.04500000 -0.02258154
v 0.01314580 -0.04300000 -0.02218383
v 0.01314580 -0.04500000 -0.02218383
v 0.01376525 -0.04300000 -0.02156438
v 0.01376525 -0.04500000 -0.02156438
v 0.01416296 -0.04300000 -0.02078383
v 0.01416296 -0.04500000 -0.02078383
v 0.00000000 0.04450000 -0.00000000
v 0.01400000 0.04450000 -0.00000000
v 0.01400000 0.03850000 0.00000000
v 0.00000000 0.03850000 0.00000000
v 0.01393259 0.04450000 0.00137224
v 0.01393259 0.03850000 0.00137224
v 0.01373099 0.04450000 0.00273126
v 0.01373099 0.03850000 0.00273126
v 0.01339716 0.04450000 0.00406399
v 0.01339716 0.03850000 0.00406399
v 0.01293431 0.04450000 0.00535757
v 0.01293431 0.03850000 0.00535757
v 0.01234690 0.04450000 0.00659955
v 0.01234690 0.03850000 0.00659955
v 0.01164057 0.04450000 0.00777798
v 0.01164057 0.03850000 0.00777798
v 0.01082215 0.04450000 0.00888151
v 0.01082215 0.03850000 0.00888151
v 0.00989949 0.04450000 0.00989949
v 0.00989949 0.03850000 0.00989949
v 0.00888151 0.04450000 0.01082215
v 0.00888151 0.03850000 0.01082215
v 0.00777798 0.04450000 0.01164057
v 0.00777798 0.03850000 0.01164057
v 0.00659955 0.04450000 0.01234690
v 0.00659955 0.03850000 0.01234690
v 0.00535757 0.04450000 0.01293431
v 0.00535757 0.03850000 0.01293431
v 0.00406399 0.04450000 0.01339716
v 0.00406399 0.03850000 0.01339716
v 0.00273126 0.04450000 0.01373099
v 0.00273126 0.03850000 0.01373099
v 0.00137224 0.04450000 0.01393259
v 0.00137224 0.03850000 0.01393259
v 0.00000000 0.04450000 0.01400000
v 0.00000000 0.03850000 0.01400000
v -0.00137224 0.04450000 0.01393259
v -0.00137224 0.03850000 0.01393259
v -0.00273126 0.04450000 0.01373099
v -0.00273126 0.03850000 0.01373099
v -0.00406399 0.04450000 0.01339716
v -0.00406399 0.03850000 0.01339716
v -0.00535757 0.04450000 0.01293431
v -0.00535757 0.03850000 0.01293431
v -0.00659955 0.04450000 0.01234690
v -0.00659955 0.03850000 0.01234690
v -0.00777798 0.04450000 0.01164057
v -0.00777798 0.03850000 0.01164057
v -0.00888151 0.04450000 0.01082215
v -0.00888151 0.03850000 0.01082215
v -0.00989949 0.04450000 0.00989949
v -0.00989949 0.03850000 0.00989949
v -0.01082215 0.04450000 0.00888151
v -0.01082215 0.03850000 0.00888151
v -0.01164057 0.04450000 0.00777798
v -0.01164057 0.03850000 0.00777798
v -0.01234690 0.04450000 0.00659955
v -0.01234690 0.03850000 0.00659955
v -0.01293431 0.04450000 0.00535757
v -0.01293431 0.03850000 0.00535757
v -0.01339716 0.04450000 0.00406399
v -0.01339716 0.03850000 0.00406399
v -0.01373099 0.04450000 0.00273126
v -0.01373099 0.03850000 0.00273126
v -0.01393259 0.04450000 0.00137224
v -0.01393259 0.03850000 0.00137224
v -0.01400000 0.04450000 0.00000000
v -0.01400000 0.03850000 0.00000000
v -0.01393259 0.04450000 -0.00137224
v -0.01393259 0.03850000 -0.00137224
v -0.01373099 0.04450000 -0.00273126
v -0.01373099 0.03850000 -0.00273126
v -0.01339716 0.04450000 -0.00406399
v -0.01339716 0.03850000 -0.00406399
v -0.01293431 0.04450000 -0.00535757
v -0.01293431 0.03850000 -0.00535757
v -0.01234690 0.04450000 -0.00659955
v -0.01234690 0.03850000 -0.00659955
v -0.01164057 0.04450000 -0.00777798
v -0.01164057 0.03850000 -0.00777798
v -0.01082215 0.04450000 -0.00888151
v -0.01082215 0.03850000 -0.00888151
v -0.00989949 0.04450000 -0.00989949
v -0.00989949 0.03850000 -0.00989949
v -0.00888151 0.04450000 -0.01082215
v -0.00888151 0.03850000 -0.01082215
v -0.00777798 0.04450000 -0.01164057
v -0.00777798 0.03850000 -0.01164057
v -0.00659955 0.04450000 -0.01234690
v -0.00659955 0.03850000 -0.01234690
v -0.00535757 0.04450000 -0.01293431
v -0.00535757 0.03850000 -0.01293431
v -0.00406399 0.04450000 -0.01339716
v -0.00406399 0.03850000 -0.01339716
v -0.00273126 0.04450000 -0.01373099
v -0.00273126 0.03850000 -0.01373099
v -0.00137224 0.04450000 -0.01393259
v -0.00137224 0.03850000 -0.01393259
v -0.00000000 0.04450000 -0.01400000
v -0.00000000 0.03850000 -0.01400000
v 0.00137224 0.04450000 -0.01393259
v 0.00137224 0.03850000 -0.01393259
v 0.00273126 0.04450000 -0.01373099
v 0.00273126 0.03850000 -0.01373099
v 0.00406399 0.04450000 -0.01339716
v 0.00406399 0.03850000 -0.01339716
v 0.00535757 0.04450000 -0.01293431
v 0.00535757 0.03850000 -0.01293431
v 0.00659955 0.04450000 -0.01234690
v 0.00659955 0.03850000 -0.01234690
v 0.00777798 0.04450000 -0.01164057
v 0.00777798 0.03850000 -0.01164057
v 0.00888151 0.04450000 -0.01082215
v 0.00888151 0.03850000 -0.01082215
v 0.00989949 0.04450000 -0.00989949
v 0.00989949 0.03850000 -0.00989949
v 0.01082215 0.04450000 -0.00888151
v 0.01082215 0.03850000 -0.00888151
v 0.01164057 0.04450000 -0.00777798
v 0.01164057 0.03850000 -0.00777798
v 0.01234690 0.04450000 -0.00659955
v 0.01234690 0.03850000 -0.00659955
v 0.01293431 0.04450000 -0.00535757
v 0.01293431 0.03850000 -0.00535757
v 0.01339716 0.04450000 -0.00406399
v 0.01339716 0.03850000 -0.00406399
v 0.01373099 0.04450000 -0.00273126
v 0.01373099 0.03850000 -0.00273126
v 0.01393259 0.04450000 -0.00137224
v 0.01393259 0.03850000 -0.00137224
v 0.02300000 0.04500000 -0.00000000
v 0.02580000 0.04500000 -0.00000000
v 0.02580000 0.04300000 0.00000000
v 0.02300000 0.04300000 0.00000000
v 0.02566296 0.04500000 0.00086525
v 0.02566296 0.04300000 0.00086525
v 0.02526525 0.04500000 0.00164580
v 0.02526525 0.04300000 0.00164580
v 0.02464580 0.04500000 0.00226525
v 0.02464580 0.04300000 0.00226525
v 0.02386525 0.04500000 0.00266296
v 0.02386525 0.04300000 0.00266296
v 0.02300000 0.04500000 0.00280000
v 0.02300000 0.04300000 0.00280000
v 0.02213475 0.04500000 0.00266296
v 0.02213475 0.04300000 0.00266296
v 0.02135420 0.04500000 0.00226525
v 0.02135420 0.04300000 0.00226525
v 0.02073475 0.04500000 0.00164580
v 0.02073475 0.04300000 0.00164580
v 0.02033704 0.04500000 0.00086525
v 0.02033704 0.04300000 0.00086525
v 0.02020000 0.04500000 0.00000000
v 0.02020000 0.04300000 0.00000000
v 0.02033704 0.04500000 -0.00086525
v 0.02033704 0.04300000 -0.00086525
v 0.02073475 0.04500000 -0.00164580
v 0.02073475 0.04300000 -0.00164580
v 0.02135420 0.04500000 -0.00226525
v 0.02135420 0.04300000 -0.00226525
v 0.02213475 0.04500000 -0.00266296
v 0.02213475 0.04300000 -0.00266296
v 0.02300000 0.04500000 -0.00280000
v 0.02300000 0.04300000 -0.00280000
v 0.02386525 0.04500000 -0.00266296
v 0.02386525 0.04300000 -0.00266296
v 0.02464580 0.04500000 -0.00226525
v 0.02464580 0.04300000 -0.00226525
v 0.02526525 0.04500000 -0.00164580
v 0.02526525 0.04300000 -0.00164580
v 0.02566296 0.04500000 -0.00086525
v 0.02566296 0.04300000 -0.00086525
v 0.01150000 0.04500000 0.01991858
v 0.01430000 0.04500000 0.01991858
v 0.01430000 0.04300000 0.01991858
v 0.01150000 0.04300000 0.01991858
v 0.01416296 0.04500000 0.02078383
v 0.01416296 0.04300000 0.02078383
v 0.01376525 0.04500000 0.02156438
v 0.01376525 0.04300000 0.02156438
v 0.01314580 0.04500000 0.02218383
v 0.01314580 0.04300000 0.02218383
v 0.01236525 0.04500000 0.02258154
v 0.01236525 0.04300000 0.02258154
v 0.01150000 0.04500000 0.02271858
v 0.01150000 0.04300000 0.02271858
v 0.01063475 0.04500000 0.02258154
v 0.01063475 0.04300000 0.02258154
v 0.00985420 0.04500000 0.02218383
v 0.00985420 0.04300000 0.02218383
v 0.00923475 0.04500000 0.02156438
v 0.00923475 0.04300000 0.02156438
v 0.00883704 0.04500000 0.02078383
v 0.00883704 0.04300000 0.02078383
v 0.00870000 0.04500000 0.01991858
v 0.00870000 0.04300000 0.01991858
v 0.00883704 0.04500000 0.01905334
v 0.00883704 0.04300000 0.01905334
v 0.00923475 0.04500000 0.01827279
v 0.00923475 0.04300000 0.01827279
v 0.00985420 0.04500000 0.01765334
v 0.00985420 0.04300000 0.01765334
v 0.01063475 0.04500000 0.01725563
v 0.01063475 0.04300000 0.01725563
v 0.01150000 0.04500000 0.01711858
v 0.01150000 0.04300000 0.01711858
v 0.01236525 0.04500000 0.01725563
v 0.01236525 0.04300000 0.01725563
v 0.01314580 0.04500000 0.01765334
v 0.01314580 0.04300000 0.01765334
v 0.01376525 0.04500000 0.01827279
v 0.01376525 0.04300000 0.01827279
v 0.01416296 0.04500000 0.01905334
v 0.01416296 0.04300000 0.01905334
v -0.01150000 0.04500000 0.01991858
v -0.00870000 0.04500000 0.01991858
v -0.00870000 0.04300000 0.01991858
v -0.01150000 0.04300000 0.01991858
v -0.00883704 0.04500000 0.02078383
v -0.00883704 0.04300000 0.02078383
v -0.00923475 0.04500000 0.02156438
v -0.00923475 0.04300000 0.02156438
v -0.00985420 0.04500000 0.02218383
v -0.00985420 0.04300000 0.02218383
v -0.01063475 0.04500000 0.02258154
v -0.01063475 0.04300000 0.02258154
v -0.01150000 0.04500000 0.02271858
v -0.01150000 0.04300000 0.02271858
v -0.01236525 0.04500000 0.02258154
v -0.01236525 0.04300000 0.02258154
v -0.01314580 0.04500000 0.02218383
v -0.01314580 0.04300000 0.02218383
v -0.01376525 0.04500000 0.02156438
v -0.01376525 0.04300000 0.02156438
v -0.01416296 0.04500000 0.02078383
v -0.01416296 0.04300000 0.02078383
v -0.01430000 0.04500000 0.01991858
v -0.01430000 0.04300000 0.01991858
v -0.01416296 0.04500000 0.01905334
v -0.01416296 0.04300000 0.01905334
v -0.01376525 0.04500000 0.01827279
v -0.01376525 0.04300000 0.01827279
v -0.01314580 0.04500000 0.01765334
v -0.01314580 0.04300000 0.01765334
v -0.01236525 0.04500000 0.01725563
v -0.01236525 0.04300000 0.01725563
v -0.01150000 0.04500000 0.01711858
v -0.01150000 0.04300000 0.01711858
v -0.01063475 0.04500000 0.01725563
v -0.01063475 0.04300000 0.01725563
v -0.00985420 0.04500000 0.01765334
v -0.00985420 0.04300000 0.01765334
v -0.00923475 0.04500000 0.01827279
v -0.00923475 0.04300000 0.01827279
v -0.00883704 0.04500000 0.01905334
v -0.00883704 0.04300000 0.01905334
v -0.02300000 0.04500000 0.00000000
v -0.02020000 0.04500000 0.00000000
v -0.02020000 0.04300000 0.00000000
v -0.02300000 0.04300000 0.00000000
v -0.02033704 0.04500000 0.00086525
v -0.02033704 0.04300000 0.00086525
v -0.02073475 0.04500000 0.00164580
v -0.02073475 0.04300000 0.00164580
v -0.02135420 0.04500000 0.00226525
v -0.02135420 0.04300000 0.00226525
v -0.02213475 0.04500000 0.00266296
v -0.02213475 0.04300000 0.00266296
v -0.02300000 0.04500000 0.00280000
v -0.02300000 0.04300000 0.00280000
v -0.02386525 0.04500000 0.00266296
v -0.02386525 0.04300000 0.00266296
v -0.02464580 0.04500000 0.00226525
v -0.02464580 0.04300000 0.00226525
v -0.02526525 0.04500000 0.00164580
v -0.02526525 0.04300000 0.00164580
v -0.02566296 0.04500000 0.00086525
v -0.02566296 0.04300000 0.00086525
v -0.02580000 0.04500000 0.00000000
v -0.02580000 0.04300000 0.00000000
v -0.02566296 0.04500000 -0.00086525
v -0.02566296 0.04300000 -0.00086525
v -0.02526525 0.04500000 -0.00164580
v -0.02526525 0.04300000 -0.00164580
v -0.02464580 0.04500000 -0.00226525
v -0.02464580 0.04300000 -0.00226525
v -0.02386525 0.04500000 -0.00266296
v -0.02386525 0.04300000 -0.00266296
v -0.02300000 0.04500000 -0.00280000
v -0.02300000 0.04300000 -0.00280000
v -0.02213475 0.04500000 -0.00266296
v -0.02213475 0.04300000 -0.00266296
v -0.02135420 0.04500000 -0.00226525
v -0.02135420 0.04300000 -0.00226525
v -0.02073475 0.04500000 -0.00164580
v -0.02073475 0.04300000 -0.00164580
v -0.02033704 0.04500000 -0.00086525
v -0.02033704 0.04300000 -0.00086525
v -0.01150000 0.04500000 -0.01991858
v -0.00870000 0.04500000 -0.01991858
v -0.00870000 0.04300000 -0.01991858
v -0.01150000 0.04300000 -0.01991858
v -0.00883704 0.04500000 -0.01905334
v -0.00883704 0.04300000 -0.01905334
v -0.00923475 0.04500000 -0.01827279
v -0.00923475 0.04300000 -0.01827279
v -0.00985420 0.04500000 -0.01765334
v -0.00985420 0.04300000 -0.01765334
v -0.01063475 0.04500000 -0.01725563
v -0.01063475 0.04300000 -0.01725563
v -0.01150000 0.04500000 -0.01711858
v -0.01150000 0.04300000 -0.01711858
v -0.01236525 0.04500000 -0.01725563
v -0.01236525 0.04300000 -0.01725563
v -0.01314580 0.04500000 -0.01765334
v -0.01314580 0.04300000 -0.01765334
v -0.01376525 0.04500000 -0.01827279
v -0.01376525 0.04300000 -0.01827279
v -0.01416296 0.04500000 -0.01905334
v -0.01416296 0.04300000 -0.01905334
v -0.01430000 0.04500000 -0.01991858
v -0.01430000 0.04300000 -0.01991858
v -0.01416296 0.04500000 -0.02078383
v -0.01416296 0.04300000 -0.02078383
v -0.01376525 0.04500000 -0.02156438
v -0.01376525 0.04300000 -0.02156438
v -0.01314580 0.04500000 -0.02218383
v -0.01314580 0.04300000 -0.02218383
v -0.01236525 0.04500000 -0.02258154
v -0.01236525 0.04300000 -0.02258154
v -0.01150000 0.04500000 -0.02271858
v -0.01150000 0.04300000 -0.02271858
v -0.01063475 0.04500000 -0.02258154
v -0.01063475 0.04300000 -0.02258154
v -0.00985420 0.04500000 -0.02218383
v -0.00985420 0.04300000 -0.02218383
v -0.00923475 0.04500000 -0.02156438
v -0.00923475 0.04300000 -0.02156438
v -0.00883704 0.04500000 -0.02078383
v -0.00883704 0.04300000 -0.02078383
v 0.01150000 0.04500000 -0.01991858
v 0.01430000 0.04500000 -0.01991858
v 0.01430000 0.04300000 -0.01991858
v 0.01150000 0.04300000 -0.01991858
v 0.01416296 0.04500000 -0.01905334
v 0.01416296 0.04300000 -0.01905334
v 0.01376525 0.04500000 -0.01827279
v 0.01376525 0.04300000 -0.01827279
v 0.01314580 0.04500000 -0.01765334
v 0.01314580 0.04300000 -0.01765334
v 0.01236525 0.04500000 -0.01725563
v 0.01236525 0.04300000 -0.01725563
v 0.01150000 0.04500000 -0.01711858
v 0.01150000 0.04300000 -0.01711858
v 0.01063475 0.04500000 -0.01725563
v 0.01063475 0.04300000 -0.01725563
v 0.00985420 0.04500000 -0.01765334
v 0.00985420 0.04300000 -0.01765334
v 0.00923475 0.04500000 -0.01827279
v 0.00923475 0.04300000 -0.01827279
v 0.00883704 0.04500000 -0.01905334
v 0.00883704 0.04300000 -0.01905334
v 0.00870000 0.04500000 -0.01991858
v 0.00870000 0.04300000 -0.01991858
v 0.00883704 0.04500000 -0.02078383
v 0.00883704 0.04300000 -0.02078383
v 0.00923475 0.04500000 -0.02156438
v 0.00923475 0.04300000 -0.02156438
v 0.00985420 0.04500000 -0.02218383
v 0.00985420 0.04300000 -0.02218383
v 0.01063475 0.04500000 -0.02258154
v 0.01063475 0.04300000 -0.02258154
v 0.01150000 0.04500000 -0.02271858
v 0.01150000 0.04300000 -0.02271858
v 0.01236525 0.04500000 -0.02258154
v 0.01236525 0.04300000 -0.02258154
v 0.01314580 0.04500000 -0.02218383
v 0.01314580 0.04300000 -0.02218383
v 0.01376525 0.04500000 -0.02156438
v 0.01376525 0.04300000 -0.02156438
v 0.01416296 0.04500000 -0.02078383
v 0.01416296 0.04300000 -0.02078383
vn 0.00000000 1.00000000 -0.00000000
vn 0.71782099 0.69622772 -0.00000000
vn 0.71782099 -0.69622772 -0.00000000
vn -0.00000000 -1.00000000 0.00000000
vn 0.71436448 0.69622772 0.07035876
vn 0.71436448 -0.69622772 0.07035876
vn 0.70402826 0.69622772 0.14003993
vn 0.70402826 -0.69622772 0.14003993
vn 0.68691185 0.69622772 0.20837243
vn 0.68691185 -0.69622772 0.20837243
vn 0.66318012 0.69622772 0.27469820
vn 0.66318012 -0.69622772 0.27469820
vn 0.63306159 0.69622772 0.33837847
vn 0.63306159 -0.69622772 0.33837847
vn 0.59684634 0.69622772 0.39879997
vn 0.59684634 -0.69622772 0.39879997
vn 0.55488313 0.69622772 0.45538081
vn 0.55488313 -0.69622772 0.45538081
vn 0.50757609 0.69622772 0.50757609
vn 0.50757609 -0.69622772 0.50757609
vn 0.45538081 0.69622772 0.55488313
vn 0.45538081 -0.69622772 0.55488313
vn 0.39879997 0.69622772 0.59684634
vn 0.39879997 -0.69622772 0.59684634
vn 0.33837847 0.69622772 0.63306159
vn 0.33837847 -0.69622772 0.63306159
vn 0.27469820 0.69622772 0.66318012
vn 0.27469820 -0.69622772 0.66318012
vn 0.20837243 0.69622772 0.68691185
vn 0.20837243 -0.69622772 0.68691185
vn 0.14003993 0.69622772 0.70402826
vn 0.14003993 -0.69622772 0.70402826
vn 0.07035876 0.69622772 0.71436448
vn 0.07035876 -0.69622772 0.71436448
vn 0.00000000 0.69622772 0.71782099
vn 0.00000000 -0.69622772 0.71782099
vn -0.07035876 0.69622772 0.71436448
vn -0.07035876 -0.69622772 0.71436448
vn -0.14003993 0.69622772 0.70402826
vn -0.14003993 -0.69622772 0.70402826
vn -0.20837243 0.69622772 0.68691185
vn -0.20837243 -0.69622772 0.68691185
vn -0.27469820 0.69622772 0.66318012
vn -0.27469820 -0.69622772 0.66318012
vn -0.33837847 0.69622772 0.63306159
vn -0.33837847 -0.69622772 0.63306159
vn -0.39879997 0.69622772 0.59684634
vn -0.39879997 -0.69622772 0.59684634
vn -0.45538081 0.69622772 0.55488313
vn -0.45538081 -0.69622772 0.55488313
vn -0.50757609 0.69622772 0.50757609
vn -0.50757609 -0.69622772 0.50757609
vn -0.55488313 0.69622772 0.45538081
vn -0.55488313 -0.69622772 0.45538081
vn -0.59684634 0.69622772 0.39879997
vn -0.59684634 -0.69622772 0.39879997
vn -0.63306159 0.69622772 0.33837847
vn -0.63306159 -0.69622772 0.33837847
vn -0.66318012 0.69622772 0.27469820
vn -0.66318012 -0.69622772 0.27469820
vn -0.68691185 0.69622772 0.20837243
vn -0.68691185 -0.69622772 0.20837243
vn -0.70402826 0.69622772 0.14003993
vn -0.70402826 -0.69622772 0.14003993
vn -0.71436448 0.69622772 0.07035876
vn -0.71436448 -0.69622772 0.07035876
vn -0.71782099 0.69622772 0.00000000
vn -0.71782099 -0.69622772 0.00000000
vn -0.71436448 0.69622772 -0.07035876
vn -0.71436448 -0.69622772 -0.07035876
vn -0.70402826 0.69622772 -0.14003993
vn -0.70402826 -0.69622772 -0.14003993
vn -0.68691185 0.69622772 -0.20837243
vn -0.68691185 -0.69622772 -0.20837243
vn -0.66318012 0.69622772 -0.27469820
vn -0.66318012 -0.69622772 -0.27469820
vn -0.63306159 0.69622772 -0.33837847
vn -0.63306159 -0.69622772 -0.33837847
vn -0.59684634 0.69622772 -0.39879997
vn -0.59684634 -0.69622772 -0.39879997
vn -0.55488313 0.69622772 -0.45538081
vn -0.55488313 -0.69622772 -0.45538081
vn -0.50757609 0.69622772 -0.50757609
vn -0.50757609 -0.69622772 -0.50757609
vn -0.45538081 0.69622772 -0.55488313
vn -0.45538081 -0.69622772 -0.55488313
vn -0.39879997 0.69622772 -0.59684634
vn -0.39879997 -0.69622772 -0.59684634
vn -0.33837847 0.69622772 -0.63306159
vn -0.33837847 -0.69622772 -0.63306159
vn -0.27469820 0.69622772 -0.66318012
vn -0.27469820 -0.69622772 -0.66318012
vn -0.20837243 0.69622772 -0.68691185
vn -0.20837243 -0.69622772 -0.68691185
vn -0.14003993 0.69622772 -0.70402826
vn -0.14003993 -0.69622772 -0.70402826
vn -0.07035876 0.69622772 -0.71436448
vn -0.07035876 -0.69622772 -0.71436448
vn 0.00000000 0.69622772 -0.71782099
vn -0.00000000 -0.69622772 -0.71782099
vn 0.07035876 0.69622772 -0.71436448
vn 0.07035876 -0.69622772 -0.71436448
vn 0.14003993 0.69622772 -0.70402826
vn 0.14003993 -0.69622772 -0.70402826
vn 0.20837243 0.69622772 -0.68691185
vn 0.20837243 -0.69622772 -0.68691185
vn 0.27469820 0.69622772 -0.66318012
vn 0.27469820 -0.69622772 -0.66318012
vn 0.33837847 0.69622772 -0.63306159
vn 0.33837847 -0.69622772 -0.63306159
vn 0.39879997 0.69622772 -0.59684634
vn 0.39879997 -0.69622772 -0.59684634
vn 0.45538081 0.69622772 -0.55488313
vn 0.45538081 -0.69622772 -0.55488313
vn 0.50757609 0.69622772 -0.50757609
vn 0.50757609 -0.69622772 -0.50757609
vn 0.55488313 0.69622772 -0.45538081
vn 0.55488313 -0.69622772 -0.45538081
vn 0.59684634 0.69622772 -0.39879997
vn 0.59684634 -0.69622772 -0.39879997
vn 0.63306159 0.69622772 -0.33837847
vn 0.63306159 -0.69622772 -0.33837847
vn 0.66318012 0.69622772 -0.27469820
vn 0.66318012 -0.69622772 -0.27469820
vn 0.68691185 0.69622772 -0.20837243
vn 0.68691185 -0.69622772 -0.20837243
vn 0.70402826 0.69622772 -0.14003993
vn 0.70402826 -0.69622772 -0.14003993
vn 0.71436448 0.69622772 -0.07035876
vn 0.71436448 -0.69622772 -0.07035876
vn 0.00000000 1.00000000 0.00000000
vn 0.73915678 0.67353341 0.00000000
vn 0.73915678 -0.67353341 0.00000000
vn 0.00000000 -1.00000000 0.00000000
vn 0.70297987 0.67353341 0.22841201
vn 0.70297987 -0.67353341 0.22841201
vn 0.59799039 0.67353341 0.43446545
vn 0.59799039 -0.67353341 0.43446545
vn 0.43446545 0.67353341 0.59799039
vn 0.43446545 -0.67353341 0.59799039
vn 0.22841201 0.67353341 0.70297987
vn 0.22841201 -0.67353341 0.70297987
vn 0.00000000 0.67353341 0.73915678
vn 0.00000000 -0.67353341 0.73915678
vn -0.22841201 0.67353341 0.70297987
vn -0.22841201 -0.67353341 0.70297987
vn -0.43446545 0.67353341 0.59799039
vn -0.43446545 -0.67353341 0.59799039
vn -0.59799039 0.67353341 0.43446545
vn -0.59799039 -0.67353341 0.43446545
vn -0.70297987 0.67353341 0.22841201
vn -0.70297987 -0.67353341 0.22841201
vn -0.73915678 0.67353341 0.00000000
vn -0.73915678 -0.67353341 0.00000000
vn -0.70297987 0.67353341 -0.22841201
vn -0.70297987 -0.67353341 -0.22841201
vn -0.59799039 0.67353341 -0.43446545
vn -0.59799039 -0.67353341 -0.43446545
vn -0.43446545 0.67353341 -0.59799039
vn -0.43446545 -0.67353341 -0.59799039
vn -0.22841201 0.67353341 -0.70297987
vn -0.22841201 -0.67353341 -0.70297987
vn -0.00000000 0.67353341 -0.73915678
vn -0.00000000 -0.67353341 -0.73915678
vn 0.22841201 0.67353341 -0.70297987
vn 0.22841201 -0.67353341 -0.70297987
vn 0.43446545 0.67353341 -0.59799039
vn 0.43446545 -0.67353341 -0.59799039
vn 0.59799039 0.67353341 -0.43446545
vn 0.59799039 -0.67353341 -0.43446545
vn 0.70297987 0.67353341 -0.22841201
vn 0.70297987 -0.67353341 -0.22841201
vn 0.00000000 1.00000000 0.00000000
vn 0.73915678 0.67353341 -0.00000000
vn 0.73915678 -0.67353341 0.00000000
vn 0.00000000 -1.00000000 0.00000000
vn 0.70297987 0.67353341 0.22841201
vn 0.70297987 -0.67353341 0.22841201
vn 0.59799039 0.67353341 0.43446545
vn 0.59799039 -0.67353341 0.43446545
vn 0.43446545 0.67353341 0.59799039
vn 0.43446545 -0.67353341 0.59799039
vn 0.22841201 0.67353341 0.70297987
vn 0.22841201 -0.67353341 0.70297987
vn 0.00000000 0.67353341 0.73915678
vn -0.00000000 -0.67353341 0.73915678
vn -0.22841201 0.67353341 0.70297987
vn -0.22841201 -0.67353341 0.70297987
vn -0.43446545 0.67353341 0.59799039
vn -0.43446545 -0.67353341 0.59799039
vn -0.59799039 0.67353341 0.43446545
vn -0.59799039 -0.67353341 0.43446545
vn -0.70297987 0.67353341 0.22841201
vn -0.70297987 -0.67353341 0.22841201
vn -0.73915678 0.67353341 0.00000000
vn -0.73915678 -0.67353341 -0.00000000
vn -0.70297987 0.67353341 -0.22841201
vn -0.70297987 -0.67353341 -0.22841201
vn -0.59799039 0.67353341 -0.43446545
vn -0.59799039 -0.67353341 -0.43446545
vn -0.43446545 0.67353341 -0.59799039
vn -0.43446545 -0.67353341 -0.59799039
vn -0.22841201 0.67353341 -0.70297987
vn -0.22841201 -0.67353341 -0.70297987
vn -0.00000000 0.67353341 -0.73915678
vn 0.00000000 -0.67353341 -0.73915678
vn 0.22841201 0.67353341 -0.70297987
vn 0.22841201 -0.67353341 -0.70297987
vn 0.43446545 0.67353341 -0.59799039
vn 0.43446545 -0.67353341 -0.59799039
vn 0.59799039 0.67353341 -0.43446545
vn 0.59799039 -0.67353341 -0.43446545
vn 0.70297987 0.67353341 -0.22841201
vn 0.70297987 -0.67353341 -0.22841201
vn 0.00000000 1.00000000 0.00000000
vn 0.73915678 0.67353341 -0.00000000
vn 0.73915678 -0.67353341 0.00000000
vn 0.00000000 -1.00000000 0.00000000
vn 0.70297987 0.67353341 0.22841201
vn 0.70297987 -0.67353341 0.22841201
vn 0.59799039 0.67353341 0.43446545
vn 0.59799039 -0.67353341 0.43446545
vn 0.43446545 0.67353341 0.59799039
vn 0.43446545 -0.67353341 0.59799039
vn 0.22841201 0.67353341 0.70297987
vn 0.22841201 -0.67353341 0.70297987
vn 0.00000000 0.67353341 0.73915678
vn -0.00000000 -0.67353341 0.73915678
vn -0.22841201 0.67353341 0.70297987
vn -0.22841201 -0.67353341 0.70297987
vn -0.43446545 0.67353341 0.59799039
vn -0.43446545 -0.67353341 0.59799039
vn -0.59799039 0.67353341 0.43446545
vn -0.59799039 -0.67353341 0.43446545
vn -0.70297987 0.67353341 0.22841201
vn -0.70297987 -0.67353341 0.22841201
vn -0.73915678 0.67353341 0.00000000
vn -0.73915678 -0.67353341 -0.00000000
vn -0.70297987 0.67353341 -0.22841201
vn -0.70297987 -0.67353341 -0.22841201
vn -0.59799039 0.67353341 -0.43446545
vn -0.59799039 -0.67353341 -0.43446545
vn -0.43446545 0.67353341 -0.59799039
vn -0.43446545 -0.67353341 -0.59799039
vn -0.22841201 0.67353341 -0.70297987
vn -0.22841201 -0.67353341 -0.70297987
vn -0.00000000 0.67353341 -0.73915678
vn 0.00000000 -0.67353341 -0.73915678
vn 0.22841201 0.67353341 -0.70297987
vn 0.22841201 -0.67353341 -0.70297987
vn 0.43446545 0.67353341 -0.59799039
vn 0.43446545 -0.67353341 -0.59799039
vn 0.59799039 0.67353341 -0.43446545
vn 0.59799039 -0.67353341 -0.43446545
vn 0.70297987 0.67353341 -0.22841201
vn 0.70297987 -0.67353341 -0.22841201
vn 0.00000000 1.00000000 0.00000000
vn 0.73915678 0.67353341 0.00000000
vn 0.73915678 -0.67353341 0.00000000
vn 0.00000000 -1.00000000 0.00000000
vn 0.70297987 0.67353341 0.22841201
vn 0.70297987 -0.67353341 0.22841201
vn 0.59799039 0.67353341 0.43446545
vn 0.59799039 -0.67353341 0.43446545
vn 0.43446545 0.67353341 0.59799039
vn 0.43446545 -0.67353341 0.59799039
vn 0.22841201 0.67353341 0.70297987
vn 0.22841201 -0.67353341 0.70297987
vn 0.00000000 0.67353341 0.73915678
vn 0.00000000 -0.67353341 0.73915678
vn -0.22841201 0.67353341 0.70297987
vn -0.22841201 -0.67353341 0.70297987
vn -0.43446545 0.67353341 0.59799039
vn -0.43446545 -0.67353341 0.59799039
vn -0.59799039 0.67353341 0.43446545
vn -0.59799039 -0.67353341 0.43446545
vn -0.70297987 0.67353341 0.22841201
vn -0.70297987 -0.67353341 0.22841201
vn -0.73915678 0.67353341 0.00000000
vn -0.73915678 -0.67353341 0.00000000
vn -0.70297987 0.67353341 -0.22841201
vn -0.70297987 -0.67353341 -0.22841201
vn -0.59799039 0.67353341 -0.43446545
vn -0.59799039 -0.67353341 -0.43446545
vn -0.43446545 0.67353341 -0.59799039
vn -0.43446545 -0.67353341 -0.59799039
vn -0.22841201 0.67353341 -0.70297987
vn -0.22841201 -0.67353341 -0.70297987
vn -0.00000000 0.67353341 -0.73915678
vn -0.00000000 -0.67353341 -0.73915678
vn 0.22841201 0.67353341 -0.70297987
vn 0.22841201 -0.67353341 -0.70297987
vn 0.43446545 0.67353341 -0.59799039
vn 0.43446545 -0.67353341 -0.59799039
vn 0.59799039 0.67353341 -0.43446545
vn 0.59799039 -0.67353341 -0.43446545
vn 0.70297987 0.67353341 -0.22841201
vn 0.70297987 -0.67353341 -0.22841201
vn 0.00000000 1.00000000 0.00000000
vn 0.73915678 0.67353341 -0.00000000
vn 0.73915678 -0.67353341 0.00000000
vn 0.00000000 -1.00000000 0.00000000
vn 0.70297987 0.67353341 0.22841201
vn 0.70297987 -0.67353341 0.22841201
vn 0.59799039 0.67353341 0.43446545
vn 0.59799039 -0.67353341 0.43446545
vn 0.43446545 0.67353341 0.59799039
vn 0.43446545 -0.67353341 0.59799039
vn 0.22841201 0.67353341 0.70297987
vn 0.22841201 -0.67353341 0.70297987
vn 0.00000000 0.67353341 0.73915678
vn -0.00000000 -0.67353341 0.73915678
vn -0.22841201 0.67353341 0.70297987
vn -0.22841201 -0.67353341 0.70297987
vn -0.43446545 0.67353341 0.59799039
vn -0.43446545 -0.67353341 0.59799039
vn -0.59799039 0.67353341 0.43446545
vn -0.59799039 -0.67353341 0.43446545
vn -0.70297987 0.67353341 0.22841201
vn -0.70297987 -0.67353341 0.22841201
vn -0.73915678 0.67353341 0.00000000
vn -0.73915678 -0.67353341 0.00000000
vn -0.70297987 0.67353341 -0.22841201
vn -0.70297987 -0.67353341 -0.22841201
vn -0.59799039 0.67353341 -0.43446545
vn -0.59799039 -0.67353341 -0.43446545
vn -0.43446545 0.67353341 -0.59799039
vn -0.43446545 -0.67353341 -0.59799039
vn -0.22841201 0.67353341 -0.70297987
vn -0.22841201 -0.67353341 -0.70297987
vn -0.00000000 0.67353341 -0.73915678
vn 0.00000000 -0.67353341 -0.73915678
vn 0.22841201 0.67353341 -0.70297987
vn 0.22841201 -0.67353341 -0.70297987
vn 0.43446545 0.67353341 -0.59799039
vn 0.43446545 -0.67353341 -0.59799039
vn 0.59799039 0.67353341 -0.43446545
vn 0.59799039 -0.67353341 -0.43446545
vn 0.70297987 0.67353341 -0.22841201
vn 0.70297987 -0.67353341 -0.22841201
vn 0.00000000 1.00000000 0.00000000
vn 0.73915678 0.67353341 -0.00000000
vn 0.73915678 -0.67353341 0.00000000
vn 0.00000000 -1.00000000 0.00000000
vn 0.70297987 0.67353341 0.22841201
vn 0.70297987 -0.67353341 0.22841201
vn 0.59799039 0.67353341 0.43446545
vn 0.59799039 -0.67353341 0.43446545
vn 0.43446545 0.67353341 0.59799039
vn 0.43446545 -0.67353341 0.59799039
vn 0.22841201 0.67353341 0.70297987
vn 0.22841201 -0.67353341 0.70297987
vn 0.00000000 0.67353341 0.73915678
vn -0.00000000 -0.67353341 0.73915678
vn -0.22841201 0.67353341 0.70297987
vn -0.22841201 -0.67353341 0.70297987
vn -0.43446545 0.67353341 0.59799039
vn -0.43446545 -0.67353341 0.59799039
vn -0.59799039 0.67353341 0.43446545
vn -0.59799039 -0.67353341 0.43446545
vn -0.70297987 0.67353341 0.22841201
vn -0.70297987 -0.67353341 0.22841201
vn -0.73915678 0.67353341 0.00000000
vn -0.73915678 -0.67353341 -0.00000000
vn -0.70297987 0.67353341 -0.22841201
vn -0.70297987 -0.67353341 -0.22841201
vn -0.59799039 0.67353341 -0.43446545
vn -0.59799039 -0.67353341 -0.43446545
vn -0.43446545 0.67353341 -0.59799039
vn -0.43446545 -0.67353341 -0.59799039
vn -0.22841201 0.67353341 -0.70297987
vn -0.22841201 -0.67353341 -0.70297987
vn -0.00000000 0.67353341 -0.73915678
vn 0.00000000 -0.67353341 -0.73915678
vn 0.22841201 0.67353341 -0.70297987
vn 0.22841201 -0.67353341 -0.70297987
vn 0.43446545 0.67353341 -0.59799039
vn 0.43446545 -0.67353341 -0.59799039
vn 0.59799039 0.67353341 -0.43446545
vn 0.59799039 -0.67353341 -0.43446545
vn 0.70297987 0.67353341 -0.22841201
vn 0.70297987 -0.67353341 -0.22841201
vn 0.00000000 1.00000000 -0.00000000
vn 0.71782099 0.69622772 -0.00000000
vn 0.71782099 -0.69622772 -0.00000000
vn -0.00000000 -1.00000000 0.00000000
vn 0.71436448 0.69622772 0.07035876
vn 0.71436448 -0.69622772 0.07035876
vn 0.70402826 0.69622772 0.14003993
vn 0.70402826 -0.69622772 0.14003993
vn 0.68691185 0.69622772 0.20837243
vn 0.68691185 -0.69622772 0.20837243
vn 0.66318012 0.69622772 0.27469820
vn 0.66318012 -0.69622772 0.27469820
vn 0.63306159 0.69622772 0.33837847
vn 0.63306159 -0.69622772 0.33837847
vn 0.59684634 0.69622772 0.39879997
vn 0.59684634 -0.69622772 0.39879997
vn 0.55488313 0.69622772 0.45538081
vn 0.55488313 -0.69622772 0.45538081
vn 0.50757609 0.69622772 0.50757609
vn 0.50757609 -0.69622772 0.50757609
vn 0.45538081 0.69622772 0.55488313
vn 0.45538081 -0.69622772 0.55488313
vn 0.39879997 0.69622772 0.59684634
vn 0.39879997 -0.69622772 0.59684634
vn 0.33837847 0.69622772 0.63306159
vn 0.33837847 -0.69622772 0.63306159
vn 0.27469820 0.69622772 0.66318012
vn 0.27469820 -0.69622772 0.66318012
vn 0.20837243 0.69622772 0.68691185
vn 0.20837243 -0.69622772 0.68691185
vn 0.14003993 0.69622772 0.70402826
vn 0.14003993 -0.69622772 0.70402826
vn 0.07035876 0.69622772 0.71436448
vn 0.07035876 -0.69622772 0.71436448
vn 0.00000000 0.69622772 0.71782099
vn 0.00000000 -0.69622772 0.71782099
vn -0.07035876 0.69622772 0.71436448
vn -0.07035876 -0.69622772 0.71436448
vn -0.14003993 0.69622772 0.70402826
vn -0.14003993 -0.69622772 0.70402826
vn -0.20837243 0.69622772 0.68691185
vn -0.20837243 -0.69622772 0.68691185
vn -0.27469820 0.69622772 0.66318012
vn -0.27469820 -0.69622772 0.66318012
vn -0.33837847 0.69622772 0.63306159
vn -0.33837847 -0.69622772 0.63306159
vn -0.39879997 0.69622772 0.59684634
vn -0.39879997 -0.69622772 0.59684634
vn -0.45538081 0.69622772 0.55488313
vn -0.45538081 -0.69622772 0.55488313
vn -0.50757609 0.69622772 0.50757609
vn -0.50757609 -0.69622772 0.50757609
vn -0.55488313 0.69622772 0.45538081
vn -0.55488313 -0.69622772 0.45538081
vn -0.59684634 0.69622772 0.39879997
vn -0.59684634 -0.69622772 0.39879997
vn -0.63306159 0.69622772 0.33837847
vn -0.63306159 -0.69622772 0.33837847
vn -0.66318012 0.69622772 0.27469820
vn -0.66318012 -0.69622772 0.27469820
vn -0.68691185 0.69622772 0.20837243
vn -0.68691185 -0.69622772 0.20837243
vn -0.70402826 0.69622772 0.14003993
vn -0.70402826 -0.69622772 0.14003993
vn -0.71436448 0.69622772 0.07035876
vn -0.71436448 -0.69622772 0.07035876
vn -0.71782099 0.69622772 0.00000000
vn -0.71782099 -0.69622772 0.00000000
vn -0.71436448 0.69622772 -0.07035876
vn -0.71436448 -0.69622772 -0.07035876
vn -0.70402826 0.69622772 -0.14003993
vn -0.70402826 -0.69622772 -0.14003993
vn -0.68691185 0.69622772 -0.20837243
vn -0.68691185 -0.69622772 -0.20837243
vn -0.66318012 0.69622772 -0.27469820
vn -0.66318012 -0.69622772 -0.27469820
vn -0.63306159 0.69622772 -0.33837847
vn -0.63306159 -0.69622772 -0.33837847
vn -0.59684634 0.69622772 -0.39879997
vn -0.59684634 -0.69622772 -0.39879997
vn -0.55488313 0.69622772 -0.45538081
vn -0.55488313 -0.69622772 -0.45538081
vn -0.50757609 0.69622772 -0.50757609
vn -0.50757609 -0.69622772 -0.50757609
vn -0.45538081 0.69622772 -0.55488313
vn -0.45538081 -0.69622772 -0.55488313
vn -0.39879997 0.69622772 -0.59684634
vn -0.39879997 -0.69622772 -0.59684634
vn -0.33837847 0.69622772 -0.63306159
vn -0.33837847 -0.69622772 -0.63306159
vn -0.27469820 0.69622772 -0.66318012
vn -0.27469820 -0.69622772 -0.66318012
vn -0.20837243 0.69622772 -0.68691185
vn -0.20837243 -0.69622772 -0.68691185
vn -0.14003993 0.69622772 -0.70402826
vn -0.14003993 -0.69622772 -0.70402826
vn -0.07035876 0.69622772 -0.71436448
vn -0.07035876 -0.69622772 -0.71436448
vn 0.00000000 0.69622772 -0.71782099
vn -0.00000000 -0.69622772 -0.71782099
vn 0.07035876 0.69622772 -0.71436448
vn 0.07035876 -0.69622772 -0.71436448
vn 0.14003993 0.69622772 -0.70402826
vn 0.14003993 -0.69622772 -0.70402826
vn 0.20837243 0.69622772 -0.68691185
vn 0.20837243 -0.69622772 -0.68691185
vn 0.27469820 0.69622772 -0.66318012
vn 0.27469820 -0.69622772 -0.66318012
vn 0.33837847 0.69622772 -0.63306159
vn 0.33837847 -0.69622772 -0.63306159
vn 0.39879997 0.69622772 -0.59684634
vn 0.39879997 -0.69622772 -0.59684634
vn 0.45538081 0.69622772 -0.55488313
vn 0.45538081 -0.69622772 -0.55488313
vn 0.50757609 0.69622772 -0.50757609
vn 0.50757609 -0.69622772 -0.50757609
vn 0.55488313 0.69622772 -0.45538081
vn 0.55488313 -0.69622772 -0.45538081
vn 0.59684634 0.69622772 -0.39879997
vn 0.59684634 -0.69622772 -0.39879997
vn 0.63306159 0.69622772 -0.33837847
vn 0.63306159 -0.69622772 -0.33837847
vn 0.66318012 0.69622772 -0.27469820
vn 0.66318012 -0.69622772 -0.27469820
vn 0.68691185 0.69622772 -0.20837243
vn 0.68691185 -0.69622772 -0.20837243
vn 0.70402826 0.69622772 -0.14003993
vn 0.70402826 -0.69622772 -0.14003993
vn 0.71436448 0.69622772 -0.07035876
vn 0.71436448 -0.69622772 -0.07035876
vn 0.00000000 1.00000000 0.00000000
vn 0.73915678 0.67353341 0.00000000
vn 0.73915678 -0.67353341 0.00000000
vn 0.00000000 -1.00000000 0.00000000
vn 0.70297987 0.67353341 0.22841201
vn 0.70297987 -0.67353341 0.22841201
vn 0.59799039 0.67353341 0.43446545
vn 0.59799039 -0.67353341 0.43446545
vn 0.43446545 0.67353341 0.59799039
vn 0.43446545 -0.67353341 0.59799039
vn 0.22841201 0.67353341 0.70297987
vn 0.22841201 -0.67353341 0.70297987
vn 0.00000000 0.67353341 0.73915678
vn 0.00000000 -0.67353341 0.73915678
vn -0.22841201 0.67353341 0.70297987
vn -0.22841201 -0.67353341 0.70297987
vn -0.43446545 0.67353341 0.59799039
vn -0.43446545 -0.67353341 0.59799039
vn -0.59799039 0.67353341 0.43446545
vn -0.59799039 -0.67353341 0.43446545
vn -0.70297987 0.67353341 0.22841201
vn -0.70297987 -0.67353341 0.22841201
vn -0.73915678 0.67353341 0.00000000
vn -0.73915678 -0.67353341 0.00000000
vn -0.70297987 0.67353341 -0.22841201
vn -0.70297987 -0.67353341 -0.22841201
vn -0.59799039 0.67353341 -0.43446545
vn -0.59799039 -0.67353341 -0.43446545
vn -0.43446545 0.67353341 -0.59799039
vn -0.43446545 -0.67353341 -0.59799039
vn -0.22841201 0.67353341 -0.70297987
vn -0.22841201 -0.67353341 -0.70297987
vn -0.00000000 0.67353341 -0.73915678
vn -0.00000000 -0.67353341 -0.73915678
vn 0.22841201 0.67353341 -0.70297987
vn 0.22841201 -0.67353341 -0.70297987
vn 0.43446545 0.67353341 -0.59799039
vn 0.43446545 -0.67353341 -0.59799039
vn 0.59799039 0.67353341 -0.43446545
vn 0.59799039 -0.67353341 -0.43446545
vn 0.70297987 0.67353341 -0.22841201
vn 0.70297987 -0.67353341 -0.22841201
vn 0.00000000 1.00000000 0.00000000
vn 0.73915678 0.67353341 -0.00000000
vn 0.73915678 -0.67353341 0.00000000
vn 0.00000000 -1.00000000 0.00000000
vn 0.70297987 0.67353341 0.22841201
vn 0.70297987 -0.67353341 0.22841201
vn 0.59799039 0.67353341 0.43446545
vn 0.59799039 -0.67353341 0.43446545
vn 0.43446545 0.67353341 0.59799039
vn 0.43446545 -0.67353341 0.59799039
vn 0.22841201 0.67353341 0.70297987
vn 0.22841201 -0.67353341 0.70297987
vn 0.00000000 0.67353341 0.73915678
vn -0.00000000 -0.67353341 0.73915678
vn -0.22841201 0.67353341 0.70297987
vn -0.22841201 -0.67353341 0.70297987
vn -0.43446545 0.67353341 0.59799039
vn -0.43446545 -0.67353341 0.59799039
vn -0.59799039 0.67353341 0.43446545
vn -0.59799039 -0.67353341 0.43446545
vn -0.70297987 0.67353341 0.22841201
vn -0.70297987 -0.67353341 0.22841201
vn -0.73915678 0.67353341 0.00000000
vn -0.73915678 -0.67353341 -0.00000000
vn -0.70297987 0.67353341 -0.22841201
vn -0.70297987 -0.67353341 -0.22841201
vn -0.59799039 0.67353341 -0.43446545
vn -0.59799039 -0.67353341 -0.43446545
vn -0.43446545 0.67353341 -0.59799039
vn -0.43446545 -0.67353341 -0.59799039
vn -0.22841201 0.67353341 -0.70297987
vn -0.22841201 -0.67353341 -0.70297987
vn -0.00000000 0.67353341 -0.73915678
vn 0.00000000 -0.67353341 -0.73915678
vn 0.22841201 0.67353341 -0.70297987
vn 0.22841201 -0.67353341 -0.70297987
vn 0.43446545 0.67353341 -0.59799039
vn 0.43446545 -0.67353341 -0.59799039
vn 0.59799039 0.67353341 -0.43446545
vn 0.59799039 -0.67353341 -0.43446545
vn 0.70297987 0.67353341 -0.22841201
vn 0.70297987 -0.67353341 -0.22841201
vn 0.00000000 1.00000000 0.00000000
vn 0.73915678 0.67353341 -0.00000000
vn 0.73915678 -0.67353341 0.00000000
vn 0.00000000 -1.00000000 0.00000000
vn 0.70297987 0.67353341 0.22841201
vn 0.70297987 -0.67353341 0.22841201
vn 0.59799039 0.67353341 0.43446545
vn 0.59799039 -0.67353341 0.43446545
vn 0.43446545 0.67353341 0.59799039
vn 0.43446545 -0.67353341 0.59799039
vn 0.22841201 0.67353341 0.70297987
vn 0.22841201 -0.67353341 0.70297987
vn 0.00000000 0.67353341 0.73915678
vn -0.00000000 -0.67353341 0.73915678
vn -0.22841201 0.67353341 0.70297987
vn -0.22841201 -0.67353341 0.70297987
vn -0.43446545 0.67353341 0.59799039
vn -0.43446545 -0.67353341 0.59799039
vn -0.59799039 0.67353341 0.43446545
vn -0.59799039 -0.67353341 0.43446545
vn -0.70297987 0.67353341 0.22841201
vn -0.70297987 -0.67353341 0.22841201
vn -0.73915678 0.67353341 0.00000000
vn -0.73915678 -0.67353341 -0.00000000
vn -0.70297987 0.67353341 -0.22841201
vn -0.70297987 -0.67353341 -0.22841201
vn -0.59799039 0.67353341 -0.43446545
vn -0.59799039 -0.67353341 -0.43446545
vn -0.43446545 0.67353341 -0.59799039
vn -0.43446545 -0.67353341 -0.59799039
vn -0.22841201 0.67353341 -0.70297987
vn -0.22841201 -0.67353341 -0.70297987
vn -0.00000000 0.67353341 -0.73915678
vn 0.00000000 -0.67353341 -0.73915678
vn 0.22841201 0.67353341 -0.70297987
vn 0.22841201 -0.67353341 -0.70297987
vn 0.43446545 0.67353341 -0.59799039
vn 0.43446545 -0.67353341 -0.59799039
vn 0.59799039 0.67353341 -0.43446545
vn 0.59799039 -0.67353341 -0.43446545
vn 0.70297987 0.67353341 -0.22841201
vn 0.70297987 -0.67353341 -0.22841201
vn 0.00000000 1.00000000 0.00000000
vn 0.73915678 0.67353341 0.00000000
vn 0.73915678 -0.67353341 0.00000000
vn 0.00000000 -1.00000000 0.00000000
vn 0.70297987 0.67353341 0.22841201
vn 0.70297987 -0.67353341 0.22841201
vn 0.59799039 0.67353341 0.43446545
vn 0.59799039 -0.67353341 0.43446545
vn 0.43446545 0.67353341 0.59799039
vn 0.43446545 -0.67353341 0.59799039
vn 0.22841201 0.67353341 0.70297987
vn 0.22841201 -0.67353341 0.70297987
vn 0.00000000 0.67353341 0.73915678
vn 0.00000000 -0.67353341 0.73915678
vn -0.22841201 0.67353341 0.70297987
vn -0.22841201 -0.67353341 0.70297987
vn -0.43446545 0.67353341 0.59799039
vn -0.43446545 -0.67353341 0.59799039
vn -0.59799039 0.67353341 0.43446545
vn -0.59799039 -0.67353341 0.43446545
vn -0.70297987 0.67353341 0.22841201
vn -0.70297987 -0.67353341 0.22841201
vn -0.73915678 0.67353341 0.00000000
vn -0.73915678 -0.67353341 0.00000000
vn -0.70297987 0.67353341 -0.22841201
vn -0.70297987 -0.67353341 -0.22841201
vn -0.59799039 0.67353341 -0.43446545
vn -0.59799039 -0.67353341 -0.43446545
vn -0.43446545 0.67353341 -0.59799039
vn -0.43446545 -0.67353341 -0.59799039
vn -0.22841201 0.67353341 -0.70297987
vn -0.22841201 -0.67353341 -0.70297987
vn -0.00000000 0.67353341 -0.73915678
vn -0.00000000 -0.67353341 -0.73915678
vn 0.22841201 0.67353341 -0.70297987
vn 0.22841201 -0.67353341 -0.70297987
vn 0.43446545 0.67353341 -0.59799039
vn 0.43446545 -0.67353341 -0.59799039
vn 0.59799039 0.67353341 -0.43446545
vn 0.59799039 -0.67353341 -0.43446545
vn 0.70297987 0.67353341 -0.22841201
vn 0.70297987 -0.67353341 -0.22841201
vn 0.00000000 1.00000000 0.00000000
vn 0.73915678 0.67353341 -0.00000000
vn 0.73915678 -0.67353341 0.00000000
vn 0.00000000 -1.00000000 0.00000000
vn 0.70297987 0.67353341 0.22841201
vn 0.70297987 -0.67353341 0.22841201
vn 0.59799039 0.67353341 0.43446545
vn 0.59799039 -0.67353341 0.43446545
vn 0.43446545 0.67353341 0.59799039
vn 0.43446545 -0.67353341 0.59799039
vn 0.22841201 0.67353341 0.70297987
vn 0.22841201 -0.67353341 0.70297987
vn 0.00000000 0.67353341 0.73915678
vn -0.00000000 -0.67353341 0.73915678
vn -0.22841201 0.67353341 0.70297987
vn -0.22841201 -0.67353341 0.70297987
vn -0.43446545 0.67353341 0.59799039
vn -0.43446545 -0.67353341 0.59799039
vn -0.59799039 0.67353341 0.43446545
vn -0.59799039 -0.67353341 0.43446545
vn -0.70297987 0.67353341 0.22841201
vn -0.70297987 -0.67353341 0.22841201
vn -0.73915678 0.67353341 0.00000000
vn -0.73915678 -0.67353341 0.00000000
vn -0.70297987 0.67353341 -0.22841201
vn -0.70297987 -0.67353341 -0.22841201
vn -0.59799039 0.67353341 -0.43446545
vn -0.59799039 -0.67353341 -0.43446545
vn -0.43446545 0.67353341 -0.59799039
vn -0.43446545 -0.67353341 -0.59799039
vn -0.22841201 0.67353341 -0.70297987
vn -0.22841201 -0.67353341 -0.70297987
vn -0.00000000 0.67353341 -0.73915678
vn 0.00000000 -0.67353341 -0.73915678
vn 0.22841201 0.67353341 -0.70297987
vn 0.22841201 -0.67353341 -0.70297987
vn 0.43446545 0.67353341 -0.59799039
vn 0.43446545 -0.67353341 -0.59799039
vn 0.59799039 0.67353341 -0.43446545
vn 0.59799039 -0.67353341 -0.43446545
vn 0.70297987 0.67353341 -0.22841201
vn 0.70297987 -0.67353341 -0.22841201
vn 0.00000000 1.00000000 0.00000000
vn 0.73915678 0.67353341 -0.00000000
vn 0.73915678 -0.67353341 0.00000000
vn 0.00000000 -1.00000000 0.00000000
vn 0.70297987 0.67353341 0.22841201
vn 0.70297987 -0.67353341 0.22841201
vn 0.59799039 0.67353341 0.43446545
vn 0.59799039 -0.67353341 0.43446545
vn 0.43446545 0.67353341 0.59799039
vn 0.43446545 -0.67353341 0.59799039
vn 0.22841201 0.67353341 0.70297987
vn 0.22841201 -0.67353341 0.70297987
vn 0.00000000 0.67353341 0.73915678
vn -0.00000000 -0.67353341 0.73915678
vn -0.22841201 0.67353341 0.70297987
vn -0.22841201 -0.67353341 0.70297987
vn -0.43446545 0.67353341 0.59799039
vn -0.43446545 -0.67353341 0.59799039
vn -0.59799039 0.67353341 0.43446545
vn -0.59799039 -0.67353341 0.43446545
vn -0.70297987 0.67353341 0.22841201
vn -0.70297987 -0.67353341 0.22841201
vn -0.73915678 0.67353341 0.00000000
vn -0.73915678 -0.67353341 -0.00000000
vn -0.70297987 0.67353341 -0.22841201
vn -0.70297987 -0.67353341 -0.22841201
vn -0.59799039 0.67353341 -0.43446545
vn -0.59799039 -0.67353341 -0.43446545
vn -0.43446545 0.67353341 -0.59799039
vn -0.43446545 -0.67353341 -0.59799039
vn -0.22841201 0.67353341 -0.70297987
vn -0.22841201 -0.67353341 -0.70297987
vn -0.00000000 0.67353341 -0.73915678
vn 0.00000000 -0.67353341 -0.73915678
vn 0.22841201 0.67353341 -0.70297987
vn 0.22841201 -0.67353341 -0.70297987
vn 0.43446545 0.67353341 -0.59799039
vn 0.43446545 -0.67353341 -0.59799039
vn 0.59799039 0.67353341 -0.43446545
vn 0.59799039 -0.67353341 -0.43446545
vn 0.70297987 0.67353341 -0.22841201
vn 0.70297987 -0.67353341 -0.22841201
f 2//2 1//1 5//5
f 2//2 5//5 3//3
f 3//3 5//5 6//6
f 3//3 6//6 4//4
f 5//5 1//1 7//7
f 5//5 7//7 6//6
f 6//6 7//7 8//8
f 6//6 8//8 4//4
f 7//7 1//1 9//9
f 7//7 9//9 8//8
f 8//8 9//9 10//10
f 8//8 10//10 4//4
f 9//9 1//1 11//11
f 9//9 11//11 10//10
f 10//10 11//11 12//12
f 10//10 12//12 4//4
f 11//11 1//1 13//13
f 11//11 13//13 12//12
f 12//12 13//13 14//14
f 12//12 14//14 4//4
f 13//13 1//1 15//15
f 13//13 15//15 14//14
f 14//14 15//15 16//16
f 14//14 16//16 4//4
f 15//15 1//1 17//17
f 15//15 17//17 16//16
f 16//16 17//17 18//18
f 16//16 18//18 4//4
f 17//17 1//1 19//19
f 17//17 19//19 18//18
f 18//18 19//19 20//20
f 18//18 20//20 4//4
f 19//19 1//1 21//21
f 19//19 21//21 20//20
f 20//20 21//21 22//22
f 20//20 22//22 4//4
f 21//21 1//1 23//23
f 21//21 23//23 22//22
f 22//22 23//23 24//24
f 22//22 24//24 4//4
f 23//23 1//1 25//25
f 23//23 25//25 24//24
f 24//24 25//25 26//26
f 24//24 26//26 4//4
f 25//25 1//1 27//27
f 25//25 27//27 26//26
f 26//26 27//27 28//28
f 26//26 28//28 4//4
f 27//27 1//1 29//29
f 27//27 29//29 28//28
f 28//28 29//29 30//30
f 28//28 30//30 4//4
f 29//29 1//1 31//31
f 29//29 31//31 30//30
f 30//30 31//31 32//32
f 30//30 32//32 4//4
f 31//31 1//1 33//33
f 31//31 33//33 32//32
f 32//32 33//33 34//34
f 32//32 34//34 4//4
f 33//33 1//1 35//35
f 33//33 35//35 34//34
f 34//34 35//35 36//36
f 34//34 36//36 4//4
f 35//35 1//1 37//37
f 35//35 37//37 36//36
f 36//36 37//37 38//38
f 36//36 38//38 4//4
f 37//37 1//1 39//39
f 37//37 39//39 38//38
f 38//38 39//39 40//40
f 38//38 40//40 4//4
f 39//39 1//1 41//41
f 39//39 41//41 40//40
f 40//40 41//41 42//42
f 40//40 42//42 4//4
f 41//41 1//1 43//43
f 41//41 43//43 42//42
f 42//42 43//43 44//44
f 42//42 44//44 4//4
f 43//43 1//1 45//45
f 43//43 45//45 44//44
f 44//44 45//45 46//46
f 44//44 46//46 4//4
f 45//45 1//1 47//47
f 45//45 47//47 46//46
f 46//46 47//47 48//48
f 46//46 48//48 4//4
f 47//47 1//1 49//49
f 47//47 49//49 48//48
f 48//48 49//49 50//50
f 48//48 50//50 4//4
f 49//49 1//1 51//51
f 49//49 51//51 50//50
f 50//50 51//51 52//52
f 50//50 52//52 4//4
f 51//51 1//1 53//53
f 51//51 53//53 52//52
f 52//52 53//53 54//54
f 52//52 54//54 4//4
f 53//53 1//1 55//55
f 53//53 55//55 54//54
f 54//54 55//55 56//56
f 54//54 56//56 4//4
f 55//55 1//1 57//57
f 55//55 57//57 56//56
f 56//56 57//57 58//58
f 56//56 58//58 4//4
f 57//57 1//1 59//59
f 57//57 59//59 58//58
f 58//58 59//59 60//60
f 58//58 60//60 4//4
f 59//59 1//1 61//61
f 59//59 61//61 60//60
f 60//60 61//61 62//62
f 60//60 62//62 4//4
f 61//61 1//1 63//63
f 61//61 63//63 62//62
f 62//62 63//63 64//64
f 62//62 64//64 4//4
f 63//63 1//1 65//65
f 63//63 65//65 64//64
f 64//64 65//65 66//66
f 64//64 66//66 4//4
f 65//65 1//1 67//67
f 65//65 67//67 66//66
f 66//66 67//67 68//68
f 66//66 68//68 4//4
f 67//67 1//1 69//69
f 67//67 69//69 68//68
f 68//68 69//69 70//70
f 68//68 70//70 4//4
f 69//69 1//1 71//71
f 69//69 71//71 70//70
f 70//70 71//71 72//72
f 70//70 72//72 4//4
f 71//71 1//1 73//73
f 71//71 73//73 72//72
f 72//72 73//73 74//74
f 72//72 74//74 4//4
f 73//73 1//1 75//75
f 73//73 75//75 74//74
f 74//74 75//75 76//76
f 74//74 76//76 4//4
f 75//75 1//1 77//77
f 75//75 77//77 76//76
f 76//76 77//77 78//78
f 76//76 78//78 4//4
f 77//77 1//1 79//79
f 77//77 79//79 78//78
f 78//78 79//79 80//80
f 78//78 80//80 4//4
f 79//79 1//1 81//81
f 79//79 81//81 80//80
f 80//80 81//81 82//82
f 80//80 82//82 4//4
f 81//81 1//1 83//83
f 81//81 83//83 82//82
f 82//82 83//83 84//84
f 82//82 84//84 4//4
f 83//83 1//1 85//85
f 83//83 85//85 84//84
f 84//84 85//85 86//86
f 84//84 86//86 4//4
f 85//85 1//1 87//87
f 85//85 87//87 86//86
f 86//86 87//87 88//88
f 86//86 88//88 4//4
f 87//87 1//1 89//89
f 87//87 89//89 88//88
f 88//88 89//89 90//90
f 88//88 90//90 4//4
f 89//89 1//1 91//91
f 89//89 91//91 90//90
f 90//90 91//91 92//92
f 90//90 92//92 4//4
f 91//91 1//1 93//93
f 91//91 93//93 92//92
f 92//92 93//93 94//94
f 92//92 94//94 4//4
f 93//93 1//1 95//95
f 93//93 95//95 94//94
f 94//94 95//95 96//96
f 94//94 96//96 4//4
f 95//95 1//1 97//97
f 95//95 97//97 96//96
f 96//96 97//97 98//98
f 96//96 98//98 4//4
f 97//97 1//1 99//99
f 97//97 99//99 98//98
f 98//98 99//99 100//100
f 98//98 100//100 4//4
f 99//99 1//1 101//101
f 99//99 101//101 100//100
f 100//100 101//101 102//102
f 100//100 102//102 4//4
f 101//101 1//1 103//103
f 101//101 103//103 102//102
f 102//102 103//103 104//104
f 102//102 104//104 4//4
f 103//103 1//1 105//105
f 103//103 105//105 104//104
f 104//104 105//105 106//106
f 104//104 106//106 4//4
f 105//105 1//1 107//107
f 105//105 107//107 106//106
f 106//106 107//107 108//108
f 106//106 108//108 4//4
f 107//107 1//1 109//109
f 107//107 109//109 108//108
f 108//108 109//109 110//110
f 108//108 110//110 4//4
f 109//109 1//1 111//111
f 109//109 111//111 110//110
f 110//110 111//111 112//112
f 110//110 112//112 4//4
f 111//111 1//1 113//113
f 111//111 113//113 112//112
f 112//112 113//113 114//114
f 112//112 114//114 4//4
f 113//113 1//1 115//115
f 113//113 115//115 114//114
f 114//114 115//115 116//116
f 114//114 116//116 4//4
f 115//115 1//1 117//117
f 115//115 117//117 116//116
f 116//116 117//117 118//118
f 116//116 118//118 4//4
f 117//117 1//1 119//119
f 117//117 119//119 118//118
f 118//118 119//119 120//120
f 118//118 120//120 4//4
f 119//119 1//1 121//121
f 119//119 121//121 120//120
f 120//120 121//121 122//122
f 120//120 122//122 4//4
f 121//121 1//1 123//123
f 121//121 123//123 122//122
f 122//122 123//123 124//124
f 122//122 124//124 4//4
f 123//123 1//1 125//125
f 123//123 125//125 124//124
f 124//124 125//125 126//126
f 124//124 126//126 4//4
f 125//125 1//1 127//127
f 125//125 127//127 126//126
f 126//126 127//127 128//128
f 126//126 128//128 4//4
f 127//127 1//1 129//129
f 127//127 129//129 128//128
f 128//128 129//129 130//130
f 128//128 130//130 4//4
f 129//129 1//1 2//2
f 129//129 2//2 130//130
f 130//130 2//2 3//3
f 130//130 3//3 4//4
f 132//132 131//131 135//135
f 132//132 135//135 133//133
f 133//133 135//135 136//136
f 133//133 136//136 134//134
f 135//135 131//131 137//137
f 135//135 137//137 136//136
f 136//136 137//137 138//138
f 136//136 138//138 134//134
f 137//137 131//131 139//139
f 137//137 139//139 138//138
f 138//138 139//139 140//140
f 138//138 140//140 134//134
f 139//139 131//131 141//141
f 139//139 141//141 140//140
f 140//140 141//141 142//142
f 140//140 142//142 134//134
f 141//141 131//131 143//143
f 141//141 143//143 142//142
f 142//142 143//143 144//144
f 142//142 144//144 134//134
f 143//143 131//131 145//145
f 143//143 145//145 144//144
f 144//144 145//145 146//146
f 144//144 146//146 134//134
f 145//145 131//131 147//147
f 145//145 147//147 146//146
f 146//146 147//147 148//148
f 146//146 148//148 134//134
f 147//147 131//131 149//149
f 147//147 149//149 148//148
f 148//148 149//149 150//150
f 148//148 150//150 134//134
f 149//149 131//131 151//151
f 149//149 151//151 150//150
f 150//150 151//151 152//152
f 150//150 152//152 134//134
f 151//151 131//131 153//153
f 151//151 153//153 152//152
f 152//152 153//153 154//154
f 152//152 154//154 134//134
f 153//153 131//131 155//155
f 153//153 155//155 154//154
f 154//154 155//155 156//156
f 154//154 156//156 134//134
f 155//155 131//131 157//157
f 155//155 157//157 156//156
f 156//156 157//157 158//158
f 156//156 158//158 134//134
f 157//157 131//131 159//159
f 157//157 159//159 158//158
f 158//158 159//159 160//160
f 158//158 160//160 134//134
f 159//159 131//131 161//161
f 159//159 161//161 160//160
f 160//160 161//161 162//162
f 160//160 162//162 134//134
f 161//161 131//131 163//163
f 161//161 163//163 162//162
f 162//162 163//163 164//164
f 162//162 164//164 134//134
f 163//163 131//131 165//165
f 163//163 165//165 164//164
f 164//164 165//165 166//166
f 164//164 166//166 134//134
f 165//165 131//131 167//167
f 165//165 167//167 166//166
f 166//166 167//167 168//168
f 166//166 168//168 134//134
f 167//167 131//131 169//169
f 167//167 169//169 168//168
f 168//168 169//169 170//170
f 168//168 170//170 134//134
f 169//169 131//131 171//171
f 169//169 171//171 170//170
f 170//170 171//171 172//172
f 170//170 172//172 134//134
f 171//171 131//131 132//132
f 171//171 132//132 172//172
f 172//172 132//132 133//133
f 172//172 133//133 134//134
f 174//174 173//173 177//177
f 174//174 177//177 175//175
f 175//175 177//177 178//178
f 175//175 178//178 176//176
f 177//177 173//173 179//179
f 177//177 179//179 178//178
f 178//178 179//179 180//180
f 178//178 180//180 176//176
f 179//179 173//173 181//181
f 179//179 181//181 180//180
f 180//180 181//181 182//182
f 180//180 182//182 176//176
f 181//181 173//173 183//183
f 181//181 183//183 182//182
f 182//182 183//183 184//184
f 182//182 184//184 176//176
f 183//183 173//173 185//185
f 183//183 185//185 184//184
f 184//184 185//185 186//186
f 184//184 186//186 176//176
f 185//185 173//173 187//187
f 185//185 187//187 186//186
f 186//186 187//187 188//188
f 186//186 188//188 176//176
f 187//187 173//173 189//189
f 187//187 189//189 188//188
f 188//188 189//189 190//190
f 188//188 190//190 176//176
f 189//189 173//173 191//191
f 189//189 191//191 190//190
f 190//190 191//191 192//192
f 190//190 192//192 176//176
f 191//191 173//173 193//193
f 191//191 193//193 192//192
f 192//192 193//193 194//194
f 192//192 194//194 176//176
f 193//193 173//173 195//195
f 193//193 195//195 194//194
f 194//194 195//195 196//196
f 194//194 196//196 176//176
f 195//195 173//173 197//197
f 195//195 197//197 196//196
f 196//196 197//197 198//198
f 196//196 198//198 176//176
f 197//197 173//173 199//199
f 197//197 199//199 198//198
f 198//198 199//199 200//200
f 198//198 200//200 176//176
f 199//199 173//173 201//201
f 199//199 201//201 200//200
f 200//200 201//201 202//202
f 200//200 202//202 176//176
f 201//201 173//173 203//203
f 201//201 203//203 202//202
f 202//202 203//203 204//204
f 202//202 204//204 176//176
f 203//203 173//173 205//205
f 203//203 205//205 204//204
f 204//204 205//205 206//206
f 204//204 206//206 176//176
f 205//205 173//173 207//207
f 205//205 207//207 206//206
f 206//206 207//207 208//208
f 206//206 208//208 176//176
f 207//207 173//173 209//209
f 207//207 209//209 208//208
f 208//208 209//209 210//210
f 208//208 210//210 176//176
f 209//209 173//173 211//211
f 209//209 211//211 210//210
f 210//210 211//211 212//212
f 210//210 212//212 176//176
f 211//211 173//173 213//213
f 211//211 213//213 212//212
f 212//212 213//213 214//214
f 212//212 214//214 176//176
f 213//213 173//173 174//174
f 213//213 174//174 214//214
f 214//214 174//174 175//175
f 214//214 175//175 176//176
f 216//216 215//215 219//219
f 216//216 219//219 217//217
f 217//217 219//219 220//220
f 217//217 220//220 218//218
f 219//219 215//215 221//221
f 219//219 221//221 220//220
f 220//220 221//221 222//222
f 220//220 222//222 218//218
f 221//221 215//215 223//223
f 221//221 223//223 222//222
f 222//222 223//223 224//224
f 222//222 224//224 218//218
f 223//223 215//215 225//225
f 223//223 225//225 224//224
f 224//224 225//225 226//226
f 224//224 226//226 218//218
f 225//225 215//215 227//227
f 225//225 227//227 226//226
f 226//226 227//227 228//228
f 226//226 228//228 218//218
f 227//227 215//215 229//229
f 227//227 229//229 228//228
f 228//228 229//229 230//230
f 228//228 230//230 218//218
f 229//229 215//215 231//231
f 229//229 231//231 230//230
f 230//230 231//231 232//232
f 230//230 232//232 218//218
f 231//231 215//215 233//233
f 231//231 233//233 232//232
f 232//232 233//233 234//234
f 232//232 234//234 218//218
f 233//233 215//215 235//235
f 233//233 235//235 234//234
f 234//234 235//235 236//236
f 234//234 236//236 218//218
f 235//235 215//215 237//237
f 235//235 237//237 236//236
f 236//236 237//237 238//238
f 236//236 238//238 218//218
f 237//237 215//215 239//239
f 237//237 239//239 238//238
f 238//238 239//239 240//240
f 238//238 240//240 218//218
f 239//239 215//215 241//241
f 239//239 241//241 240//240
f 240//240 241//241 242//242
f 240//240 242//242 218//218
f 241//241 215//215 243//243
f 241//241 243//243 242//242
f 242//242 243//243 244//244
f 242//242 244//244 218//218
f 243//243 215//215 245//245
f 243//243 245//245 244//244
f 244//244 245//245 246//246
f 244//244 246//246 218//218
f 245//245 215//215 247//247
f 245//245 247//247 246//246
f 246//246 247//247 248//248
f 246//246 248//248 218//218
f 247//247 215//215 249//249
f 247//247 249//249 248//248
f 248//248 249//249 250//250
f 248//248 250//250 218//218
f 249//249 215//215 251//251
f 249//249 251//251 250//250
f 250//250 251//251 252//252
f 250//250 252//252 218//218
f 251//251 215//215 253//253
f 251//251 253//253 252//252
f 252//252 253//253 254//254
f 252//252 254//254 218//218
f 253//253 215//215 255//255
f 253//253 255//255 254//254
f 254//254 255//255 256//256
f 254//254 256//256 218//218
f 255//255 215//215 216//216
f 255//255 216//216 256//256
f 256//256 216//216 217//217
f 256//256 217//217 218//218
f 258//258 257//257 261//261
f 258//258 261//261 259//259
f 259//259 261//261 262//262
f 259//259 262//262 260//260
f 261//261 257//257 263//263
f 261//261 263//263 262//262
f 262//262 263//263 264//264
f 262//262 264//264 260//260
f 263//263 257//257 265//265
f 263//263 265//265 264//264
f 264//264 265//265 266//266
f 264//264 266//266 260//260
f 265//265 257//257 267//267
f 265//265 267//267 266//266
f 266//266 267//267 268//268
f 266//266 268//268 260//260
f 267//267 257//257 269//269
f 267//267 269//269 268//268
f 268//268 269//269 270//270
f 268//268 270//270 260//260
f 269//269 257//257 271//271
f 269//269 271//271 270//270
f 270//270 271//271 272//272
f 270//270 272//272 260//260
f 271//271 257//257 273//273
f 271//271 273//273 272//272
f 272//272 273//273 274//274
f 272//272 274//274 260//260
f 273//273 257//257 275//275
f 273//273 275//275 274//274
f 274//274 275//275 276//276
f 274//274 276//276 260//260
f 275//275 257//257 277//277
f 275//275 277//277 276//276
f 276//276 277//277 278//278
f 276//276 278//278 260//260
f 277//277 257//257 279//279
f 277//277 279//279 278//278
f 278//278 279//279 280//280
f 278//278 280//280 260//260
f 279//279 257//257 281//281
f 279//279 281//281 280//280
f 280//280 281//281 282//282
f 280//280 282//282 260//260
f 281//281 257//257 283//283
f 281//281 283//283 282//282
f 282//282 283//283 284//284
f 282//282 284//284 260//260
f 283//283 257//257 285//285
f 283//283 285//285 284//284
f 284//284 285//285 286//286
f 284//284 286//286 260//260
f 285//285 257//257 287//287
f 285//285 287//287 286//286
f 286//286 287//287 288//288
f 286//286 288//288 260//260
f 287//287 257//257 289//289
f 287//287 289//289 288//288
f 288//288 289//289 290//290
f 288//288 290//290 260//260
f 289//289 257//257 291//291
f 289//289 291//291 290//290
f 290//290 291//291 292//292
f 290//290 292//292 260//260
f 291//291 257//257 293//293
f 291//291 293//293 292//292
f 292//292 293//293 294//294
f 292//292 294//294 260//260
f 293//293 257//257 295//295
f 293//293 295//295 294//294
f 294//294 295//295 296//296
f 294//294 296//296 260//260
f 295//295 257//257 297//297
f 295//295 297//297 296//296
f 296//296 297//297 298//298
f 296//296 298//298 260//260
f 297//297 257//257 258//258
f 297//297 258//258 298//298
f 298//298 258//258 259//259
f 298//298 259//259 260//260
f 300//300 299//299 303//303
f 300//300 303//303 301//301
f 301//301 303//303 304//304
f 301//301 304//304 302//302
f 303//303 299//299 305//305
f 303//303 305//305 304//304
f 304//304 305//305 306//306
f 304//304 306//306 302//302
f 305//305 299//299 307//307
f 305//305 307//307 306//306
f 306//306 307//307 308//308
f 306//306 308//308 302//302
f 307//307 299//299 309//309
f 307//307 309//309 308//308
f 308//308 309//309 310//310
f 308//308 310//310 302//302
f 309//309 299//299 311//311
f 309//309 311//311 310//310
f 310//310 311//311 312//312
f 310//310 312//312 302//302
f 311//311 299//299 313//313
f 311//311 313//313 312//312
f 312//312 313//313 314//314
f 312//312 314//314 302//302
f 313//313 299//299 315//315
f 313//313 315//315 314//314
f 314//314 315//315 316//316
f 314//314 316//316 302//302
f 315//315 299//299 317//317
f 315//315 317//317 316//316
f 316//316 317//317 318//318
f 316//316 318//318 302//302
f 317//317 299//299 319//319
f 317//317 319//319 318//318
f 318//318 319//319 320//320
f 318//318 320//320 302//302
f 319//319 299//299 321//321
f 319//319 321//321 320//320
f 320//320 321//321 322//322
f 320//320 322//322 302//302
f 321//321 299//299 323//323
f 321//321 323//323 322//322
f 322//322 323//323 324//324
f 322//322 324//324 302//302
f 323//323 299//299 325//325
f 323//323 325//325 324//324
f 324//324 325//325 326//326
f 324//324 326//326 302//302
f 325//325 299//299 327//327
f 325//325 327//327 326//326
f 326//326 327//327 328//328
f 326//326 328//328 302//302
f 327//327 299//299 329//329
f 327//327 329//329 328//328
f 328//328 329//329 330//330
f 328//328 330//330 302//302
f 329//329 299//299 331//331
f 329//329 331//331 330//330
f 330//330 331//331 332//332
f 330//330 332//332 302//302
f 331//331 299//299 333//333
f 331//331 333//333 332//332
f 332//332 333//333 334//334
f 332//332 334//334 302//302
f 333//333 299//299 335//335
f 333//333 335//335 334//334
f 334//334 335//335 336//336
f 334//334 336//336 302//302
f 335//335 299//299 337//337
f 335//335 337//337 336//336
f 336//336 337//337 338//338
f 336//336 338//338 302//302
f 337//337 299//299 339//339
f 337//337 339//339 338//338
f 338//338 339//339 340//340
f 338//338 340//340 302//302
f 339//339 299//299 300//300
f 339//339 300//300 340//340
f 340//340 300//300 301//301
f 340//340 301//301 302//302
f 342//342 341//341 345//345
f 342//342 345//345 343//343
f 343//343 345//345 346//346
f 343//343 346//346 344//344
f 345//345 341//341 347//347
f 345//345 347//347 346//346
f 346//346 347//347 348//348
f 346//346 348//348 344//344
f 347//347 341//341 349//349
f 347//347 349//349 348//348
f 348//348 349//349 350//350
f 348//348 350//350 344//344
f 349//349 341//341 351//351
f 349//349 351//351 350//350
f 350//350 351//351 352//352
f 350//350 352//352 344//344
f 351//351 341//341 353//353
f 351//351 353//353 352//352
f 352//352 353//353 354//354
f 352//352 354//354 344//344
f 353//353 341//341 355//355
f 353//353 355//355 354//354
f 354//354 355//355 356//356
f 354//354 356//356 344//344
f 355//355 341//341 357//357
f 355//355 357//357 356//356
f 356//356 357//357 358//358
f 356//356 358//358 344//344
f 357//357 341//341 359//359
f 357//357 359//359 358//358
f 358//358 359//359 360//360
f 358//358 360//360 344//344
f 359//359 341//341 361//361
f 359//359 361//361 360//360
f 360//360 361//361 362//362
f 360//360 362//362 344//344
f 361//361 341//341 363//363
f 361//361 363//363 362//362
f 362//362 363//363 364//364
f 362//362 364//364 344//344
f 363//363 341//341 365//365
f 363//363 365//365 364//364
f 364//364 365//365 366//366
f 364//364 366//366 344//344
f 365//365 341//341 367//367
f 365//365 367//367 366//366
f 366//366 367//367 368//368
f 366//366 368//368 344//344
f 367//367 341//341 369//369
f 367//367 369//369 368//368
f 368//368 369//369 370//370
f 368//368 370//370 344//344
f 369//369 341//341 371//371
f 369//369 371//371 370//370
f 370//370 371//371 372//372
f 370//370 372//372 344//344
f 371//371 341//341 373//373
f 371//371 373//373 372//372
f 372//372 373//373 374//374
f 372//372 374//374 344//344
f 373//373 341//341 375//375
f 373//373 375//375 374//374
f 374//374 375//375 376//376
f 374//374 376//376 344//344
f 375//375 341//341 377//377
f 375//375 377//377 376//376
f 376//376 377//377 378//378
f 376//376 378//378 344//344
f 377//377 341//341 379//379
f 377//377 379//379 378//378
f 378//378 379//379 380//380
f 378//378 380//380 344//344
f 379//379 341//341 381//381
f 379//379 381//381 380//380
f 380//380 381//381 382//382
f 380//380 382//382 344//344
f 381//381 341//341 342//342
f 381//381 342//342 382//382
f 382//382 342//342 343//343
f 382//382 343//343 344//344
f 384//384 383//383 387//387
f 384//384 387//387 385//385
f 385//385 387//387 388//388
f 385//385 388//388 386//386
f 387//387 383//383 389//389
f 387//387 389//389 388//388
f 388//388 389//389 390//390
f 388//388 390//390 386//386
f 389//389 383//383 391//391
f 389//389 391//391 390//390
f 390//390 391//391 392//392
f 390//390 392//392 386//386
f 391//391 383//383 393//393
f 391//391 393//393 392//392
f 392//392 393//393 394//394
f 392//392 394//394 386//386
f 393//393 383//383 395//395
f 393//393 395//395 394//394
f 394//394 395//395 396//396
f 394//394 396//396 386//386
f 395//395 383//383 397//397
f 395//395 397//397 396//396
f 396//396 397//397 398//398
f 396//396 398//398 386//386
f 397//397 383//383 399//399
f 397//397 399//399 398//398
f 398//398 399//399 400//400
f 398//398 400//400 386//386
f 399//399 383//383 401//401
f 399//399 401//401 400//400
f 400//400 401//401 402//402
f 400//400 402//402 386//386
f 401//401 383//383 403//403
f 401//401 403//403 402//402
f 402//402 403//403 404//404
f 402//402 404//404 386//386
f 403//403 383//383 405//405
f 403//403 405//405 404//404
f 404//404 405//405 406//406
f 404//404 406//406 386//386
f 405//405 383//383 407//407
f 405//405 407//407 406//406
f 406//406 407//407 408//408
f 406//406 408//408 386//386
f 407//407 383//383 409//409
f 407//407 409//409 408//408
f 408//408 409//409 410//410
f 408//408 410//410 386//386
f 409//409 383//383 411//411
f 409//409 411//411 410//410
f 410//410 411//411 412//412
f 410//410 412//412 386//386
f 411//411 383//383 413//413
f 411//411 413//413 412//412
f 412//412 413//413 414//414
f 412//412 414//414 386//386
f 413//413 383//383 415//415
f 413//413 415//415 414//414
f 414//414 415//415 416//416
f 414//414 416//416 386//386
f 415//415 383//383 417//417
f 415//415 417//417 416//416
f 416//416 417//417 418//418
f 416//416 418//418 386//386
f 417//417 383//383 419//419
f 417//417 419//419 418//418
f 418//418 419//419 420//420
f 418//418 420//420 386//386
f 419//419 383//383 421//421
f 419//419 421//421 420//420
f 420//420 421//421 422//422
f 420//420 422//422 386//386
f 421//421 383//383 423//423
f 421//421 423//423 422//422
f 422//422 423//423 424//424
f 422//422 424//424 386//386
f 423//423 383//383 425//425
f 423//423 425//425 424//424
f 424//424 425//425 426//426
f 424//424 426//426 386//386
f 425//425 383//383 427//427
f 425//425 427//427 426//426
f 426//426 427//427 428//428
f 426//426 428//428 386//386
f 427//427 383//383 429//429
f 427//427 429//429 428//428
f 428//428 429//429 430//430
f 428//428 430//430 386//386
f 429//429 383//383 431//431
f 429//429 431//431 430//430
f 430//430 431//431 432//432
f 430//430 432//432 386//386
f 431//431 383//383 433//433
f 431//431 433//433 432//432
f 432//432 433//433 434//434
f 432//432 434//434 386//386
f 433//433 383//383 435//435
f 433//433 435//435 434//434
f 434//434 435//435 436//436
f 434//434 436//436 386//386
f 435//435 383//383 437//437
f 435//435 437//437 436//436
f 436//436 437//437 438//438
f 436//436 438//438 386//386
f 437//437 383//383 439//439
f 437//437 439//439 438//438
f 438//438 439//439 440//440
f 438//438 440//440 386//386
f 439//439 383//383 441//441
f 439//439 441//441 440//440
f 440//440 441//441 442//442
f 440//440 442//442 386//386
f 441//441 383//383 443//443
f 441//441 443//443 442//442
f 442//442 443//443 444//444
f 442//442 444//444 386//386
f 443//443 383//383 445//445
f 443//443 445//445 444//444
f 444//444 445//445 446//446
f 444//444 446//446 386//386
f 445//445 383//383 447//447
f 445//445 447//447 446//446
f 446//446 447//447 448//448
f 446//446 448//448 386//386
f 447//447 383//383 449//449
f 447//447 449//449 448//448
f 448//448 449//449 450//450
f 448//448 450//450 386//386
f 449//449 383//383 451//451
f 449//449 451//451 450//450
f 450//450 451//451 452//452
f 450//450 452//452 386//386
f 451//451 383//383 453//453
f 451//451 453//453 452//452
f 452//452 453//453 454//454
f 452//452 454//454 386//386
f 453//453 383//383 455//455
f 453//453 455//455 454//454
f 454//454 455//455 456//456
f 454//454 456//456 386//386
f 455//455 383//383 457//457
f 455//455 457//457 456//456
f 456//456 457//457 458//458
f 456//456 458//458 386//386
f 457//457 383//383 459//459
f 457//457 459//459 458//458
f 458//458 459//459 460//460
f 458//458 460//460 386//386
f 459//459 383//383 461//461
f 459//459 461//461 460//460
f 460//460 461//461 462//462
f 460//460 462//462 386//386
f 461//461 383//383 463//463
f 461//461 463//463 462//462
f 462//462 463//463 464//464
f 462//462 464//464 386//386
f 463//463 383//383 465//465
f 463//463 465//465 464//464
f 464//464 465//465 466//466
f 464//464 466//466 386//386
f 465//465 383//383 467//467
f 465//465 467//467 466//466
f 466//466 467//467 468//468
f 466//466 468//468 386//386
f 467//467 383//383 469//469
f 467//467 469//469 468//468
f 468//468 469//469 470//470
f 468//468 470//470 386//386
f 469//469 383//383 471//471
f 469//469 471//471 470//470
f 470//470 471//471 472//472
f 470//470 472//472 386//386
f 471//471 383//383 473//473
f 471//471 473//473 472//472
f 472//472 473//473 474//474
f 472//472 474//474 386//386
f 473//473 383//383 475//475
f 473//473 475//475 474//474
f 474//474 475//475 476//476
f 474//474 476//476 386//386
f 475//475 383//383 477//477
f 475//475 477//477 476//476
f 476//476 477//477 478//478
f 476//476 478//478 386//386
f 477//477 383//383 479//479
f 477//477 479//479 478//478
f 478//478 479//479 480//480
f 478//478 480//480 386//386
f 479//479 383//383 481//481
f 479//479 481//481 480//480
f 480//480 481//481 482//482
f 480//480 482//482 386//386
f 481//481 383//383 483//483
f 481//481 483//483 482//482
f 482//482 483//483 484//484
f 482//482 484//484 386//386
f 483//483 383//383 485//485
f 483//483 485//485 484//484
f 484//484 485//485 486//486
f 484//484 486//486 386//386
f 485//485 383//383 487//487
f 485//485 487//487 486//486
f 486//486 487//487 488//488
f 486//486 488//488 386//386
f 487//487 383//383 489//489
f 487//487 489//489 488//488
f 488//488 489//489 490//490
f 488//488 490//490 386//386
f 489//489 383//383 491//491
f 489//489 491//491 490//490
f 490//490 491//491 492//492
f 490//490 492//492 386//386
f 491//491 383//383 493//493
f 491//491 493//493 492//492
f 492//492 493//493 494//494
f 492//492 494//494 386//386
f 493//493 383//383 495//495
f 493//493 495//495 494//494
f 494//494 495//495 496//496
f 494//494 496//496 386//386
f 495//495 383//383 497//497
f 495//495 497//497 496//496
f 496//496 497//497 498//498
f 496//496 498//498 386//386
f 497//497 383//383 499//499
f 497//497 499//499 498//498
f 498//498 499//499 500//500
f 498//498 500//500 386//386
f 499//499 383//383 501//501
f 499//499 501//501 500//500
f 500//500 501//501 502//502
f 500//500 502//502 386//386
f 501//501 383//383 503//503
f 501//501 503//503 502//502
f 502//502 503//503 504//504
f 502//502 504//504 386//386
f 503//503 383//383 505//505
f 503//503 505//505 504//504
f 504//504 505//505 506//506
f 504//504 506//506 386//386
f 505//505 383//383 507//507
f 505//505 507//507 506//506
f 506//506 507//507 508//508
f 506//506 508//508 386//386
f 507//507 383//383 509//509
f 507//507 509//509 508//508
f 508//508 509//509 510//510
f 508//508 510//510 386//386
f 509//509 383//383 511//511
f 509//509 511//511 510//510
f 510//510 511//511 512//512
f 510//510 512//512 386//386
f 511//511 383//383 384//384
f 511//511 384//384 512//512
f 512//512 384//384 385//385
f 512//512 385//385 386//386
f 514//514 513//513 517//517
f 514//514 517//517 515//515
f 515//515 517//517 518//518
f 515//515 518//518 516//516
f 517//517 513//513 519//519
f 517//517 519//519 518//518
f 518//518 519//519 520//520
f 518//518 520//520 516//516
f 519//519 513//513 521//521
f 519//519 521//521 520//520
f 520//520 521//521 522//522
f 520//520 522//522 516//516
f 521//521 513//513 523//523
f 521//521 523//523 522//522
f 522//522 523//523 524//524
f 522//522 524//524 516//516
f 523//523 513//513 525//525
f 523//523 525//525 524//524
f 524//524 525//525 526//526
f 524//524 526//526 516//516
f 525//525 513//513 527//527
f 525//525 527//527 526//526
f 526//526 527//527 528//528
f 526//526 528//528 516//516
f 527//527 513//513 529//529
f 527//527 529//529 528//528
f 528//528 529//529 530//530
f 528//528 530//530 516//516
f 529//529 513//513 531//531
f 529//529 531//531 530//530
f 530//530 531//531 532//532
f 530//530 532//532 516//516
f 531//531 513//513 533//533
f 531//531 533//533 532//532
f 532//532 533//533 534//534
f 532//532 534//534 516//516
f 533//533 513//513 535//535
f 533//533 535//535 534//534
f 534//534 535//535 536//536
f 534//534 536//536 516//516
f 535//535 513//513 537//537
f 535//535 537//537 536//536
f 536//536 537//537 538//538
f 536//536 538//538 516//516
f 537//537 513//513 539//539
f 537//537 539//539 538//538
f 538//538 539//539 540//540
f 538//538 540//540 516//516
f 539//539 513//513 541//541
f 539//539 541//541 540//540
f 540//540 541//541 542//542
f 540//540 542//542 516//516
f 541//541 513//513 543//543
f 541//541 543//543 542//542
f 542//542 543//543 544//544
f 542//542 544//544 516//516
f 543//543 513//513 545//545
f 543//543 545//545 544//544
f 544//544 545//545 546//546
f 544//544 546//546 516//516
f 545//545 513//513 547//547
f 545//545 547//547 546//546
f 546//546 547//547 548//548
f 546//546 548//548 516//516
f 547//547 513//513 549//549
f 547//547 549//549 548//548
f 548//548 549//549 550//550
f 548//548 550//550 516//516
f 549//549 513//513 551//551
f 549//549 551//551 550//550
f 550//550 551//551 552//552
f 550//550 552//552 516//516
f 551//551 513//513 553//553
f 551//551 553//553 552//552
f 552//552 553//553 554//554
f 552//552 554//554 516//516
f 553//553 513//513 514//514
f 553//553 514//514 554//554
f 554//554 514//514 515//515
f 554//554 515//515 516//516
f 556//556 555//555 559//559
f 556//556 559//559 557//557
f 557//557 559//559 560//560
f 557//557 560//560 558//558
f 559//559 555//555 561//561
f 559//559 561//561 560//560
f 560//560 561//561 562//562
f 560//560 562//562 558//558
f 561//561 555//555 563//563
f 561//561 563//563 562//562
f 562//562 563//563 564//564
f 562//562 564//564 558//558
f 563//563 555//555 565//565
f 563//563 565//565 564//564
f 564//564 565//565 566//566
f 564//564 566//566 558//558
f 565//565 555//555 567//567
f 565//565 567//567 566//566
f 566//566 567//567 568//568
f 566//566 568//568 558//558
f 567//567 555//555 569//569
f 567//567 569//569 568//568
f 568//568 569//569 570//570
f 568//568 570//570 558//558
f 569//569 555//555 571//571
f 569//569 571//571 570//570
f 570//570 571//571 572//572
f 570//570 572//572 558//558
f 571//571 555//555 573//573
f 571//571 573//573 572//572
f 572//572 573//573 574//574
f 572//572 574//574 558//558
f 573//573 555//555 575//575
f 573//573 575//575 574//574
f 574//574 575//575 576//576
f 574//574 576//576 558//558
f 575//575 555//555 577//577
f 575//575 577//577 576//576
f 576//576 577//577 578//578
f 576//576 578//578 558//558
f 577//577 555//555 579//579
f 577//577 579//579 578//578
f 578//578 579//579 580//580
f 578//578 580//580 558//558
f 579//579 555//555 581//581
f 579//579 581//581 580//580
f 580//580 581//581 582//582
f 580//580 582//582 558//558
f 581//581 555//555 583//583
f 581//581 583//583 582//582
f 582//582 583//583 584//584
f 582//582 584//584 558//558
f 583//583 555//555 585//585
f 583//583 585//585 584//584
f 584//584 585//585 586//586
f 584//584 586//586 558//558
f 585//585 555//555 587//587
f 585//585 587//587 586//586
f 586//586 587//587 588//588
f 586//586 588//588 558//558
f 587//587 555//555 589//589
f 587//587 589//589 588//588
f 588//588 589//589 590//590
f 588//588 590//590 558//558
f 589//589 555//555 591//591
f 589//589 591//591 590//590
f 590//590 591//591 592//592
f 590//590 592//592 558//558
f 591//591 555//555 593//593
f 591//591 593//593 592//592
f 592//592 593//593 594//594
f 592//592 594//594 558//558
f 593//593 555//555 595//595
f 593//593 595//595 594//594
f 594//594 595//595 596//596
f 594//594 596//596 558//558
f 595//595 555//555 556//556
f 595//595 556//556 596//596
f 596//596 556//556 557//557
f 596//596 557//557 558//558
f 598//598 597//597 601//601
f 598//598 601//601 599//599
f 599//599 601//601 602//602
f 599//599 602//602 600//600
f 601//601 597//597 603//603
f 601//601 603//603 602//602
f 602//602 603//603 604//604
f 602//602 604//604 600//600
f 603//603 597//597 605//605
f 603//603 605//605 604//604
f 604//604 605//605 606//606
f 604//604 606//606 600//600
f 605//605 597//597 607//607
f 605//605 607//607 606//606
f 606//606 607//607 608//608
f 606//606 608//608 600//600
f 607//607 597//597 609//609
f 607//607 609//609 608//608
f 608//608 609//609 610//610
f 608//608 610//610 600//600
f 609//609 597//597 611//611
f 609//609 611//611 610//610
f 610//610 611//611 612//612
f 610//610 612//612 600//600
f 611//611 597//597 613//613
f 611//611 613//613 612//612
f 612//612 613//613 614//614
f 612//612 614//614 600//600
f 613//613 597//597 615//615
f 613//613 615//615 614//614
f 614//614 615//615 616//616
f 614//614 616//616 600//600
f 615//615 597//597 617//617
f 615//615 617//617 616//616
f 616//616 617//617 618//618
f 616//616 618//618 600//600
f 617//617 597//597 619//619
f 617//617 619//619 618//618
f 618//618 619//619 620//620
f 618//618 620//620 600//600
f 619//619 597//597 621//621
f 619//619 621//621 620//620
f 620//620 621//621 622//622
f 620//620 622//622 600//600
f 621//621 597//597 623//623
f 621//621 623//623 622//622
f 622//622 623//623 624//624
f 622//622 624//624 600//600
f 623//623 597//597 625//625
f 623//623 625//625 624//624
f 624//624 625//625 626//626
f 624//624 626//626 600//600
f 625//625 597//597 627//627
f 625//625 627//627 626//626
f 626//626 627//627 628//628
f 626//626 628//628 600//600
f 627//627 597//597 629//629
f 627//627 629//629 628//628
f 628//628 629//629 630//630
f 628//628 630//630 600//600
f 629//629 597//597 631//631
f 629//629 631//631 630//630
f 630//630 631//631 632//632
f 630//630 632//632 600//600
f 631//631 597//597 633//633
f 631//631 633//633 632//632
f 632//632 633//633 634//634
f 632//632 634//634 600//600
f 633//633 597//597 635//635
f 633//633 635//635 634//634
f 634//634 635//635 636//636
f 634//634 636//636 600//600
f 635//635 597//597 637//637
f 635//635 637//637 636//636
f 636//636 637//637 638//638
f 636//636 638//638 600//600
f 637//637 597//597 598//598
f 637//637 598//598 638//638
f 638//638 598//598 599//599
f 638//638 599//599 600//600
f 640//640 639//639 643//643
f 640//640 643//643 641//641
f 641//641 643//643 644//644
f 641//641 644//644 642//642
f 643//643 639//639 645//645
f 643//643 645//645 644//644
f 644//644 645//645 646//646
f 644//644 646//646 642//642
f 645//645 639//639 647//647
f 645//645 647//647 646//646
f 646//646 647//647 648//648
f 646//646 648//648 642//642
f 647//647 639//639 649//649
f 647//647 649//649 648//648
f 648//648 649//649 650//650
f 648//648 650//650 642//642
f 649//649 639//639 651//651
f 649//649 651//651 650//650
f 650//650 651//651 652//652
f 650//650 652//652 642//642
f 651//651 639//639 653//653
f 651//651 653//653 652//652
f 652//652 653//653 654//654
f 652//652 654//654 642//642
f 653//653 639//639 655//655
f 653//653 655//655 654//654
f 654//654 655//655 656//656
f 654//654 656//656 642//642
f 655//655 639//639 657//657
f 655//655 657//657 656//656
f 656//656 657//657 658//658
f 656//656 658//658 642//642
f 657//657 639//639 659//659
f 657//657 659//659 658//658
f 658//658 659//659 660//660
f 658//658 660//660 642//642
f 659//659 639//639 661//661
f 659//659 661//661 660//660
f 660//660 661//661 662//662
f 660//660 662//662 642//642
f 661//661 639//639 663//663
f 661//661 663//663 662//662
f 662//662 663//663 664//664
f 662//662 664//664 642//642
f 663//663 639//639 665//665
f 663//663 665//665 664//664
f 664//664 665//665 666//666
f 664//664 666//666 642//642
f 665//665 639//639 667//667
f 665//665 667//667 666//666
f 666//666 667//667 668//668
f 666//666 668//668 642//642
f 667//667 639//639 669//669
f 667//667 669//669 668//668
f 668//668 669//669 670//670
f 668//668 670//670 642//642
f 669//669 639//639 671//671
f 669//669 671//671 670//670
f 670//670 671//671 672//672
f 670//670 672//672 642//642
f 671//671 639//639 673//673
f 671//671 673//673 672//672
f 672//672 673//673 674//674
f 672//672 674//674 642//642
f 673//673 639//639 675//675
f 673//673 675//675 674//674
f 674//674 675//675 676//676
f 674//674 676//676 642//642
f 675//675 639//639 677//677
f 675//675 677//677 676//676
f 676//676 677//677 678//678
f 676//676 678//678 642//642
f 677//677 639//639 679//679
f 677//677 679//679 678//678
f 678//678 679//679 680//680
f 678//678 680//680 642//642
f 679//679 639//639 640//640
f 679//679 640//640 680//680
f 680//680 640//640 641//641
f 680//680 641//641 642//642
f 682//682 681//681 685//685
f 682//682 685//685 683//683
f 683//683 685//685 686//686
f 683//683 686//686 684//684
f 685//685 681//681 687//687
f 685//685 687//687 686//686
f 686//686 687//687 688//688
f 686//686 688//688 684//684
f 687//687 681//681 689//689
f 687//687 689//689 688//688
f 688//688 689//689 690//690
f 688//688 690//690 684//684
f 689//689 681//681 691//691
f 689//689 691//691 690//690
f 690//690 691//691 692//692
f 690//690 692//692 684//684
f 691//691 681//681 693//693
f 691//691 693//693 692//692
f 692//692 693//693 694//694
f 692//692 694//694 684//684
f 693//693 681//681 695//695
f 693//693 695//695 694//694
f 694//694 695//695 696//696
f 694//694 696//696 684//684
f 695//695 681//681 697//697
f 695//695 697//697 696//696
f 696//696 697//697 698//698
f 696//696 698//698 684//684
f 697//697 681//681 699//699
f 697//697 699//699 698//698
f 698//698 699//699 700//700
f 698//698 700//700 684//684
f 699//699 681//681 701//701
f 699//699 701//701 700//700
f 700//700 701//701 702//702
f 700//700 702//702 684//684
f 701//701 681//681 703//703
f 701//701 703//703 702//702
f 702//702 703//703 704//704
f 702//702 704//704 684//684
f 703//703 681//681 705//705
f 703//703 705//705 704//704
f 704//704 705//705 706//706
f 704//704 706//706 684//684
f 705//705 681//681 707//707
f 705//705 707//707 706//706
f 706//706 707//707 708//708
f 706//706 708//708 684//684
f 707//707 681//681 709//709
f 707//707 709//709 708//708
f 708//708 709//709 710//710
f 708//708 710//710 684//684
f 709//709 681//681 711//711
f 709//709 711//711 710//710
f 710//710 711//711 712//712
f 710//710 712//712 684//684
f 711//711 681//681 713//713
f 711//711 713//713 712//712
f 712//712 713//713 714//714
f 712//712 714//714 684//684
f 713//713 681//681 715//715
f 713//713 715//715 714//714
f 714//714 715//715 716//716
f 714//714 716//716 684//684
f 715//715 681//681 717//717
f 715//715 717//717 716//716
f 716//716 717//717 718//718
f 716//716 718//718 684//684
f 717//717 681//681 719//719
f 717//717 719//719 718//718
f 718//718 719//719 720//720
f 718//718 720//720 684//684
f 719//719 681//681 721//721
f 719//719 721//721 720//720
f 720//720 721//721 722//722
f 720//720 722//722 684//684
f 721//721 681//681 682//682
f 721//721 682//682 722//722
f 722//722 682//682 683//683
f 722//722 683//683 684//684
f 724//724 723//723 727//727
f 724//724 727//727 725//725
f 725//725 727//727 728//728
f 725//725 728//728 726//726
f 727//727 723//723 729//729
f 727//727 729//729 728//728
f 728//728 729//729 730//730
f 728//728 730//730 726//726
f 729//729 723//723 731//731
f 729//729 731//731 730//730
f 730//730 731//731 732//732
f 730//730 732//732 726//726
f 731//731 723//723 733//733
f 731//731 733//733 732//732
f 732//732 733//733 734//734
f 732//732 734//734 726//726
f 733//733 723//723 735//735
f 733//733 735//735 734//734
f 734//734 735//735 736//736
f 734//734 736//736 726//726
f 735//735 723//723 737//737
f 735//735 737//737 736//736
f 736//736 737//737 738//738
f 736//736 738//738 726//726
f 737//737 723//723 739//739
f 737//737 739//739 738//738
f 738//738 739//739 740//740
f 738//738 740//740 726//726
f 739//739 723//723 741//741
f 739//739 741//741 740//740
f 740//740 741//741 742//742
f 740//740 742//742 726//726
f 741//741 723//723 743//743
f 741//741 743//743 742//742
f 742//742 743//743 744//744
f 742//742 744//744 726//726
f 743//743 723//723 745//745
f 743//743 745//745 744//744
f 744//744 745//745 746//746
f 744//744 746//746 726//726
f 745//745 723//723 747//747
f 745//745 747//747 746//746
f 746//746 747//747 748//748
f 746//746 748//748 726//726
f 747//747 723//723 749//749
f 747//747 749//749 748//748
f 748//748 749//749 750//750
f 748//748 750//750 726//726
f 749//749 723//723 751//751
f 749//749 751//751 750//750
f 750//750 751//751 752//752
f 750//750 752//752 726//726
f 751//751 723//723 753//753
f 751//751 753//753 752//752
f 752//752 753//753 754//754
f 752//752 754//754 726//726
f 753//753 723//723 755//755
f 753//753 755//755 754//754
f 754//754 755//755 756//756
f 754//754 756//756 726//726
f 755//755 723//723 757//757
f 755//755 757//757 756//756
f 756//756 757//757 758//758
f 756//756 758//758 726//726
f 757//757 723//723 759//759
f 757//757 759//759 758//758
f 758//758 759//759 760//760
f 758//758 760//760 726//726
f 759//759 723//723 761//761
f 759//759 761//761 760//760
f 760//760 761//761 762//762
f 760//760 762//762 726//726
f 761//761 723//723 763//763
f 761//761 763//763 762//762
f 762//762 763//763 764//764
f 762//762 764//764 726//726
f 763//763 723//723 724//724
f 763//763 724//724 764//764
f 764//764 724//724 725//725
f 764//764 725//725 726//726

